%TF.GenerationSoftware,KiCad,Pcbnew,7.0.2*%
%TF.CreationDate,2023-05-24T09:17:06+02:00*%
%TF.ProjectId,PCB_Ewine,5043425f-4577-4696-9e65-2e6b69636164,rev?*%
%TF.SameCoordinates,Original*%
%TF.FileFunction,Drillmap*%
%TF.FilePolarity,Positive*%
%FSLAX45Y45*%
G04 Gerber Fmt 4.5, Leading zero omitted, Abs format (unit mm)*
G04 Created by KiCad (PCBNEW 7.0.2) date 2023-05-24 09:17:06*
%MOMM*%
%LPD*%
G01*
G04 APERTURE LIST*
%ADD10C,0.100000*%
%ADD11C,0.200000*%
G04 APERTURE END LIST*
D10*
X12985000Y-3500000D02*
X15500000Y-3500000D01*
X15500000Y-5350000D01*
X12985000Y-5350000D01*
X12985000Y-3500000D01*
D11*
X13227619Y-5667524D02*
X13227619Y-5467524D01*
X13227619Y-5467524D02*
X13275238Y-5467524D01*
X13275238Y-5467524D02*
X13303809Y-5477048D01*
X13303809Y-5477048D02*
X13322857Y-5496095D01*
X13322857Y-5496095D02*
X13332381Y-5515143D01*
X13332381Y-5515143D02*
X13341905Y-5553238D01*
X13341905Y-5553238D02*
X13341905Y-5581810D01*
X13341905Y-5581810D02*
X13332381Y-5619905D01*
X13332381Y-5619905D02*
X13322857Y-5638952D01*
X13322857Y-5638952D02*
X13303809Y-5658000D01*
X13303809Y-5658000D02*
X13275238Y-5667524D01*
X13275238Y-5667524D02*
X13227619Y-5667524D01*
X13427619Y-5667524D02*
X13427619Y-5534190D01*
X13427619Y-5572286D02*
X13437143Y-5553238D01*
X13437143Y-5553238D02*
X13446667Y-5543714D01*
X13446667Y-5543714D02*
X13465714Y-5534190D01*
X13465714Y-5534190D02*
X13484762Y-5534190D01*
X13551428Y-5667524D02*
X13551428Y-5534190D01*
X13551428Y-5467524D02*
X13541905Y-5477048D01*
X13541905Y-5477048D02*
X13551428Y-5486571D01*
X13551428Y-5486571D02*
X13560952Y-5477048D01*
X13560952Y-5477048D02*
X13551428Y-5467524D01*
X13551428Y-5467524D02*
X13551428Y-5486571D01*
X13675238Y-5667524D02*
X13656190Y-5658000D01*
X13656190Y-5658000D02*
X13646667Y-5638952D01*
X13646667Y-5638952D02*
X13646667Y-5467524D01*
X13780000Y-5667524D02*
X13760952Y-5658000D01*
X13760952Y-5658000D02*
X13751428Y-5638952D01*
X13751428Y-5638952D02*
X13751428Y-5467524D01*
X14008571Y-5667524D02*
X14008571Y-5467524D01*
X14008571Y-5467524D02*
X14075238Y-5610381D01*
X14075238Y-5610381D02*
X14141905Y-5467524D01*
X14141905Y-5467524D02*
X14141905Y-5667524D01*
X14322857Y-5667524D02*
X14322857Y-5562762D01*
X14322857Y-5562762D02*
X14313333Y-5543714D01*
X14313333Y-5543714D02*
X14294286Y-5534190D01*
X14294286Y-5534190D02*
X14256190Y-5534190D01*
X14256190Y-5534190D02*
X14237143Y-5543714D01*
X14322857Y-5658000D02*
X14303809Y-5667524D01*
X14303809Y-5667524D02*
X14256190Y-5667524D01*
X14256190Y-5667524D02*
X14237143Y-5658000D01*
X14237143Y-5658000D02*
X14227619Y-5638952D01*
X14227619Y-5638952D02*
X14227619Y-5619905D01*
X14227619Y-5619905D02*
X14237143Y-5600857D01*
X14237143Y-5600857D02*
X14256190Y-5591333D01*
X14256190Y-5591333D02*
X14303809Y-5591333D01*
X14303809Y-5591333D02*
X14322857Y-5581810D01*
X14418095Y-5534190D02*
X14418095Y-5734190D01*
X14418095Y-5543714D02*
X14437143Y-5534190D01*
X14437143Y-5534190D02*
X14475238Y-5534190D01*
X14475238Y-5534190D02*
X14494286Y-5543714D01*
X14494286Y-5543714D02*
X14503809Y-5553238D01*
X14503809Y-5553238D02*
X14513333Y-5572286D01*
X14513333Y-5572286D02*
X14513333Y-5629428D01*
X14513333Y-5629428D02*
X14503809Y-5648476D01*
X14503809Y-5648476D02*
X14494286Y-5658000D01*
X14494286Y-5658000D02*
X14475238Y-5667524D01*
X14475238Y-5667524D02*
X14437143Y-5667524D01*
X14437143Y-5667524D02*
X14418095Y-5658000D01*
X14599048Y-5648476D02*
X14608571Y-5658000D01*
X14608571Y-5658000D02*
X14599048Y-5667524D01*
X14599048Y-5667524D02*
X14589524Y-5658000D01*
X14589524Y-5658000D02*
X14599048Y-5648476D01*
X14599048Y-5648476D02*
X14599048Y-5667524D01*
X14599048Y-5543714D02*
X14608571Y-5553238D01*
X14608571Y-5553238D02*
X14599048Y-5562762D01*
X14599048Y-5562762D02*
X14589524Y-5553238D01*
X14589524Y-5553238D02*
X14599048Y-5543714D01*
X14599048Y-5543714D02*
X14599048Y-5562762D01*
M02*
