%TF.GenerationSoftware,KiCad,Pcbnew,7.0.2*%
%TF.CreationDate,2023-05-24T09:17:06+02:00*%
%TF.ProjectId,PCB_Ewine,5043425f-4577-4696-9e65-2e6b69636164,rev?*%
%TF.SameCoordinates,Original*%
%TF.FileFunction,Drillmap*%
%TF.FilePolarity,Positive*%
%FSLAX45Y45*%
G04 Gerber Fmt 4.5, Leading zero omitted, Abs format (unit mm)*
G04 Created by KiCad (PCBNEW 7.0.2) date 2023-05-24 09:17:06*
%MOMM*%
%LPD*%
G01*
G04 APERTURE LIST*
%ADD10C,0.100000*%
%ADD11C,0.200000*%
%ADD12C,0.060000*%
%ADD13C,0.069000*%
G04 APERTURE END LIST*
D10*
X12985000Y-3500000D02*
X15500000Y-3500000D01*
X15500000Y-5350000D01*
X12985000Y-5350000D01*
X12985000Y-3500000D01*
D11*
D12*
X13230000Y-4840000D02*
X13290000Y-4900000D01*
X13290000Y-4840000D02*
X13230000Y-4900000D01*
X13240000Y-5000000D02*
X13300000Y-5060000D01*
X13300000Y-5000000D02*
X13240000Y-5060000D01*
X13740000Y-4680000D02*
X13800000Y-4740000D01*
X13800000Y-4680000D02*
X13740000Y-4740000D01*
X13740000Y-4890000D02*
X13800000Y-4950000D01*
X13800000Y-4890000D02*
X13740000Y-4950000D01*
X13930000Y-4380000D02*
X13990000Y-4440000D01*
X13990000Y-4380000D02*
X13930000Y-4440000D01*
X14610000Y-4600000D02*
X14670000Y-4660000D01*
X14670000Y-4600000D02*
X14610000Y-4660000D01*
X14680000Y-3840000D02*
X14740000Y-3900000D01*
X14740000Y-3840000D02*
X14680000Y-3900000D01*
X14710000Y-4970000D02*
X14770000Y-5030000D01*
X14770000Y-4970000D02*
X14710000Y-5030000D01*
X14720000Y-5140000D02*
X14780000Y-5200000D01*
X14780000Y-5140000D02*
X14720000Y-5200000D01*
D13*
X13280500Y-4014000D02*
G75*
G03*
X13280500Y-4014000I-34500J0D01*
G01*
X13534500Y-3760000D02*
G75*
G03*
X13534500Y-3760000I-34500J0D01*
G01*
X13534500Y-4268000D02*
G75*
G03*
X13534500Y-4268000I-34500J0D01*
G01*
X13788500Y-4014000D02*
G75*
G03*
X13788500Y-4014000I-34500J0D01*
G01*
D10*
X15016000Y-4298000D02*
X15016000Y-4398000D01*
X14966000Y-4348000D02*
X15066000Y-4348000D01*
X15016000Y-4552000D02*
X15016000Y-4652000D01*
X14966000Y-4602000D02*
X15066000Y-4602000D01*
X15016000Y-4806000D02*
X15016000Y-4906000D01*
X14966000Y-4856000D02*
X15066000Y-4856000D01*
X15016000Y-5060000D02*
X15016000Y-5160000D01*
X14966000Y-5110000D02*
X15066000Y-5110000D01*
X15270000Y-4298000D02*
X15270000Y-4398000D01*
X15220000Y-4348000D02*
X15320000Y-4348000D01*
X15270000Y-4552000D02*
X15270000Y-4652000D01*
X15220000Y-4602000D02*
X15320000Y-4602000D01*
X15270000Y-4806000D02*
X15270000Y-4906000D01*
X15220000Y-4856000D02*
X15320000Y-4856000D01*
X15270000Y-5060000D02*
X15270000Y-5160000D01*
X15220000Y-5110000D02*
X15320000Y-5110000D01*
D11*
X13227619Y-5667524D02*
X13227619Y-5467524D01*
X13227619Y-5467524D02*
X13275238Y-5467524D01*
X13275238Y-5467524D02*
X13303809Y-5477048D01*
X13303809Y-5477048D02*
X13322857Y-5496095D01*
X13322857Y-5496095D02*
X13332381Y-5515143D01*
X13332381Y-5515143D02*
X13341905Y-5553238D01*
X13341905Y-5553238D02*
X13341905Y-5581810D01*
X13341905Y-5581810D02*
X13332381Y-5619905D01*
X13332381Y-5619905D02*
X13322857Y-5638952D01*
X13322857Y-5638952D02*
X13303809Y-5658000D01*
X13303809Y-5658000D02*
X13275238Y-5667524D01*
X13275238Y-5667524D02*
X13227619Y-5667524D01*
X13427619Y-5667524D02*
X13427619Y-5534190D01*
X13427619Y-5572286D02*
X13437143Y-5553238D01*
X13437143Y-5553238D02*
X13446667Y-5543714D01*
X13446667Y-5543714D02*
X13465714Y-5534190D01*
X13465714Y-5534190D02*
X13484762Y-5534190D01*
X13551428Y-5667524D02*
X13551428Y-5534190D01*
X13551428Y-5467524D02*
X13541905Y-5477048D01*
X13541905Y-5477048D02*
X13551428Y-5486571D01*
X13551428Y-5486571D02*
X13560952Y-5477048D01*
X13560952Y-5477048D02*
X13551428Y-5467524D01*
X13551428Y-5467524D02*
X13551428Y-5486571D01*
X13675238Y-5667524D02*
X13656190Y-5658000D01*
X13656190Y-5658000D02*
X13646667Y-5638952D01*
X13646667Y-5638952D02*
X13646667Y-5467524D01*
X13780000Y-5667524D02*
X13760952Y-5658000D01*
X13760952Y-5658000D02*
X13751428Y-5638952D01*
X13751428Y-5638952D02*
X13751428Y-5467524D01*
X14008571Y-5667524D02*
X14008571Y-5467524D01*
X14008571Y-5467524D02*
X14075238Y-5610381D01*
X14075238Y-5610381D02*
X14141905Y-5467524D01*
X14141905Y-5467524D02*
X14141905Y-5667524D01*
X14322857Y-5667524D02*
X14322857Y-5562762D01*
X14322857Y-5562762D02*
X14313333Y-5543714D01*
X14313333Y-5543714D02*
X14294286Y-5534190D01*
X14294286Y-5534190D02*
X14256190Y-5534190D01*
X14256190Y-5534190D02*
X14237143Y-5543714D01*
X14322857Y-5658000D02*
X14303809Y-5667524D01*
X14303809Y-5667524D02*
X14256190Y-5667524D01*
X14256190Y-5667524D02*
X14237143Y-5658000D01*
X14237143Y-5658000D02*
X14227619Y-5638952D01*
X14227619Y-5638952D02*
X14227619Y-5619905D01*
X14227619Y-5619905D02*
X14237143Y-5600857D01*
X14237143Y-5600857D02*
X14256190Y-5591333D01*
X14256190Y-5591333D02*
X14303809Y-5591333D01*
X14303809Y-5591333D02*
X14322857Y-5581810D01*
X14418095Y-5534190D02*
X14418095Y-5734190D01*
X14418095Y-5543714D02*
X14437143Y-5534190D01*
X14437143Y-5534190D02*
X14475238Y-5534190D01*
X14475238Y-5534190D02*
X14494286Y-5543714D01*
X14494286Y-5543714D02*
X14503809Y-5553238D01*
X14503809Y-5553238D02*
X14513333Y-5572286D01*
X14513333Y-5572286D02*
X14513333Y-5629428D01*
X14513333Y-5629428D02*
X14503809Y-5648476D01*
X14503809Y-5648476D02*
X14494286Y-5658000D01*
X14494286Y-5658000D02*
X14475238Y-5667524D01*
X14475238Y-5667524D02*
X14437143Y-5667524D01*
X14437143Y-5667524D02*
X14418095Y-5658000D01*
X14599048Y-5648476D02*
X14608571Y-5658000D01*
X14608571Y-5658000D02*
X14599048Y-5667524D01*
X14599048Y-5667524D02*
X14589524Y-5658000D01*
X14589524Y-5658000D02*
X14599048Y-5648476D01*
X14599048Y-5648476D02*
X14599048Y-5667524D01*
X14599048Y-5543714D02*
X14608571Y-5553238D01*
X14608571Y-5553238D02*
X14599048Y-5562762D01*
X14599048Y-5562762D02*
X14589524Y-5553238D01*
X14589524Y-5553238D02*
X14599048Y-5543714D01*
X14599048Y-5543714D02*
X14599048Y-5562762D01*
D12*
X12920000Y-5965000D02*
X12980000Y-6025000D01*
X12980000Y-5965000D02*
X12920000Y-6025000D01*
D11*
X13265714Y-5887524D02*
X13284762Y-5887524D01*
X13284762Y-5887524D02*
X13303809Y-5897048D01*
X13303809Y-5897048D02*
X13313333Y-5906571D01*
X13313333Y-5906571D02*
X13322857Y-5925619D01*
X13322857Y-5925619D02*
X13332381Y-5963714D01*
X13332381Y-5963714D02*
X13332381Y-6011333D01*
X13332381Y-6011333D02*
X13322857Y-6049428D01*
X13322857Y-6049428D02*
X13313333Y-6068476D01*
X13313333Y-6068476D02*
X13303809Y-6078000D01*
X13303809Y-6078000D02*
X13284762Y-6087524D01*
X13284762Y-6087524D02*
X13265714Y-6087524D01*
X13265714Y-6087524D02*
X13246667Y-6078000D01*
X13246667Y-6078000D02*
X13237143Y-6068476D01*
X13237143Y-6068476D02*
X13227619Y-6049428D01*
X13227619Y-6049428D02*
X13218095Y-6011333D01*
X13218095Y-6011333D02*
X13218095Y-5963714D01*
X13218095Y-5963714D02*
X13227619Y-5925619D01*
X13227619Y-5925619D02*
X13237143Y-5906571D01*
X13237143Y-5906571D02*
X13246667Y-5897048D01*
X13246667Y-5897048D02*
X13265714Y-5887524D01*
X13418095Y-6068476D02*
X13427619Y-6078000D01*
X13427619Y-6078000D02*
X13418095Y-6087524D01*
X13418095Y-6087524D02*
X13408571Y-6078000D01*
X13408571Y-6078000D02*
X13418095Y-6068476D01*
X13418095Y-6068476D02*
X13418095Y-6087524D01*
X13599048Y-5887524D02*
X13560952Y-5887524D01*
X13560952Y-5887524D02*
X13541905Y-5897048D01*
X13541905Y-5897048D02*
X13532381Y-5906571D01*
X13532381Y-5906571D02*
X13513333Y-5935143D01*
X13513333Y-5935143D02*
X13503809Y-5973238D01*
X13503809Y-5973238D02*
X13503809Y-6049428D01*
X13503809Y-6049428D02*
X13513333Y-6068476D01*
X13513333Y-6068476D02*
X13522857Y-6078000D01*
X13522857Y-6078000D02*
X13541905Y-6087524D01*
X13541905Y-6087524D02*
X13580000Y-6087524D01*
X13580000Y-6087524D02*
X13599048Y-6078000D01*
X13599048Y-6078000D02*
X13608571Y-6068476D01*
X13608571Y-6068476D02*
X13618095Y-6049428D01*
X13618095Y-6049428D02*
X13618095Y-6001809D01*
X13618095Y-6001809D02*
X13608571Y-5982762D01*
X13608571Y-5982762D02*
X13599048Y-5973238D01*
X13599048Y-5973238D02*
X13580000Y-5963714D01*
X13580000Y-5963714D02*
X13541905Y-5963714D01*
X13541905Y-5963714D02*
X13522857Y-5973238D01*
X13522857Y-5973238D02*
X13513333Y-5982762D01*
X13513333Y-5982762D02*
X13503809Y-6001809D01*
X13741905Y-5887524D02*
X13760952Y-5887524D01*
X13760952Y-5887524D02*
X13780000Y-5897048D01*
X13780000Y-5897048D02*
X13789524Y-5906571D01*
X13789524Y-5906571D02*
X13799048Y-5925619D01*
X13799048Y-5925619D02*
X13808571Y-5963714D01*
X13808571Y-5963714D02*
X13808571Y-6011333D01*
X13808571Y-6011333D02*
X13799048Y-6049428D01*
X13799048Y-6049428D02*
X13789524Y-6068476D01*
X13789524Y-6068476D02*
X13780000Y-6078000D01*
X13780000Y-6078000D02*
X13760952Y-6087524D01*
X13760952Y-6087524D02*
X13741905Y-6087524D01*
X13741905Y-6087524D02*
X13722857Y-6078000D01*
X13722857Y-6078000D02*
X13713333Y-6068476D01*
X13713333Y-6068476D02*
X13703809Y-6049428D01*
X13703809Y-6049428D02*
X13694286Y-6011333D01*
X13694286Y-6011333D02*
X13694286Y-5963714D01*
X13694286Y-5963714D02*
X13703809Y-5925619D01*
X13703809Y-5925619D02*
X13713333Y-5906571D01*
X13713333Y-5906571D02*
X13722857Y-5897048D01*
X13722857Y-5897048D02*
X13741905Y-5887524D01*
X13932381Y-5887524D02*
X13951429Y-5887524D01*
X13951429Y-5887524D02*
X13970476Y-5897048D01*
X13970476Y-5897048D02*
X13980000Y-5906571D01*
X13980000Y-5906571D02*
X13989524Y-5925619D01*
X13989524Y-5925619D02*
X13999048Y-5963714D01*
X13999048Y-5963714D02*
X13999048Y-6011333D01*
X13999048Y-6011333D02*
X13989524Y-6049428D01*
X13989524Y-6049428D02*
X13980000Y-6068476D01*
X13980000Y-6068476D02*
X13970476Y-6078000D01*
X13970476Y-6078000D02*
X13951429Y-6087524D01*
X13951429Y-6087524D02*
X13932381Y-6087524D01*
X13932381Y-6087524D02*
X13913333Y-6078000D01*
X13913333Y-6078000D02*
X13903809Y-6068476D01*
X13903809Y-6068476D02*
X13894286Y-6049428D01*
X13894286Y-6049428D02*
X13884762Y-6011333D01*
X13884762Y-6011333D02*
X13884762Y-5963714D01*
X13884762Y-5963714D02*
X13894286Y-5925619D01*
X13894286Y-5925619D02*
X13903809Y-5906571D01*
X13903809Y-5906571D02*
X13913333Y-5897048D01*
X13913333Y-5897048D02*
X13932381Y-5887524D01*
X14084762Y-6087524D02*
X14084762Y-5954190D01*
X14084762Y-5973238D02*
X14094286Y-5963714D01*
X14094286Y-5963714D02*
X14113333Y-5954190D01*
X14113333Y-5954190D02*
X14141905Y-5954190D01*
X14141905Y-5954190D02*
X14160952Y-5963714D01*
X14160952Y-5963714D02*
X14170476Y-5982762D01*
X14170476Y-5982762D02*
X14170476Y-6087524D01*
X14170476Y-5982762D02*
X14180000Y-5963714D01*
X14180000Y-5963714D02*
X14199048Y-5954190D01*
X14199048Y-5954190D02*
X14227619Y-5954190D01*
X14227619Y-5954190D02*
X14246667Y-5963714D01*
X14246667Y-5963714D02*
X14256190Y-5982762D01*
X14256190Y-5982762D02*
X14256190Y-6087524D01*
X14351429Y-6087524D02*
X14351429Y-5954190D01*
X14351429Y-5973238D02*
X14360952Y-5963714D01*
X14360952Y-5963714D02*
X14380000Y-5954190D01*
X14380000Y-5954190D02*
X14408571Y-5954190D01*
X14408571Y-5954190D02*
X14427619Y-5963714D01*
X14427619Y-5963714D02*
X14437143Y-5982762D01*
X14437143Y-5982762D02*
X14437143Y-6087524D01*
X14437143Y-5982762D02*
X14446667Y-5963714D01*
X14446667Y-5963714D02*
X14465714Y-5954190D01*
X14465714Y-5954190D02*
X14494286Y-5954190D01*
X14494286Y-5954190D02*
X14513333Y-5963714D01*
X14513333Y-5963714D02*
X14522857Y-5982762D01*
X14522857Y-5982762D02*
X14522857Y-6087524D01*
X14913333Y-5878000D02*
X14741905Y-6135143D01*
X15170476Y-5887524D02*
X15189524Y-5887524D01*
X15189524Y-5887524D02*
X15208572Y-5897048D01*
X15208572Y-5897048D02*
X15218095Y-5906571D01*
X15218095Y-5906571D02*
X15227619Y-5925619D01*
X15227619Y-5925619D02*
X15237143Y-5963714D01*
X15237143Y-5963714D02*
X15237143Y-6011333D01*
X15237143Y-6011333D02*
X15227619Y-6049428D01*
X15227619Y-6049428D02*
X15218095Y-6068476D01*
X15218095Y-6068476D02*
X15208572Y-6078000D01*
X15208572Y-6078000D02*
X15189524Y-6087524D01*
X15189524Y-6087524D02*
X15170476Y-6087524D01*
X15170476Y-6087524D02*
X15151429Y-6078000D01*
X15151429Y-6078000D02*
X15141905Y-6068476D01*
X15141905Y-6068476D02*
X15132381Y-6049428D01*
X15132381Y-6049428D02*
X15122857Y-6011333D01*
X15122857Y-6011333D02*
X15122857Y-5963714D01*
X15122857Y-5963714D02*
X15132381Y-5925619D01*
X15132381Y-5925619D02*
X15141905Y-5906571D01*
X15141905Y-5906571D02*
X15151429Y-5897048D01*
X15151429Y-5897048D02*
X15170476Y-5887524D01*
X15322857Y-6068476D02*
X15332381Y-6078000D01*
X15332381Y-6078000D02*
X15322857Y-6087524D01*
X15322857Y-6087524D02*
X15313333Y-6078000D01*
X15313333Y-6078000D02*
X15322857Y-6068476D01*
X15322857Y-6068476D02*
X15322857Y-6087524D01*
X15456191Y-5887524D02*
X15475238Y-5887524D01*
X15475238Y-5887524D02*
X15494286Y-5897048D01*
X15494286Y-5897048D02*
X15503810Y-5906571D01*
X15503810Y-5906571D02*
X15513333Y-5925619D01*
X15513333Y-5925619D02*
X15522857Y-5963714D01*
X15522857Y-5963714D02*
X15522857Y-6011333D01*
X15522857Y-6011333D02*
X15513333Y-6049428D01*
X15513333Y-6049428D02*
X15503810Y-6068476D01*
X15503810Y-6068476D02*
X15494286Y-6078000D01*
X15494286Y-6078000D02*
X15475238Y-6087524D01*
X15475238Y-6087524D02*
X15456191Y-6087524D01*
X15456191Y-6087524D02*
X15437143Y-6078000D01*
X15437143Y-6078000D02*
X15427619Y-6068476D01*
X15427619Y-6068476D02*
X15418095Y-6049428D01*
X15418095Y-6049428D02*
X15408572Y-6011333D01*
X15408572Y-6011333D02*
X15408572Y-5963714D01*
X15408572Y-5963714D02*
X15418095Y-5925619D01*
X15418095Y-5925619D02*
X15427619Y-5906571D01*
X15427619Y-5906571D02*
X15437143Y-5897048D01*
X15437143Y-5897048D02*
X15456191Y-5887524D01*
X15599048Y-5906571D02*
X15608572Y-5897048D01*
X15608572Y-5897048D02*
X15627619Y-5887524D01*
X15627619Y-5887524D02*
X15675238Y-5887524D01*
X15675238Y-5887524D02*
X15694286Y-5897048D01*
X15694286Y-5897048D02*
X15703810Y-5906571D01*
X15703810Y-5906571D02*
X15713333Y-5925619D01*
X15713333Y-5925619D02*
X15713333Y-5944667D01*
X15713333Y-5944667D02*
X15703810Y-5973238D01*
X15703810Y-5973238D02*
X15589524Y-6087524D01*
X15589524Y-6087524D02*
X15713333Y-6087524D01*
X15780000Y-5887524D02*
X15903810Y-5887524D01*
X15903810Y-5887524D02*
X15837143Y-5963714D01*
X15837143Y-5963714D02*
X15865714Y-5963714D01*
X15865714Y-5963714D02*
X15884762Y-5973238D01*
X15884762Y-5973238D02*
X15894286Y-5982762D01*
X15894286Y-5982762D02*
X15903810Y-6001809D01*
X15903810Y-6001809D02*
X15903810Y-6049428D01*
X15903810Y-6049428D02*
X15894286Y-6068476D01*
X15894286Y-6068476D02*
X15884762Y-6078000D01*
X15884762Y-6078000D02*
X15865714Y-6087524D01*
X15865714Y-6087524D02*
X15808572Y-6087524D01*
X15808572Y-6087524D02*
X15789524Y-6078000D01*
X15789524Y-6078000D02*
X15780000Y-6068476D01*
X16075238Y-5887524D02*
X16037143Y-5887524D01*
X16037143Y-5887524D02*
X16018095Y-5897048D01*
X16018095Y-5897048D02*
X16008572Y-5906571D01*
X16008572Y-5906571D02*
X15989524Y-5935143D01*
X15989524Y-5935143D02*
X15980000Y-5973238D01*
X15980000Y-5973238D02*
X15980000Y-6049428D01*
X15980000Y-6049428D02*
X15989524Y-6068476D01*
X15989524Y-6068476D02*
X15999048Y-6078000D01*
X15999048Y-6078000D02*
X16018095Y-6087524D01*
X16018095Y-6087524D02*
X16056191Y-6087524D01*
X16056191Y-6087524D02*
X16075238Y-6078000D01*
X16075238Y-6078000D02*
X16084762Y-6068476D01*
X16084762Y-6068476D02*
X16094286Y-6049428D01*
X16094286Y-6049428D02*
X16094286Y-6001809D01*
X16094286Y-6001809D02*
X16084762Y-5982762D01*
X16084762Y-5982762D02*
X16075238Y-5973238D01*
X16075238Y-5973238D02*
X16056191Y-5963714D01*
X16056191Y-5963714D02*
X16018095Y-5963714D01*
X16018095Y-5963714D02*
X15999048Y-5973238D01*
X15999048Y-5973238D02*
X15989524Y-5982762D01*
X15989524Y-5982762D02*
X15980000Y-6001809D01*
X16170476Y-5887524D02*
X16170476Y-5925619D01*
X16246667Y-5887524D02*
X16246667Y-5925619D01*
X16541905Y-6163714D02*
X16532381Y-6154190D01*
X16532381Y-6154190D02*
X16513334Y-6125619D01*
X16513334Y-6125619D02*
X16503810Y-6106571D01*
X16503810Y-6106571D02*
X16494286Y-6078000D01*
X16494286Y-6078000D02*
X16484762Y-6030381D01*
X16484762Y-6030381D02*
X16484762Y-5992286D01*
X16484762Y-5992286D02*
X16494286Y-5944667D01*
X16494286Y-5944667D02*
X16503810Y-5916095D01*
X16503810Y-5916095D02*
X16513334Y-5897048D01*
X16513334Y-5897048D02*
X16532381Y-5868476D01*
X16532381Y-5868476D02*
X16541905Y-5858952D01*
X16627619Y-6087524D02*
X16665714Y-6087524D01*
X16665714Y-6087524D02*
X16684762Y-6078000D01*
X16684762Y-6078000D02*
X16694286Y-6068476D01*
X16694286Y-6068476D02*
X16713334Y-6039905D01*
X16713334Y-6039905D02*
X16722857Y-6001809D01*
X16722857Y-6001809D02*
X16722857Y-5925619D01*
X16722857Y-5925619D02*
X16713334Y-5906571D01*
X16713334Y-5906571D02*
X16703810Y-5897048D01*
X16703810Y-5897048D02*
X16684762Y-5887524D01*
X16684762Y-5887524D02*
X16646667Y-5887524D01*
X16646667Y-5887524D02*
X16627619Y-5897048D01*
X16627619Y-5897048D02*
X16618095Y-5906571D01*
X16618095Y-5906571D02*
X16608572Y-5925619D01*
X16608572Y-5925619D02*
X16608572Y-5973238D01*
X16608572Y-5973238D02*
X16618095Y-5992286D01*
X16618095Y-5992286D02*
X16627619Y-6001809D01*
X16627619Y-6001809D02*
X16646667Y-6011333D01*
X16646667Y-6011333D02*
X16684762Y-6011333D01*
X16684762Y-6011333D02*
X16703810Y-6001809D01*
X16703810Y-6001809D02*
X16713334Y-5992286D01*
X16713334Y-5992286D02*
X16722857Y-5973238D01*
X16960953Y-6087524D02*
X16960953Y-5887524D01*
X17046667Y-6087524D02*
X17046667Y-5982762D01*
X17046667Y-5982762D02*
X17037143Y-5963714D01*
X17037143Y-5963714D02*
X17018096Y-5954190D01*
X17018096Y-5954190D02*
X16989524Y-5954190D01*
X16989524Y-5954190D02*
X16970477Y-5963714D01*
X16970477Y-5963714D02*
X16960953Y-5973238D01*
X17170477Y-6087524D02*
X17151429Y-6078000D01*
X17151429Y-6078000D02*
X17141905Y-6068476D01*
X17141905Y-6068476D02*
X17132381Y-6049428D01*
X17132381Y-6049428D02*
X17132381Y-5992286D01*
X17132381Y-5992286D02*
X17141905Y-5973238D01*
X17141905Y-5973238D02*
X17151429Y-5963714D01*
X17151429Y-5963714D02*
X17170477Y-5954190D01*
X17170477Y-5954190D02*
X17199048Y-5954190D01*
X17199048Y-5954190D02*
X17218096Y-5963714D01*
X17218096Y-5963714D02*
X17227619Y-5973238D01*
X17227619Y-5973238D02*
X17237143Y-5992286D01*
X17237143Y-5992286D02*
X17237143Y-6049428D01*
X17237143Y-6049428D02*
X17227619Y-6068476D01*
X17227619Y-6068476D02*
X17218096Y-6078000D01*
X17218096Y-6078000D02*
X17199048Y-6087524D01*
X17199048Y-6087524D02*
X17170477Y-6087524D01*
X17351429Y-6087524D02*
X17332381Y-6078000D01*
X17332381Y-6078000D02*
X17322858Y-6058952D01*
X17322858Y-6058952D02*
X17322858Y-5887524D01*
X17503810Y-6078000D02*
X17484762Y-6087524D01*
X17484762Y-6087524D02*
X17446667Y-6087524D01*
X17446667Y-6087524D02*
X17427619Y-6078000D01*
X17427619Y-6078000D02*
X17418096Y-6058952D01*
X17418096Y-6058952D02*
X17418096Y-5982762D01*
X17418096Y-5982762D02*
X17427619Y-5963714D01*
X17427619Y-5963714D02*
X17446667Y-5954190D01*
X17446667Y-5954190D02*
X17484762Y-5954190D01*
X17484762Y-5954190D02*
X17503810Y-5963714D01*
X17503810Y-5963714D02*
X17513334Y-5982762D01*
X17513334Y-5982762D02*
X17513334Y-6001809D01*
X17513334Y-6001809D02*
X17418096Y-6020857D01*
X17589524Y-6078000D02*
X17608572Y-6087524D01*
X17608572Y-6087524D02*
X17646667Y-6087524D01*
X17646667Y-6087524D02*
X17665715Y-6078000D01*
X17665715Y-6078000D02*
X17675239Y-6058952D01*
X17675239Y-6058952D02*
X17675239Y-6049428D01*
X17675239Y-6049428D02*
X17665715Y-6030381D01*
X17665715Y-6030381D02*
X17646667Y-6020857D01*
X17646667Y-6020857D02*
X17618096Y-6020857D01*
X17618096Y-6020857D02*
X17599048Y-6011333D01*
X17599048Y-6011333D02*
X17589524Y-5992286D01*
X17589524Y-5992286D02*
X17589524Y-5982762D01*
X17589524Y-5982762D02*
X17599048Y-5963714D01*
X17599048Y-5963714D02*
X17618096Y-5954190D01*
X17618096Y-5954190D02*
X17646667Y-5954190D01*
X17646667Y-5954190D02*
X17665715Y-5963714D01*
X17741905Y-6163714D02*
X17751429Y-6154190D01*
X17751429Y-6154190D02*
X17770477Y-6125619D01*
X17770477Y-6125619D02*
X17780000Y-6106571D01*
X17780000Y-6106571D02*
X17789524Y-6078000D01*
X17789524Y-6078000D02*
X17799048Y-6030381D01*
X17799048Y-6030381D02*
X17799048Y-5992286D01*
X17799048Y-5992286D02*
X17789524Y-5944667D01*
X17789524Y-5944667D02*
X17780000Y-5916095D01*
X17780000Y-5916095D02*
X17770477Y-5897048D01*
X17770477Y-5897048D02*
X17751429Y-5868476D01*
X17751429Y-5868476D02*
X17741905Y-5858952D01*
D13*
X12980000Y-6259000D02*
G75*
G03*
X12980000Y-6259000I-34500J0D01*
G01*
D11*
X13265714Y-6151524D02*
X13284762Y-6151524D01*
X13284762Y-6151524D02*
X13303809Y-6161048D01*
X13303809Y-6161048D02*
X13313333Y-6170571D01*
X13313333Y-6170571D02*
X13322857Y-6189619D01*
X13322857Y-6189619D02*
X13332381Y-6227714D01*
X13332381Y-6227714D02*
X13332381Y-6275333D01*
X13332381Y-6275333D02*
X13322857Y-6313428D01*
X13322857Y-6313428D02*
X13313333Y-6332476D01*
X13313333Y-6332476D02*
X13303809Y-6342000D01*
X13303809Y-6342000D02*
X13284762Y-6351524D01*
X13284762Y-6351524D02*
X13265714Y-6351524D01*
X13265714Y-6351524D02*
X13246667Y-6342000D01*
X13246667Y-6342000D02*
X13237143Y-6332476D01*
X13237143Y-6332476D02*
X13227619Y-6313428D01*
X13227619Y-6313428D02*
X13218095Y-6275333D01*
X13218095Y-6275333D02*
X13218095Y-6227714D01*
X13218095Y-6227714D02*
X13227619Y-6189619D01*
X13227619Y-6189619D02*
X13237143Y-6170571D01*
X13237143Y-6170571D02*
X13246667Y-6161048D01*
X13246667Y-6161048D02*
X13265714Y-6151524D01*
X13418095Y-6332476D02*
X13427619Y-6342000D01*
X13427619Y-6342000D02*
X13418095Y-6351524D01*
X13418095Y-6351524D02*
X13408571Y-6342000D01*
X13408571Y-6342000D02*
X13418095Y-6332476D01*
X13418095Y-6332476D02*
X13418095Y-6351524D01*
X13599048Y-6151524D02*
X13560952Y-6151524D01*
X13560952Y-6151524D02*
X13541905Y-6161048D01*
X13541905Y-6161048D02*
X13532381Y-6170571D01*
X13532381Y-6170571D02*
X13513333Y-6199143D01*
X13513333Y-6199143D02*
X13503809Y-6237238D01*
X13503809Y-6237238D02*
X13503809Y-6313428D01*
X13503809Y-6313428D02*
X13513333Y-6332476D01*
X13513333Y-6332476D02*
X13522857Y-6342000D01*
X13522857Y-6342000D02*
X13541905Y-6351524D01*
X13541905Y-6351524D02*
X13580000Y-6351524D01*
X13580000Y-6351524D02*
X13599048Y-6342000D01*
X13599048Y-6342000D02*
X13608571Y-6332476D01*
X13608571Y-6332476D02*
X13618095Y-6313428D01*
X13618095Y-6313428D02*
X13618095Y-6265809D01*
X13618095Y-6265809D02*
X13608571Y-6246762D01*
X13608571Y-6246762D02*
X13599048Y-6237238D01*
X13599048Y-6237238D02*
X13580000Y-6227714D01*
X13580000Y-6227714D02*
X13541905Y-6227714D01*
X13541905Y-6227714D02*
X13522857Y-6237238D01*
X13522857Y-6237238D02*
X13513333Y-6246762D01*
X13513333Y-6246762D02*
X13503809Y-6265809D01*
X13713333Y-6351524D02*
X13751428Y-6351524D01*
X13751428Y-6351524D02*
X13770476Y-6342000D01*
X13770476Y-6342000D02*
X13780000Y-6332476D01*
X13780000Y-6332476D02*
X13799048Y-6303905D01*
X13799048Y-6303905D02*
X13808571Y-6265809D01*
X13808571Y-6265809D02*
X13808571Y-6189619D01*
X13808571Y-6189619D02*
X13799048Y-6170571D01*
X13799048Y-6170571D02*
X13789524Y-6161048D01*
X13789524Y-6161048D02*
X13770476Y-6151524D01*
X13770476Y-6151524D02*
X13732381Y-6151524D01*
X13732381Y-6151524D02*
X13713333Y-6161048D01*
X13713333Y-6161048D02*
X13703809Y-6170571D01*
X13703809Y-6170571D02*
X13694286Y-6189619D01*
X13694286Y-6189619D02*
X13694286Y-6237238D01*
X13694286Y-6237238D02*
X13703809Y-6256286D01*
X13703809Y-6256286D02*
X13713333Y-6265809D01*
X13713333Y-6265809D02*
X13732381Y-6275333D01*
X13732381Y-6275333D02*
X13770476Y-6275333D01*
X13770476Y-6275333D02*
X13789524Y-6265809D01*
X13789524Y-6265809D02*
X13799048Y-6256286D01*
X13799048Y-6256286D02*
X13808571Y-6237238D01*
X13932381Y-6151524D02*
X13951429Y-6151524D01*
X13951429Y-6151524D02*
X13970476Y-6161048D01*
X13970476Y-6161048D02*
X13980000Y-6170571D01*
X13980000Y-6170571D02*
X13989524Y-6189619D01*
X13989524Y-6189619D02*
X13999048Y-6227714D01*
X13999048Y-6227714D02*
X13999048Y-6275333D01*
X13999048Y-6275333D02*
X13989524Y-6313428D01*
X13989524Y-6313428D02*
X13980000Y-6332476D01*
X13980000Y-6332476D02*
X13970476Y-6342000D01*
X13970476Y-6342000D02*
X13951429Y-6351524D01*
X13951429Y-6351524D02*
X13932381Y-6351524D01*
X13932381Y-6351524D02*
X13913333Y-6342000D01*
X13913333Y-6342000D02*
X13903809Y-6332476D01*
X13903809Y-6332476D02*
X13894286Y-6313428D01*
X13894286Y-6313428D02*
X13884762Y-6275333D01*
X13884762Y-6275333D02*
X13884762Y-6227714D01*
X13884762Y-6227714D02*
X13894286Y-6189619D01*
X13894286Y-6189619D02*
X13903809Y-6170571D01*
X13903809Y-6170571D02*
X13913333Y-6161048D01*
X13913333Y-6161048D02*
X13932381Y-6151524D01*
X14084762Y-6351524D02*
X14084762Y-6218190D01*
X14084762Y-6237238D02*
X14094286Y-6227714D01*
X14094286Y-6227714D02*
X14113333Y-6218190D01*
X14113333Y-6218190D02*
X14141905Y-6218190D01*
X14141905Y-6218190D02*
X14160952Y-6227714D01*
X14160952Y-6227714D02*
X14170476Y-6246762D01*
X14170476Y-6246762D02*
X14170476Y-6351524D01*
X14170476Y-6246762D02*
X14180000Y-6227714D01*
X14180000Y-6227714D02*
X14199048Y-6218190D01*
X14199048Y-6218190D02*
X14227619Y-6218190D01*
X14227619Y-6218190D02*
X14246667Y-6227714D01*
X14246667Y-6227714D02*
X14256190Y-6246762D01*
X14256190Y-6246762D02*
X14256190Y-6351524D01*
X14351429Y-6351524D02*
X14351429Y-6218190D01*
X14351429Y-6237238D02*
X14360952Y-6227714D01*
X14360952Y-6227714D02*
X14380000Y-6218190D01*
X14380000Y-6218190D02*
X14408571Y-6218190D01*
X14408571Y-6218190D02*
X14427619Y-6227714D01*
X14427619Y-6227714D02*
X14437143Y-6246762D01*
X14437143Y-6246762D02*
X14437143Y-6351524D01*
X14437143Y-6246762D02*
X14446667Y-6227714D01*
X14446667Y-6227714D02*
X14465714Y-6218190D01*
X14465714Y-6218190D02*
X14494286Y-6218190D01*
X14494286Y-6218190D02*
X14513333Y-6227714D01*
X14513333Y-6227714D02*
X14522857Y-6246762D01*
X14522857Y-6246762D02*
X14522857Y-6351524D01*
X14913333Y-6142000D02*
X14741905Y-6399143D01*
X15170476Y-6151524D02*
X15189524Y-6151524D01*
X15189524Y-6151524D02*
X15208572Y-6161048D01*
X15208572Y-6161048D02*
X15218095Y-6170571D01*
X15218095Y-6170571D02*
X15227619Y-6189619D01*
X15227619Y-6189619D02*
X15237143Y-6227714D01*
X15237143Y-6227714D02*
X15237143Y-6275333D01*
X15237143Y-6275333D02*
X15227619Y-6313428D01*
X15227619Y-6313428D02*
X15218095Y-6332476D01*
X15218095Y-6332476D02*
X15208572Y-6342000D01*
X15208572Y-6342000D02*
X15189524Y-6351524D01*
X15189524Y-6351524D02*
X15170476Y-6351524D01*
X15170476Y-6351524D02*
X15151429Y-6342000D01*
X15151429Y-6342000D02*
X15141905Y-6332476D01*
X15141905Y-6332476D02*
X15132381Y-6313428D01*
X15132381Y-6313428D02*
X15122857Y-6275333D01*
X15122857Y-6275333D02*
X15122857Y-6227714D01*
X15122857Y-6227714D02*
X15132381Y-6189619D01*
X15132381Y-6189619D02*
X15141905Y-6170571D01*
X15141905Y-6170571D02*
X15151429Y-6161048D01*
X15151429Y-6161048D02*
X15170476Y-6151524D01*
X15322857Y-6332476D02*
X15332381Y-6342000D01*
X15332381Y-6342000D02*
X15322857Y-6351524D01*
X15322857Y-6351524D02*
X15313333Y-6342000D01*
X15313333Y-6342000D02*
X15322857Y-6332476D01*
X15322857Y-6332476D02*
X15322857Y-6351524D01*
X15456191Y-6151524D02*
X15475238Y-6151524D01*
X15475238Y-6151524D02*
X15494286Y-6161048D01*
X15494286Y-6161048D02*
X15503810Y-6170571D01*
X15503810Y-6170571D02*
X15513333Y-6189619D01*
X15513333Y-6189619D02*
X15522857Y-6227714D01*
X15522857Y-6227714D02*
X15522857Y-6275333D01*
X15522857Y-6275333D02*
X15513333Y-6313428D01*
X15513333Y-6313428D02*
X15503810Y-6332476D01*
X15503810Y-6332476D02*
X15494286Y-6342000D01*
X15494286Y-6342000D02*
X15475238Y-6351524D01*
X15475238Y-6351524D02*
X15456191Y-6351524D01*
X15456191Y-6351524D02*
X15437143Y-6342000D01*
X15437143Y-6342000D02*
X15427619Y-6332476D01*
X15427619Y-6332476D02*
X15418095Y-6313428D01*
X15418095Y-6313428D02*
X15408572Y-6275333D01*
X15408572Y-6275333D02*
X15408572Y-6227714D01*
X15408572Y-6227714D02*
X15418095Y-6189619D01*
X15418095Y-6189619D02*
X15427619Y-6170571D01*
X15427619Y-6170571D02*
X15437143Y-6161048D01*
X15437143Y-6161048D02*
X15456191Y-6151524D01*
X15599048Y-6170571D02*
X15608572Y-6161048D01*
X15608572Y-6161048D02*
X15627619Y-6151524D01*
X15627619Y-6151524D02*
X15675238Y-6151524D01*
X15675238Y-6151524D02*
X15694286Y-6161048D01*
X15694286Y-6161048D02*
X15703810Y-6170571D01*
X15703810Y-6170571D02*
X15713333Y-6189619D01*
X15713333Y-6189619D02*
X15713333Y-6208667D01*
X15713333Y-6208667D02*
X15703810Y-6237238D01*
X15703810Y-6237238D02*
X15589524Y-6351524D01*
X15589524Y-6351524D02*
X15713333Y-6351524D01*
X15780000Y-6151524D02*
X15913333Y-6151524D01*
X15913333Y-6151524D02*
X15827619Y-6351524D01*
X15980000Y-6170571D02*
X15989524Y-6161048D01*
X15989524Y-6161048D02*
X16008572Y-6151524D01*
X16008572Y-6151524D02*
X16056191Y-6151524D01*
X16056191Y-6151524D02*
X16075238Y-6161048D01*
X16075238Y-6161048D02*
X16084762Y-6170571D01*
X16084762Y-6170571D02*
X16094286Y-6189619D01*
X16094286Y-6189619D02*
X16094286Y-6208667D01*
X16094286Y-6208667D02*
X16084762Y-6237238D01*
X16084762Y-6237238D02*
X15970476Y-6351524D01*
X15970476Y-6351524D02*
X16094286Y-6351524D01*
X16170476Y-6151524D02*
X16170476Y-6189619D01*
X16246667Y-6151524D02*
X16246667Y-6189619D01*
X16541905Y-6427714D02*
X16532381Y-6418190D01*
X16532381Y-6418190D02*
X16513334Y-6389619D01*
X16513334Y-6389619D02*
X16503810Y-6370571D01*
X16503810Y-6370571D02*
X16494286Y-6342000D01*
X16494286Y-6342000D02*
X16484762Y-6294381D01*
X16484762Y-6294381D02*
X16484762Y-6256286D01*
X16484762Y-6256286D02*
X16494286Y-6208667D01*
X16494286Y-6208667D02*
X16503810Y-6180095D01*
X16503810Y-6180095D02*
X16513334Y-6161048D01*
X16513334Y-6161048D02*
X16532381Y-6132476D01*
X16532381Y-6132476D02*
X16541905Y-6122952D01*
X16703810Y-6218190D02*
X16703810Y-6351524D01*
X16656191Y-6142000D02*
X16608572Y-6284857D01*
X16608572Y-6284857D02*
X16732381Y-6284857D01*
X16960953Y-6351524D02*
X16960953Y-6151524D01*
X17046667Y-6351524D02*
X17046667Y-6246762D01*
X17046667Y-6246762D02*
X17037143Y-6227714D01*
X17037143Y-6227714D02*
X17018096Y-6218190D01*
X17018096Y-6218190D02*
X16989524Y-6218190D01*
X16989524Y-6218190D02*
X16970477Y-6227714D01*
X16970477Y-6227714D02*
X16960953Y-6237238D01*
X17170477Y-6351524D02*
X17151429Y-6342000D01*
X17151429Y-6342000D02*
X17141905Y-6332476D01*
X17141905Y-6332476D02*
X17132381Y-6313428D01*
X17132381Y-6313428D02*
X17132381Y-6256286D01*
X17132381Y-6256286D02*
X17141905Y-6237238D01*
X17141905Y-6237238D02*
X17151429Y-6227714D01*
X17151429Y-6227714D02*
X17170477Y-6218190D01*
X17170477Y-6218190D02*
X17199048Y-6218190D01*
X17199048Y-6218190D02*
X17218096Y-6227714D01*
X17218096Y-6227714D02*
X17227619Y-6237238D01*
X17227619Y-6237238D02*
X17237143Y-6256286D01*
X17237143Y-6256286D02*
X17237143Y-6313428D01*
X17237143Y-6313428D02*
X17227619Y-6332476D01*
X17227619Y-6332476D02*
X17218096Y-6342000D01*
X17218096Y-6342000D02*
X17199048Y-6351524D01*
X17199048Y-6351524D02*
X17170477Y-6351524D01*
X17351429Y-6351524D02*
X17332381Y-6342000D01*
X17332381Y-6342000D02*
X17322858Y-6322952D01*
X17322858Y-6322952D02*
X17322858Y-6151524D01*
X17503810Y-6342000D02*
X17484762Y-6351524D01*
X17484762Y-6351524D02*
X17446667Y-6351524D01*
X17446667Y-6351524D02*
X17427619Y-6342000D01*
X17427619Y-6342000D02*
X17418096Y-6322952D01*
X17418096Y-6322952D02*
X17418096Y-6246762D01*
X17418096Y-6246762D02*
X17427619Y-6227714D01*
X17427619Y-6227714D02*
X17446667Y-6218190D01*
X17446667Y-6218190D02*
X17484762Y-6218190D01*
X17484762Y-6218190D02*
X17503810Y-6227714D01*
X17503810Y-6227714D02*
X17513334Y-6246762D01*
X17513334Y-6246762D02*
X17513334Y-6265809D01*
X17513334Y-6265809D02*
X17418096Y-6284857D01*
X17589524Y-6342000D02*
X17608572Y-6351524D01*
X17608572Y-6351524D02*
X17646667Y-6351524D01*
X17646667Y-6351524D02*
X17665715Y-6342000D01*
X17665715Y-6342000D02*
X17675239Y-6322952D01*
X17675239Y-6322952D02*
X17675239Y-6313428D01*
X17675239Y-6313428D02*
X17665715Y-6294381D01*
X17665715Y-6294381D02*
X17646667Y-6284857D01*
X17646667Y-6284857D02*
X17618096Y-6284857D01*
X17618096Y-6284857D02*
X17599048Y-6275333D01*
X17599048Y-6275333D02*
X17589524Y-6256286D01*
X17589524Y-6256286D02*
X17589524Y-6246762D01*
X17589524Y-6246762D02*
X17599048Y-6227714D01*
X17599048Y-6227714D02*
X17618096Y-6218190D01*
X17618096Y-6218190D02*
X17646667Y-6218190D01*
X17646667Y-6218190D02*
X17665715Y-6227714D01*
X17741905Y-6427714D02*
X17751429Y-6418190D01*
X17751429Y-6418190D02*
X17770477Y-6389619D01*
X17770477Y-6389619D02*
X17780000Y-6370571D01*
X17780000Y-6370571D02*
X17789524Y-6342000D01*
X17789524Y-6342000D02*
X17799048Y-6294381D01*
X17799048Y-6294381D02*
X17799048Y-6256286D01*
X17799048Y-6256286D02*
X17789524Y-6208667D01*
X17789524Y-6208667D02*
X17780000Y-6180095D01*
X17780000Y-6180095D02*
X17770477Y-6161048D01*
X17770477Y-6161048D02*
X17751429Y-6132476D01*
X17751429Y-6132476D02*
X17741905Y-6122952D01*
D10*
X12930000Y-6473000D02*
X12930000Y-6573000D01*
X12880000Y-6523000D02*
X12980000Y-6523000D01*
D11*
X13332381Y-6615524D02*
X13218095Y-6615524D01*
X13275238Y-6615524D02*
X13275238Y-6415524D01*
X13275238Y-6415524D02*
X13256190Y-6444095D01*
X13256190Y-6444095D02*
X13237143Y-6463143D01*
X13237143Y-6463143D02*
X13218095Y-6472667D01*
X13418095Y-6596476D02*
X13427619Y-6606000D01*
X13427619Y-6606000D02*
X13418095Y-6615524D01*
X13418095Y-6615524D02*
X13408571Y-6606000D01*
X13408571Y-6606000D02*
X13418095Y-6596476D01*
X13418095Y-6596476D02*
X13418095Y-6615524D01*
X13551428Y-6415524D02*
X13570476Y-6415524D01*
X13570476Y-6415524D02*
X13589524Y-6425048D01*
X13589524Y-6425048D02*
X13599048Y-6434571D01*
X13599048Y-6434571D02*
X13608571Y-6453619D01*
X13608571Y-6453619D02*
X13618095Y-6491714D01*
X13618095Y-6491714D02*
X13618095Y-6539333D01*
X13618095Y-6539333D02*
X13608571Y-6577428D01*
X13608571Y-6577428D02*
X13599048Y-6596476D01*
X13599048Y-6596476D02*
X13589524Y-6606000D01*
X13589524Y-6606000D02*
X13570476Y-6615524D01*
X13570476Y-6615524D02*
X13551428Y-6615524D01*
X13551428Y-6615524D02*
X13532381Y-6606000D01*
X13532381Y-6606000D02*
X13522857Y-6596476D01*
X13522857Y-6596476D02*
X13513333Y-6577428D01*
X13513333Y-6577428D02*
X13503809Y-6539333D01*
X13503809Y-6539333D02*
X13503809Y-6491714D01*
X13503809Y-6491714D02*
X13513333Y-6453619D01*
X13513333Y-6453619D02*
X13522857Y-6434571D01*
X13522857Y-6434571D02*
X13532381Y-6425048D01*
X13532381Y-6425048D02*
X13551428Y-6415524D01*
X13741905Y-6415524D02*
X13760952Y-6415524D01*
X13760952Y-6415524D02*
X13780000Y-6425048D01*
X13780000Y-6425048D02*
X13789524Y-6434571D01*
X13789524Y-6434571D02*
X13799048Y-6453619D01*
X13799048Y-6453619D02*
X13808571Y-6491714D01*
X13808571Y-6491714D02*
X13808571Y-6539333D01*
X13808571Y-6539333D02*
X13799048Y-6577428D01*
X13799048Y-6577428D02*
X13789524Y-6596476D01*
X13789524Y-6596476D02*
X13780000Y-6606000D01*
X13780000Y-6606000D02*
X13760952Y-6615524D01*
X13760952Y-6615524D02*
X13741905Y-6615524D01*
X13741905Y-6615524D02*
X13722857Y-6606000D01*
X13722857Y-6606000D02*
X13713333Y-6596476D01*
X13713333Y-6596476D02*
X13703809Y-6577428D01*
X13703809Y-6577428D02*
X13694286Y-6539333D01*
X13694286Y-6539333D02*
X13694286Y-6491714D01*
X13694286Y-6491714D02*
X13703809Y-6453619D01*
X13703809Y-6453619D02*
X13713333Y-6434571D01*
X13713333Y-6434571D02*
X13722857Y-6425048D01*
X13722857Y-6425048D02*
X13741905Y-6415524D01*
X13932381Y-6415524D02*
X13951429Y-6415524D01*
X13951429Y-6415524D02*
X13970476Y-6425048D01*
X13970476Y-6425048D02*
X13980000Y-6434571D01*
X13980000Y-6434571D02*
X13989524Y-6453619D01*
X13989524Y-6453619D02*
X13999048Y-6491714D01*
X13999048Y-6491714D02*
X13999048Y-6539333D01*
X13999048Y-6539333D02*
X13989524Y-6577428D01*
X13989524Y-6577428D02*
X13980000Y-6596476D01*
X13980000Y-6596476D02*
X13970476Y-6606000D01*
X13970476Y-6606000D02*
X13951429Y-6615524D01*
X13951429Y-6615524D02*
X13932381Y-6615524D01*
X13932381Y-6615524D02*
X13913333Y-6606000D01*
X13913333Y-6606000D02*
X13903809Y-6596476D01*
X13903809Y-6596476D02*
X13894286Y-6577428D01*
X13894286Y-6577428D02*
X13884762Y-6539333D01*
X13884762Y-6539333D02*
X13884762Y-6491714D01*
X13884762Y-6491714D02*
X13894286Y-6453619D01*
X13894286Y-6453619D02*
X13903809Y-6434571D01*
X13903809Y-6434571D02*
X13913333Y-6425048D01*
X13913333Y-6425048D02*
X13932381Y-6415524D01*
X14084762Y-6615524D02*
X14084762Y-6482190D01*
X14084762Y-6501238D02*
X14094286Y-6491714D01*
X14094286Y-6491714D02*
X14113333Y-6482190D01*
X14113333Y-6482190D02*
X14141905Y-6482190D01*
X14141905Y-6482190D02*
X14160952Y-6491714D01*
X14160952Y-6491714D02*
X14170476Y-6510762D01*
X14170476Y-6510762D02*
X14170476Y-6615524D01*
X14170476Y-6510762D02*
X14180000Y-6491714D01*
X14180000Y-6491714D02*
X14199048Y-6482190D01*
X14199048Y-6482190D02*
X14227619Y-6482190D01*
X14227619Y-6482190D02*
X14246667Y-6491714D01*
X14246667Y-6491714D02*
X14256190Y-6510762D01*
X14256190Y-6510762D02*
X14256190Y-6615524D01*
X14351429Y-6615524D02*
X14351429Y-6482190D01*
X14351429Y-6501238D02*
X14360952Y-6491714D01*
X14360952Y-6491714D02*
X14380000Y-6482190D01*
X14380000Y-6482190D02*
X14408571Y-6482190D01*
X14408571Y-6482190D02*
X14427619Y-6491714D01*
X14427619Y-6491714D02*
X14437143Y-6510762D01*
X14437143Y-6510762D02*
X14437143Y-6615524D01*
X14437143Y-6510762D02*
X14446667Y-6491714D01*
X14446667Y-6491714D02*
X14465714Y-6482190D01*
X14465714Y-6482190D02*
X14494286Y-6482190D01*
X14494286Y-6482190D02*
X14513333Y-6491714D01*
X14513333Y-6491714D02*
X14522857Y-6510762D01*
X14522857Y-6510762D02*
X14522857Y-6615524D01*
X14913333Y-6406000D02*
X14741905Y-6663143D01*
X15170476Y-6415524D02*
X15189524Y-6415524D01*
X15189524Y-6415524D02*
X15208572Y-6425048D01*
X15208572Y-6425048D02*
X15218095Y-6434571D01*
X15218095Y-6434571D02*
X15227619Y-6453619D01*
X15227619Y-6453619D02*
X15237143Y-6491714D01*
X15237143Y-6491714D02*
X15237143Y-6539333D01*
X15237143Y-6539333D02*
X15227619Y-6577428D01*
X15227619Y-6577428D02*
X15218095Y-6596476D01*
X15218095Y-6596476D02*
X15208572Y-6606000D01*
X15208572Y-6606000D02*
X15189524Y-6615524D01*
X15189524Y-6615524D02*
X15170476Y-6615524D01*
X15170476Y-6615524D02*
X15151429Y-6606000D01*
X15151429Y-6606000D02*
X15141905Y-6596476D01*
X15141905Y-6596476D02*
X15132381Y-6577428D01*
X15132381Y-6577428D02*
X15122857Y-6539333D01*
X15122857Y-6539333D02*
X15122857Y-6491714D01*
X15122857Y-6491714D02*
X15132381Y-6453619D01*
X15132381Y-6453619D02*
X15141905Y-6434571D01*
X15141905Y-6434571D02*
X15151429Y-6425048D01*
X15151429Y-6425048D02*
X15170476Y-6415524D01*
X15322857Y-6596476D02*
X15332381Y-6606000D01*
X15332381Y-6606000D02*
X15322857Y-6615524D01*
X15322857Y-6615524D02*
X15313333Y-6606000D01*
X15313333Y-6606000D02*
X15322857Y-6596476D01*
X15322857Y-6596476D02*
X15322857Y-6615524D01*
X15456191Y-6415524D02*
X15475238Y-6415524D01*
X15475238Y-6415524D02*
X15494286Y-6425048D01*
X15494286Y-6425048D02*
X15503810Y-6434571D01*
X15503810Y-6434571D02*
X15513333Y-6453619D01*
X15513333Y-6453619D02*
X15522857Y-6491714D01*
X15522857Y-6491714D02*
X15522857Y-6539333D01*
X15522857Y-6539333D02*
X15513333Y-6577428D01*
X15513333Y-6577428D02*
X15503810Y-6596476D01*
X15503810Y-6596476D02*
X15494286Y-6606000D01*
X15494286Y-6606000D02*
X15475238Y-6615524D01*
X15475238Y-6615524D02*
X15456191Y-6615524D01*
X15456191Y-6615524D02*
X15437143Y-6606000D01*
X15437143Y-6606000D02*
X15427619Y-6596476D01*
X15427619Y-6596476D02*
X15418095Y-6577428D01*
X15418095Y-6577428D02*
X15408572Y-6539333D01*
X15408572Y-6539333D02*
X15408572Y-6491714D01*
X15408572Y-6491714D02*
X15418095Y-6453619D01*
X15418095Y-6453619D02*
X15427619Y-6434571D01*
X15427619Y-6434571D02*
X15437143Y-6425048D01*
X15437143Y-6425048D02*
X15456191Y-6415524D01*
X15589524Y-6415524D02*
X15713333Y-6415524D01*
X15713333Y-6415524D02*
X15646667Y-6491714D01*
X15646667Y-6491714D02*
X15675238Y-6491714D01*
X15675238Y-6491714D02*
X15694286Y-6501238D01*
X15694286Y-6501238D02*
X15703810Y-6510762D01*
X15703810Y-6510762D02*
X15713333Y-6529809D01*
X15713333Y-6529809D02*
X15713333Y-6577428D01*
X15713333Y-6577428D02*
X15703810Y-6596476D01*
X15703810Y-6596476D02*
X15694286Y-6606000D01*
X15694286Y-6606000D02*
X15675238Y-6615524D01*
X15675238Y-6615524D02*
X15618095Y-6615524D01*
X15618095Y-6615524D02*
X15599048Y-6606000D01*
X15599048Y-6606000D02*
X15589524Y-6596476D01*
X15808572Y-6615524D02*
X15846667Y-6615524D01*
X15846667Y-6615524D02*
X15865714Y-6606000D01*
X15865714Y-6606000D02*
X15875238Y-6596476D01*
X15875238Y-6596476D02*
X15894286Y-6567905D01*
X15894286Y-6567905D02*
X15903810Y-6529809D01*
X15903810Y-6529809D02*
X15903810Y-6453619D01*
X15903810Y-6453619D02*
X15894286Y-6434571D01*
X15894286Y-6434571D02*
X15884762Y-6425048D01*
X15884762Y-6425048D02*
X15865714Y-6415524D01*
X15865714Y-6415524D02*
X15827619Y-6415524D01*
X15827619Y-6415524D02*
X15808572Y-6425048D01*
X15808572Y-6425048D02*
X15799048Y-6434571D01*
X15799048Y-6434571D02*
X15789524Y-6453619D01*
X15789524Y-6453619D02*
X15789524Y-6501238D01*
X15789524Y-6501238D02*
X15799048Y-6520286D01*
X15799048Y-6520286D02*
X15808572Y-6529809D01*
X15808572Y-6529809D02*
X15827619Y-6539333D01*
X15827619Y-6539333D02*
X15865714Y-6539333D01*
X15865714Y-6539333D02*
X15884762Y-6529809D01*
X15884762Y-6529809D02*
X15894286Y-6520286D01*
X15894286Y-6520286D02*
X15903810Y-6501238D01*
X16075238Y-6482190D02*
X16075238Y-6615524D01*
X16027619Y-6406000D02*
X15980000Y-6548857D01*
X15980000Y-6548857D02*
X16103810Y-6548857D01*
X16170476Y-6415524D02*
X16170476Y-6453619D01*
X16246667Y-6415524D02*
X16246667Y-6453619D01*
X16541905Y-6691714D02*
X16532381Y-6682190D01*
X16532381Y-6682190D02*
X16513334Y-6653619D01*
X16513334Y-6653619D02*
X16503810Y-6634571D01*
X16503810Y-6634571D02*
X16494286Y-6606000D01*
X16494286Y-6606000D02*
X16484762Y-6558381D01*
X16484762Y-6558381D02*
X16484762Y-6520286D01*
X16484762Y-6520286D02*
X16494286Y-6472667D01*
X16494286Y-6472667D02*
X16503810Y-6444095D01*
X16503810Y-6444095D02*
X16513334Y-6425048D01*
X16513334Y-6425048D02*
X16532381Y-6396476D01*
X16532381Y-6396476D02*
X16541905Y-6386952D01*
X16646667Y-6501238D02*
X16627619Y-6491714D01*
X16627619Y-6491714D02*
X16618095Y-6482190D01*
X16618095Y-6482190D02*
X16608572Y-6463143D01*
X16608572Y-6463143D02*
X16608572Y-6453619D01*
X16608572Y-6453619D02*
X16618095Y-6434571D01*
X16618095Y-6434571D02*
X16627619Y-6425048D01*
X16627619Y-6425048D02*
X16646667Y-6415524D01*
X16646667Y-6415524D02*
X16684762Y-6415524D01*
X16684762Y-6415524D02*
X16703810Y-6425048D01*
X16703810Y-6425048D02*
X16713334Y-6434571D01*
X16713334Y-6434571D02*
X16722857Y-6453619D01*
X16722857Y-6453619D02*
X16722857Y-6463143D01*
X16722857Y-6463143D02*
X16713334Y-6482190D01*
X16713334Y-6482190D02*
X16703810Y-6491714D01*
X16703810Y-6491714D02*
X16684762Y-6501238D01*
X16684762Y-6501238D02*
X16646667Y-6501238D01*
X16646667Y-6501238D02*
X16627619Y-6510762D01*
X16627619Y-6510762D02*
X16618095Y-6520286D01*
X16618095Y-6520286D02*
X16608572Y-6539333D01*
X16608572Y-6539333D02*
X16608572Y-6577428D01*
X16608572Y-6577428D02*
X16618095Y-6596476D01*
X16618095Y-6596476D02*
X16627619Y-6606000D01*
X16627619Y-6606000D02*
X16646667Y-6615524D01*
X16646667Y-6615524D02*
X16684762Y-6615524D01*
X16684762Y-6615524D02*
X16703810Y-6606000D01*
X16703810Y-6606000D02*
X16713334Y-6596476D01*
X16713334Y-6596476D02*
X16722857Y-6577428D01*
X16722857Y-6577428D02*
X16722857Y-6539333D01*
X16722857Y-6539333D02*
X16713334Y-6520286D01*
X16713334Y-6520286D02*
X16703810Y-6510762D01*
X16703810Y-6510762D02*
X16684762Y-6501238D01*
X16960953Y-6615524D02*
X16960953Y-6415524D01*
X17046667Y-6615524D02*
X17046667Y-6510762D01*
X17046667Y-6510762D02*
X17037143Y-6491714D01*
X17037143Y-6491714D02*
X17018096Y-6482190D01*
X17018096Y-6482190D02*
X16989524Y-6482190D01*
X16989524Y-6482190D02*
X16970477Y-6491714D01*
X16970477Y-6491714D02*
X16960953Y-6501238D01*
X17170477Y-6615524D02*
X17151429Y-6606000D01*
X17151429Y-6606000D02*
X17141905Y-6596476D01*
X17141905Y-6596476D02*
X17132381Y-6577428D01*
X17132381Y-6577428D02*
X17132381Y-6520286D01*
X17132381Y-6520286D02*
X17141905Y-6501238D01*
X17141905Y-6501238D02*
X17151429Y-6491714D01*
X17151429Y-6491714D02*
X17170477Y-6482190D01*
X17170477Y-6482190D02*
X17199048Y-6482190D01*
X17199048Y-6482190D02*
X17218096Y-6491714D01*
X17218096Y-6491714D02*
X17227619Y-6501238D01*
X17227619Y-6501238D02*
X17237143Y-6520286D01*
X17237143Y-6520286D02*
X17237143Y-6577428D01*
X17237143Y-6577428D02*
X17227619Y-6596476D01*
X17227619Y-6596476D02*
X17218096Y-6606000D01*
X17218096Y-6606000D02*
X17199048Y-6615524D01*
X17199048Y-6615524D02*
X17170477Y-6615524D01*
X17351429Y-6615524D02*
X17332381Y-6606000D01*
X17332381Y-6606000D02*
X17322858Y-6586952D01*
X17322858Y-6586952D02*
X17322858Y-6415524D01*
X17503810Y-6606000D02*
X17484762Y-6615524D01*
X17484762Y-6615524D02*
X17446667Y-6615524D01*
X17446667Y-6615524D02*
X17427619Y-6606000D01*
X17427619Y-6606000D02*
X17418096Y-6586952D01*
X17418096Y-6586952D02*
X17418096Y-6510762D01*
X17418096Y-6510762D02*
X17427619Y-6491714D01*
X17427619Y-6491714D02*
X17446667Y-6482190D01*
X17446667Y-6482190D02*
X17484762Y-6482190D01*
X17484762Y-6482190D02*
X17503810Y-6491714D01*
X17503810Y-6491714D02*
X17513334Y-6510762D01*
X17513334Y-6510762D02*
X17513334Y-6529809D01*
X17513334Y-6529809D02*
X17418096Y-6548857D01*
X17589524Y-6606000D02*
X17608572Y-6615524D01*
X17608572Y-6615524D02*
X17646667Y-6615524D01*
X17646667Y-6615524D02*
X17665715Y-6606000D01*
X17665715Y-6606000D02*
X17675239Y-6586952D01*
X17675239Y-6586952D02*
X17675239Y-6577428D01*
X17675239Y-6577428D02*
X17665715Y-6558381D01*
X17665715Y-6558381D02*
X17646667Y-6548857D01*
X17646667Y-6548857D02*
X17618096Y-6548857D01*
X17618096Y-6548857D02*
X17599048Y-6539333D01*
X17599048Y-6539333D02*
X17589524Y-6520286D01*
X17589524Y-6520286D02*
X17589524Y-6510762D01*
X17589524Y-6510762D02*
X17599048Y-6491714D01*
X17599048Y-6491714D02*
X17618096Y-6482190D01*
X17618096Y-6482190D02*
X17646667Y-6482190D01*
X17646667Y-6482190D02*
X17665715Y-6491714D01*
X17741905Y-6691714D02*
X17751429Y-6682190D01*
X17751429Y-6682190D02*
X17770477Y-6653619D01*
X17770477Y-6653619D02*
X17780000Y-6634571D01*
X17780000Y-6634571D02*
X17789524Y-6606000D01*
X17789524Y-6606000D02*
X17799048Y-6558381D01*
X17799048Y-6558381D02*
X17799048Y-6520286D01*
X17799048Y-6520286D02*
X17789524Y-6472667D01*
X17789524Y-6472667D02*
X17780000Y-6444095D01*
X17780000Y-6444095D02*
X17770477Y-6425048D01*
X17770477Y-6425048D02*
X17751429Y-6396476D01*
X17751429Y-6396476D02*
X17741905Y-6386952D01*
M02*
