%TF.GenerationSoftware,KiCad,Pcbnew,7.0.2*%
%TF.CreationDate,2023-05-24T09:21:20+02:00*%
%TF.ProjectId,PCB_Ewine,5043425f-4577-4696-9e65-2e6b69636164,rev?*%
%TF.SameCoordinates,Original*%
%TF.FileFunction,Legend,Top*%
%TF.FilePolarity,Positive*%
%FSLAX46Y46*%
G04 Gerber Fmt 4.6, Leading zero omitted, Abs format (unit mm)*
G04 Created by KiCad (PCBNEW 7.0.2) date 2023-05-24 09:21:20*
%MOMM*%
%LPD*%
G01*
G04 APERTURE LIST*
%ADD10C,0.150000*%
%ADD11C,0.120000*%
%ADD12C,0.127000*%
%ADD13C,0.200000*%
%ADD14C,0.152400*%
G04 APERTURE END LIST*
D10*
%TO.C,R2*%
X144333333Y-36362619D02*
X144000000Y-35886428D01*
X143761905Y-36362619D02*
X143761905Y-35362619D01*
X143761905Y-35362619D02*
X144142857Y-35362619D01*
X144142857Y-35362619D02*
X144238095Y-35410238D01*
X144238095Y-35410238D02*
X144285714Y-35457857D01*
X144285714Y-35457857D02*
X144333333Y-35553095D01*
X144333333Y-35553095D02*
X144333333Y-35695952D01*
X144333333Y-35695952D02*
X144285714Y-35791190D01*
X144285714Y-35791190D02*
X144238095Y-35838809D01*
X144238095Y-35838809D02*
X144142857Y-35886428D01*
X144142857Y-35886428D02*
X143761905Y-35886428D01*
X144714286Y-35457857D02*
X144761905Y-35410238D01*
X144761905Y-35410238D02*
X144857143Y-35362619D01*
X144857143Y-35362619D02*
X145095238Y-35362619D01*
X145095238Y-35362619D02*
X145190476Y-35410238D01*
X145190476Y-35410238D02*
X145238095Y-35457857D01*
X145238095Y-35457857D02*
X145285714Y-35553095D01*
X145285714Y-35553095D02*
X145285714Y-35648333D01*
X145285714Y-35648333D02*
X145238095Y-35791190D01*
X145238095Y-35791190D02*
X144666667Y-36362619D01*
X144666667Y-36362619D02*
X145285714Y-36362619D01*
%TO.C,C4*%
X153967380Y-36366666D02*
X154015000Y-36414285D01*
X154015000Y-36414285D02*
X154062619Y-36557142D01*
X154062619Y-36557142D02*
X154062619Y-36652380D01*
X154062619Y-36652380D02*
X154015000Y-36795237D01*
X154015000Y-36795237D02*
X153919761Y-36890475D01*
X153919761Y-36890475D02*
X153824523Y-36938094D01*
X153824523Y-36938094D02*
X153634047Y-36985713D01*
X153634047Y-36985713D02*
X153491190Y-36985713D01*
X153491190Y-36985713D02*
X153300714Y-36938094D01*
X153300714Y-36938094D02*
X153205476Y-36890475D01*
X153205476Y-36890475D02*
X153110238Y-36795237D01*
X153110238Y-36795237D02*
X153062619Y-36652380D01*
X153062619Y-36652380D02*
X153062619Y-36557142D01*
X153062619Y-36557142D02*
X153110238Y-36414285D01*
X153110238Y-36414285D02*
X153157857Y-36366666D01*
X153395952Y-35509523D02*
X154062619Y-35509523D01*
X153015000Y-35747618D02*
X153729285Y-35985713D01*
X153729285Y-35985713D02*
X153729285Y-35366666D01*
%TO.C,R5*%
X140662619Y-49966666D02*
X140186428Y-50299999D01*
X140662619Y-50538094D02*
X139662619Y-50538094D01*
X139662619Y-50538094D02*
X139662619Y-50157142D01*
X139662619Y-50157142D02*
X139710238Y-50061904D01*
X139710238Y-50061904D02*
X139757857Y-50014285D01*
X139757857Y-50014285D02*
X139853095Y-49966666D01*
X139853095Y-49966666D02*
X139995952Y-49966666D01*
X139995952Y-49966666D02*
X140091190Y-50014285D01*
X140091190Y-50014285D02*
X140138809Y-50061904D01*
X140138809Y-50061904D02*
X140186428Y-50157142D01*
X140186428Y-50157142D02*
X140186428Y-50538094D01*
X139662619Y-49061904D02*
X139662619Y-49538094D01*
X139662619Y-49538094D02*
X140138809Y-49585713D01*
X140138809Y-49585713D02*
X140091190Y-49538094D01*
X140091190Y-49538094D02*
X140043571Y-49442856D01*
X140043571Y-49442856D02*
X140043571Y-49204761D01*
X140043571Y-49204761D02*
X140091190Y-49109523D01*
X140091190Y-49109523D02*
X140138809Y-49061904D01*
X140138809Y-49061904D02*
X140234047Y-49014285D01*
X140234047Y-49014285D02*
X140472142Y-49014285D01*
X140472142Y-49014285D02*
X140567380Y-49061904D01*
X140567380Y-49061904D02*
X140615000Y-49109523D01*
X140615000Y-49109523D02*
X140662619Y-49204761D01*
X140662619Y-49204761D02*
X140662619Y-49442856D01*
X140662619Y-49442856D02*
X140615000Y-49538094D01*
X140615000Y-49538094D02*
X140567380Y-49585713D01*
%TO.C,M1*%
X131652381Y-45570095D02*
X131652381Y-44770095D01*
X131652381Y-44770095D02*
X131919047Y-45341523D01*
X131919047Y-45341523D02*
X132185714Y-44770095D01*
X132185714Y-44770095D02*
X132185714Y-45570095D01*
X132985714Y-45570095D02*
X132528571Y-45570095D01*
X132757143Y-45570095D02*
X132757143Y-44770095D01*
X132757143Y-44770095D02*
X132680952Y-44884380D01*
X132680952Y-44884380D02*
X132604762Y-44960571D01*
X132604762Y-44960571D02*
X132528571Y-44998666D01*
%TO.C,U2*%
X149338095Y-35262619D02*
X149338095Y-36072142D01*
X149338095Y-36072142D02*
X149385714Y-36167380D01*
X149385714Y-36167380D02*
X149433333Y-36215000D01*
X149433333Y-36215000D02*
X149528571Y-36262619D01*
X149528571Y-36262619D02*
X149719047Y-36262619D01*
X149719047Y-36262619D02*
X149814285Y-36215000D01*
X149814285Y-36215000D02*
X149861904Y-36167380D01*
X149861904Y-36167380D02*
X149909523Y-36072142D01*
X149909523Y-36072142D02*
X149909523Y-35262619D01*
X150338095Y-35357857D02*
X150385714Y-35310238D01*
X150385714Y-35310238D02*
X150480952Y-35262619D01*
X150480952Y-35262619D02*
X150719047Y-35262619D01*
X150719047Y-35262619D02*
X150814285Y-35310238D01*
X150814285Y-35310238D02*
X150861904Y-35357857D01*
X150861904Y-35357857D02*
X150909523Y-35453095D01*
X150909523Y-35453095D02*
X150909523Y-35548333D01*
X150909523Y-35548333D02*
X150861904Y-35691190D01*
X150861904Y-35691190D02*
X150290476Y-36262619D01*
X150290476Y-36262619D02*
X150909523Y-36262619D01*
%TO.C,R7*%
X141433333Y-42562619D02*
X141100000Y-42086428D01*
X140861905Y-42562619D02*
X140861905Y-41562619D01*
X140861905Y-41562619D02*
X141242857Y-41562619D01*
X141242857Y-41562619D02*
X141338095Y-41610238D01*
X141338095Y-41610238D02*
X141385714Y-41657857D01*
X141385714Y-41657857D02*
X141433333Y-41753095D01*
X141433333Y-41753095D02*
X141433333Y-41895952D01*
X141433333Y-41895952D02*
X141385714Y-41991190D01*
X141385714Y-41991190D02*
X141338095Y-42038809D01*
X141338095Y-42038809D02*
X141242857Y-42086428D01*
X141242857Y-42086428D02*
X140861905Y-42086428D01*
X141766667Y-41562619D02*
X142433333Y-41562619D01*
X142433333Y-41562619D02*
X142004762Y-42562619D01*
%TO.C,R6*%
X146362619Y-49466666D02*
X145886428Y-49799999D01*
X146362619Y-50038094D02*
X145362619Y-50038094D01*
X145362619Y-50038094D02*
X145362619Y-49657142D01*
X145362619Y-49657142D02*
X145410238Y-49561904D01*
X145410238Y-49561904D02*
X145457857Y-49514285D01*
X145457857Y-49514285D02*
X145553095Y-49466666D01*
X145553095Y-49466666D02*
X145695952Y-49466666D01*
X145695952Y-49466666D02*
X145791190Y-49514285D01*
X145791190Y-49514285D02*
X145838809Y-49561904D01*
X145838809Y-49561904D02*
X145886428Y-49657142D01*
X145886428Y-49657142D02*
X145886428Y-50038094D01*
X145362619Y-48609523D02*
X145362619Y-48799999D01*
X145362619Y-48799999D02*
X145410238Y-48895237D01*
X145410238Y-48895237D02*
X145457857Y-48942856D01*
X145457857Y-48942856D02*
X145600714Y-49038094D01*
X145600714Y-49038094D02*
X145791190Y-49085713D01*
X145791190Y-49085713D02*
X146172142Y-49085713D01*
X146172142Y-49085713D02*
X146267380Y-49038094D01*
X146267380Y-49038094D02*
X146315000Y-48990475D01*
X146315000Y-48990475D02*
X146362619Y-48895237D01*
X146362619Y-48895237D02*
X146362619Y-48704761D01*
X146362619Y-48704761D02*
X146315000Y-48609523D01*
X146315000Y-48609523D02*
X146267380Y-48561904D01*
X146267380Y-48561904D02*
X146172142Y-48514285D01*
X146172142Y-48514285D02*
X145934047Y-48514285D01*
X145934047Y-48514285D02*
X145838809Y-48561904D01*
X145838809Y-48561904D02*
X145791190Y-48609523D01*
X145791190Y-48609523D02*
X145743571Y-48704761D01*
X145743571Y-48704761D02*
X145743571Y-48895237D01*
X145743571Y-48895237D02*
X145791190Y-48990475D01*
X145791190Y-48990475D02*
X145838809Y-49038094D01*
X145838809Y-49038094D02*
X145934047Y-49085713D01*
%TO.C,J1*%
X151866666Y-40562619D02*
X151866666Y-41276904D01*
X151866666Y-41276904D02*
X151819047Y-41419761D01*
X151819047Y-41419761D02*
X151723809Y-41515000D01*
X151723809Y-41515000D02*
X151580952Y-41562619D01*
X151580952Y-41562619D02*
X151485714Y-41562619D01*
X152866666Y-41562619D02*
X152295238Y-41562619D01*
X152580952Y-41562619D02*
X152580952Y-40562619D01*
X152580952Y-40562619D02*
X152485714Y-40705476D01*
X152485714Y-40705476D02*
X152390476Y-40800714D01*
X152390476Y-40800714D02*
X152295238Y-40848333D01*
%TO.C,U1*%
X134438095Y-51762619D02*
X134438095Y-52572142D01*
X134438095Y-52572142D02*
X134485714Y-52667380D01*
X134485714Y-52667380D02*
X134533333Y-52715000D01*
X134533333Y-52715000D02*
X134628571Y-52762619D01*
X134628571Y-52762619D02*
X134819047Y-52762619D01*
X134819047Y-52762619D02*
X134914285Y-52715000D01*
X134914285Y-52715000D02*
X134961904Y-52667380D01*
X134961904Y-52667380D02*
X135009523Y-52572142D01*
X135009523Y-52572142D02*
X135009523Y-51762619D01*
X136009523Y-52762619D02*
X135438095Y-52762619D01*
X135723809Y-52762619D02*
X135723809Y-51762619D01*
X135723809Y-51762619D02*
X135628571Y-51905476D01*
X135628571Y-51905476D02*
X135533333Y-52000714D01*
X135533333Y-52000714D02*
X135438095Y-52048333D01*
X133900000Y-51962619D02*
X133900000Y-52200714D01*
X133661905Y-52105476D02*
X133900000Y-52200714D01*
X133900000Y-52200714D02*
X134138095Y-52105476D01*
X133757143Y-52391190D02*
X133900000Y-52200714D01*
X133900000Y-52200714D02*
X134042857Y-52391190D01*
X133900000Y-51962619D02*
X133900000Y-52200714D01*
X133661905Y-52105476D02*
X133900000Y-52200714D01*
X133900000Y-52200714D02*
X134138095Y-52105476D01*
X133757143Y-52391190D02*
X133900000Y-52200714D01*
X133900000Y-52200714D02*
X134042857Y-52391190D01*
%TO.C,C5*%
X141033333Y-36367380D02*
X140985714Y-36415000D01*
X140985714Y-36415000D02*
X140842857Y-36462619D01*
X140842857Y-36462619D02*
X140747619Y-36462619D01*
X140747619Y-36462619D02*
X140604762Y-36415000D01*
X140604762Y-36415000D02*
X140509524Y-36319761D01*
X140509524Y-36319761D02*
X140461905Y-36224523D01*
X140461905Y-36224523D02*
X140414286Y-36034047D01*
X140414286Y-36034047D02*
X140414286Y-35891190D01*
X140414286Y-35891190D02*
X140461905Y-35700714D01*
X140461905Y-35700714D02*
X140509524Y-35605476D01*
X140509524Y-35605476D02*
X140604762Y-35510238D01*
X140604762Y-35510238D02*
X140747619Y-35462619D01*
X140747619Y-35462619D02*
X140842857Y-35462619D01*
X140842857Y-35462619D02*
X140985714Y-35510238D01*
X140985714Y-35510238D02*
X141033333Y-35557857D01*
X141938095Y-35462619D02*
X141461905Y-35462619D01*
X141461905Y-35462619D02*
X141414286Y-35938809D01*
X141414286Y-35938809D02*
X141461905Y-35891190D01*
X141461905Y-35891190D02*
X141557143Y-35843571D01*
X141557143Y-35843571D02*
X141795238Y-35843571D01*
X141795238Y-35843571D02*
X141890476Y-35891190D01*
X141890476Y-35891190D02*
X141938095Y-35938809D01*
X141938095Y-35938809D02*
X141985714Y-36034047D01*
X141985714Y-36034047D02*
X141985714Y-36272142D01*
X141985714Y-36272142D02*
X141938095Y-36367380D01*
X141938095Y-36367380D02*
X141890476Y-36415000D01*
X141890476Y-36415000D02*
X141795238Y-36462619D01*
X141795238Y-36462619D02*
X141557143Y-36462619D01*
X141557143Y-36462619D02*
X141461905Y-36415000D01*
X141461905Y-36415000D02*
X141414286Y-36367380D01*
D11*
%TO.C,R2*%
X143977500Y-38337258D02*
X143977500Y-37862742D01*
X145022500Y-38337258D02*
X145022500Y-37862742D01*
%TO.C,C4*%
X153090000Y-38815580D02*
X153090000Y-38534420D01*
X154110000Y-38815580D02*
X154110000Y-38534420D01*
%TO.C,R5*%
X142122500Y-49487742D02*
X142122500Y-49962258D01*
X141077500Y-49487742D02*
X141077500Y-49962258D01*
D12*
%TO.C,M1*%
X131400830Y-44304860D02*
X131966510Y-43739170D01*
X130835140Y-43739170D02*
X131400830Y-44304860D01*
X131400830Y-43173490D02*
X130835140Y-43739170D01*
X131966510Y-43739169D02*
G75*
G03*
X138330470Y-43470470I3035494J3603770D01*
G01*
X131669530Y-36809531D02*
G75*
G03*
X131400831Y-43173489I3334572J-3328444D01*
G01*
X138330469Y-36809531D02*
G75*
G03*
X131669531Y-36809531I-3330469J-3330469D01*
G01*
X138330470Y-43470470D02*
G75*
G03*
X138330470Y-36809530I-3330469J3330470D01*
G01*
D13*
X135100000Y-45420000D02*
G75*
G03*
X135100000Y-45420000I-100000J0D01*
G01*
D11*
%TO.C,U2*%
X151810000Y-38437500D02*
X151810000Y-36637500D01*
X151810000Y-38437500D02*
X151810000Y-39237500D01*
X148690000Y-38437500D02*
X148690000Y-37637500D01*
X148690000Y-38437500D02*
X148690000Y-39237500D01*
%TO.C,R7*%
X141077500Y-44412258D02*
X141077500Y-43937742D01*
X142122500Y-44412258D02*
X142122500Y-43937742D01*
%TO.C,R6*%
X144922500Y-49487742D02*
X144922500Y-49962258D01*
X143877500Y-49487742D02*
X143877500Y-49962258D01*
%TO.C,J1*%
X148830000Y-42150000D02*
X148830000Y-52430000D01*
X148830000Y-42150000D02*
X151430000Y-42150000D01*
X148830000Y-52430000D02*
X154030000Y-52430000D01*
X151430000Y-42150000D02*
X151430000Y-44750000D01*
X151430000Y-44750000D02*
X154030000Y-44750000D01*
X152700000Y-42150000D02*
X154030000Y-42150000D01*
X154030000Y-42150000D02*
X154030000Y-43480000D01*
X154030000Y-44750000D02*
X154030000Y-52430000D01*
D14*
%TO.C,U1*%
X133549000Y-45842500D02*
X133549000Y-51557500D01*
X133549000Y-51557500D02*
X136851000Y-51557500D01*
X136851000Y-45842500D02*
X133549000Y-45842500D01*
X136851000Y-51557500D02*
X136851000Y-45842500D01*
D11*
%TO.C,C5*%
X141710000Y-37959420D02*
X141710000Y-38240580D01*
X140690000Y-37959420D02*
X140690000Y-38240580D01*
%TD*%
M02*
