%TF.GenerationSoftware,KiCad,Pcbnew,7.0.2*%
%TF.CreationDate,2023-05-24T09:21:19+02:00*%
%TF.ProjectId,PCB_Ewine,5043425f-4577-4696-9e65-2e6b69636164,rev?*%
%TF.SameCoordinates,Original*%
%TF.FileFunction,Copper,L1,Top*%
%TF.FilePolarity,Positive*%
%FSLAX46Y46*%
G04 Gerber Fmt 4.6, Leading zero omitted, Abs format (unit mm)*
G04 Created by KiCad (PCBNEW 7.0.2) date 2023-05-24 09:21:19*
%MOMM*%
%LPD*%
G01*
G04 APERTURE LIST*
G04 Aperture macros list*
%AMRoundRect*
0 Rectangle with rounded corners*
0 $1 Rounding radius*
0 $2 $3 $4 $5 $6 $7 $8 $9 X,Y pos of 4 corners*
0 Add a 4 corners polygon primitive as box body*
4,1,4,$2,$3,$4,$5,$6,$7,$8,$9,$2,$3,0*
0 Add four circle primitives for the rounded corners*
1,1,$1+$1,$2,$3*
1,1,$1+$1,$4,$5*
1,1,$1+$1,$6,$7*
1,1,$1+$1,$8,$9*
0 Add four rect primitives between the rounded corners*
20,1,$1+$1,$2,$3,$4,$5,0*
20,1,$1+$1,$4,$5,$6,$7,0*
20,1,$1+$1,$6,$7,$8,$9,0*
20,1,$1+$1,$8,$9,$2,$3,0*%
G04 Aperture macros list end*
%TA.AperFunction,SMDPad,CuDef*%
%ADD10RoundRect,0.200000X0.275000X-0.200000X0.275000X0.200000X-0.275000X0.200000X-0.275000X-0.200000X0*%
%TD*%
%TA.AperFunction,SMDPad,CuDef*%
%ADD11RoundRect,0.225000X0.250000X-0.225000X0.250000X0.225000X-0.250000X0.225000X-0.250000X-0.225000X0*%
%TD*%
%TA.AperFunction,SMDPad,CuDef*%
%ADD12RoundRect,0.200000X-0.275000X0.200000X-0.275000X-0.200000X0.275000X-0.200000X0.275000X0.200000X0*%
%TD*%
%TA.AperFunction,ComponentPad*%
%ADD13R,1.198000X1.198000*%
%TD*%
%TA.AperFunction,ComponentPad*%
%ADD14C,1.198000*%
%TD*%
%TA.AperFunction,SMDPad,CuDef*%
%ADD15RoundRect,0.150000X-0.150000X0.512500X-0.150000X-0.512500X0.150000X-0.512500X0.150000X0.512500X0*%
%TD*%
%TA.AperFunction,ComponentPad*%
%ADD16R,1.700000X1.700000*%
%TD*%
%TA.AperFunction,ComponentPad*%
%ADD17O,1.700000X1.700000*%
%TD*%
%TA.AperFunction,SMDPad,CuDef*%
%ADD18R,0.508000X0.508000*%
%TD*%
%TA.AperFunction,SMDPad,CuDef*%
%ADD19RoundRect,0.225000X-0.250000X0.225000X-0.250000X-0.225000X0.250000X-0.225000X0.250000X0.225000X0*%
%TD*%
%TA.AperFunction,ViaPad*%
%ADD20C,1.200000*%
%TD*%
%TA.AperFunction,Conductor*%
%ADD21C,0.400000*%
%TD*%
G04 APERTURE END LIST*
D10*
%TO.P,R2,1*%
%TO.N,/SCL*%
X144500000Y-38925000D03*
%TO.P,R2,2*%
%TO.N,/3.6V*%
X144500000Y-37275000D03*
%TD*%
D11*
%TO.P,C4,1*%
%TO.N,/5V*%
X153600000Y-39450000D03*
%TO.P,C4,2*%
%TO.N,/GND*%
X153600000Y-37900000D03*
%TD*%
D12*
%TO.P,R5,1*%
%TO.N,/SCL_VL*%
X141600000Y-48900000D03*
%TO.P,R5,2*%
%TO.N,/3.3V*%
X141600000Y-50550000D03*
%TD*%
D13*
%TO.P,M1,1,SCL/VZ*%
%TO.N,/SCL*%
X135000000Y-42680000D03*
D14*
%TO.P,M1,2,SDA/PWM*%
%TO.N,/SDA*%
X137540000Y-40140000D03*
%TO.P,M1,3,VDD*%
%TO.N,/3.6V*%
X135000000Y-37600000D03*
%TO.P,M1,4,VSS*%
%TO.N,/GND*%
X132460000Y-40140000D03*
%TD*%
D15*
%TO.P,U2,1,GND*%
%TO.N,/GND*%
X151200000Y-37300000D03*
%TO.P,U2,2,VO*%
%TO.N,/3.6V*%
X149300000Y-37300000D03*
%TO.P,U2,3,VI*%
%TO.N,/5V*%
X150250000Y-39575000D03*
%TD*%
D10*
%TO.P,R7,1*%
%TO.N,/SCL_VL*%
X141600000Y-45000000D03*
%TO.P,R7,2*%
%TO.N,/SCL*%
X141600000Y-43350000D03*
%TD*%
D12*
%TO.P,R6,1*%
%TO.N,/SDA_VL*%
X144400000Y-48900000D03*
%TO.P,R6,2*%
%TO.N,/3.3V*%
X144400000Y-50550000D03*
%TD*%
D16*
%TO.P,J1,1,Pin_1*%
%TO.N,/5V*%
X152700000Y-43480000D03*
D17*
%TO.P,J1,2,Pin_2*%
%TO.N,/SCL*%
X150160000Y-43480000D03*
%TO.P,J1,3,Pin_3*%
%TO.N,/GND*%
X152700000Y-46020000D03*
%TO.P,J1,4,Pin_4*%
%TO.N,/SDA*%
X150160000Y-46020000D03*
%TO.P,J1,5,Pin_5*%
%TO.N,unconnected-(J1-Pin_5-Pad5)*%
X152700000Y-48560000D03*
%TO.P,J1,6,Pin_6*%
%TO.N,/3.3V*%
X150160000Y-48560000D03*
%TO.P,J1,7,Pin_7*%
%TO.N,/GPIO_IRQ*%
X152700000Y-51100000D03*
%TO.P,J1,8,Pin_8*%
%TO.N,/XSHUT*%
X150160000Y-51100000D03*
%TD*%
D18*
%TO.P,U1,1,AVDDVCSEL*%
%TO.N,/3.3V*%
X135999973Y-47100001D03*
%TO.P,U1,2,AVSSVCSEL*%
%TO.N,/GND*%
X135999973Y-47899999D03*
%TO.P,U1,3,GND*%
X135999973Y-48700000D03*
%TO.P,U1,4,GND2*%
X135999973Y-49500001D03*
%TO.P,U1,5,XSHUT*%
%TO.N,/XSHUT*%
X135999973Y-50299999D03*
%TO.P,U1,6,GND3*%
%TO.N,/GND*%
X135200000Y-50299946D03*
%TO.P,U1,7,GPIO1*%
%TO.N,/GPIO_IRQ*%
X134400027Y-50299999D03*
%TO.P,U1,8,DNC*%
%TO.N,unconnected-(U1-DNC-Pad8)*%
X134400027Y-49500001D03*
%TO.P,U1,9,SDA*%
%TO.N,/SDA_VL*%
X134400027Y-48700000D03*
%TO.P,U1,10,SCL*%
%TO.N,/SCL_VL*%
X134400027Y-47899999D03*
%TO.P,U1,11,AVDD*%
%TO.N,/3.3V*%
X134400027Y-47100001D03*
%TO.P,U1,12,GND4*%
%TO.N,/GND*%
X135200000Y-47100054D03*
%TD*%
D19*
%TO.P,C5,1*%
%TO.N,/3.6V*%
X141200000Y-37325000D03*
%TO.P,C5,2*%
%TO.N,/GND*%
X141200000Y-38875000D03*
%TD*%
D20*
%TO.N,/3.6V*%
X147100000Y-38700000D03*
%TO.N,/GND*%
X137700000Y-49200000D03*
X139600000Y-44100000D03*
%TO.N,/3.3V*%
X137700000Y-47100000D03*
X147400000Y-50000000D03*
%TO.N,/XSHUT*%
X147500000Y-51700000D03*
%TO.N,/GPIO_IRQ*%
X132700000Y-50300000D03*
%TO.N,/SDA_VL*%
X132600000Y-48700000D03*
X146400000Y-46300000D03*
%TD*%
D21*
%TO.N,/SCL*%
X144500000Y-38925000D02*
X145605000Y-38925000D01*
X144500000Y-38925000D02*
X144500000Y-39110000D01*
X140930000Y-42680000D02*
X141600000Y-43350000D01*
X135000000Y-42680000D02*
X140930000Y-42680000D01*
X144500000Y-39110000D02*
X140930000Y-42680000D01*
X145605000Y-38925000D02*
X150160000Y-43480000D01*
%TO.N,/3.6V*%
X149200000Y-37400000D02*
X149300000Y-37300000D01*
X147100000Y-37400000D02*
X144625000Y-37400000D01*
X141250000Y-37275000D02*
X141200000Y-37325000D01*
X144625000Y-37400000D02*
X144500000Y-37275000D01*
X147100000Y-37400000D02*
X149200000Y-37400000D01*
X140925000Y-37600000D02*
X135000000Y-37600000D01*
X141200000Y-37325000D02*
X140925000Y-37600000D01*
X147100000Y-37400000D02*
X147100000Y-38700000D01*
X144500000Y-37275000D02*
X141250000Y-37275000D01*
%TO.N,/GND*%
X135345945Y-47899999D02*
X135999973Y-47899999D01*
X135200000Y-47754054D02*
X135345945Y-47899999D01*
X135999973Y-48700000D02*
X135999973Y-49500001D01*
X135345973Y-49500001D02*
X135200000Y-49645974D01*
X135200000Y-49645974D02*
X135200000Y-50299946D01*
X135999973Y-47899999D02*
X135999973Y-48700000D01*
X135999973Y-49500001D02*
X135345973Y-49500001D01*
X135200000Y-47100054D02*
X135200000Y-47754054D01*
%TO.N,/3.3V*%
X134400027Y-46799973D02*
X134400027Y-47100001D01*
X144400000Y-50550000D02*
X141600000Y-50550000D01*
X146900000Y-50500000D02*
X144450000Y-50500000D01*
X135854000Y-46446054D02*
X134753946Y-46446054D01*
X147400000Y-50000000D02*
X146900000Y-50500000D01*
X137700000Y-47100000D02*
X135999973Y-47100001D01*
X134753946Y-46446054D02*
X134400027Y-46799973D01*
X144450000Y-50500000D02*
X144400000Y-50550000D01*
X135999973Y-46592027D02*
X135854000Y-46446054D01*
X135999973Y-47100001D02*
X135999973Y-46592027D01*
%TO.N,/XSHUT*%
X137400000Y-51700000D02*
X138100000Y-52400000D01*
X138100000Y-52400000D02*
X146800000Y-52400000D01*
X137399974Y-51700000D02*
X135999973Y-50299999D01*
X137399974Y-51700000D02*
X137400000Y-51700000D01*
X146800000Y-52400000D02*
X147500000Y-51700000D01*
%TO.N,/GPIO_IRQ*%
X132700000Y-50300000D02*
X134400027Y-50299999D01*
%TO.N,/SDA_VL*%
X146400000Y-46300000D02*
X146400000Y-46900000D01*
X134400027Y-48700000D02*
X132600000Y-48700000D01*
X146400000Y-46900000D02*
X144400000Y-48900000D01*
%TO.N,/SCL_VL*%
X134400027Y-47899999D02*
X133799999Y-47899999D01*
X141600000Y-45000000D02*
X141600000Y-45500000D01*
X133200000Y-47300000D02*
X133200000Y-46200000D01*
X133900000Y-45500000D02*
X141600000Y-45500000D01*
X133200000Y-46200000D02*
X133900000Y-45500000D01*
X133799999Y-47899999D02*
X133200000Y-47300000D01*
X141600000Y-45500000D02*
X141600000Y-48900000D01*
%TO.N,/5V*%
X152700000Y-42200000D02*
X153600000Y-41300000D01*
X153600000Y-39450000D02*
X150375000Y-39450000D01*
X152700000Y-43480000D02*
X152700000Y-42200000D01*
X150375000Y-39450000D02*
X150250000Y-39575000D01*
X153600000Y-41300000D02*
X153600000Y-39450000D01*
%TD*%
%TA.AperFunction,Conductor*%
%TO.N,/GND*%
G36*
X140741621Y-46320502D02*
G01*
X140788114Y-46374158D01*
X140799500Y-46426500D01*
X140799500Y-48041231D01*
X140779498Y-48109352D01*
X140762595Y-48130326D01*
X140695184Y-48197736D01*
X140599210Y-48350478D01*
X140539632Y-48520742D01*
X140539632Y-48520745D01*
X140524500Y-48655046D01*
X140524500Y-49144954D01*
X140524894Y-49148456D01*
X140524895Y-49148463D01*
X140539632Y-49279257D01*
X140599210Y-49449521D01*
X140695184Y-49602263D01*
X140728826Y-49635905D01*
X140762852Y-49698217D01*
X140757787Y-49769032D01*
X140728826Y-49814095D01*
X140695184Y-49847736D01*
X140599210Y-50000478D01*
X140539632Y-50170742D01*
X140525069Y-50300000D01*
X140524500Y-50305046D01*
X140524500Y-50794954D01*
X140524894Y-50798456D01*
X140524895Y-50798463D01*
X140539632Y-50929257D01*
X140599210Y-51099521D01*
X140695184Y-51252263D01*
X140827326Y-51384405D01*
X140861352Y-51446717D01*
X140856287Y-51517532D01*
X140813740Y-51574368D01*
X140747220Y-51599179D01*
X140738231Y-51599500D01*
X138483768Y-51599500D01*
X138415647Y-51579498D01*
X138394673Y-51562595D01*
X137892287Y-51060209D01*
X137892158Y-51060106D01*
X136887109Y-50055057D01*
X136853083Y-49992745D01*
X136851282Y-49982407D01*
X136839017Y-49889238D01*
X136835823Y-49881528D01*
X136793131Y-49778459D01*
X136778508Y-49743155D01*
X136682255Y-49617716D01*
X136556815Y-49521463D01*
X136477018Y-49488410D01*
X136421737Y-49443861D01*
X136399316Y-49376498D01*
X136416874Y-49307707D01*
X136468836Y-49259329D01*
X136525236Y-49246001D01*
X136761973Y-49246001D01*
X136761973Y-49200778D01*
X136761613Y-49194062D01*
X136753776Y-49121171D01*
X136756470Y-49120881D01*
X136753060Y-49073221D01*
X136755141Y-49066134D01*
X136761613Y-49005938D01*
X136761973Y-48999222D01*
X136761973Y-48954000D01*
X136253973Y-48954000D01*
X136253973Y-49258968D01*
X136272401Y-49292716D01*
X136267336Y-49363531D01*
X136224789Y-49420367D01*
X136158269Y-49445178D01*
X136149280Y-49445499D01*
X135850665Y-49445499D01*
X135782544Y-49425497D01*
X135736051Y-49371841D01*
X135725947Y-49301567D01*
X135745973Y-49257718D01*
X135745973Y-48141032D01*
X135727544Y-48107283D01*
X135732609Y-48036468D01*
X135775156Y-47979632D01*
X135841676Y-47954821D01*
X135850643Y-47954500D01*
X136127973Y-47954500D01*
X136196094Y-47974502D01*
X136242587Y-48028158D01*
X136253973Y-48080500D01*
X136253973Y-48446000D01*
X136761973Y-48446000D01*
X136761973Y-48400777D01*
X136761613Y-48394061D01*
X136753776Y-48321170D01*
X136756470Y-48320880D01*
X136753060Y-48273220D01*
X136755141Y-48266133D01*
X136761613Y-48205937D01*
X136761973Y-48199221D01*
X136761973Y-48154710D01*
X136781975Y-48086589D01*
X136835631Y-48040096D01*
X136905905Y-48029992D01*
X136963355Y-48056229D01*
X136963511Y-48055978D01*
X136965498Y-48057208D01*
X136970485Y-48059486D01*
X136972827Y-48061567D01*
X136973438Y-48062124D01*
X136973440Y-48062125D01*
X136973442Y-48062127D01*
X137162594Y-48179245D01*
X137162598Y-48179246D01*
X137162599Y-48179247D01*
X137370060Y-48259618D01*
X137588757Y-48300500D01*
X137588759Y-48300500D01*
X137811241Y-48300500D01*
X137811243Y-48300500D01*
X138029940Y-48259618D01*
X138237401Y-48179247D01*
X138237402Y-48179245D01*
X138237405Y-48179245D01*
X138353627Y-48107283D01*
X138426562Y-48062124D01*
X138590981Y-47912236D01*
X138725058Y-47734689D01*
X138824229Y-47535528D01*
X138885115Y-47321536D01*
X138905643Y-47100000D01*
X138885115Y-46878464D01*
X138824229Y-46664472D01*
X138824228Y-46664469D01*
X138733699Y-46482663D01*
X138721239Y-46412769D01*
X138748546Y-46347233D01*
X138806949Y-46306865D01*
X138846489Y-46300500D01*
X140673500Y-46300500D01*
X140741621Y-46320502D01*
G37*
%TD.AperFunction*%
%TA.AperFunction,Conductor*%
G36*
X154941621Y-35020502D02*
G01*
X154988114Y-35074158D01*
X154999500Y-35126500D01*
X154999500Y-53373500D01*
X154979498Y-53441621D01*
X154925842Y-53488114D01*
X154873500Y-53499500D01*
X129976500Y-53499500D01*
X129908379Y-53479498D01*
X129861886Y-53425842D01*
X129850500Y-53373500D01*
X129850500Y-48700000D01*
X131394357Y-48700000D01*
X131414885Y-48921536D01*
X131414885Y-48921539D01*
X131414886Y-48921540D01*
X131475770Y-49135527D01*
X131574942Y-49334689D01*
X131692437Y-49490278D01*
X131717527Y-49556694D01*
X131702727Y-49626130D01*
X131692440Y-49642138D01*
X131674943Y-49665309D01*
X131575770Y-49864472D01*
X131514886Y-50078459D01*
X131514885Y-50078464D01*
X131494357Y-50300000D01*
X131514885Y-50521536D01*
X131514885Y-50521539D01*
X131514886Y-50521540D01*
X131575770Y-50735527D01*
X131637969Y-50860438D01*
X131674942Y-50934689D01*
X131809019Y-51112236D01*
X131973438Y-51262124D01*
X131973440Y-51262125D01*
X131973441Y-51262126D01*
X132162594Y-51379245D01*
X132162598Y-51379246D01*
X132162599Y-51379247D01*
X132370060Y-51459618D01*
X132588757Y-51500500D01*
X132588759Y-51500500D01*
X132811241Y-51500500D01*
X132811243Y-51500500D01*
X133029940Y-51459618D01*
X133237401Y-51379247D01*
X133237402Y-51379245D01*
X133237405Y-51379245D01*
X133364582Y-51300500D01*
X133426562Y-51262124D01*
X133567782Y-51133384D01*
X133631601Y-51102273D01*
X133652669Y-51100499D01*
X133871149Y-51100499D01*
X133919365Y-51110089D01*
X133989265Y-51139043D01*
X134106666Y-51154499D01*
X134693387Y-51154498D01*
X134810789Y-51139043D01*
X134956868Y-51078535D01*
X134956868Y-51078534D01*
X134956870Y-51078534D01*
X135082306Y-50982283D01*
X135082305Y-50982283D01*
X135082309Y-50982281D01*
X135100039Y-50959174D01*
X135157375Y-50917309D01*
X135228246Y-50913087D01*
X135290149Y-50947851D01*
X135299953Y-50959165D01*
X135317691Y-50982281D01*
X135317693Y-50982283D01*
X135443130Y-51078534D01*
X135443131Y-51078534D01*
X135443132Y-51078535D01*
X135589211Y-51139043D01*
X135682383Y-51151309D01*
X135747310Y-51180031D01*
X135755020Y-51187124D01*
X136770157Y-52202262D01*
X136787877Y-52219982D01*
X136787880Y-52219984D01*
X136886366Y-52318470D01*
X136907862Y-52339966D01*
X136907988Y-52340066D01*
X137597738Y-53029816D01*
X137630054Y-53050122D01*
X137641577Y-53058298D01*
X137641580Y-53058300D01*
X137671413Y-53082091D01*
X137705799Y-53098650D01*
X137718153Y-53105478D01*
X137750478Y-53125789D01*
X137786508Y-53138396D01*
X137799545Y-53143795D01*
X137833939Y-53160359D01*
X137870554Y-53168716D01*
X137871144Y-53168851D01*
X137884720Y-53172762D01*
X137920745Y-53185368D01*
X137958677Y-53189641D01*
X137972586Y-53192004D01*
X138009805Y-53200500D01*
X138009807Y-53200500D01*
X146890195Y-53200500D01*
X146904852Y-53197154D01*
X146927404Y-53192006D01*
X146941319Y-53189642D01*
X146979255Y-53185368D01*
X147015280Y-53172761D01*
X147028854Y-53168852D01*
X147066057Y-53160361D01*
X147066057Y-53160360D01*
X147066061Y-53160360D01*
X147100459Y-53143794D01*
X147113488Y-53138397D01*
X147149522Y-53125789D01*
X147181840Y-53105481D01*
X147194196Y-53098652D01*
X147228587Y-53082091D01*
X147258434Y-53058287D01*
X147269934Y-53050127D01*
X147302262Y-53029816D01*
X147302263Y-53029814D01*
X147394674Y-52937405D01*
X147456986Y-52903379D01*
X147483769Y-52900500D01*
X147611241Y-52900500D01*
X147611243Y-52900500D01*
X147829940Y-52859618D01*
X148037401Y-52779247D01*
X148037402Y-52779245D01*
X148037405Y-52779245D01*
X148131981Y-52720685D01*
X148226562Y-52662124D01*
X148390981Y-52512236D01*
X148525058Y-52334689D01*
X148624229Y-52135528D01*
X148685115Y-51921536D01*
X148686433Y-51907302D01*
X148712635Y-51841320D01*
X148770352Y-51799976D01*
X148841258Y-51796399D01*
X148902842Y-51831725D01*
X148917373Y-51850006D01*
X149011429Y-51993969D01*
X149174236Y-52170825D01*
X149363933Y-52318472D01*
X149575344Y-52432882D01*
X149802703Y-52510934D01*
X150039808Y-52550500D01*
X150039811Y-52550500D01*
X150280189Y-52550500D01*
X150280192Y-52550500D01*
X150517297Y-52510934D01*
X150744656Y-52432882D01*
X150956067Y-52318472D01*
X151145764Y-52170825D01*
X151308571Y-51993969D01*
X151324518Y-51969559D01*
X151378520Y-51923473D01*
X151448868Y-51913897D01*
X151513225Y-51943874D01*
X151535480Y-51969558D01*
X151551429Y-51993969D01*
X151714236Y-52170825D01*
X151903933Y-52318472D01*
X152115344Y-52432882D01*
X152342703Y-52510934D01*
X152579808Y-52550500D01*
X152579811Y-52550500D01*
X152820189Y-52550500D01*
X152820192Y-52550500D01*
X153057297Y-52510934D01*
X153284656Y-52432882D01*
X153496067Y-52318472D01*
X153685764Y-52170825D01*
X153848571Y-51993969D01*
X153980049Y-51792728D01*
X154076610Y-51572591D01*
X154135620Y-51339563D01*
X154155471Y-51100000D01*
X154135620Y-50860437D01*
X154076610Y-50627409D01*
X153980049Y-50407272D01*
X153848571Y-50206031D01*
X153685764Y-50029175D01*
X153557613Y-49929431D01*
X153516143Y-49871807D01*
X153512409Y-49800908D01*
X153547599Y-49739246D01*
X153557614Y-49730568D01*
X153564768Y-49725000D01*
X153685764Y-49630825D01*
X153848571Y-49453969D01*
X153980049Y-49252728D01*
X154076610Y-49032591D01*
X154135620Y-48799563D01*
X154155471Y-48560000D01*
X154135620Y-48320437D01*
X154076610Y-48087409D01*
X153980049Y-47867272D01*
X153848571Y-47666031D01*
X153728434Y-47535527D01*
X153685767Y-47489178D01*
X153685766Y-47489177D01*
X153685764Y-47489175D01*
X153496067Y-47341528D01*
X153496064Y-47341526D01*
X153487828Y-47335116D01*
X153489133Y-47333438D01*
X153448352Y-47292962D01*
X153433001Y-47223645D01*
X153457563Y-47157032D01*
X153481322Y-47132731D01*
X153622903Y-47022533D01*
X153775321Y-46856962D01*
X153898419Y-46668548D01*
X153988822Y-46462451D01*
X154036544Y-46274000D01*
X153131116Y-46274000D01*
X153159493Y-46229844D01*
X153200000Y-46091889D01*
X153200000Y-45948111D01*
X153159493Y-45810156D01*
X153131116Y-45766000D01*
X154036544Y-45766000D01*
X154036544Y-45765999D01*
X153988822Y-45577548D01*
X153898419Y-45371451D01*
X153775321Y-45183037D01*
X153699966Y-45101179D01*
X153668545Y-45037514D01*
X153676532Y-44966968D01*
X153721391Y-44911940D01*
X153744445Y-44899435D01*
X153852841Y-44854536D01*
X153852841Y-44854535D01*
X153852843Y-44854535D01*
X153978282Y-44758282D01*
X154011776Y-44714632D01*
X154074536Y-44632841D01*
X154135044Y-44486762D01*
X154150500Y-44369361D01*
X154150499Y-42590640D01*
X154135044Y-42473238D01*
X154074536Y-42327159D01*
X154074535Y-42327158D01*
X154074535Y-42327157D01*
X153981325Y-42205684D01*
X153955724Y-42139464D01*
X153969988Y-42069915D01*
X153992188Y-42039889D01*
X154197826Y-41834252D01*
X154197825Y-41834252D01*
X154229816Y-41802262D01*
X154229819Y-41802256D01*
X154234420Y-41797656D01*
X154237175Y-41790548D01*
X154250133Y-41769926D01*
X154258287Y-41758434D01*
X154282091Y-41728587D01*
X154298652Y-41694196D01*
X154305481Y-41681840D01*
X154325789Y-41649522D01*
X154338397Y-41613488D01*
X154343794Y-41600459D01*
X154360360Y-41566061D01*
X154368851Y-41528854D01*
X154372764Y-41515273D01*
X154385368Y-41479255D01*
X154389642Y-41441319D01*
X154392008Y-41427398D01*
X154400500Y-41390194D01*
X154400500Y-40352005D01*
X154420502Y-40283884D01*
X154429654Y-40273708D01*
X154428574Y-40272840D01*
X154535354Y-40139999D01*
X154549653Y-40122210D01*
X154629433Y-39961349D01*
X154672766Y-39787100D01*
X154675500Y-39746784D01*
X154675500Y-39153216D01*
X154672766Y-39112900D01*
X154629433Y-38938651D01*
X154549653Y-38777790D01*
X154468991Y-38677442D01*
X154441905Y-38611820D01*
X154454596Y-38541967D01*
X154459959Y-38532358D01*
X154518846Y-38436888D01*
X154572743Y-38274238D01*
X154582674Y-38177028D01*
X154583000Y-38170638D01*
X154583000Y-38154000D01*
X152617000Y-38154000D01*
X152617000Y-38170638D01*
X152617325Y-38177028D01*
X152627256Y-38274238D01*
X152681153Y-38436885D01*
X152693777Y-38457352D01*
X152712515Y-38525831D01*
X152691256Y-38593570D01*
X152636750Y-38639063D01*
X152586537Y-38649500D01*
X151687913Y-38649500D01*
X151619792Y-38629498D01*
X151573299Y-38575842D01*
X151563195Y-38505568D01*
X151592689Y-38440988D01*
X151623775Y-38415046D01*
X151756499Y-38336554D01*
X151874052Y-38219001D01*
X151958681Y-38075899D01*
X152005064Y-37916252D01*
X152007806Y-37881415D01*
X152008000Y-37876486D01*
X152008000Y-37646000D01*
X152617000Y-37646000D01*
X153346000Y-37646000D01*
X153346000Y-36942000D01*
X153854000Y-36942000D01*
X153854000Y-37646000D01*
X154583000Y-37646000D01*
X154583000Y-37629361D01*
X154582674Y-37622971D01*
X154572743Y-37525761D01*
X154518847Y-37363114D01*
X154428888Y-37217268D01*
X154307731Y-37096111D01*
X154161885Y-37006152D01*
X153999238Y-36952256D01*
X153902028Y-36942325D01*
X153895639Y-36942000D01*
X153854000Y-36942000D01*
X153346000Y-36942000D01*
X153304361Y-36942000D01*
X153297971Y-36942325D01*
X153200761Y-36952256D01*
X153038114Y-37006152D01*
X152892268Y-37096111D01*
X152771111Y-37217268D01*
X152681152Y-37363114D01*
X152627256Y-37525761D01*
X152617325Y-37622971D01*
X152617000Y-37629361D01*
X152617000Y-37646000D01*
X152008000Y-37646000D01*
X152008000Y-37554000D01*
X151072000Y-37554000D01*
X151003879Y-37533998D01*
X150957386Y-37480342D01*
X150946000Y-37428000D01*
X150946000Y-36132507D01*
X151454000Y-36132507D01*
X151454000Y-37046000D01*
X152007999Y-37046000D01*
X152007999Y-36723516D01*
X152007805Y-36718582D01*
X152005064Y-36683747D01*
X151958682Y-36524101D01*
X151874052Y-36380998D01*
X151756501Y-36263447D01*
X151613399Y-36178818D01*
X151454000Y-36132507D01*
X150946000Y-36132507D01*
X150786600Y-36178818D01*
X150643498Y-36263447D01*
X150525947Y-36380998D01*
X150441316Y-36524103D01*
X150419881Y-36597881D01*
X150381668Y-36657716D01*
X150317171Y-36687392D01*
X150246868Y-36677488D01*
X150193081Y-36631148D01*
X150179284Y-36602367D01*
X150134814Y-36468166D01*
X150042712Y-36318844D01*
X149918656Y-36194788D01*
X149769334Y-36102686D01*
X149769331Y-36102684D01*
X149602800Y-36047501D01*
X149503193Y-36037325D01*
X149503187Y-36037324D01*
X149500009Y-36037000D01*
X149496803Y-36037000D01*
X149103199Y-36037000D01*
X149103179Y-36037000D01*
X149099992Y-36037001D01*
X149096814Y-36037325D01*
X149096806Y-36037326D01*
X148997199Y-36047501D01*
X148830668Y-36102684D01*
X148681341Y-36194790D01*
X148557290Y-36318841D01*
X148465184Y-36468169D01*
X148450285Y-36513133D01*
X148409871Y-36571505D01*
X148344315Y-36598760D01*
X148330681Y-36599500D01*
X147152031Y-36599500D01*
X147137925Y-36598708D01*
X147100000Y-36594435D01*
X147062075Y-36598708D01*
X147047969Y-36599500D01*
X145483769Y-36599500D01*
X145415648Y-36579498D01*
X145394674Y-36562595D01*
X145277263Y-36445184D01*
X145124521Y-36349210D01*
X144954257Y-36289632D01*
X144823463Y-36274895D01*
X144823456Y-36274894D01*
X144819954Y-36274500D01*
X144180046Y-36274500D01*
X144176544Y-36274894D01*
X144176536Y-36274895D01*
X144045742Y-36289632D01*
X143875478Y-36349210D01*
X143710717Y-36452737D01*
X143708642Y-36449435D01*
X143668014Y-36471621D01*
X143641231Y-36474500D01*
X142033824Y-36474500D01*
X141965703Y-36454498D01*
X141954884Y-36446706D01*
X141897212Y-36400348D01*
X141736348Y-36320566D01*
X141562096Y-36277233D01*
X141523930Y-36274645D01*
X141523914Y-36274644D01*
X141521784Y-36274500D01*
X140878216Y-36274500D01*
X140876086Y-36274644D01*
X140876069Y-36274645D01*
X140837903Y-36277233D01*
X140663651Y-36320566D01*
X140502787Y-36400348D01*
X140362840Y-36512840D01*
X140250346Y-36652790D01*
X140212309Y-36729484D01*
X140164123Y-36781624D01*
X140099430Y-36799500D01*
X135951184Y-36799500D01*
X135883063Y-36779498D01*
X135866298Y-36766615D01*
X135725957Y-36638677D01*
X135630380Y-36579498D01*
X135536955Y-36521651D01*
X135407811Y-36471621D01*
X135329665Y-36441347D01*
X135111150Y-36400500D01*
X134888850Y-36400500D01*
X134670334Y-36441346D01*
X134670335Y-36441347D01*
X134463044Y-36521651D01*
X134274044Y-36638676D01*
X134109760Y-36788441D01*
X133975796Y-36965836D01*
X133876707Y-37164835D01*
X133815872Y-37378645D01*
X133795361Y-37600000D01*
X133815872Y-37821354D01*
X133876707Y-38035164D01*
X133975796Y-38234163D01*
X134034577Y-38312001D01*
X134109761Y-38411560D01*
X134274043Y-38561323D01*
X134399597Y-38639063D01*
X134461587Y-38677446D01*
X134463046Y-38678349D01*
X134670335Y-38758653D01*
X134888850Y-38799500D01*
X134888852Y-38799500D01*
X135111148Y-38799500D01*
X135111150Y-38799500D01*
X135329665Y-38758653D01*
X135536954Y-38678349D01*
X135725957Y-38561323D01*
X135866298Y-38433384D01*
X135930116Y-38402274D01*
X135951184Y-38400500D01*
X140097971Y-38400500D01*
X140166092Y-38420502D01*
X140212585Y-38474158D01*
X140223319Y-38539306D01*
X140217325Y-38597971D01*
X140217000Y-38604361D01*
X140217000Y-38621000D01*
X142183000Y-38621000D01*
X142183000Y-38604361D01*
X142182674Y-38597971D01*
X142172743Y-38500761D01*
X142118847Y-38338115D01*
X142075382Y-38267647D01*
X142056645Y-38199168D01*
X142077904Y-38131429D01*
X142132411Y-38085937D01*
X142182623Y-38075500D01*
X143459720Y-38075500D01*
X143527841Y-38095502D01*
X143574334Y-38149158D01*
X143584438Y-38219432D01*
X143566407Y-38268536D01*
X143499210Y-38375478D01*
X143439632Y-38545742D01*
X143427942Y-38649500D01*
X143424500Y-38680046D01*
X143424500Y-38683582D01*
X143424500Y-39001231D01*
X143404498Y-39069352D01*
X143387595Y-39090326D01*
X140635327Y-41842595D01*
X140573015Y-41876621D01*
X140546232Y-41879500D01*
X136249704Y-41879500D01*
X136181583Y-41859498D01*
X136135090Y-41805842D01*
X136133296Y-41801719D01*
X136123536Y-41778159D01*
X136027282Y-41652717D01*
X135901842Y-41556464D01*
X135755761Y-41495955D01*
X135642448Y-41481038D01*
X135642447Y-41481037D01*
X135638361Y-41480500D01*
X135634239Y-41480500D01*
X134365763Y-41480500D01*
X134365747Y-41480500D01*
X134361640Y-41480501D01*
X134357556Y-41481038D01*
X134357550Y-41481039D01*
X134244239Y-41495955D01*
X134098156Y-41556464D01*
X133972717Y-41652717D01*
X133876464Y-41778157D01*
X133815955Y-41924238D01*
X133802098Y-42029500D01*
X133800500Y-42041639D01*
X133800500Y-42045759D01*
X133800500Y-42045760D01*
X133800500Y-43314236D01*
X133800500Y-43314251D01*
X133800501Y-43318360D01*
X133801038Y-43322444D01*
X133801039Y-43322449D01*
X133815955Y-43435760D01*
X133876464Y-43581843D01*
X133972717Y-43707282D01*
X134098157Y-43803535D01*
X134098158Y-43803535D01*
X134098159Y-43803536D01*
X134244238Y-43864044D01*
X134361639Y-43879500D01*
X135638360Y-43879499D01*
X135755762Y-43864044D01*
X135901841Y-43803536D01*
X135901841Y-43803535D01*
X135901843Y-43803535D01*
X136027282Y-43707282D01*
X136027282Y-43707281D01*
X136123536Y-43581841D01*
X136126231Y-43575334D01*
X136133296Y-43558281D01*
X136177844Y-43503001D01*
X136245208Y-43480580D01*
X136249704Y-43480500D01*
X140399148Y-43480500D01*
X140467269Y-43500502D01*
X140513762Y-43554158D01*
X140524839Y-43598984D01*
X140524500Y-43594953D01*
X140539632Y-43729257D01*
X140599210Y-43899521D01*
X140695184Y-44052263D01*
X140728825Y-44085904D01*
X140762851Y-44148216D01*
X140757786Y-44219031D01*
X140728827Y-44264092D01*
X140695185Y-44297734D01*
X140599210Y-44450478D01*
X140541602Y-44615115D01*
X140500224Y-44672807D01*
X140434223Y-44698969D01*
X140422673Y-44699500D01*
X133809804Y-44699500D01*
X133772595Y-44707992D01*
X133758677Y-44710357D01*
X133739751Y-44712490D01*
X133720740Y-44714632D01*
X133684717Y-44727237D01*
X133671148Y-44731147D01*
X133633938Y-44739641D01*
X133599558Y-44756197D01*
X133586512Y-44761601D01*
X133550477Y-44774211D01*
X133518152Y-44794521D01*
X133505792Y-44801352D01*
X133471412Y-44817909D01*
X133441573Y-44841704D01*
X133430056Y-44849876D01*
X133397736Y-44870185D01*
X133365748Y-44902174D01*
X132680018Y-45587902D01*
X132680014Y-45587908D01*
X132570183Y-45697738D01*
X132549876Y-45730056D01*
X132541704Y-45741573D01*
X132517907Y-45771415D01*
X132501344Y-45805805D01*
X132494515Y-45818162D01*
X132474210Y-45850478D01*
X132461605Y-45886500D01*
X132456201Y-45899547D01*
X132439638Y-45933941D01*
X132431146Y-45971147D01*
X132427237Y-45984718D01*
X132414631Y-46020747D01*
X132410358Y-46058664D01*
X132407993Y-46072585D01*
X132399500Y-46109803D01*
X132399500Y-47404390D01*
X132396614Y-47404390D01*
X132393562Y-47454101D01*
X132351592Y-47511363D01*
X132298222Y-47535117D01*
X132270062Y-47540381D01*
X132062594Y-47620754D01*
X131873441Y-47737873D01*
X131709018Y-47887765D01*
X131574942Y-48065310D01*
X131475770Y-48264472D01*
X131414886Y-48478459D01*
X131414885Y-48478464D01*
X131394357Y-48700000D01*
X129850500Y-48700000D01*
X129850500Y-41081487D01*
X131877721Y-41081487D01*
X131964452Y-41135190D01*
X132155756Y-41209301D01*
X132357423Y-41247000D01*
X132562577Y-41247000D01*
X132764243Y-41209301D01*
X132955548Y-41135189D01*
X133042276Y-41081488D01*
X132460000Y-40499210D01*
X132459999Y-40499210D01*
X131877721Y-41081487D01*
X129850500Y-41081487D01*
X129850500Y-40140000D01*
X131348257Y-40140000D01*
X131367187Y-40344279D01*
X131423330Y-40541605D01*
X131514779Y-40725260D01*
X131515101Y-40725685D01*
X131515102Y-40725686D01*
X132039955Y-40200833D01*
X132115000Y-40200833D01*
X132156612Y-40315161D01*
X132234817Y-40408362D01*
X132340183Y-40469195D01*
X132429817Y-40485000D01*
X132490183Y-40485000D01*
X132579817Y-40469195D01*
X132685183Y-40408362D01*
X132763388Y-40315161D01*
X132805000Y-40200833D01*
X132805000Y-40139999D01*
X132819210Y-40139999D01*
X133404896Y-40725685D01*
X133405224Y-40725253D01*
X133496668Y-40541609D01*
X133552812Y-40344279D01*
X133571742Y-40140000D01*
X136335361Y-40140000D01*
X136355872Y-40361354D01*
X136416707Y-40575164D01*
X136515796Y-40774163D01*
X136556073Y-40827498D01*
X136649761Y-40951560D01*
X136814043Y-41101323D01*
X136950511Y-41185820D01*
X136989248Y-41209806D01*
X137003046Y-41218349D01*
X137210335Y-41298653D01*
X137428850Y-41339500D01*
X137428852Y-41339500D01*
X137651148Y-41339500D01*
X137651150Y-41339500D01*
X137869665Y-41298653D01*
X138076954Y-41218349D01*
X138265957Y-41101323D01*
X138430239Y-40951560D01*
X138564205Y-40774161D01*
X138663292Y-40575166D01*
X138724128Y-40361352D01*
X138744639Y-40140000D01*
X138724128Y-39918648D01*
X138663292Y-39704834D01*
X138564205Y-39505839D01*
X138430239Y-39328440D01*
X138265957Y-39178677D01*
X138185726Y-39129000D01*
X140217000Y-39129000D01*
X140217000Y-39145638D01*
X140217325Y-39152028D01*
X140227256Y-39249238D01*
X140281152Y-39411885D01*
X140371111Y-39557731D01*
X140492268Y-39678888D01*
X140638114Y-39768847D01*
X140800761Y-39822743D01*
X140897971Y-39832674D01*
X140904361Y-39833000D01*
X140946000Y-39833000D01*
X140946000Y-39129000D01*
X141454000Y-39129000D01*
X141454000Y-39833000D01*
X141495639Y-39833000D01*
X141502028Y-39832674D01*
X141599238Y-39822743D01*
X141761885Y-39768847D01*
X141907731Y-39678888D01*
X142028888Y-39557731D01*
X142118847Y-39411885D01*
X142172743Y-39249238D01*
X142182674Y-39152028D01*
X142183000Y-39145638D01*
X142183000Y-39129000D01*
X141454000Y-39129000D01*
X140946000Y-39129000D01*
X140217000Y-39129000D01*
X138185726Y-39129000D01*
X138123266Y-39090326D01*
X138076955Y-39061651D01*
X137950057Y-39012491D01*
X137869665Y-38981347D01*
X137651150Y-38940500D01*
X137428850Y-38940500D01*
X137210335Y-38981347D01*
X137003044Y-39061651D01*
X136814044Y-39178676D01*
X136649760Y-39328441D01*
X136515796Y-39505836D01*
X136416707Y-39704835D01*
X136355872Y-39918645D01*
X136335361Y-40140000D01*
X133571742Y-40140000D01*
X133552812Y-39935720D01*
X133496669Y-39738392D01*
X133405221Y-39554743D01*
X133404895Y-39554312D01*
X132819210Y-40139998D01*
X132819210Y-40139999D01*
X132805000Y-40139999D01*
X132805000Y-40079167D01*
X132763388Y-39964839D01*
X132685183Y-39871638D01*
X132579817Y-39810805D01*
X132490183Y-39795000D01*
X132429817Y-39795000D01*
X132340183Y-39810805D01*
X132234817Y-39871638D01*
X132156612Y-39964839D01*
X132115000Y-40079167D01*
X132115000Y-40200833D01*
X132039955Y-40200833D01*
X132100789Y-40139999D01*
X131515102Y-39554312D01*
X131514777Y-39554744D01*
X131423330Y-39738392D01*
X131367187Y-39935720D01*
X131348257Y-40140000D01*
X129850500Y-40140000D01*
X129850500Y-39198511D01*
X131877721Y-39198511D01*
X132459999Y-39780789D01*
X132460000Y-39780789D01*
X133042277Y-39198511D01*
X132955547Y-39144809D01*
X132764243Y-39070698D01*
X132562577Y-39033000D01*
X132357423Y-39033000D01*
X132155756Y-39070698D01*
X131964449Y-39144810D01*
X131877721Y-39198510D01*
X131877721Y-39198511D01*
X129850500Y-39198511D01*
X129850500Y-35126500D01*
X129870502Y-35058379D01*
X129924158Y-35011886D01*
X129976500Y-35000500D01*
X154873500Y-35000500D01*
X154941621Y-35020502D01*
G37*
%TD.AperFunction*%
%TD*%
M02*
