%TF.GenerationSoftware,KiCad,Pcbnew,7.0.1*%
%TF.CreationDate,2023-05-03T15:55:27+02:00*%
%TF.ProjectId,board,626f6172-642e-46b6-9963-61645f706362,rev?*%
%TF.SameCoordinates,Original*%
%TF.FileFunction,Copper,L1,Top*%
%TF.FilePolarity,Positive*%
%FSLAX46Y46*%
G04 Gerber Fmt 4.6, Leading zero omitted, Abs format (unit mm)*
G04 Created by KiCad (PCBNEW 7.0.1) date 2023-05-03 15:55:27*
%MOMM*%
%LPD*%
G01*
G04 APERTURE LIST*
G04 Aperture macros list*
%AMRoundRect*
0 Rectangle with rounded corners*
0 $1 Rounding radius*
0 $2 $3 $4 $5 $6 $7 $8 $9 X,Y pos of 4 corners*
0 Add a 4 corners polygon primitive as box body*
4,1,4,$2,$3,$4,$5,$6,$7,$8,$9,$2,$3,0*
0 Add four circle primitives for the rounded corners*
1,1,$1+$1,$2,$3*
1,1,$1+$1,$4,$5*
1,1,$1+$1,$6,$7*
1,1,$1+$1,$8,$9*
0 Add four rect primitives between the rounded corners*
20,1,$1+$1,$2,$3,$4,$5,0*
20,1,$1+$1,$4,$5,$6,$7,0*
20,1,$1+$1,$6,$7,$8,$9,0*
20,1,$1+$1,$8,$9,$2,$3,0*%
G04 Aperture macros list end*
%TA.AperFunction,NonConductor*%
%ADD10C,0.200000*%
%TD*%
%TA.AperFunction,NonConductor*%
%ADD11C,0.250000*%
%TD*%
%ADD12C,0.300000*%
%TA.AperFunction,NonConductor*%
%ADD13C,0.300000*%
%TD*%
%TA.AperFunction,EtchedComponent*%
%ADD14C,0.254000*%
%TD*%
%TA.AperFunction,EtchedComponent*%
%ADD15C,0.203200*%
%TD*%
%TA.AperFunction,EtchedComponent*%
%ADD16C,0.000100*%
%TD*%
%TA.AperFunction,SMDPad,CuDef*%
%ADD17RoundRect,0.127000X0.000000X0.000000X0.000000X0.000000X0.000000X0.000000X0.000000X0.000000X0*%
%TD*%
%TA.AperFunction,SMDPad,CuDef*%
%ADD18RoundRect,0.140000X-0.170000X0.140000X-0.170000X-0.140000X0.170000X-0.140000X0.170000X0.140000X0*%
%TD*%
%TA.AperFunction,SMDPad,CuDef*%
%ADD19R,1.500000X0.800000*%
%TD*%
%TA.AperFunction,SMDPad,CuDef*%
%ADD20R,0.300000X1.300000*%
%TD*%
%TA.AperFunction,SMDPad,CuDef*%
%ADD21R,1.800000X2.200000*%
%TD*%
%TA.AperFunction,SMDPad,CuDef*%
%ADD22RoundRect,0.140000X-0.140000X-0.170000X0.140000X-0.170000X0.140000X0.170000X-0.140000X0.170000X0*%
%TD*%
%TA.AperFunction,SMDPad,CuDef*%
%ADD23RoundRect,0.140000X0.170000X-0.140000X0.170000X0.140000X-0.170000X0.140000X-0.170000X-0.140000X0*%
%TD*%
%TA.AperFunction,SMDPad,CuDef*%
%ADD24RoundRect,0.147500X0.147500X0.172500X-0.147500X0.172500X-0.147500X-0.172500X0.147500X-0.172500X0*%
%TD*%
%TA.AperFunction,SMDPad,CuDef*%
%ADD25RoundRect,0.140000X0.140000X0.170000X-0.140000X0.170000X-0.140000X-0.170000X0.140000X-0.170000X0*%
%TD*%
%TA.AperFunction,SMDPad,CuDef*%
%ADD26R,0.635000X1.270000*%
%TD*%
%TA.AperFunction,ComponentPad*%
%ADD27R,1.000000X1.000000*%
%TD*%
%TA.AperFunction,ComponentPad*%
%ADD28O,1.000000X1.000000*%
%TD*%
%TA.AperFunction,SMDPad,CuDef*%
%ADD29RoundRect,0.135000X0.185000X-0.135000X0.185000X0.135000X-0.185000X0.135000X-0.185000X-0.135000X0*%
%TD*%
%TA.AperFunction,SMDPad,CuDef*%
%ADD30R,0.300000X0.800000*%
%TD*%
%TA.AperFunction,SMDPad,CuDef*%
%ADD31R,1.300000X3.049999*%
%TD*%
%TA.AperFunction,SMDPad,CuDef*%
%ADD32R,1.600000X1.000000*%
%TD*%
%TA.AperFunction,ComponentPad*%
%ADD33R,0.800000X0.800000*%
%TD*%
%TA.AperFunction,SMDPad,CuDef*%
%ADD34R,0.950000X0.850000*%
%TD*%
%TA.AperFunction,SMDPad,CuDef*%
%ADD35RoundRect,0.135000X0.135000X0.185000X-0.135000X0.185000X-0.135000X-0.185000X0.135000X-0.185000X0*%
%TD*%
%TA.AperFunction,SMDPad,CuDef*%
%ADD36R,0.950000X0.350000*%
%TD*%
%TA.AperFunction,SMDPad,CuDef*%
%ADD37R,1.650000X0.750000*%
%TD*%
%TA.AperFunction,SMDPad,CuDef*%
%ADD38R,0.970000X0.220000*%
%TD*%
%TA.AperFunction,SMDPad,CuDef*%
%ADD39R,0.220000X0.970000*%
%TD*%
%TA.AperFunction,SMDPad,CuDef*%
%ADD40R,6.400000X6.400000*%
%TD*%
%TA.AperFunction,SMDPad,CuDef*%
%ADD41RoundRect,0.147500X-0.147500X-0.172500X0.147500X-0.172500X0.147500X0.172500X-0.147500X0.172500X0*%
%TD*%
%TA.AperFunction,SMDPad,CuDef*%
%ADD42R,0.812800X1.498600*%
%TD*%
%TA.AperFunction,SMDPad,CuDef*%
%ADD43R,1.803400X1.397000*%
%TD*%
%TA.AperFunction,SMDPad,CuDef*%
%ADD44R,1.397000X1.905000*%
%TD*%
%TA.AperFunction,ViaPad*%
%ADD45C,0.800000*%
%TD*%
%TA.AperFunction,Conductor*%
%ADD46C,0.200000*%
%TD*%
G04 APERTURE END LIST*
D10*
X234400000Y-61725000D02*
X233350000Y-61725000D01*
D11*
X251837500Y-86950000D02*
X250612500Y-86950000D01*
D12*
D13*
X260396785Y-88269284D02*
X261396785Y-88269284D01*
X259825357Y-88626426D02*
X260896785Y-88983569D01*
X260896785Y-88983569D02*
X260896785Y-88054998D01*
X261396785Y-86697855D02*
X261396785Y-87554998D01*
X261396785Y-87126427D02*
X259896785Y-87126427D01*
X259896785Y-87126427D02*
X260111071Y-87269284D01*
X260111071Y-87269284D02*
X260253928Y-87412141D01*
X260253928Y-87412141D02*
X260325357Y-87554998D01*
X261325357Y-85983570D02*
X261396785Y-85983570D01*
X261396785Y-85983570D02*
X261539642Y-86054999D01*
X261539642Y-86054999D02*
X261611071Y-86126427D01*
X261396785Y-85269284D02*
X261396785Y-84983570D01*
X261396785Y-84983570D02*
X261325357Y-84840713D01*
X261325357Y-84840713D02*
X261253928Y-84769284D01*
X261253928Y-84769284D02*
X261039642Y-84626427D01*
X261039642Y-84626427D02*
X260753928Y-84554998D01*
X260753928Y-84554998D02*
X260182499Y-84554998D01*
X260182499Y-84554998D02*
X260039642Y-84626427D01*
X260039642Y-84626427D02*
X259968214Y-84697856D01*
X259968214Y-84697856D02*
X259896785Y-84840713D01*
X259896785Y-84840713D02*
X259896785Y-85126427D01*
X259896785Y-85126427D02*
X259968214Y-85269284D01*
X259968214Y-85269284D02*
X260039642Y-85340713D01*
X260039642Y-85340713D02*
X260182499Y-85412141D01*
X260182499Y-85412141D02*
X260539642Y-85412141D01*
X260539642Y-85412141D02*
X260682499Y-85340713D01*
X260682499Y-85340713D02*
X260753928Y-85269284D01*
X260753928Y-85269284D02*
X260825357Y-85126427D01*
X260825357Y-85126427D02*
X260825357Y-84840713D01*
X260825357Y-84840713D02*
X260753928Y-84697856D01*
X260753928Y-84697856D02*
X260682499Y-84626427D01*
X260682499Y-84626427D02*
X260539642Y-84554998D01*
X261396785Y-83126427D02*
X261396785Y-83983570D01*
X261396785Y-83554999D02*
X259896785Y-83554999D01*
X259896785Y-83554999D02*
X260111071Y-83697856D01*
X260111071Y-83697856D02*
X260253928Y-83840713D01*
X260253928Y-83840713D02*
X260325357Y-83983570D01*
X259896785Y-82197856D02*
X259896785Y-82054999D01*
X259896785Y-82054999D02*
X259968214Y-81912142D01*
X259968214Y-81912142D02*
X260039642Y-81840714D01*
X260039642Y-81840714D02*
X260182499Y-81769285D01*
X260182499Y-81769285D02*
X260468214Y-81697856D01*
X260468214Y-81697856D02*
X260825357Y-81697856D01*
X260825357Y-81697856D02*
X261111071Y-81769285D01*
X261111071Y-81769285D02*
X261253928Y-81840714D01*
X261253928Y-81840714D02*
X261325357Y-81912142D01*
X261325357Y-81912142D02*
X261396785Y-82054999D01*
X261396785Y-82054999D02*
X261396785Y-82197856D01*
X261396785Y-82197856D02*
X261325357Y-82340714D01*
X261325357Y-82340714D02*
X261253928Y-82412142D01*
X261253928Y-82412142D02*
X261111071Y-82483571D01*
X261111071Y-82483571D02*
X260825357Y-82554999D01*
X260825357Y-82554999D02*
X260468214Y-82554999D01*
X260468214Y-82554999D02*
X260182499Y-82483571D01*
X260182499Y-82483571D02*
X260039642Y-82412142D01*
X260039642Y-82412142D02*
X259968214Y-82340714D01*
X259968214Y-82340714D02*
X259896785Y-82197856D01*
X259896785Y-80769285D02*
X259896785Y-80626428D01*
X259896785Y-80626428D02*
X259968214Y-80483571D01*
X259968214Y-80483571D02*
X260039642Y-80412143D01*
X260039642Y-80412143D02*
X260182499Y-80340714D01*
X260182499Y-80340714D02*
X260468214Y-80269285D01*
X260468214Y-80269285D02*
X260825357Y-80269285D01*
X260825357Y-80269285D02*
X261111071Y-80340714D01*
X261111071Y-80340714D02*
X261253928Y-80412143D01*
X261253928Y-80412143D02*
X261325357Y-80483571D01*
X261325357Y-80483571D02*
X261396785Y-80626428D01*
X261396785Y-80626428D02*
X261396785Y-80769285D01*
X261396785Y-80769285D02*
X261325357Y-80912143D01*
X261325357Y-80912143D02*
X261253928Y-80983571D01*
X261253928Y-80983571D02*
X261111071Y-81055000D01*
X261111071Y-81055000D02*
X260825357Y-81126428D01*
X260825357Y-81126428D02*
X260468214Y-81126428D01*
X260468214Y-81126428D02*
X260182499Y-81055000D01*
X260182499Y-81055000D02*
X260039642Y-80983571D01*
X260039642Y-80983571D02*
X259968214Y-80912143D01*
X259968214Y-80912143D02*
X259896785Y-80769285D01*
X261396785Y-78483572D02*
X260396785Y-78483572D01*
X260539642Y-78483572D02*
X260468214Y-78412143D01*
X260468214Y-78412143D02*
X260396785Y-78269286D01*
X260396785Y-78269286D02*
X260396785Y-78055000D01*
X260396785Y-78055000D02*
X260468214Y-77912143D01*
X260468214Y-77912143D02*
X260611071Y-77840715D01*
X260611071Y-77840715D02*
X261396785Y-77840715D01*
X260611071Y-77840715D02*
X260468214Y-77769286D01*
X260468214Y-77769286D02*
X260396785Y-77626429D01*
X260396785Y-77626429D02*
X260396785Y-77412143D01*
X260396785Y-77412143D02*
X260468214Y-77269286D01*
X260468214Y-77269286D02*
X260611071Y-77197857D01*
X260611071Y-77197857D02*
X261396785Y-77197857D01*
X261396785Y-76483572D02*
X260396785Y-76483572D01*
X260539642Y-76483572D02*
X260468214Y-76412143D01*
X260468214Y-76412143D02*
X260396785Y-76269286D01*
X260396785Y-76269286D02*
X260396785Y-76055000D01*
X260396785Y-76055000D02*
X260468214Y-75912143D01*
X260468214Y-75912143D02*
X260611071Y-75840715D01*
X260611071Y-75840715D02*
X261396785Y-75840715D01*
X260611071Y-75840715D02*
X260468214Y-75769286D01*
X260468214Y-75769286D02*
X260396785Y-75626429D01*
X260396785Y-75626429D02*
X260396785Y-75412143D01*
X260396785Y-75412143D02*
X260468214Y-75269286D01*
X260468214Y-75269286D02*
X260611071Y-75197857D01*
X260611071Y-75197857D02*
X261396785Y-75197857D01*
D10*
X258060000Y-61100000D02*
X263089277Y-61100000D01*
X258060000Y-103010000D02*
X263089277Y-103010000D01*
X262502857Y-61100000D02*
X262502857Y-103010000D01*
X262502857Y-61100000D02*
X262502857Y-103010000D01*
X262502857Y-61100000D02*
X263089278Y-62226504D01*
X262502857Y-61100000D02*
X261916436Y-62226504D01*
X262502857Y-103010000D02*
X261916436Y-101883496D01*
X262502857Y-103010000D02*
X263089278Y-101883496D01*
D12*
D13*
X231135716Y-106218928D02*
X231135716Y-107218928D01*
X230778573Y-105647500D02*
X230421430Y-106718928D01*
X230421430Y-106718928D02*
X231350001Y-106718928D01*
X232207144Y-105718928D02*
X232350001Y-105718928D01*
X232350001Y-105718928D02*
X232492858Y-105790357D01*
X232492858Y-105790357D02*
X232564287Y-105861785D01*
X232564287Y-105861785D02*
X232635715Y-106004642D01*
X232635715Y-106004642D02*
X232707144Y-106290357D01*
X232707144Y-106290357D02*
X232707144Y-106647500D01*
X232707144Y-106647500D02*
X232635715Y-106933214D01*
X232635715Y-106933214D02*
X232564287Y-107076071D01*
X232564287Y-107076071D02*
X232492858Y-107147500D01*
X232492858Y-107147500D02*
X232350001Y-107218928D01*
X232350001Y-107218928D02*
X232207144Y-107218928D01*
X232207144Y-107218928D02*
X232064287Y-107147500D01*
X232064287Y-107147500D02*
X231992858Y-107076071D01*
X231992858Y-107076071D02*
X231921429Y-106933214D01*
X231921429Y-106933214D02*
X231850001Y-106647500D01*
X231850001Y-106647500D02*
X231850001Y-106290357D01*
X231850001Y-106290357D02*
X231921429Y-106004642D01*
X231921429Y-106004642D02*
X231992858Y-105861785D01*
X231992858Y-105861785D02*
X232064287Y-105790357D01*
X232064287Y-105790357D02*
X232207144Y-105718928D01*
X233421429Y-107147500D02*
X233421429Y-107218928D01*
X233421429Y-107218928D02*
X233350000Y-107361785D01*
X233350000Y-107361785D02*
X233278572Y-107433214D01*
X234707144Y-106218928D02*
X234707144Y-107218928D01*
X234350001Y-105647500D02*
X233992858Y-106718928D01*
X233992858Y-106718928D02*
X234921429Y-106718928D01*
X235778572Y-105718928D02*
X235921429Y-105718928D01*
X235921429Y-105718928D02*
X236064286Y-105790357D01*
X236064286Y-105790357D02*
X236135715Y-105861785D01*
X236135715Y-105861785D02*
X236207143Y-106004642D01*
X236207143Y-106004642D02*
X236278572Y-106290357D01*
X236278572Y-106290357D02*
X236278572Y-106647500D01*
X236278572Y-106647500D02*
X236207143Y-106933214D01*
X236207143Y-106933214D02*
X236135715Y-107076071D01*
X236135715Y-107076071D02*
X236064286Y-107147500D01*
X236064286Y-107147500D02*
X235921429Y-107218928D01*
X235921429Y-107218928D02*
X235778572Y-107218928D01*
X235778572Y-107218928D02*
X235635715Y-107147500D01*
X235635715Y-107147500D02*
X235564286Y-107076071D01*
X235564286Y-107076071D02*
X235492857Y-106933214D01*
X235492857Y-106933214D02*
X235421429Y-106647500D01*
X235421429Y-106647500D02*
X235421429Y-106290357D01*
X235421429Y-106290357D02*
X235492857Y-106004642D01*
X235492857Y-106004642D02*
X235564286Y-105861785D01*
X235564286Y-105861785D02*
X235635715Y-105790357D01*
X235635715Y-105790357D02*
X235778572Y-105718928D01*
X237207143Y-105718928D02*
X237350000Y-105718928D01*
X237350000Y-105718928D02*
X237492857Y-105790357D01*
X237492857Y-105790357D02*
X237564286Y-105861785D01*
X237564286Y-105861785D02*
X237635714Y-106004642D01*
X237635714Y-106004642D02*
X237707143Y-106290357D01*
X237707143Y-106290357D02*
X237707143Y-106647500D01*
X237707143Y-106647500D02*
X237635714Y-106933214D01*
X237635714Y-106933214D02*
X237564286Y-107076071D01*
X237564286Y-107076071D02*
X237492857Y-107147500D01*
X237492857Y-107147500D02*
X237350000Y-107218928D01*
X237350000Y-107218928D02*
X237207143Y-107218928D01*
X237207143Y-107218928D02*
X237064286Y-107147500D01*
X237064286Y-107147500D02*
X236992857Y-107076071D01*
X236992857Y-107076071D02*
X236921428Y-106933214D01*
X236921428Y-106933214D02*
X236850000Y-106647500D01*
X236850000Y-106647500D02*
X236850000Y-106290357D01*
X236850000Y-106290357D02*
X236921428Y-106004642D01*
X236921428Y-106004642D02*
X236992857Y-105861785D01*
X236992857Y-105861785D02*
X237064286Y-105790357D01*
X237064286Y-105790357D02*
X237207143Y-105718928D01*
X238635714Y-105718928D02*
X238778571Y-105718928D01*
X238778571Y-105718928D02*
X238921428Y-105790357D01*
X238921428Y-105790357D02*
X238992857Y-105861785D01*
X238992857Y-105861785D02*
X239064285Y-106004642D01*
X239064285Y-106004642D02*
X239135714Y-106290357D01*
X239135714Y-106290357D02*
X239135714Y-106647500D01*
X239135714Y-106647500D02*
X239064285Y-106933214D01*
X239064285Y-106933214D02*
X238992857Y-107076071D01*
X238992857Y-107076071D02*
X238921428Y-107147500D01*
X238921428Y-107147500D02*
X238778571Y-107218928D01*
X238778571Y-107218928D02*
X238635714Y-107218928D01*
X238635714Y-107218928D02*
X238492857Y-107147500D01*
X238492857Y-107147500D02*
X238421428Y-107076071D01*
X238421428Y-107076071D02*
X238349999Y-106933214D01*
X238349999Y-106933214D02*
X238278571Y-106647500D01*
X238278571Y-106647500D02*
X238278571Y-106290357D01*
X238278571Y-106290357D02*
X238349999Y-106004642D01*
X238349999Y-106004642D02*
X238421428Y-105861785D01*
X238421428Y-105861785D02*
X238492857Y-105790357D01*
X238492857Y-105790357D02*
X238635714Y-105718928D01*
X240921427Y-107218928D02*
X240921427Y-106218928D01*
X240921427Y-106361785D02*
X240992856Y-106290357D01*
X240992856Y-106290357D02*
X241135713Y-106218928D01*
X241135713Y-106218928D02*
X241349999Y-106218928D01*
X241349999Y-106218928D02*
X241492856Y-106290357D01*
X241492856Y-106290357D02*
X241564285Y-106433214D01*
X241564285Y-106433214D02*
X241564285Y-107218928D01*
X241564285Y-106433214D02*
X241635713Y-106290357D01*
X241635713Y-106290357D02*
X241778570Y-106218928D01*
X241778570Y-106218928D02*
X241992856Y-106218928D01*
X241992856Y-106218928D02*
X242135713Y-106290357D01*
X242135713Y-106290357D02*
X242207142Y-106433214D01*
X242207142Y-106433214D02*
X242207142Y-107218928D01*
X242921427Y-107218928D02*
X242921427Y-106218928D01*
X242921427Y-106361785D02*
X242992856Y-106290357D01*
X242992856Y-106290357D02*
X243135713Y-106218928D01*
X243135713Y-106218928D02*
X243349999Y-106218928D01*
X243349999Y-106218928D02*
X243492856Y-106290357D01*
X243492856Y-106290357D02*
X243564285Y-106433214D01*
X243564285Y-106433214D02*
X243564285Y-107218928D01*
X243564285Y-106433214D02*
X243635713Y-106290357D01*
X243635713Y-106290357D02*
X243778570Y-106218928D01*
X243778570Y-106218928D02*
X243992856Y-106218928D01*
X243992856Y-106218928D02*
X244135713Y-106290357D01*
X244135713Y-106290357D02*
X244207142Y-106433214D01*
X244207142Y-106433214D02*
X244207142Y-107218928D01*
D10*
X257550000Y-103500000D02*
X257550000Y-108911420D01*
X217150000Y-103500000D02*
X217150000Y-108911420D01*
X257550000Y-108325000D02*
X217150000Y-108325000D01*
X257550000Y-108325000D02*
X217150000Y-108325000D01*
X257550000Y-108325000D02*
X256423496Y-108911421D01*
X257550000Y-108325000D02*
X256423496Y-107738579D01*
X217150000Y-108325000D02*
X218276504Y-107738579D01*
X217150000Y-108325000D02*
X218276504Y-108911421D01*
D14*
%TO.C,U$6*%
X255800000Y-96925000D02*
X252800000Y-96925000D01*
X255800000Y-94925000D02*
X255800000Y-96925000D01*
X255800000Y-92925000D02*
X252800000Y-92925000D01*
X255800000Y-90925000D02*
X255800000Y-92925000D01*
X255800000Y-88925000D02*
X252800000Y-88925000D01*
X255800000Y-86925000D02*
X255800000Y-88925000D01*
X252800000Y-94925000D02*
X255800000Y-94925000D01*
X252800000Y-92925000D02*
X252800000Y-94925000D01*
X252800000Y-90925000D02*
X255800000Y-90925000D01*
X252800000Y-88925000D02*
X252800000Y-90925000D01*
X251800000Y-86925000D02*
X255800000Y-86925000D01*
D15*
%TO.C,SJ3*%
X241219000Y-87575000D02*
X241981000Y-87575000D01*
%TA.AperFunction,EtchedComponent*%
%TO.C,J2*%
G36*
X241300000Y-100550000D02*
G01*
X240200000Y-100550000D01*
X240200000Y-98350000D01*
X241300000Y-98350000D01*
X241300000Y-100550000D01*
G37*
%TD.AperFunction*%
%TA.AperFunction,EtchedComponent*%
G36*
X250000000Y-100550000D02*
G01*
X248900000Y-100550000D01*
X248900000Y-98350000D01*
X250000000Y-98350000D01*
X250000000Y-100550000D01*
G37*
%TD.AperFunction*%
%TO.C,SW1*%
D16*
X234000000Y-62325000D02*
X233200000Y-62325000D01*
X233200000Y-62125000D01*
X233725000Y-62125000D01*
X233725000Y-61400000D01*
X233200000Y-61400000D01*
X233200000Y-61325000D01*
X234000000Y-61325000D01*
X234000000Y-62325000D01*
%TA.AperFunction,EtchedComponent*%
G36*
X234000000Y-62325000D02*
G01*
X233200000Y-62325000D01*
X233200000Y-62125000D01*
X233725000Y-62125000D01*
X233725000Y-61400000D01*
X233200000Y-61400000D01*
X233200000Y-61325000D01*
X234000000Y-61325000D01*
X234000000Y-62325000D01*
G37*
%TD.AperFunction*%
X233200000Y-61400000D02*
X232925000Y-61400000D01*
X232925000Y-62125000D01*
X233200000Y-62125000D01*
X233200000Y-62325000D01*
X232400000Y-62325000D01*
X232400000Y-61325000D01*
X233200000Y-61325000D01*
X233200000Y-61400000D01*
%TA.AperFunction,EtchedComponent*%
G36*
X233200000Y-61400000D02*
G01*
X232925000Y-61400000D01*
X232925000Y-62125000D01*
X233200000Y-62125000D01*
X233200000Y-62325000D01*
X232400000Y-62325000D01*
X232400000Y-61325000D01*
X233200000Y-61325000D01*
X233200000Y-61400000D01*
G37*
%TD.AperFunction*%
X230200000Y-62325000D02*
X229400000Y-62325000D01*
X229400000Y-62125000D01*
X229675000Y-62125000D01*
X229675000Y-61400000D01*
X229400000Y-61400000D01*
X229400000Y-61325000D01*
X230200000Y-61325000D01*
X230200000Y-62325000D01*
%TA.AperFunction,EtchedComponent*%
G36*
X230200000Y-62325000D02*
G01*
X229400000Y-62325000D01*
X229400000Y-62125000D01*
X229675000Y-62125000D01*
X229675000Y-61400000D01*
X229400000Y-61400000D01*
X229400000Y-61325000D01*
X230200000Y-61325000D01*
X230200000Y-62325000D01*
G37*
%TD.AperFunction*%
X229400000Y-61400000D02*
X228875000Y-61400000D01*
X228875000Y-62125000D01*
X229400000Y-62125000D01*
X229400000Y-62325000D01*
X228600000Y-62325000D01*
X228600000Y-61325000D01*
X229400000Y-61325000D01*
X229400000Y-61400000D01*
%TA.AperFunction,EtchedComponent*%
G36*
X229400000Y-61400000D02*
G01*
X228875000Y-61400000D01*
X228875000Y-62125000D01*
X229400000Y-62125000D01*
X229400000Y-62325000D01*
X228600000Y-62325000D01*
X228600000Y-61325000D01*
X229400000Y-61325000D01*
X229400000Y-61400000D01*
G37*
%TD.AperFunction*%
%TD*%
D17*
%TO.P,U$6,P$1,P$1*%
%TO.N,Net-(C7-Pad2)*%
X251800000Y-86925000D03*
%TD*%
D18*
%TO.P,C4,1*%
%TO.N,GND*%
X240900000Y-84945000D03*
%TO.P,C4,2*%
%TO.N,/board_2/RF1*%
X240900000Y-85905000D03*
%TD*%
D19*
%TO.P,Y1,1,1*%
%TO.N,PC15*%
X230175000Y-76875000D03*
%TO.P,Y1,2,2*%
%TO.N,PC14*%
X230175000Y-75375000D03*
%TD*%
D20*
%TO.P,J1,1,1*%
%TO.N,INT2*%
X254075000Y-67566920D03*
%TO.P,J1,2,2*%
%TO.N,INT1*%
X253575000Y-67566920D03*
%TO.P,J1,3,3*%
%TO.N,GPIO*%
X253075000Y-67566920D03*
%TO.P,J1,4,4*%
%TO.N,CS_D*%
X252575000Y-67566920D03*
%TO.P,J1,5,5*%
%TO.N,PA11*%
X252075000Y-67566920D03*
%TO.P,J1,6,6*%
%TO.N,PB9*%
X251575000Y-67566920D03*
%TO.P,J1,7,7*%
%TO.N,PB8*%
X251075000Y-67566920D03*
%TO.P,J1,8,8*%
%TO.N,VDD*%
X250575000Y-67566920D03*
%TO.P,J1,9,9*%
%TO.N,GND*%
X250075000Y-67566920D03*
%TO.P,J1,10,10*%
%TO.N,EN*%
X249575000Y-67566920D03*
D21*
%TO.P,J1,11*%
%TO.N,N/C*%
X255975000Y-64316920D03*
%TO.P,J1,12*%
X247675000Y-64316920D03*
%TD*%
D22*
%TO.P,C18,1*%
%TO.N,GND*%
X249020000Y-78175000D03*
%TO.P,C18,2*%
%TO.N,VDD*%
X249980000Y-78175000D03*
%TD*%
D23*
%TO.P,C9,1*%
%TO.N,Net-(FL1-OUT)*%
X248375000Y-87105000D03*
%TO.P,C9,2*%
%TO.N,Net-(C5-Pad2)*%
X248375000Y-86145000D03*
%TD*%
D24*
%TO.P,D1,1,K*%
%TO.N,GND*%
X247385000Y-92700000D03*
%TO.P,D1,2,A*%
%TO.N,Net-(D1-A)*%
X246415000Y-92700000D03*
%TD*%
D20*
%TO.P,J3,1,1*%
%TO.N,ADC5*%
X224825000Y-67516920D03*
%TO.P,J3,2,2*%
%TO.N,ADC4*%
X224325000Y-67516920D03*
%TO.P,J3,3,3*%
%TO.N,GND*%
X223825000Y-67516920D03*
%TO.P,J3,4,4*%
%TO.N,ADC3*%
X223325000Y-67516920D03*
%TO.P,J3,5,5*%
%TO.N,GND*%
X222825000Y-67516920D03*
%TO.P,J3,6,6*%
%TO.N,ADC2*%
X222325000Y-67516920D03*
%TO.P,J3,7,7*%
%TO.N,GND*%
X221825000Y-67516920D03*
%TO.P,J3,8,8*%
%TO.N,ADC1*%
X221325000Y-67516920D03*
%TO.P,J3,9,9*%
%TO.N,GND*%
X220825000Y-67516920D03*
%TO.P,J3,10,10*%
%TO.N,VDD*%
X220325000Y-67516920D03*
D21*
%TO.P,J3,11*%
%TO.N,N/C*%
X226725000Y-64266920D03*
%TO.P,J3,12*%
X218425000Y-64266920D03*
%TD*%
D25*
%TO.P,C2,1*%
%TO.N,PC15*%
X228430000Y-76900000D03*
%TO.P,C2,2*%
%TO.N,GND*%
X227470000Y-76900000D03*
%TD*%
D26*
%TO.P,SJ3,1,1*%
%TO.N,/board_2/RF1*%
X241092000Y-87575000D03*
%TO.P,SJ3,2,2*%
%TO.N,Net-(FL1-IN)*%
X242108000Y-87575000D03*
%TD*%
D27*
%TO.P,J8,1,Pin_1*%
%TO.N,PC11*%
X238750000Y-68100000D03*
D28*
%TO.P,J8,2,Pin_2*%
%TO.N,PC12*%
X237480000Y-68100000D03*
%TO.P,J8,3,Pin_3*%
%TO.N,GPIO*%
X238750000Y-66830000D03*
%TO.P,J8,4,Pin_4*%
%TO.N,PD0*%
X237480000Y-66830000D03*
%TO.P,J8,5,Pin_5*%
%TO.N,unconnected-(J8-Pin_5-Pad5)*%
X238750000Y-65560000D03*
%TO.P,J8,6,Pin_6*%
%TO.N,PD1*%
X237480000Y-65560000D03*
%TD*%
D29*
%TO.P,R3,1*%
%TO.N,VDD*%
X245350000Y-94610000D03*
%TO.P,R3,2*%
%TO.N,Net-(D1-A)*%
X245350000Y-93590000D03*
%TD*%
D30*
%TO.P,J2,1,1*%
%TO.N,GND*%
X243850003Y-97950000D03*
%TO.P,J2,2,2*%
X244350002Y-97950000D03*
%TO.P,J2,3,3*%
%TO.N,VDD*%
X244850003Y-97950000D03*
%TO.P,J2,4,4*%
X245350002Y-97950000D03*
%TO.P,J2,5,5*%
%TO.N,GND*%
X245850004Y-97950000D03*
%TO.P,J2,6,6*%
X246350003Y-97950000D03*
D31*
%TO.P,J2,P1,P1*%
X241950003Y-99875000D03*
%TO.P,J2,P2,P2*%
X248249997Y-99875000D03*
%TD*%
D22*
%TO.P,C19,1*%
%TO.N,Net-(U3D-VFBSMPS)*%
X246970000Y-78150000D03*
%TO.P,C19,2*%
%TO.N,GND*%
X247930000Y-78150000D03*
%TD*%
D32*
%TO.P,SW1,1*%
%TO.N,GND*%
X233200000Y-63225000D03*
%TO.P,SW1,2*%
%TO.N,unconnected-(SW1-Pad2)*%
X229400000Y-63225000D03*
D33*
%TO.P,SW1,3*%
%TO.N,NRST*%
X233325000Y-61725000D03*
%TO.P,SW1,4*%
%TO.N,unconnected-(SW1-Pad4)*%
X229275000Y-61725000D03*
%TD*%
D27*
%TO.P,J9,1,Pin_1*%
%TO.N,PB14*%
X253175000Y-74150000D03*
D28*
%TO.P,J9,2,Pin_2*%
%TO.N,PB15*%
X254445000Y-74150000D03*
%TO.P,J9,3,Pin_3*%
%TO.N,PB13*%
X253175000Y-75420000D03*
%TO.P,J9,4,Pin_4*%
%TO.N,AT0*%
X254445000Y-75420000D03*
%TO.P,J9,5,Pin_5*%
%TO.N,PB12*%
X253175000Y-76690000D03*
%TO.P,J9,6,Pin_6*%
%TO.N,AT1*%
X254445000Y-76690000D03*
%TO.P,J9,7,Pin_7*%
%TO.N,PB1*%
X253175000Y-77960000D03*
%TO.P,J9,8,Pin_8*%
%TO.N,PB0*%
X254445000Y-77960000D03*
%TD*%
D26*
%TO.P,SJ5,1,1*%
%TO.N,Net-(U3D-VFBSMPS)*%
X247924100Y-79875000D03*
%TO.P,SJ5,2,2*%
%TO.N,VDD*%
X248737700Y-79875000D03*
%TD*%
D23*
%TO.P,C7,1*%
%TO.N,GND*%
X250550000Y-90405000D03*
%TO.P,C7,2*%
%TO.N,Net-(C7-Pad2)*%
X250550000Y-89445000D03*
%TD*%
D34*
%TO.P,U$1,1,1*%
%TO.N,OSC_OUT*%
X244000000Y-84650000D03*
%TO.P,U$1,2,2*%
%TO.N,GND*%
X245450000Y-84650000D03*
%TO.P,U$1,3,3*%
%TO.N,OSC_IN*%
X245450000Y-83500000D03*
%TO.P,U$1,4,4*%
%TO.N,GND*%
X244000000Y-83500000D03*
%TD*%
D35*
%TO.P,R2,1*%
%TO.N,Net-(U3C-PH3-BOOT0)*%
X228460000Y-78025000D03*
%TO.P,R2,2*%
%TO.N,GND*%
X227440000Y-78025000D03*
%TD*%
D27*
%TO.P,J6,1,Pin_1*%
%TO.N,ADC4*%
X223080000Y-76790000D03*
D28*
%TO.P,J6,2,Pin_2*%
%TO.N,VDD*%
X224350000Y-76790000D03*
%TO.P,J6,3,Pin_3*%
%TO.N,ADC3*%
X223080000Y-78060000D03*
%TO.P,J6,4,Pin_4*%
%TO.N,GND*%
X224350000Y-78060000D03*
%TO.P,J6,5,Pin_5*%
%TO.N,ADC2*%
X223080000Y-79330000D03*
%TO.P,J6,6,Pin_6*%
%TO.N,PB8*%
X224350000Y-79330000D03*
%TO.P,J6,7,Pin_7*%
%TO.N,ADC1*%
X223080000Y-80600000D03*
%TO.P,J6,8,Pin_8*%
%TO.N,PB9*%
X224350000Y-80600000D03*
%TD*%
D18*
%TO.P,C5,1*%
%TO.N,GND*%
X248375000Y-83845000D03*
%TO.P,C5,2*%
%TO.N,Net-(C5-Pad2)*%
X248375000Y-84805000D03*
%TD*%
D27*
%TO.P,J10,1,Pin_1*%
%TO.N,PB4_NJTRST*%
X242655000Y-65285000D03*
D28*
%TO.P,J10,2,Pin_2*%
%TO.N,GND*%
X243925000Y-65285000D03*
%TO.P,J10,3,Pin_3*%
%TO.N,PB3_JTDO*%
X242655000Y-66555000D03*
%TO.P,J10,4,Pin_4*%
%TO.N,NRST*%
X243925000Y-66555000D03*
%TO.P,J10,5,Pin_5*%
%TO.N,PA15_JTDI*%
X242655000Y-67825000D03*
%TO.P,J10,6,Pin_6*%
%TO.N,PA13_SWDIO*%
X243925000Y-67825000D03*
%TO.P,J10,7,Pin_7*%
%TO.N,PA14_SWCLOCK*%
X242655000Y-69095000D03*
%TO.P,J10,8,Pin_8*%
%TO.N,VDD*%
X243925000Y-69095000D03*
%TD*%
D36*
%TO.P,FL1,1,IN*%
%TO.N,Net-(FL1-IN)*%
X245488000Y-89925000D03*
D37*
%TO.P,FL1,2,GND_1*%
%TO.N,GND*%
X246750000Y-90675000D03*
D36*
%TO.P,FL1,3,OUT*%
%TO.N,Net-(FL1-OUT)*%
X248013000Y-89925000D03*
D37*
%TO.P,FL1,4,GND_2*%
%TO.N,GND*%
X246750000Y-89175000D03*
%TD*%
D38*
%TO.P,U3,1,VBAT*%
%TO.N,VDD*%
X234290000Y-75100000D03*
%TO.P,U3,2,PC13/CM4_EVENTOUT/RTC_TAMP1/RTC_TS/RTC_OUT/WKUP2*%
%TO.N,PC13*%
X234290000Y-75500000D03*
%TO.P,U3,3,PC14-OSC32_IN*%
%TO.N,PC14*%
X234290000Y-75900000D03*
%TO.P,U3,4,PC15-OSC32_OUT*%
%TO.N,PC15*%
X234290000Y-76300000D03*
%TO.P,U3,5,PH3-BOOT0*%
%TO.N,Net-(U3C-PH3-BOOT0)*%
X234290000Y-76700000D03*
%TO.P,U3,6,PB8/TIM1_CH2N/SAI1_PDM_CK1/I2C1_SCL/QUADSPI_BK1_IO1/LCD_SEG16/SAI1_MCLK_A/TIM16_CH1/CM4_EVENTOUT*%
%TO.N,PB8*%
X234290000Y-77100000D03*
%TO.P,U3,7,PB9/TIM1_CH3N/SAI1_PDM_DI2/I2C1_SDA/SPI2_NSS/IR_OUT/TSC_G7_IO4/QUADSPI_BK1_IO0/LCD_COM3/SAI1_FS_A/TIM17_CH1/CM4_EVENTOUT*%
%TO.N,PB9*%
X234290000Y-77500000D03*
%TO.P,U3,8,NRST*%
%TO.N,Net-(D2-A)*%
X234290000Y-77900000D03*
%TO.P,U3,9,PC0/LPTIM1_IN1/I2C3_SCL/LPUART1_RX/LCD_SEG18/LPTIM2_IN1/CM4_EVENTOUT/ADC1_IN1*%
%TO.N,ADC1*%
X234290000Y-78300000D03*
%TO.P,U3,10,PC1/LPTIM1_OUT/SPI2_MOSI/I2C3_SDA/LPUART1_TX/LCD_SEG19/CM4_EVENTOUT/ADC1_IN2*%
%TO.N,ADC2*%
X234290000Y-78700000D03*
%TO.P,U3,11,PC2/LPTIM1_IN2/SPI2_MISO/LCD_SEG20/CM4_EVENTOUT/ADC1_IN3*%
%TO.N,ADC3*%
X234290000Y-79100000D03*
%TO.P,U3,12,PC3/LPTIM1_ETR/SAI1_PDM_DI1/SPI2_MOSI/LCD_VLCD/SAI1_SD_A/LPTIM2_ETR/CM4_EVENTOUT/ADC1_IN4*%
%TO.N,ADC4*%
X234290000Y-79500000D03*
%TO.P,U3,13,VREF+/VREFBUF_OUT*%
%TO.N,VDDA*%
X234290000Y-79900000D03*
%TO.P,U3,14,VDDA*%
X234290000Y-80300000D03*
%TO.P,U3,15,PA0/TIM2_CH1/COMP1_OUT/SAI1_EXTCLK/TIM2_ETR/CM4_EVENTOUT/COMP1_INM/ADC1_IN5/RTC_TAMP2/WKUP1*%
%TO.N,ADC5*%
X234290000Y-80700000D03*
%TO.P,U3,16,PA1/TIM2_CH2/I2C1_SMBA/SPI1_SCK/LCD_SEG0/CM4_EVENTOUT/COMP1_INP/ADC1_IN6*%
%TO.N,CLK*%
X234290000Y-81100000D03*
%TO.P,U3,17,PA2/LSCO/TIM2_CH3/LPUART1_TX/QUADSPI_BK1_NCS/LCD_SEG1/COMP2_OUT/CM4_EVENTOUT/COMP2_INM/ADC1_IN7/WKUP4/LSCO*%
%TO.N,PA2*%
X234290000Y-81500000D03*
D39*
%TO.P,U3,18,PA3/TIM2_CH4/SAI1_PDM_CK1/LPUART1_RX/QUADSPI_CLK/LCD_SEG2/SAI1_MCLK_A/CM4_EVENTOUT/COMP2_INP/ADC1_IN8*%
%TO.N,PA3*%
X234995000Y-82205000D03*
%TO.P,U3,19,PA4/SPI1_NSS/SAI1_FS_B/LPTIM2_OUT/LCD_SEG5/CM4_EVENTOUT/COMP1_INM/COMP2_INM/ADC1_IN9*%
%TO.N,CS*%
X235395000Y-82205000D03*
%TO.P,U3,20,PA5/TIM2_CH1/TIM2_ETR/SPI1_SCK/LPTIM2_ETR/SAI1_SD_B/CM4_EVENTOUT/COMP1_INM/COMP2_INM/ADC1_IN10*%
%TO.N,PA5*%
X235795000Y-82205000D03*
%TO.P,U3,21,PA6/TIM1_BKIN/SPI1_MISO/LPUART1_CTS/QUADSPI_BK1_IO3/LCD_SEG3/TIM16_CH1/CM4_EVENTOUT/ADC1_IN11*%
%TO.N,DO*%
X236195000Y-82205000D03*
%TO.P,U3,22,PA7/TIM1_CH1N/I2C3_SCL/SPI1_MOSI/QUADSPI_BK1_IO2/LCD_SEG4/COMP2_OUT/TIM17_CH1/CM4_EVENTOUT/ADC1_IN12*%
%TO.N,DI*%
X236595000Y-82205000D03*
%TO.P,U3,23,PA8/MCO/TIM1_CH1/SAI1_PDM_CK2/USART1_CK/LCD_COM0/SAI1_SCK_A/LPTIM2_OUT/CM4_EVENTOUT/ADC1_IN15*%
%TO.N,PA8*%
X236995000Y-82205000D03*
%TO.P,U3,24,PA9/TIM1_CH2/SAI1_PDM_DI2/I2C1_SCL/SPI2_SCK/USART1_TX/LCD_COM1/SAI1_FS_A/CM4_EVENTOUT/COMP1_INM/ADC1_IN16*%
%TO.N,PA9*%
X237395000Y-82205000D03*
%TO.P,U3,25,PC4/LCD_SEG22/CM4_EVENTOUT/COMP1_INM/ADC1_IN13*%
%TO.N,PC4*%
X237795000Y-82205000D03*
%TO.P,U3,26,PC5/SAI1_PDM_DI3/LCD_SEG23/CM4_EVENTOUT/COMP1_INP/ADC1_IN14/WKUP5*%
%TO.N,PC5*%
X238195000Y-82205000D03*
%TO.P,U3,27,PB2/RTC_OUT/LPTIM1_OUT/I2C3_SMBA/SPI1_NSS/LCD_VLCD/SAI1_EXTCLK/CM4_EVENTOUT/COMP1_INP*%
%TO.N,PB2*%
X238595000Y-82205000D03*
%TO.P,U3,28,PB10/TIM2_CH3/I2C3_SCL/SPI2_SCK/LPUART1_RX/TSC_SYNC/QUADSPI_CLK/LCD_SEG10/COMP1_OUT/SAI1_SCK_A/CM4_EVENTOUT*%
%TO.N,PB10*%
X238995000Y-82205000D03*
%TO.P,U3,29,PB11/TIM2_CH4/I2C3_SDA/LPUART1_TX/QUADSPI_BK1_NCS/LCD_SEG11/COMP2_OUT/CM4_EVENTOUT*%
%TO.N,PB11*%
X239395000Y-82205000D03*
%TO.P,U3,30,VDD*%
%TO.N,VDD*%
X239795000Y-82205000D03*
%TO.P,U3,31,RF1*%
%TO.N,/board_2/RF1*%
X240195000Y-82205000D03*
%TO.P,U3,32,VSSRF*%
%TO.N,GND*%
X240595000Y-82205000D03*
%TO.P,U3,33,VDDRF*%
%TO.N,VDD*%
X240995000Y-82205000D03*
%TO.P,U3,34,OSC_OUT*%
%TO.N,OSC_OUT*%
X241395000Y-82205000D03*
D38*
%TO.P,U3,35,OSC_IN*%
%TO.N,OSC_IN*%
X242100000Y-81500000D03*
%TO.P,U3,36,AT0*%
%TO.N,AT0*%
X242100000Y-81100000D03*
%TO.P,U3,37,AT1*%
%TO.N,AT1*%
X242100000Y-80700000D03*
%TO.P,U3,38,PB0/COMP1_OUT/CM4_EVENTOUT/EXT_PA_TX*%
%TO.N,PB0*%
X242100000Y-80300000D03*
%TO.P,U3,39,PB1/LPUART1_RTS_DE/LPTIM2_IN1/CM4_EVENTOUT*%
%TO.N,PB1*%
X242100000Y-79900000D03*
%TO.P,U3,40,PE4/CM4_EVENTOUT*%
%TO.N,PE4*%
X242100000Y-79500000D03*
%TO.P,U3,41,VFBSMPS*%
%TO.N,Net-(U3D-VFBSMPS)*%
X242100000Y-79100000D03*
%TO.P,U3,42,VSSSMPS*%
%TO.N,GND*%
X242100000Y-78700000D03*
%TO.P,U3,43,VLXSMPS*%
%TO.N,Net-(U3D-VLXSMPS)*%
X242100000Y-78300000D03*
%TO.P,U3,44,VDDSMPS*%
%TO.N,VDD*%
X242100000Y-77900000D03*
%TO.P,U3,45,VDD*%
X242100000Y-77500000D03*
%TO.P,U3,46,PB12/TIM1_BKIN/I2C3_SMBA/SPI2_NSS/LPUART1_RTS/TSC_G1_IO1/LCD_SEG12/SAI1_FS_A/CM4_EVENTOUT*%
%TO.N,PB12*%
X242100000Y-77100000D03*
%TO.P,U3,47,PB13/TIM1_CH1N/I2C3_SCL/SPI2_SCK/LPUART1_CTS/TSC_G1_IO2/LCD_SEG13/SAI1_SCK_A/CM4_EVENTOUT*%
%TO.N,PB13*%
X242100000Y-76700000D03*
%TO.P,U3,48,PB14/TIM1_CH2N/I2C3_SDA/SPI2_MISO/TSC_G1_IO3/LCD_SEG14/SAI1_MCLK_A/CM4_EVENTOUT*%
%TO.N,PB14*%
X242100000Y-76300000D03*
%TO.P,U3,49,PB15/RTC_REFIN/TIM1_CH3N/SPI2_MOSI/TSC_G1_IO4/LCD_SEG15/SAI1_SD_A/CM4_EVENTOUT*%
%TO.N,PB15*%
X242100000Y-75900000D03*
%TO.P,U3,50,PC6/TSC_G4_IO1/LCD_SEG24/CM4_EVENTOUT*%
%TO.N,INT2*%
X242100000Y-75500000D03*
%TO.P,U3,51,PA10/TIM1_CH3/SAI1_PDM_DI1/I2C1_SDA/USART1_RX/USB_CRS_SYNC/LCD_COM2/SAI1_SD_A/TIM17_BKIN/CM4_EVENTOUT*%
%TO.N,INT1*%
X242100000Y-75100000D03*
D39*
%TO.P,U3,52,PA11/TIM1_CH4/TIM1_BKIN2/SPI1_MISO/USART1_CTS/USB_DM/CM4_EVENTOUT*%
%TO.N,PA11*%
X241395000Y-74395000D03*
%TO.P,U3,53,PA12/TIM1_ETR/SPI1_MOSI/LPUART1_RX/USART1_RTS_DE/USB_DP/CM4_EVENTOUT*%
%TO.N,EN*%
X240995000Y-74395000D03*
%TO.P,U3,54,PA13/JTMS-SWDIO/IR_OUT/USB_NOE/SAI1_SD_B/CM4_EVENTOUT*%
%TO.N,PA13_SWDIO*%
X240595000Y-74395000D03*
%TO.P,U3,55,VDDUSB*%
%TO.N,VDD*%
X240195000Y-74395000D03*
%TO.P,U3,56,PA14/JTCK-SWCLK/LPTIM1_OUT/I2C1_SMBA/LCD_SEG5/SAI1_FS_B/CM4_EVENTOUT*%
%TO.N,PA14_SWCLOCK*%
X239795000Y-74395000D03*
%TO.P,U3,57,PA15/JTDI/TIM2_CH1/TIM2_ETR/SPI1_NSS/TSC_G3_IO1/LCD_SEG17/CM4_EVENTOUT*%
%TO.N,PA15_JTDI*%
X239395000Y-74395000D03*
%TO.P,U3,58,PC10/TRACED1/TSC_G3_IO2/LCD_COM4/LCD_SEG28/LCD_SEG40/CM4_EVENTOUT*%
%TO.N,GPIO*%
X238995000Y-74395000D03*
%TO.P,U3,59,PC11/TSC_G3_IO3/LCD_COM5/LCD_SEG29/LCD_SEG41/CM4_EVENTOUT*%
%TO.N,PC11*%
X238595000Y-74395000D03*
%TO.P,U3,60,PC12/TRACED3/TSC_G3_IO4/LCD_COM6/LCD_SEG30/LCD_SEG42/CM4_EVENTOUT*%
%TO.N,PC12*%
X238195000Y-74395000D03*
%TO.P,U3,61,PD0/SPI2_NSS/CM4_EVENTOUT*%
%TO.N,PD0*%
X237795000Y-74395000D03*
%TO.P,U3,62,PD1/SPI2_SCK/CM4_EVENTOUT*%
%TO.N,PD1*%
X237395000Y-74395000D03*
%TO.P,U3,63,PB3/JTDO-TRACESWO/TIM2_CH2/SPI1_SCK/USART1_RTS_DE/LCD_SEG7/SAI1_SCK_B/CM4_EVENTOUT/COMP2_INM*%
%TO.N,PB3_JTDO*%
X236995000Y-74395000D03*
%TO.P,U3,64,PB4/NJTRST/I2C3_SDA/SPI1_MISO/USART1_CTS/TSC_G2_IO1/LCD_SEG8/SAI1_MCLK_B/TIM17_BKIN/CM4_EVENTOUT/COMP2_INP*%
%TO.N,PB4_NJTRST*%
X236595000Y-74395000D03*
%TO.P,U3,65,PB5/LPTIM1_IN1/I2C1_SMBA/SPI1_MOSI/USART1_CK/LPUART1_TX/TSC_G2_IO2/LCD_SEG9/COMP2_OUT/SAI1_SD_B/TIM16_BKIN/CM4_EVENTOUT*%
%TO.N,CS_D*%
X236195000Y-74395000D03*
%TO.P,U3,66,PB6/LPTIM1_ETR/I2C1_SCL/USART1_TX/TSC_G2_IO3/LCD_SEG6/SAI1_FS_B/TIM16_CH1N/MCO/CM4_EVENTOUT/COMP2_INP*%
%TO.N,PB6*%
X235795000Y-74395000D03*
%TO.P,U3,67,PB7/LPTIM1_IN2/TIM1_BKIN/I2C1_SDA/USART1_RX/TSC_G2_IO4/LCD_SEG21/TIM17_CH1N/CM4_EVENTOUT/COMP2_INM/PVD_IN*%
%TO.N,PB7*%
X235395000Y-74395000D03*
%TO.P,U3,68,VDD*%
%TO.N,Net-(C13-Pad1)*%
X234995000Y-74395000D03*
D40*
%TO.P,U3,69,EPAD*%
%TO.N,GND*%
X238195000Y-78300000D03*
%TD*%
D41*
%TO.P,L3,1,1*%
%TO.N,Net-(U3D-VLXSMPS)*%
X244965000Y-78125000D03*
%TO.P,L3,2,2*%
%TO.N,Net-(U3D-VFBSMPS)*%
X245935000Y-78125000D03*
%TD*%
%TO.P,L2,1,1*%
%TO.N,Net-(C5-Pad2)*%
X249565000Y-85325000D03*
%TO.P,L2,2,2*%
%TO.N,Net-(C7-Pad2)*%
X250535000Y-85325000D03*
%TD*%
D25*
%TO.P,C3,1*%
%TO.N,GND*%
X244380000Y-87575000D03*
%TO.P,C3,2*%
%TO.N,Net-(FL1-IN)*%
X243420000Y-87575000D03*
%TD*%
%TO.P,C1,1*%
%TO.N,PC14*%
X228580000Y-75400000D03*
%TO.P,C1,2*%
%TO.N,GND*%
X227620000Y-75400000D03*
%TD*%
D27*
%TO.P,J5,1,Pin_1*%
%TO.N,CS*%
X235330000Y-96135000D03*
D28*
%TO.P,J5,2,Pin_2*%
%TO.N,PA5*%
X236600000Y-96135000D03*
%TO.P,J5,3,Pin_3*%
%TO.N,PA3*%
X235330000Y-97405000D03*
%TO.P,J5,4,Pin_4*%
%TO.N,DO*%
X236600000Y-97405000D03*
%TO.P,J5,5,Pin_5*%
%TO.N,PA2*%
X235330000Y-98675000D03*
%TO.P,J5,6,Pin_6*%
%TO.N,DI*%
X236600000Y-98675000D03*
%TO.P,J5,7,Pin_7*%
%TO.N,CLK*%
X235330000Y-99945000D03*
%TO.P,J5,8,Pin_8*%
%TO.N,ADC5*%
X236600000Y-99945000D03*
%TD*%
D27*
%TO.P,J7,1,Pin_1*%
%TO.N,PC5*%
X240375000Y-91200000D03*
D28*
%TO.P,J7,2,Pin_2*%
%TO.N,PB2*%
X241645000Y-91200000D03*
%TO.P,J7,3,Pin_3*%
%TO.N,PC4*%
X240375000Y-92470000D03*
%TO.P,J7,4,Pin_4*%
%TO.N,PB10*%
X241645000Y-92470000D03*
%TO.P,J7,5,Pin_5*%
%TO.N,PA9*%
X240375000Y-93740000D03*
%TO.P,J7,6,Pin_6*%
%TO.N,PB11*%
X241645000Y-93740000D03*
%TO.P,J7,7,Pin_7*%
%TO.N,PA8*%
X240375000Y-95010000D03*
%TO.P,J7,8,Pin_8*%
%TO.N,VDD*%
X241645000Y-95010000D03*
%TD*%
D42*
%TO.P,J4,1,1*%
%TO.N,unconnected-(J4-Pad1)*%
X221325000Y-90505000D03*
%TO.P,J4,2,2*%
%TO.N,CS*%
X222425000Y-90705000D03*
%TO.P,J4,3,3*%
%TO.N,DI*%
X223525001Y-90505000D03*
%TO.P,J4,4,4*%
%TO.N,VDD*%
X224625001Y-90305000D03*
%TO.P,J4,5,5*%
%TO.N,CLK*%
X225724999Y-90505000D03*
%TO.P,J4,6,6*%
%TO.N,GND*%
X226824999Y-90305000D03*
%TO.P,J4,7,7*%
%TO.N,DO*%
X227925000Y-90505000D03*
%TO.P,J4,8,8*%
%TO.N,unconnected-(J4-Pad8)*%
X229025000Y-90505000D03*
D43*
%TO.P,J4,9,9*%
%TO.N,unconnected-(J4-Pad9)*%
X222324999Y-100805000D03*
%TO.P,J4,10,10*%
%TO.N,CD*%
X228025001Y-100805000D03*
D44*
%TO.P,J4,13*%
%TO.N,N/C*%
X218599956Y-86655122D03*
%TO.P,J4,14*%
X231750044Y-87655122D03*
%TD*%
D25*
%TO.P,C11,1*%
%TO.N,GND*%
X245955000Y-77075000D03*
%TO.P,C11,2*%
%TO.N,VDD*%
X244995000Y-77075000D03*
%TD*%
D26*
%TO.P,SJ6,1,1*%
%TO.N,Net-(U3C-PH3-BOOT0)*%
X228400900Y-79800000D03*
%TO.P,SJ6,2,2*%
%TO.N,VDD*%
X227587300Y-79800000D03*
%TD*%
D45*
%TO.N,VDDA*%
X232725000Y-80300000D03*
%TO.N,PB9*%
X230175000Y-79050000D03*
X249225000Y-71074500D03*
%TO.N,PB8*%
X249550000Y-69875000D03*
%TO.N,CS_D*%
X243325000Y-73125000D03*
X235995500Y-72875000D03*
%TO.N,NRST*%
X231375000Y-71500000D03*
X231525000Y-69275000D03*
X232900000Y-78099500D03*
%TO.N,GND*%
X218800000Y-73100000D03*
X239725000Y-76750000D03*
X253675000Y-101075000D03*
X238200000Y-78575000D03*
X246775000Y-69250500D03*
X229100000Y-67325000D03*
X251025000Y-83475000D03*
X244125000Y-78975500D03*
X222400000Y-71675000D03*
X240800000Y-62000000D03*
X245475000Y-86525000D03*
X221550000Y-72625000D03*
X223163589Y-70636411D03*
X239800000Y-80125000D03*
X249175000Y-77075000D03*
X236425000Y-80225000D03*
X249050000Y-95025000D03*
X236425000Y-76675000D03*
X237600000Y-101875000D03*
X255100000Y-71275000D03*
X243450000Y-82225000D03*
X223725500Y-69350000D03*
%TO.N,GPIO*%
X252838221Y-69613221D03*
%TO.N,CS*%
X234649500Y-83500000D03*
X227375000Y-84249500D03*
%TO.N,ADC5*%
X219175000Y-81350000D03*
X224924500Y-71000000D03*
%TO.N,ADC4*%
X220800000Y-82225000D03*
%TO.N,ADC3*%
X221625000Y-82925000D03*
%TO.N,ADC2*%
X222325000Y-82275000D03*
%TO.N,DI*%
X236575000Y-85575000D03*
X223523911Y-84849000D03*
%TO.N,DO*%
X235899500Y-84050000D03*
X230700000Y-84900000D03*
%TO.N,Net-(C13-Pad1)*%
X235000000Y-72700000D03*
%TO.N,VDD*%
X231900000Y-75100000D03*
X243600000Y-77500000D03*
X225225000Y-84950000D03*
X239595500Y-84625000D03*
X240400000Y-72400000D03*
X248425000Y-69550000D03*
X220875000Y-76725000D03*
X243475000Y-85925500D03*
%TD*%
D46*
%TO.N,VDDA*%
X234290000Y-80300000D02*
X232725000Y-80300000D01*
X234290000Y-79900000D02*
X234290000Y-80300000D01*
%TO.N,PD1*%
X237395000Y-74395000D02*
X237395000Y-70420000D01*
X236125000Y-66915000D02*
X237480000Y-65560000D01*
X236125000Y-69150000D02*
X236125000Y-66915000D01*
X237395000Y-70420000D02*
X236125000Y-69150000D01*
%TO.N,PD0*%
X236830000Y-66830000D02*
X237480000Y-66830000D01*
X237795000Y-74395000D02*
X237795000Y-70320000D01*
X236475000Y-67125000D02*
X236800000Y-66800000D01*
X237795000Y-70320000D02*
X236475000Y-69000000D01*
X236475000Y-69000000D02*
X236475000Y-67125000D01*
X236800000Y-66800000D02*
X236830000Y-66830000D01*
%TO.N,PC5*%
X238195000Y-83882208D02*
X238095000Y-83982208D01*
X238895500Y-91200000D02*
X240375000Y-91200000D01*
X238095000Y-90399500D02*
X238095500Y-90400000D01*
X238095000Y-83982208D02*
X238095000Y-90399500D01*
X238195000Y-82205000D02*
X238195000Y-83882208D01*
X238095500Y-90400000D02*
X238895500Y-91200000D01*
%TO.N,PC4*%
X237795000Y-91345000D02*
X238920000Y-92470000D01*
X237795000Y-82205000D02*
X237795000Y-91345000D01*
X238920000Y-92470000D02*
X240375000Y-92470000D01*
%TO.N,PC15*%
X234290000Y-76300000D02*
X231775000Y-76300000D01*
X228455000Y-76875000D02*
X228430000Y-76900000D01*
X231200000Y-76875000D02*
X230175000Y-76875000D01*
X231775000Y-76300000D02*
X231200000Y-76875000D01*
X230175000Y-76875000D02*
X228455000Y-76875000D01*
%TO.N,PC14*%
X234290000Y-75900000D02*
X231700000Y-75900000D01*
X231700000Y-75900000D02*
X231175000Y-75375000D01*
X231175000Y-75375000D02*
X230175000Y-75375000D01*
X228580000Y-75400000D02*
X230150000Y-75400000D01*
X230150000Y-75400000D02*
X230175000Y-75375000D01*
%TO.N,PC12*%
X237480000Y-69230000D02*
X237480000Y-68100000D01*
X238195000Y-69945000D02*
X237480000Y-69230000D01*
X238195000Y-74395000D02*
X238195000Y-69945000D01*
%TO.N,PC11*%
X238595000Y-74395000D02*
X238595000Y-68255000D01*
X238595000Y-68255000D02*
X238750000Y-68100000D01*
%TO.N,PB9*%
X249225000Y-71074500D02*
X251575000Y-68724500D01*
X230825000Y-79050000D02*
X232375000Y-77500000D01*
X226175000Y-81600000D02*
X225175000Y-80600000D01*
X230175000Y-79050000D02*
X230175000Y-79248528D01*
X229600000Y-79823528D02*
X229600000Y-80975000D01*
X251575000Y-68724500D02*
X251575000Y-67566920D01*
X229600000Y-80975000D02*
X228975000Y-81600000D01*
X230175000Y-79050000D02*
X230825000Y-79050000D01*
X230175000Y-79248528D02*
X229600000Y-79823528D01*
X225175000Y-80600000D02*
X224350000Y-80600000D01*
X228975000Y-81600000D02*
X226175000Y-81600000D01*
X232375000Y-77500000D02*
X234290000Y-77500000D01*
%TO.N,PB4_NJTRST*%
X236595000Y-74395000D02*
X236595000Y-70894264D01*
X236875000Y-63850000D02*
X239175000Y-63850000D01*
X235525000Y-69824264D02*
X235525000Y-65200000D01*
X239175000Y-63850000D02*
X240575000Y-65250000D01*
X235525000Y-65200000D02*
X236875000Y-63850000D01*
X240575000Y-65250000D02*
X242475000Y-65250000D01*
X236595000Y-70894264D02*
X235525000Y-69824264D01*
X242475000Y-65250000D02*
X242480000Y-65255000D01*
%TO.N,PB3_JTDO*%
X238875000Y-64250000D02*
X241150000Y-66525000D01*
X241150000Y-66525000D02*
X242480000Y-66525000D01*
X236995000Y-74395000D02*
X236995000Y-70870000D01*
X235825000Y-65450000D02*
X237025000Y-64250000D01*
X236995000Y-70870000D02*
X235825000Y-69700000D01*
X235825000Y-69700000D02*
X235825000Y-65450000D01*
X237025000Y-64250000D02*
X238875000Y-64250000D01*
%TO.N,PB2*%
X238395500Y-84105972D02*
X238395500Y-88570500D01*
X239600000Y-89775000D02*
X241525000Y-89775000D01*
X241645000Y-89895000D02*
X241645000Y-91200000D01*
X238395500Y-88570500D02*
X238650000Y-88825000D01*
X238650000Y-88825000D02*
X239600000Y-89775000D01*
X238595000Y-82205000D02*
X238595000Y-83906472D01*
X241525000Y-89775000D02*
X241645000Y-89895000D01*
X238595000Y-83906472D02*
X238395500Y-84105972D01*
%TO.N,PB15*%
X242785000Y-75900000D02*
X244185000Y-74500000D01*
X252325000Y-72925000D02*
X254150000Y-72925000D01*
X242100000Y-75900000D02*
X242785000Y-75900000D01*
X254445000Y-73220000D02*
X254445000Y-74150000D01*
X250750000Y-74500000D02*
X252325000Y-72925000D01*
X244185000Y-74500000D02*
X250750000Y-74500000D01*
X254150000Y-72925000D02*
X254445000Y-73220000D01*
%TO.N,PB14*%
X242850736Y-76300000D02*
X243050000Y-76100736D01*
X251075000Y-74950000D02*
X251875000Y-74150000D01*
X243050000Y-76100736D02*
X243050000Y-76100000D01*
X243050000Y-76100000D02*
X244200000Y-74950000D01*
X242100000Y-76300000D02*
X242850736Y-76300000D01*
X244200000Y-74950000D02*
X251075000Y-74950000D01*
X251875000Y-74150000D02*
X253175000Y-74150000D01*
%TO.N,PB13*%
X244150000Y-75425000D02*
X251150000Y-75425000D01*
X242875000Y-76700000D02*
X244150000Y-75425000D01*
X251150000Y-75425000D02*
X251155000Y-75420000D01*
X251150000Y-75425000D02*
X251275000Y-75425000D01*
X242100000Y-76700000D02*
X242875000Y-76700000D01*
X251155000Y-75420000D02*
X253175000Y-75420000D01*
%TO.N,PB12*%
X242926471Y-77100000D02*
X244201471Y-75825000D01*
X242100000Y-77100000D02*
X242926471Y-77100000D01*
X253165000Y-76700000D02*
X253175000Y-76690000D01*
X250800000Y-76700000D02*
X253165000Y-76700000D01*
X249925000Y-75825000D02*
X250800000Y-76700000D01*
X244201471Y-75825000D02*
X249925000Y-75825000D01*
%TO.N,PB11*%
X239400000Y-82805000D02*
X239400000Y-83950000D01*
X239395000Y-82800000D02*
X239400000Y-82805000D01*
X243075000Y-90476472D02*
X243075000Y-92310000D01*
X243075000Y-92310000D02*
X241645000Y-93740000D01*
X241423528Y-88825000D02*
X243075000Y-90476472D01*
X238995500Y-84354500D02*
X238995500Y-87820500D01*
X238995500Y-87820500D02*
X240000000Y-88825000D01*
X239395000Y-82205000D02*
X239395000Y-82800000D01*
X240000000Y-88825000D02*
X241423528Y-88825000D01*
X239400000Y-83950000D02*
X238995500Y-84354500D01*
%TO.N,PB10*%
X242775000Y-90600736D02*
X242775000Y-92025000D01*
X239775000Y-89250000D02*
X241424264Y-89250000D01*
X238695500Y-84230236D02*
X238695500Y-88170500D01*
X238995000Y-82205000D02*
X238995000Y-83930736D01*
X241424264Y-89250000D02*
X242775000Y-90600736D01*
X242775000Y-92025000D02*
X242330000Y-92470000D01*
X238695500Y-88170500D02*
X239775000Y-89250000D01*
X242330000Y-92470000D02*
X241645000Y-92470000D01*
X238995000Y-83930736D02*
X238695500Y-84230236D01*
%TO.N,PB1*%
X252725000Y-78825000D02*
X253175000Y-78375000D01*
X247100000Y-81075000D02*
X249300000Y-81075000D01*
X251550000Y-78825000D02*
X252725000Y-78825000D01*
X245925000Y-79900000D02*
X247100000Y-81075000D01*
X249300000Y-81075000D02*
X251550000Y-78825000D01*
X253175000Y-78375000D02*
X253175000Y-77960000D01*
X242100000Y-79900000D02*
X245925000Y-79900000D01*
%TO.N,PB0*%
X249875000Y-81425000D02*
X251875000Y-79425000D01*
X245825000Y-80300000D02*
X246950000Y-81425000D01*
X251875000Y-79425000D02*
X254100000Y-79425000D01*
X246950000Y-81425000D02*
X249875000Y-81425000D01*
X254100000Y-79425000D02*
X254445000Y-79080000D01*
X254445000Y-79080000D02*
X254445000Y-77960000D01*
X242100000Y-80300000D02*
X245825000Y-80300000D01*
%TO.N,PA9*%
X238215000Y-93740000D02*
X240375000Y-93740000D01*
X237395000Y-84720000D02*
X237495000Y-84820000D01*
X237395000Y-82205000D02*
X237395000Y-84720000D01*
X237495000Y-84820000D02*
X237495000Y-93020000D01*
X237495000Y-93020000D02*
X238215000Y-93740000D01*
%TO.N,PA8*%
X236995000Y-82205000D02*
X236995000Y-84970000D01*
X236995000Y-84970000D02*
X237195000Y-85170000D01*
X237195000Y-85170000D02*
X237195000Y-93345000D01*
X237195000Y-93320000D02*
X238885000Y-95010000D01*
X238885000Y-95010000D02*
X240375000Y-95010000D01*
X237195000Y-91850000D02*
X237195000Y-93320000D01*
%TO.N,PA5*%
X235300000Y-83550000D02*
X235300000Y-93975000D01*
X236600000Y-95275000D02*
X236600000Y-96135000D01*
X235795000Y-83055000D02*
X235300000Y-83550000D01*
X235300000Y-93975000D02*
X236600000Y-95275000D01*
X235795000Y-82205000D02*
X235795000Y-83055000D01*
%TO.N,PA3*%
X234050000Y-96925000D02*
X234050000Y-82825000D01*
X235330000Y-97405000D02*
X234530000Y-97405000D01*
X234050000Y-82825000D02*
X234670000Y-82205000D01*
X234670000Y-82205000D02*
X234995000Y-82205000D01*
X234530000Y-97405000D02*
X234050000Y-96925000D01*
%TO.N,PA2*%
X234290000Y-81500000D02*
X234175000Y-81500000D01*
X234175000Y-81500000D02*
X233500000Y-82175000D01*
X233850000Y-98675000D02*
X235330000Y-98675000D01*
X233500000Y-82175000D02*
X233500000Y-98325000D01*
X233500000Y-98325000D02*
X233850000Y-98675000D01*
%TO.N,PA15_JTDI*%
X239395000Y-74395000D02*
X239395000Y-70630000D01*
X240700000Y-69325000D02*
X240700000Y-68275000D01*
X240700000Y-68275000D02*
X241180000Y-67795000D01*
X239395000Y-70630000D02*
X240700000Y-69325000D01*
X241180000Y-67795000D02*
X242480000Y-67795000D01*
%TO.N,PA14_SWCLOCK*%
X239795000Y-70880000D02*
X241610000Y-69065000D01*
X239795000Y-74395000D02*
X239795000Y-70880000D01*
X241610000Y-69065000D02*
X242480000Y-69065000D01*
%TO.N,PA13_SWDIO*%
X244775000Y-68075000D02*
X244775000Y-69550000D01*
X240595000Y-73053529D02*
X240595000Y-74395000D01*
X243375000Y-70950000D02*
X241825000Y-70950000D01*
X244525000Y-67825000D02*
X244775000Y-68075000D01*
X240973529Y-72675000D02*
X240595000Y-73053529D01*
X243925000Y-67825000D02*
X244525000Y-67825000D01*
X241000000Y-72675000D02*
X240973529Y-72675000D01*
X244775000Y-69550000D02*
X243375000Y-70950000D01*
X241000000Y-71775000D02*
X241000000Y-72675000D01*
X241825000Y-70950000D02*
X241000000Y-71775000D01*
%TO.N,PB8*%
X229300000Y-80850000D02*
X228925000Y-81225000D01*
X228925000Y-81225000D02*
X227025000Y-81225000D01*
X234290000Y-77100000D02*
X232274264Y-77100000D01*
X229575000Y-78750000D02*
X229575000Y-79424264D01*
X231174264Y-78200000D02*
X230125000Y-78200000D01*
X227025000Y-81225000D02*
X225130000Y-79330000D01*
X232274264Y-77100000D02*
X231174264Y-78200000D01*
X251075000Y-68448528D02*
X249648528Y-69875000D01*
X225130000Y-79330000D02*
X224350000Y-79330000D01*
X229300000Y-79699264D02*
X229300000Y-80850000D01*
X251075000Y-67566920D02*
X251075000Y-68448528D01*
X229575000Y-79424264D02*
X229300000Y-79699264D01*
X249648528Y-69875000D02*
X249550000Y-69875000D01*
X230125000Y-78200000D02*
X229575000Y-78750000D01*
%TO.N,PA11*%
X252071351Y-69103649D02*
X249350000Y-71825000D01*
X249350000Y-71825000D02*
X243400000Y-71825000D01*
X252075000Y-67566920D02*
X252075000Y-69103649D01*
X243400000Y-71825000D02*
X241395000Y-73830000D01*
X241395000Y-73830000D02*
X241395000Y-74395000D01*
X252075000Y-69103649D02*
X252071351Y-69103649D01*
%TO.N,CS_D*%
X236195000Y-74395000D02*
X236195000Y-73074500D01*
X252575000Y-67566920D02*
X252575000Y-69027913D01*
X236195000Y-73074500D02*
X235995500Y-72875000D01*
X252575000Y-69027913D02*
X248827913Y-72775000D01*
X248827913Y-72775000D02*
X243675000Y-72775000D01*
X243675000Y-72775000D02*
X243325000Y-73125000D01*
%TO.N,OSC_OUT*%
X242475000Y-83475000D02*
X243650000Y-84650000D01*
X241395000Y-82205000D02*
X241395000Y-82395000D01*
X243650000Y-84650000D02*
X244000000Y-84650000D01*
X241395000Y-82395000D02*
X242475000Y-83475000D01*
%TO.N,OSC_IN*%
X244625000Y-81500000D02*
X245450000Y-82325000D01*
X242100000Y-81500000D02*
X244625000Y-81500000D01*
X245450000Y-82325000D02*
X245450000Y-83500000D01*
%TO.N,Net-(U3D-VLXSMPS)*%
X244125000Y-78125000D02*
X244965000Y-78125000D01*
X243950000Y-78300000D02*
X244125000Y-78125000D01*
X242100000Y-78300000D02*
X243950000Y-78300000D01*
%TO.N,Net-(U3D-VFBSMPS)*%
X242100000Y-79100000D02*
X242695000Y-79100000D01*
X243170000Y-79575000D02*
X245975000Y-79575000D01*
X247375000Y-79875000D02*
X247924100Y-79875000D01*
X246450000Y-78125000D02*
X246945000Y-78125000D01*
X246945000Y-78125000D02*
X246970000Y-78150000D01*
X246600000Y-79100000D02*
X247375000Y-79875000D01*
X246450000Y-79100000D02*
X246450000Y-78125000D01*
X245975000Y-79575000D02*
X246450000Y-79100000D01*
X246450000Y-79100000D02*
X246600000Y-79100000D01*
X242695000Y-79100000D02*
X243170000Y-79575000D01*
X245935000Y-78125000D02*
X246450000Y-78125000D01*
%TO.N,Net-(U3C-PH3-BOOT0)*%
X228400900Y-79800000D02*
X228600900Y-80000000D01*
X232200000Y-76700000D02*
X234290000Y-76700000D01*
X229275000Y-79300000D02*
X229275000Y-78550000D01*
X228460000Y-78025000D02*
X228985000Y-78550000D01*
X228985000Y-78550000D02*
X229275000Y-78550000D01*
X229275000Y-78550000D02*
X229975000Y-77850000D01*
X228600900Y-80000000D02*
X228600900Y-80324100D01*
X228775000Y-79800000D02*
X229275000Y-79300000D01*
X228400900Y-79800000D02*
X228775000Y-79800000D01*
X231075000Y-77850000D02*
X231075000Y-77825000D01*
X231075000Y-77825000D02*
X232200000Y-76700000D01*
X229975000Y-77850000D02*
X231075000Y-77850000D01*
%TO.N,NRST*%
X233099500Y-77900000D02*
X234290000Y-77900000D01*
X237225000Y-62850000D02*
X243900000Y-62850000D01*
X234525000Y-61725000D02*
X234250000Y-61725000D01*
X231525000Y-69275000D02*
X232925000Y-69275000D01*
X232925000Y-67150000D02*
X236437500Y-63637500D01*
X231400000Y-71500000D02*
X232925000Y-69975000D01*
X231525000Y-69275000D02*
X231600000Y-69350000D01*
X236437500Y-63637500D02*
X237225000Y-62850000D01*
X244545000Y-66555000D02*
X243925000Y-66555000D01*
X245075000Y-66025000D02*
X244545000Y-66555000D01*
X232925000Y-69275000D02*
X232925000Y-67150000D01*
X231375000Y-71500000D02*
X231400000Y-71500000D01*
X232925000Y-69975000D02*
X232925000Y-69275000D01*
X232900000Y-78099500D02*
X233099500Y-77900000D01*
X243900000Y-62850000D02*
X245075000Y-64025000D01*
X236437500Y-63637500D02*
X234525000Y-61725000D01*
X245075000Y-64025000D02*
X245075000Y-66025000D01*
%TO.N,GND*%
X245475000Y-86525000D02*
X244425000Y-87575000D01*
X245850004Y-96325004D02*
X245850000Y-96325000D01*
X250075000Y-68600000D02*
X250075000Y-67566920D01*
X244100500Y-79000000D02*
X244125000Y-78975500D01*
X233200000Y-64200000D02*
X232050000Y-65350000D01*
X246350003Y-97950000D02*
X246350003Y-96325003D01*
X223825000Y-69250500D02*
X223725500Y-69350000D01*
X249175000Y-77075000D02*
X247875000Y-77075000D01*
X227620000Y-75400000D02*
X227125000Y-75400000D01*
X247930000Y-78150000D02*
X248475000Y-78150000D01*
X248475000Y-77675000D02*
X248475000Y-78150000D01*
X226800000Y-77050000D02*
X226825000Y-77050000D01*
X249725000Y-68950000D02*
X250075000Y-68600000D01*
X248995000Y-78150000D02*
X249020000Y-78175000D01*
X245955000Y-77075000D02*
X247875000Y-77075000D01*
X247250000Y-91850000D02*
X248275000Y-91850000D01*
X247385000Y-92700000D02*
X248125000Y-92700000D01*
X246775000Y-69250500D02*
X247075500Y-68950000D01*
X221825000Y-71100000D02*
X222400000Y-71675000D01*
X242100000Y-78700000D02*
X238325000Y-78700000D01*
X244425000Y-87575000D02*
X244380000Y-87575000D01*
X223825000Y-67516920D02*
X223825000Y-69250500D01*
X246350003Y-96325003D02*
X246350000Y-96325000D01*
X244200000Y-83500000D02*
X245350000Y-84650000D01*
X244350002Y-96300002D02*
X244350000Y-96300000D01*
X248375000Y-83845000D02*
X247805000Y-83845000D01*
X243850003Y-96225003D02*
X243850000Y-96225000D01*
X246750000Y-89175000D02*
X246750000Y-87800000D01*
X248475000Y-78150000D02*
X248995000Y-78150000D01*
X245350000Y-84650000D02*
X245450000Y-84650000D01*
X244000000Y-83500000D02*
X244000000Y-82775000D01*
X240595000Y-82205000D02*
X240595000Y-80920000D01*
X222825000Y-70297822D02*
X223163589Y-70636411D01*
X246750000Y-91350000D02*
X247025000Y-91625000D01*
X227440000Y-78025000D02*
X226800000Y-77385000D01*
X240595000Y-82205000D02*
X240595000Y-83595000D01*
X238325000Y-78700000D02*
X238200000Y-78575000D01*
X248575000Y-92150000D02*
X248575000Y-92500000D01*
X245450000Y-86500000D02*
X245475000Y-86525000D01*
X226825000Y-77050000D02*
X226975000Y-76900000D01*
X244000000Y-82775000D02*
X243450000Y-82225000D01*
X247875000Y-77075000D02*
X248200000Y-77400000D01*
X243085000Y-79000000D02*
X244100500Y-79000000D01*
X221825000Y-67516920D02*
X221825000Y-71100000D01*
X220825000Y-71900000D02*
X221550000Y-72625000D01*
X247000000Y-84650000D02*
X245450000Y-84650000D01*
X240595000Y-83595000D02*
X240900000Y-83900000D01*
X247075500Y-68950000D02*
X249725000Y-68950000D01*
X244350002Y-97950000D02*
X244350002Y-96300002D01*
X226975000Y-76900000D02*
X226375000Y-76900000D01*
X240595000Y-80920000D02*
X239800000Y-80125000D01*
X226800000Y-77385000D02*
X226800000Y-77050000D01*
X245850004Y-97950000D02*
X245850004Y-96325004D01*
X247805000Y-83845000D02*
X247000000Y-84650000D01*
X245450000Y-84650000D02*
X245450000Y-86500000D01*
X243850003Y-97950000D02*
X243850003Y-96225003D01*
X242100000Y-78700000D02*
X242785000Y-78700000D01*
X244000000Y-83500000D02*
X244200000Y-83500000D01*
X246750000Y-90675000D02*
X246750000Y-91350000D01*
X248200000Y-77400000D02*
X248475000Y-77675000D01*
X242785000Y-78700000D02*
X243085000Y-79000000D01*
X248275000Y-91850000D02*
X248575000Y-92150000D01*
X247025000Y-91625000D02*
X247250000Y-91850000D01*
X233200000Y-63475000D02*
X233200000Y-64200000D01*
X222825000Y-67516920D02*
X222825000Y-70297822D01*
X240900000Y-83900000D02*
X240900000Y-84945000D01*
X246750000Y-87800000D02*
X245475000Y-86525000D01*
X220825000Y-67516920D02*
X220825000Y-71900000D01*
X226975000Y-76900000D02*
X227470000Y-76900000D01*
%TO.N,AT1*%
X254375000Y-80300000D02*
X255600000Y-79075000D01*
X250200000Y-81900000D02*
X251800000Y-80300000D01*
X246200000Y-81900000D02*
X250200000Y-81900000D01*
X255065000Y-76690000D02*
X254445000Y-76690000D01*
X255600000Y-77225000D02*
X255065000Y-76690000D01*
X245000000Y-80700000D02*
X246200000Y-81900000D01*
X251800000Y-80300000D02*
X254375000Y-80300000D01*
X242100000Y-80700000D02*
X245000000Y-80700000D01*
X255600000Y-79075000D02*
X255600000Y-77225000D01*
%TO.N,AT0*%
X255795000Y-75420000D02*
X256200000Y-75825000D01*
X246275000Y-82500000D02*
X244875000Y-81100000D01*
X254350000Y-81025000D02*
X251950000Y-81025000D01*
X256200000Y-79175000D02*
X254350000Y-81025000D01*
X251950000Y-81025000D02*
X250475000Y-82500000D01*
X254445000Y-75420000D02*
X255795000Y-75420000D01*
X244875000Y-81100000D02*
X242100000Y-81100000D01*
X250475000Y-82500000D02*
X246275000Y-82500000D01*
X256200000Y-75825000D02*
X256200000Y-79175000D01*
%TO.N,/board_2/RF1*%
X240225000Y-85905000D02*
X240195000Y-85875000D01*
X240900000Y-85905000D02*
X240225000Y-85905000D01*
X240550000Y-87575000D02*
X240917400Y-87575000D01*
X240195000Y-85875000D02*
X240195000Y-87220000D01*
X240195000Y-82205000D02*
X240195000Y-85875000D01*
X240195000Y-87220000D02*
X240550000Y-87575000D01*
%TO.N,INT2*%
X249800000Y-74100000D02*
X254075000Y-69825000D01*
X242100000Y-75500000D02*
X242725000Y-75500000D01*
X254075000Y-69825000D02*
X254075000Y-67566920D01*
X242725000Y-75500000D02*
X244125000Y-74100000D01*
X244125000Y-74100000D02*
X249800000Y-74100000D01*
%TO.N,INT1*%
X253575000Y-69724264D02*
X253575000Y-67566920D01*
X250224264Y-73075000D02*
X253575000Y-69724264D01*
X244725736Y-73075000D02*
X250224264Y-73075000D01*
X242700736Y-75100000D02*
X244725736Y-73075000D01*
X242100000Y-75100000D02*
X242700736Y-75100000D01*
%TO.N,GPIO*%
X238995000Y-70255000D02*
X239900000Y-69350000D01*
X238995000Y-74395000D02*
X238995000Y-70255000D01*
X239087106Y-66830000D02*
X238750000Y-66830000D01*
X239900000Y-67642894D02*
X239087106Y-66830000D01*
X239900000Y-69350000D02*
X239900000Y-67642894D01*
X253075000Y-69376442D02*
X253075000Y-67566920D01*
X252838221Y-69613221D02*
X253075000Y-69376442D01*
%TO.N,CS*%
X234649500Y-83500000D02*
X234475000Y-83674500D01*
X234475000Y-95925000D02*
X234685000Y-96135000D01*
X234475000Y-83674500D02*
X234475000Y-95925000D01*
X235395000Y-82754500D02*
X235395000Y-82205000D01*
X222425000Y-85100000D02*
X222425000Y-90705000D01*
X223275500Y-84249500D02*
X222425000Y-85100000D01*
X234685000Y-96135000D02*
X235330000Y-96135000D01*
X227375000Y-84249500D02*
X223275500Y-84249500D01*
X234649500Y-83500000D02*
X235395000Y-82754500D01*
%TO.N,EN*%
X244475000Y-71375000D02*
X242850000Y-71375000D01*
X240995000Y-73230000D02*
X240995000Y-74395000D01*
X246300000Y-68650000D02*
X245850000Y-69100000D01*
X245850000Y-70000000D02*
X244475000Y-71375000D01*
X249575000Y-67566920D02*
X249575000Y-68325000D01*
X249575000Y-68325000D02*
X249250000Y-68650000D01*
X245850000Y-69100000D02*
X245850000Y-70000000D01*
X249250000Y-68650000D02*
X246300000Y-68650000D01*
X242850000Y-71375000D02*
X240995000Y-73230000D01*
%TO.N,ADC5*%
X220725000Y-83875000D02*
X222174264Y-83875000D01*
X224825000Y-70900500D02*
X224924500Y-71000000D01*
X233173529Y-80700000D02*
X234290000Y-80700000D01*
X224825000Y-67516920D02*
X224825000Y-70900500D01*
X222174264Y-83875000D02*
X222399264Y-83650000D01*
X232923529Y-80950000D02*
X233173529Y-80700000D01*
X229425000Y-83650000D02*
X232125000Y-80950000D01*
X219175000Y-81350000D02*
X219175000Y-82325000D01*
X232125000Y-80950000D02*
X232923529Y-80950000D01*
X219175000Y-82325000D02*
X220725000Y-83875000D01*
X222399264Y-83650000D02*
X229425000Y-83650000D01*
%TO.N,ADC4*%
X231225000Y-81422056D02*
X229322056Y-83325000D01*
X220800000Y-83325000D02*
X220800000Y-82225000D01*
X222050000Y-83575000D02*
X221050000Y-83575000D01*
X232075000Y-79675000D02*
X231225000Y-80525000D01*
X224325000Y-67516920D02*
X224325000Y-74350000D01*
X232900000Y-79675000D02*
X232075000Y-79675000D01*
X224325000Y-74350000D02*
X223080000Y-75595000D01*
X221050000Y-83575000D02*
X220800000Y-83325000D01*
X222300000Y-83325000D02*
X222050000Y-83575000D01*
X233743528Y-79500000D02*
X233568528Y-79675000D01*
X229322056Y-83325000D02*
X222300000Y-83325000D01*
X231225000Y-80525000D02*
X231225000Y-81422056D01*
X234290000Y-79500000D02*
X233743528Y-79500000D01*
X223080000Y-75595000D02*
X223080000Y-76790000D01*
X233568528Y-79675000D02*
X232900000Y-79675000D01*
X222820000Y-77050000D02*
X223080000Y-76790000D01*
%TO.N,ADC3*%
X230811764Y-81411028D02*
X229297792Y-82925000D01*
X223825000Y-73875000D02*
X222100000Y-75600000D01*
X222100000Y-77925000D02*
X222235000Y-78060000D01*
X223325000Y-67516920D02*
X223325000Y-68901971D01*
X223825000Y-70450000D02*
X223825000Y-73875000D01*
X223070000Y-78050000D02*
X223080000Y-78060000D01*
X229297792Y-82925000D02*
X221625000Y-82925000D01*
X222235000Y-78060000D02*
X223080000Y-78060000D01*
X223125000Y-69101971D02*
X223125000Y-69750000D01*
X233469264Y-79350000D02*
X231974264Y-79350000D01*
X223125000Y-69750000D02*
X223825000Y-70450000D01*
X234290000Y-79100000D02*
X233719264Y-79100000D01*
X223325000Y-68901971D02*
X223125000Y-69101971D01*
X233719264Y-79100000D02*
X233469264Y-79350000D01*
X230811764Y-80512500D02*
X230811764Y-81411028D01*
X231974264Y-79350000D02*
X230811764Y-80512500D01*
X222100000Y-75600000D02*
X222100000Y-77925000D01*
%TO.N,ADC2*%
X222325000Y-70646351D02*
X223100000Y-71421351D01*
X233345000Y-79050000D02*
X233695000Y-78700000D01*
X229523528Y-82275000D02*
X230374632Y-81423896D01*
X223100000Y-73675000D02*
X221800000Y-74975000D01*
X222325000Y-67516920D02*
X222325000Y-70646351D01*
X221800000Y-74975000D02*
X221800000Y-78675000D01*
X233695000Y-78700000D02*
X234290000Y-78700000D01*
X222325000Y-82275000D02*
X229523528Y-82275000D01*
X230374632Y-80525368D02*
X231850000Y-79050000D01*
X222455000Y-79330000D02*
X223080000Y-79330000D01*
X230374632Y-81423896D02*
X230374632Y-80525368D01*
X223100000Y-71421351D02*
X223100000Y-73675000D01*
X231850000Y-79050000D02*
X233345000Y-79050000D01*
X221800000Y-78675000D02*
X222455000Y-79330000D01*
%TO.N,ADC1*%
X222175000Y-72375000D02*
X222175000Y-73675000D01*
X230025000Y-81349264D02*
X229399264Y-81975000D01*
X221500000Y-74350000D02*
X221500000Y-79625000D01*
X230025000Y-80400000D02*
X230025000Y-81349264D01*
X233548029Y-78300000D02*
X233123029Y-78725000D01*
X223080000Y-81655000D02*
X223080000Y-80600000D01*
X229399264Y-81975000D02*
X223400000Y-81975000D01*
X231700000Y-78725000D02*
X230025000Y-80400000D01*
X223400000Y-81975000D02*
X223080000Y-81655000D01*
X221500000Y-79625000D02*
X222475000Y-80600000D01*
X222475000Y-80600000D02*
X223080000Y-80600000D01*
X233123029Y-78725000D02*
X231700000Y-78725000D01*
X221325000Y-71525000D02*
X222175000Y-72375000D01*
X234290000Y-78300000D02*
X233548029Y-78300000D01*
X222175000Y-73675000D02*
X221500000Y-74350000D01*
X221325000Y-67516920D02*
X221325000Y-71525000D01*
%TO.N,DI*%
X238250000Y-95075000D02*
X236575000Y-93400000D01*
X223523911Y-84849000D02*
X223523911Y-87123909D01*
X236595000Y-85555000D02*
X236595000Y-82205000D01*
X237307106Y-98675000D02*
X238250000Y-97732106D01*
X223525001Y-87124999D02*
X223525001Y-90505000D01*
X238250000Y-97732106D02*
X238250000Y-95075000D01*
X236575000Y-85575000D02*
X236595000Y-85555000D01*
X236600000Y-98675000D02*
X237307106Y-98675000D01*
X236575000Y-93400000D02*
X236575000Y-85575000D01*
X223523911Y-87123909D02*
X223525001Y-87124999D01*
%TO.N,CLK*%
X233645000Y-99945000D02*
X235330000Y-99945000D01*
X233000000Y-99300000D02*
X233645000Y-99945000D01*
X232512500Y-81837500D02*
X232512500Y-85037500D01*
X232512500Y-81837500D02*
X233250000Y-81100000D01*
X225724999Y-90505000D02*
X225724999Y-88625001D01*
X233000000Y-85525000D02*
X233000000Y-99300000D01*
X225724999Y-88625001D02*
X232512500Y-81837500D01*
X232512500Y-85037500D02*
X233000000Y-85525000D01*
X233250000Y-81100000D02*
X234290000Y-81100000D01*
%TO.N,DO*%
X227925000Y-87675000D02*
X227925000Y-90505000D01*
X230700000Y-84900000D02*
X227925000Y-87675000D01*
X235875000Y-93800000D02*
X237775000Y-95700000D01*
X237775000Y-97100000D02*
X237470000Y-97405000D01*
X236195000Y-83754500D02*
X236195000Y-82205000D01*
X235899500Y-84050000D02*
X236195000Y-83754500D01*
X235875000Y-84074500D02*
X235875000Y-93800000D01*
X237470000Y-97405000D02*
X236600000Y-97405000D01*
X237775000Y-95700000D02*
X237775000Y-97100000D01*
X235899500Y-84050000D02*
X235875000Y-84074500D01*
%TO.N,Net-(D1-A)*%
X245675000Y-92700000D02*
X246415000Y-92700000D01*
X245350000Y-93025000D02*
X245675000Y-92700000D01*
X245350000Y-93590000D02*
X245350000Y-93025000D01*
%TO.N,Net-(C5-Pad2)*%
X248895000Y-85325000D02*
X249565000Y-85325000D01*
X248375000Y-84805000D02*
X248895000Y-85325000D01*
X248375000Y-86145000D02*
X248400000Y-86120000D01*
X248400000Y-86120000D02*
X248400000Y-84830000D01*
X248400000Y-84830000D02*
X248375000Y-84805000D01*
%TO.N,Net-(C7-Pad2)*%
X250525000Y-89420000D02*
X250525000Y-85335000D01*
X250525000Y-85335000D02*
X250535000Y-85325000D01*
X250550000Y-89445000D02*
X250525000Y-89420000D01*
%TO.N,Net-(C13-Pad1)*%
X234995000Y-72705000D02*
X235000000Y-72700000D01*
X234995000Y-74395000D02*
X234995000Y-72705000D01*
%TO.N,VDD*%
X225050000Y-76800000D02*
X226700000Y-78450000D01*
X250775000Y-78200000D02*
X250750000Y-78175000D01*
X249849264Y-69250000D02*
X250575000Y-68524264D01*
X243600000Y-77500000D02*
X244025000Y-77075000D01*
X248425000Y-69550000D02*
X248725000Y-69250000D01*
X244995000Y-76755000D02*
X244995000Y-77075000D01*
X244025000Y-77075000D02*
X244995000Y-77075000D01*
X220325000Y-67516920D02*
X220325000Y-76175000D01*
X243925000Y-69625000D02*
X243925000Y-69095000D01*
X239795000Y-84425500D02*
X239795000Y-82205000D01*
X234290000Y-75100000D02*
X231900000Y-75100000D01*
X249475000Y-76300000D02*
X245450000Y-76300000D01*
X241800736Y-70550000D02*
X243000000Y-70550000D01*
X242100000Y-77500000D02*
X243600000Y-77500000D01*
X250775000Y-77600000D02*
X249475000Y-76300000D01*
X224360000Y-76800000D02*
X225050000Y-76800000D01*
X250750000Y-78175000D02*
X249980000Y-78175000D01*
X250775000Y-78800000D02*
X250775000Y-77600000D01*
X249700000Y-79875000D02*
X250775000Y-78800000D01*
X243600000Y-77500000D02*
X243350000Y-77500000D01*
X226700000Y-79250000D02*
X227250000Y-79800000D01*
X240400000Y-72400000D02*
X240195000Y-72605000D01*
X245350002Y-97950000D02*
X244850003Y-97950000D01*
X243350000Y-77500000D02*
X242950000Y-77900000D01*
X240195000Y-72605000D02*
X240195000Y-74395000D01*
X250575000Y-68524264D02*
X250575000Y-67566920D01*
X245350002Y-94610002D02*
X245350002Y-97950000D01*
X220325000Y-76175000D02*
X220875000Y-76725000D01*
X224625001Y-90305000D02*
X224625001Y-85549999D01*
X245350000Y-94610000D02*
X245350002Y-94610002D01*
X239595500Y-84625000D02*
X239795000Y-84425500D01*
X245450000Y-76300000D02*
X244995000Y-76755000D01*
X243475000Y-85925500D02*
X243375500Y-85925500D01*
X226700000Y-78450000D02*
X226700000Y-79250000D01*
X227250000Y-79800000D02*
X227587300Y-79800000D01*
X248725000Y-69250000D02*
X249849264Y-69250000D01*
X224350000Y-76790000D02*
X224360000Y-76800000D01*
X248737700Y-79875000D02*
X249700000Y-79875000D01*
X242775000Y-85225500D02*
X243475000Y-85925500D01*
X242775000Y-84500000D02*
X242775000Y-85225500D01*
X242775000Y-84500000D02*
X240995000Y-82720000D01*
X240400000Y-72400000D02*
X240400000Y-71950736D01*
X240995000Y-82720000D02*
X240995000Y-82205000D01*
X242950000Y-77900000D02*
X242100000Y-77900000D01*
X243000000Y-70550000D02*
X243925000Y-69625000D01*
X245350000Y-94610000D02*
X244950000Y-95010000D01*
X244950000Y-95010000D02*
X241645000Y-95010000D01*
X240400000Y-71950736D02*
X241800736Y-70550000D01*
X224625001Y-85549999D02*
X225225000Y-84950000D01*
%TO.N,Net-(FL1-IN)*%
X244500000Y-89925000D02*
X245488000Y-89925000D01*
X243420000Y-87575000D02*
X243420000Y-88845000D01*
X243420000Y-88845000D02*
X244500000Y-89925000D01*
X243420000Y-87575000D02*
X242282600Y-87575000D01*
%TO.N,Net-(FL1-OUT)*%
X249000000Y-89650000D02*
X249000000Y-88425000D01*
X248375000Y-87800000D02*
X248375000Y-87105000D01*
X248800000Y-89850000D02*
X249000000Y-89650000D01*
X249000000Y-88425000D02*
X248375000Y-87800000D01*
X248400000Y-89850000D02*
X248800000Y-89850000D01*
%TD*%
%TA.AperFunction,Conductor*%
%TO.N,GND*%
G36*
X228370875Y-61069505D02*
G01*
X228416623Y-61120696D01*
X228428125Y-61188379D01*
X228420021Y-61207945D01*
X228420961Y-61208160D01*
X228412612Y-61244731D01*
X228403446Y-61270926D01*
X228403444Y-61270931D01*
X228399450Y-61279226D01*
X228399450Y-61302401D01*
X228399450Y-62279226D01*
X228399450Y-62370774D01*
X228403445Y-62379070D01*
X228412612Y-62405270D01*
X228414662Y-62414252D01*
X228420401Y-62421448D01*
X228435176Y-62444962D01*
X228450857Y-62477525D01*
X228462831Y-62540014D01*
X228442239Y-62600215D01*
X228411132Y-62646769D01*
X228399500Y-62705251D01*
X228399500Y-63744749D01*
X228411132Y-63803230D01*
X228455447Y-63869552D01*
X228521769Y-63913867D01*
X228580251Y-63925500D01*
X228580252Y-63925500D01*
X230219748Y-63925500D01*
X230219749Y-63925500D01*
X230248989Y-63919683D01*
X230278231Y-63913867D01*
X230344552Y-63869552D01*
X230388867Y-63803231D01*
X230400500Y-63744748D01*
X230400500Y-63475000D01*
X231900000Y-63475000D01*
X231900000Y-63772824D01*
X231906402Y-63832375D01*
X231956647Y-63967089D01*
X232042811Y-64082188D01*
X232157910Y-64168352D01*
X232292624Y-64218597D01*
X232352176Y-64225000D01*
X232950000Y-64225000D01*
X232950000Y-63475000D01*
X233450000Y-63475000D01*
X233450000Y-64225000D01*
X234047824Y-64225000D01*
X234107375Y-64218597D01*
X234242089Y-64168352D01*
X234357188Y-64082188D01*
X234443352Y-63967089D01*
X234493597Y-63832375D01*
X234500000Y-63772824D01*
X234500000Y-63475000D01*
X233450000Y-63475000D01*
X232950000Y-63475000D01*
X231900000Y-63475000D01*
X230400500Y-63475000D01*
X230400500Y-62705252D01*
X230388867Y-62646769D01*
X230357759Y-62600214D01*
X230337168Y-62540017D01*
X230349141Y-62477527D01*
X230360827Y-62453258D01*
X230360829Y-62453257D01*
X230364824Y-62444960D01*
X230379597Y-62421449D01*
X230385337Y-62414253D01*
X230387387Y-62405270D01*
X230396555Y-62379070D01*
X230400550Y-62370774D01*
X230400550Y-62279226D01*
X230400550Y-61302401D01*
X230400550Y-61279226D01*
X230400550Y-61279225D01*
X230396556Y-61270931D01*
X230387386Y-61244724D01*
X230379039Y-61208153D01*
X230379975Y-61207939D01*
X230371876Y-61188388D01*
X230383374Y-61120701D01*
X230429123Y-61069507D01*
X230495096Y-61050500D01*
X231085429Y-61050500D01*
X232103627Y-61052393D01*
X232169509Y-61071489D01*
X232215161Y-61122688D01*
X232226609Y-61190322D01*
X232219368Y-61207796D01*
X232220961Y-61208160D01*
X232212612Y-61244731D01*
X232203446Y-61270926D01*
X232199450Y-61279225D01*
X232199450Y-62188482D01*
X232186334Y-62243986D01*
X232149761Y-62287749D01*
X232042810Y-62367811D01*
X231956647Y-62482910D01*
X231906402Y-62617624D01*
X231900000Y-62677176D01*
X231900000Y-62975000D01*
X234500000Y-62975000D01*
X234500000Y-62677176D01*
X234493597Y-62617624D01*
X234443352Y-62482910D01*
X234357189Y-62367811D01*
X234250239Y-62287749D01*
X234213666Y-62243986D01*
X234200550Y-62188482D01*
X234200550Y-62149500D01*
X234217163Y-62087500D01*
X234262550Y-62042113D01*
X234324550Y-62025500D01*
X234349167Y-62025500D01*
X234396620Y-62034939D01*
X234436848Y-62061819D01*
X235924847Y-63549818D01*
X235956941Y-63605405D01*
X235956941Y-63669593D01*
X235924847Y-63725180D01*
X232761475Y-66888552D01*
X232747639Y-66898508D01*
X232709523Y-66940318D01*
X232705573Y-66944454D01*
X232692141Y-66957886D01*
X232683087Y-66969317D01*
X232665083Y-66989067D01*
X232662578Y-66995534D01*
X232649259Y-67020802D01*
X232645343Y-67026518D01*
X232639228Y-67052517D01*
X232634151Y-67068913D01*
X232624500Y-67093827D01*
X232624500Y-67100751D01*
X232621206Y-67129144D01*
X232619621Y-67135881D01*
X232623311Y-67162332D01*
X232624500Y-67179465D01*
X232624500Y-68850500D01*
X232607887Y-68912500D01*
X232562500Y-68957887D01*
X232500500Y-68974500D01*
X232112482Y-68974500D01*
X232057638Y-68961712D01*
X232014106Y-68925986D01*
X232004115Y-68912966D01*
X231953282Y-68846718D01*
X231943329Y-68839081D01*
X231827840Y-68750463D01*
X231681762Y-68689956D01*
X231524999Y-68669317D01*
X231368237Y-68689956D01*
X231222159Y-68750463D01*
X231096717Y-68846717D01*
X231000463Y-68972159D01*
X230939956Y-69118237D01*
X230919317Y-69275000D01*
X230939956Y-69431762D01*
X231000463Y-69577840D01*
X231096717Y-69703282D01*
X231170237Y-69759695D01*
X231222159Y-69799536D01*
X231368238Y-69860044D01*
X231525000Y-69880682D01*
X231681762Y-69860044D01*
X231827841Y-69799536D01*
X231953282Y-69703282D01*
X232014106Y-69624013D01*
X232057638Y-69588288D01*
X232112482Y-69575500D01*
X232500500Y-69575500D01*
X232562500Y-69592113D01*
X232607887Y-69637500D01*
X232624500Y-69699500D01*
X232624500Y-69799167D01*
X232615061Y-69846620D01*
X232588181Y-69886848D01*
X231600018Y-70875009D01*
X231552196Y-70904747D01*
X231496152Y-70910267D01*
X231375000Y-70894317D01*
X231218237Y-70914956D01*
X231072159Y-70975463D01*
X230946717Y-71071717D01*
X230850463Y-71197159D01*
X230789956Y-71343237D01*
X230769317Y-71500000D01*
X230789956Y-71656762D01*
X230850463Y-71802840D01*
X230946717Y-71928282D01*
X231072158Y-72024535D01*
X231072159Y-72024536D01*
X231218238Y-72085044D01*
X231375000Y-72105682D01*
X231531762Y-72085044D01*
X231677841Y-72024536D01*
X231803282Y-71928282D01*
X231899536Y-71802841D01*
X231960044Y-71656762D01*
X231980682Y-71500000D01*
X231970548Y-71423026D01*
X231976067Y-71366986D01*
X232005804Y-71319165D01*
X233088518Y-70236451D01*
X233102353Y-70226498D01*
X233109225Y-70218959D01*
X233109228Y-70218958D01*
X233140488Y-70184666D01*
X233144379Y-70180590D01*
X233157174Y-70167797D01*
X233157178Y-70167790D01*
X233157868Y-70167101D01*
X233166922Y-70155671D01*
X233184915Y-70135934D01*
X233184914Y-70135934D01*
X233184916Y-70135933D01*
X233187417Y-70129474D01*
X233200748Y-70104186D01*
X233204656Y-70098481D01*
X233204655Y-70098481D01*
X233204657Y-70098480D01*
X233210775Y-70072467D01*
X233215845Y-70056093D01*
X233225500Y-70031173D01*
X233225500Y-70024248D01*
X233228794Y-69995858D01*
X233228819Y-69995749D01*
X233230379Y-69989119D01*
X233226689Y-69962667D01*
X233225500Y-69945536D01*
X233225500Y-69334216D01*
X233229570Y-69305033D01*
X233226029Y-69266818D01*
X233225500Y-69255376D01*
X233225500Y-67325833D01*
X233234939Y-67278380D01*
X233261819Y-67238152D01*
X235012819Y-65487152D01*
X235062182Y-65456902D01*
X235119898Y-65452360D01*
X235173385Y-65474515D01*
X235210985Y-65518538D01*
X235224500Y-65574833D01*
X235224500Y-69755021D01*
X235221756Y-69771841D01*
X235224368Y-69828343D01*
X235224500Y-69834069D01*
X235224500Y-69853083D01*
X235226181Y-69867571D01*
X235227415Y-69894257D01*
X235230213Y-69900594D01*
X235238666Y-69927890D01*
X235239938Y-69934698D01*
X235253997Y-69957404D01*
X235262002Y-69972591D01*
X235272792Y-69997027D01*
X235277688Y-70001923D01*
X235295434Y-70024327D01*
X235296152Y-70025485D01*
X235299081Y-70030216D01*
X235320396Y-70046312D01*
X235333351Y-70057586D01*
X236258181Y-70982417D01*
X236285061Y-71022645D01*
X236294500Y-71070098D01*
X236294500Y-72167287D01*
X236275081Y-72233912D01*
X236222905Y-72279669D01*
X236154315Y-72290226D01*
X235995500Y-72269317D01*
X235838737Y-72289956D01*
X235692661Y-72350462D01*
X235662664Y-72373480D01*
X235603362Y-72398042D01*
X235539725Y-72389664D01*
X235488802Y-72350589D01*
X235428282Y-72271717D01*
X235302840Y-72175463D01*
X235156762Y-72114956D01*
X235000000Y-72094317D01*
X234843237Y-72114956D01*
X234697159Y-72175463D01*
X234571717Y-72271717D01*
X234475463Y-72397159D01*
X234414956Y-72543237D01*
X234394317Y-72699999D01*
X234414956Y-72856762D01*
X234475463Y-73002840D01*
X234571717Y-73128282D01*
X234645986Y-73185270D01*
X234681712Y-73228802D01*
X234694500Y-73283646D01*
X234694500Y-74422847D01*
X234709938Y-74505434D01*
X234727764Y-74534224D01*
X234746111Y-74592040D01*
X234734840Y-74651641D01*
X234696647Y-74698765D01*
X234637810Y-74742810D01*
X234595712Y-74799046D01*
X234555415Y-74833816D01*
X234504253Y-74848489D01*
X234451653Y-74840362D01*
X234346173Y-74799500D01*
X232487482Y-74799500D01*
X232432638Y-74786712D01*
X232389106Y-74750986D01*
X232388732Y-74750499D01*
X232328282Y-74671718D01*
X232251232Y-74612596D01*
X232202840Y-74575463D01*
X232056762Y-74514956D01*
X231900000Y-74494317D01*
X231743237Y-74514956D01*
X231597159Y-74575463D01*
X231471717Y-74671717D01*
X231375463Y-74797158D01*
X231338662Y-74886005D01*
X231297967Y-74938150D01*
X231236255Y-74961955D01*
X231171084Y-74950647D01*
X231120999Y-74907443D01*
X231069552Y-74830447D01*
X231003230Y-74786132D01*
X230944749Y-74774500D01*
X230944748Y-74774500D01*
X229405252Y-74774500D01*
X229405251Y-74774500D01*
X229346769Y-74786132D01*
X229280447Y-74830447D01*
X229236132Y-74896769D01*
X229222117Y-74967231D01*
X229221267Y-74967061D01*
X229210985Y-75009892D01*
X229173385Y-75053915D01*
X229119898Y-75076070D01*
X229062182Y-75071528D01*
X229012819Y-75041278D01*
X228918316Y-74946775D01*
X228809487Y-74896027D01*
X228759902Y-74889500D01*
X228400092Y-74889500D01*
X228390455Y-74890769D01*
X228342599Y-74887714D01*
X228299481Y-74866728D01*
X228280001Y-74844903D01*
X228155379Y-74720281D01*
X228016196Y-74637968D01*
X227870000Y-74595496D01*
X227870000Y-76126000D01*
X227853387Y-76188000D01*
X227808000Y-76233387D01*
X227746000Y-76250000D01*
X227720000Y-76250000D01*
X227720000Y-77668638D01*
X227710561Y-77716091D01*
X227690000Y-77746862D01*
X227690000Y-78151000D01*
X227673387Y-78213000D01*
X227628000Y-78258387D01*
X227566000Y-78275000D01*
X227314000Y-78275000D01*
X227252000Y-78258387D01*
X227206613Y-78213000D01*
X227190000Y-78151000D01*
X227190000Y-77246362D01*
X227199439Y-77198909D01*
X227220000Y-77168138D01*
X227220000Y-77150000D01*
X226691210Y-77150000D01*
X226692854Y-77170915D01*
X226737967Y-77326194D01*
X226767218Y-77375654D01*
X226784486Y-77438775D01*
X226767218Y-77501896D01*
X226717593Y-77585806D01*
X226673250Y-77738436D01*
X226640467Y-77792888D01*
X226585011Y-77823944D01*
X226521454Y-77823445D01*
X226466493Y-77791521D01*
X225324970Y-76649999D01*
X226691209Y-76649999D01*
X226691210Y-76650000D01*
X227220000Y-76650000D01*
X227220000Y-76174000D01*
X227236613Y-76112000D01*
X227282000Y-76066613D01*
X227344000Y-76050000D01*
X227370000Y-76050000D01*
X227370000Y-75650000D01*
X226841210Y-75650000D01*
X226842854Y-75670915D01*
X226887967Y-75826194D01*
X226970281Y-75965379D01*
X227004166Y-75999264D01*
X227033800Y-76046779D01*
X227039507Y-76102486D01*
X227020125Y-76155024D01*
X226979606Y-76193677D01*
X226934620Y-76220281D01*
X226820281Y-76334620D01*
X226737967Y-76473805D01*
X226692855Y-76629082D01*
X226691209Y-76649999D01*
X225324970Y-76649999D01*
X225311450Y-76636479D01*
X225301497Y-76622645D01*
X225293273Y-76615148D01*
X225259681Y-76584524D01*
X225255540Y-76580569D01*
X225242110Y-76567139D01*
X225230678Y-76558083D01*
X225210934Y-76540084D01*
X225204468Y-76537579D01*
X225179192Y-76524256D01*
X225173481Y-76520344D01*
X225173480Y-76520343D01*
X225173478Y-76520342D01*
X225147484Y-76514228D01*
X225131087Y-76509151D01*
X225106173Y-76499500D01*
X225099249Y-76499500D01*
X225070859Y-76496206D01*
X225064118Y-76494621D01*
X225041552Y-76489313D01*
X225041991Y-76487444D01*
X225011878Y-76483271D01*
X224959714Y-76440188D01*
X224878184Y-76322072D01*
X224862458Y-76308140D01*
X224750852Y-76209266D01*
X224718639Y-76192359D01*
X224600224Y-76130209D01*
X224465895Y-76097101D01*
X224435056Y-76089500D01*
X224264944Y-76089500D01*
X224234105Y-76097101D01*
X224099775Y-76130209D01*
X223949145Y-76209267D01*
X223941222Y-76216287D01*
X223878270Y-76245961D01*
X223809247Y-76237050D01*
X223755897Y-76192359D01*
X223752984Y-76188000D01*
X223724552Y-76145448D01*
X223718468Y-76141383D01*
X223658230Y-76101132D01*
X223599749Y-76089500D01*
X223599748Y-76089500D01*
X223504500Y-76089500D01*
X223442500Y-76072887D01*
X223397113Y-76027500D01*
X223380500Y-75965500D01*
X223380500Y-75770833D01*
X223389939Y-75723380D01*
X223416819Y-75683152D01*
X223665904Y-75434067D01*
X223949971Y-75149999D01*
X226841209Y-75149999D01*
X226841210Y-75150000D01*
X227370000Y-75150000D01*
X227370000Y-74595496D01*
X227223803Y-74637968D01*
X227084620Y-74720281D01*
X226970281Y-74834620D01*
X226887967Y-74973805D01*
X226842855Y-75129082D01*
X226841209Y-75149999D01*
X223949971Y-75149999D01*
X224488518Y-74611451D01*
X224502353Y-74601498D01*
X224509225Y-74593959D01*
X224509228Y-74593958D01*
X224540488Y-74559666D01*
X224544379Y-74555590D01*
X224557174Y-74542797D01*
X224557178Y-74542790D01*
X224557867Y-74542102D01*
X224566922Y-74530671D01*
X224583487Y-74512500D01*
X224584916Y-74510933D01*
X224587415Y-74504479D01*
X224600743Y-74479192D01*
X224604657Y-74473481D01*
X224609904Y-74451173D01*
X224610773Y-74447479D01*
X224615850Y-74431081D01*
X224625500Y-74406173D01*
X224625500Y-74399248D01*
X224628794Y-74370858D01*
X224628819Y-74370749D01*
X224630379Y-74364119D01*
X224626689Y-74337667D01*
X224625500Y-74320536D01*
X224625500Y-71707713D01*
X224644919Y-71641088D01*
X224697095Y-71595331D01*
X224765685Y-71584774D01*
X224924499Y-71605682D01*
X224924499Y-71605681D01*
X224924500Y-71605682D01*
X225081262Y-71585044D01*
X225227341Y-71524536D01*
X225352782Y-71428282D01*
X225449036Y-71302841D01*
X225509544Y-71156762D01*
X225530182Y-71000000D01*
X225509544Y-70843238D01*
X225449036Y-70697159D01*
X225431415Y-70674195D01*
X225352782Y-70571717D01*
X225227340Y-70475463D01*
X225202048Y-70464987D01*
X225161819Y-70438108D01*
X225134939Y-70397879D01*
X225125500Y-70350426D01*
X225125500Y-68340186D01*
X225130839Y-68304191D01*
X225146398Y-68271295D01*
X225148672Y-68267891D01*
X225163867Y-68245151D01*
X225175500Y-68186668D01*
X225175500Y-66847172D01*
X225174338Y-66841332D01*
X225163867Y-66788689D01*
X225119552Y-66722367D01*
X225053230Y-66678052D01*
X224994749Y-66666420D01*
X224994748Y-66666420D01*
X224655252Y-66666420D01*
X224637600Y-66669931D01*
X224599190Y-66677571D01*
X224550809Y-66677570D01*
X224488168Y-66665110D01*
X224446253Y-66648403D01*
X224413092Y-66617804D01*
X224332188Y-66509731D01*
X224217089Y-66423567D01*
X224082375Y-66373322D01*
X224022824Y-66366920D01*
X223975000Y-66366920D01*
X223975000Y-66832447D01*
X223974500Y-66837524D01*
X223974500Y-68196316D01*
X223975000Y-68201393D01*
X223975000Y-68666920D01*
X223988181Y-68680101D01*
X224015061Y-68720329D01*
X224024500Y-68767782D01*
X224024500Y-69925167D01*
X224010985Y-69981462D01*
X223973385Y-70025485D01*
X223919898Y-70047640D01*
X223862182Y-70043098D01*
X223812819Y-70012848D01*
X223461819Y-69661848D01*
X223434939Y-69621620D01*
X223425500Y-69574167D01*
X223425500Y-69277805D01*
X223434938Y-69230353D01*
X223461817Y-69190125D01*
X223488516Y-69163425D01*
X223502353Y-69153470D01*
X223509226Y-69145929D01*
X223509228Y-69145929D01*
X223540488Y-69111637D01*
X223544379Y-69107561D01*
X223557174Y-69094768D01*
X223557178Y-69094761D01*
X223557868Y-69094072D01*
X223566922Y-69082642D01*
X223580409Y-69067848D01*
X223584916Y-69062904D01*
X223587417Y-69056445D01*
X223600748Y-69031157D01*
X223604656Y-69025452D01*
X223604655Y-69025452D01*
X223604657Y-69025451D01*
X223610775Y-68999438D01*
X223615845Y-68983064D01*
X223625500Y-68958144D01*
X223625500Y-68951219D01*
X223628794Y-68922829D01*
X223629156Y-68921288D01*
X223630379Y-68916090D01*
X223626689Y-68889638D01*
X223625500Y-68872507D01*
X223625500Y-68767782D01*
X223634939Y-68720329D01*
X223661819Y-68680101D01*
X223675000Y-68666920D01*
X223675000Y-68201393D01*
X223675500Y-68196316D01*
X223675500Y-66837524D01*
X223675000Y-66832447D01*
X223675000Y-66366920D01*
X223627176Y-66366920D01*
X223567624Y-66373322D01*
X223432908Y-66423568D01*
X223399310Y-66448720D01*
X223351358Y-66470619D01*
X223298642Y-66470619D01*
X223250690Y-66448720D01*
X223217091Y-66423568D01*
X223082375Y-66373322D01*
X223022824Y-66366920D01*
X222975000Y-66366920D01*
X222975000Y-66832447D01*
X222974500Y-66837524D01*
X222974500Y-68196316D01*
X222975000Y-68201393D01*
X222975000Y-68672514D01*
X222999452Y-68714865D01*
X222999452Y-68779053D01*
X222967358Y-68834640D01*
X222961474Y-68840524D01*
X222947639Y-68850479D01*
X222909523Y-68892289D01*
X222905573Y-68896425D01*
X222892141Y-68909857D01*
X222883087Y-68921288D01*
X222864860Y-68941283D01*
X222824224Y-68995091D01*
X222760939Y-69019606D01*
X222694227Y-69007134D01*
X222644073Y-68961412D01*
X222625500Y-68896135D01*
X222625500Y-68767782D01*
X222634939Y-68720329D01*
X222661819Y-68680101D01*
X222675000Y-68666920D01*
X222675000Y-68201393D01*
X222675500Y-68196316D01*
X222675500Y-66837524D01*
X222675000Y-66832447D01*
X222675000Y-66366920D01*
X222627176Y-66366920D01*
X222567624Y-66373322D01*
X222432908Y-66423568D01*
X222399310Y-66448720D01*
X222351358Y-66470619D01*
X222298642Y-66470619D01*
X222250690Y-66448720D01*
X222217091Y-66423568D01*
X222082375Y-66373322D01*
X222022824Y-66366920D01*
X221975000Y-66366920D01*
X221975000Y-66832447D01*
X221974500Y-66837524D01*
X221974500Y-68196316D01*
X221975000Y-68201393D01*
X221975000Y-68666920D01*
X221988181Y-68680101D01*
X222015061Y-68720329D01*
X222024500Y-68767782D01*
X222024500Y-70577108D01*
X222021756Y-70593928D01*
X222024368Y-70650430D01*
X222024500Y-70656156D01*
X222024500Y-70675170D01*
X222026181Y-70689658D01*
X222027415Y-70716344D01*
X222030213Y-70722681D01*
X222038666Y-70749977D01*
X222039938Y-70756785D01*
X222053997Y-70779491D01*
X222062002Y-70794678D01*
X222072792Y-70819114D01*
X222077688Y-70824010D01*
X222095434Y-70846414D01*
X222099080Y-70852302D01*
X222099081Y-70852303D01*
X222120396Y-70868399D01*
X222133351Y-70879673D01*
X222763181Y-71509504D01*
X222790061Y-71549732D01*
X222799500Y-71597185D01*
X222799500Y-73499167D01*
X222790061Y-73546620D01*
X222763181Y-73586848D01*
X222687181Y-73662848D01*
X222637818Y-73693098D01*
X222580102Y-73697640D01*
X222526615Y-73675485D01*
X222489015Y-73631462D01*
X222475500Y-73575167D01*
X222475500Y-72444247D01*
X222478244Y-72427421D01*
X222477773Y-72417237D01*
X222477774Y-72417236D01*
X222475631Y-72370899D01*
X222475500Y-72365175D01*
X222475500Y-72346182D01*
X222473820Y-72331704D01*
X222472586Y-72305009D01*
X222469788Y-72298672D01*
X222461330Y-72271359D01*
X222460061Y-72264567D01*
X222446002Y-72241861D01*
X222437994Y-72226669D01*
X222427206Y-72202235D01*
X222422310Y-72197339D01*
X222404563Y-72174933D01*
X222400919Y-72169048D01*
X222379602Y-72152950D01*
X222366648Y-72141677D01*
X221661819Y-71436848D01*
X221634939Y-71396620D01*
X221625500Y-71349167D01*
X221625500Y-68767782D01*
X221634939Y-68720329D01*
X221661819Y-68680101D01*
X221675000Y-68666920D01*
X221675000Y-68201393D01*
X221675500Y-68196316D01*
X221675500Y-66837524D01*
X221675000Y-66832447D01*
X221675000Y-66366920D01*
X221627176Y-66366920D01*
X221567624Y-66373322D01*
X221432908Y-66423568D01*
X221399310Y-66448720D01*
X221351358Y-66470619D01*
X221298642Y-66470619D01*
X221250690Y-66448720D01*
X221217091Y-66423568D01*
X221082375Y-66373322D01*
X221022824Y-66366920D01*
X220975000Y-66366920D01*
X220975000Y-66832447D01*
X220974500Y-66837524D01*
X220974500Y-68196316D01*
X220975000Y-68201393D01*
X220975000Y-68666920D01*
X220988181Y-68680101D01*
X221015061Y-68720329D01*
X221024500Y-68767782D01*
X221024500Y-71455757D01*
X221021756Y-71472577D01*
X221024368Y-71529079D01*
X221024500Y-71534805D01*
X221024500Y-71553819D01*
X221026181Y-71568307D01*
X221027415Y-71594993D01*
X221030213Y-71601330D01*
X221038666Y-71628626D01*
X221039938Y-71635434D01*
X221053997Y-71658140D01*
X221062002Y-71673327D01*
X221072792Y-71697763D01*
X221077688Y-71702659D01*
X221095434Y-71725063D01*
X221099081Y-71730952D01*
X221120396Y-71747048D01*
X221133351Y-71758322D01*
X221838181Y-72463153D01*
X221865061Y-72503381D01*
X221874500Y-72550834D01*
X221874500Y-73499167D01*
X221865061Y-73546620D01*
X221838181Y-73586848D01*
X221336475Y-74088552D01*
X221322639Y-74098508D01*
X221284523Y-74140318D01*
X221280573Y-74144454D01*
X221267141Y-74157886D01*
X221258087Y-74169317D01*
X221240083Y-74189067D01*
X221237578Y-74195534D01*
X221224259Y-74220802D01*
X221220343Y-74226518D01*
X221214228Y-74252517D01*
X221209151Y-74268913D01*
X221199500Y-74293827D01*
X221199500Y-74300751D01*
X221196206Y-74329144D01*
X221194621Y-74335881D01*
X221198311Y-74362332D01*
X221199500Y-74379465D01*
X221199500Y-76023857D01*
X221184858Y-76082311D01*
X221144390Y-76126960D01*
X221087653Y-76147260D01*
X221048039Y-76141383D01*
X221047947Y-76142087D01*
X221031762Y-76139956D01*
X221002640Y-76136122D01*
X220874999Y-76119317D01*
X220775939Y-76132359D01*
X220719895Y-76126839D01*
X220672073Y-76097101D01*
X220661819Y-76086847D01*
X220634939Y-76046619D01*
X220625500Y-75999166D01*
X220625500Y-68767782D01*
X220634939Y-68720329D01*
X220661819Y-68680101D01*
X220675000Y-68666920D01*
X220675000Y-68201393D01*
X220675500Y-68196316D01*
X220675500Y-66837524D01*
X220675000Y-66832447D01*
X220675000Y-66366920D01*
X220627176Y-66366920D01*
X220567624Y-66373322D01*
X220432910Y-66423567D01*
X220317808Y-66509732D01*
X220236906Y-66617804D01*
X220203746Y-66648402D01*
X220161833Y-66665110D01*
X220096769Y-66678052D01*
X220030447Y-66722367D01*
X219986132Y-66788689D01*
X219974500Y-66847171D01*
X219974500Y-66847172D01*
X219974500Y-68186668D01*
X219986133Y-68245151D01*
X219996644Y-68260881D01*
X220003602Y-68271295D01*
X220019161Y-68304191D01*
X220024500Y-68340186D01*
X220024500Y-76105757D01*
X220021756Y-76122577D01*
X220024368Y-76179079D01*
X220024500Y-76184805D01*
X220024500Y-76203819D01*
X220026181Y-76218307D01*
X220027415Y-76244993D01*
X220030213Y-76251330D01*
X220038666Y-76278626D01*
X220039938Y-76285434D01*
X220053997Y-76308140D01*
X220062002Y-76323327D01*
X220072792Y-76347763D01*
X220077688Y-76352659D01*
X220095434Y-76375063D01*
X220099081Y-76380952D01*
X220120026Y-76396769D01*
X220120396Y-76397048D01*
X220133351Y-76408322D01*
X220247101Y-76522072D01*
X220276839Y-76569894D01*
X220282359Y-76625938D01*
X220269317Y-76724999D01*
X220289956Y-76881762D01*
X220350463Y-77027840D01*
X220446717Y-77153282D01*
X220556473Y-77237500D01*
X220572159Y-77249536D01*
X220718238Y-77310044D01*
X220875000Y-77330682D01*
X221031762Y-77310044D01*
X221031762Y-77310043D01*
X221047947Y-77307913D01*
X221048039Y-77308616D01*
X221087653Y-77302740D01*
X221144390Y-77323040D01*
X221184858Y-77367689D01*
X221199500Y-77426143D01*
X221199500Y-79555757D01*
X221196756Y-79572577D01*
X221199368Y-79629079D01*
X221199500Y-79634805D01*
X221199500Y-79653819D01*
X221201181Y-79668307D01*
X221202415Y-79694993D01*
X221205213Y-79701330D01*
X221213666Y-79728626D01*
X221214938Y-79735434D01*
X221228997Y-79758140D01*
X221237002Y-79773327D01*
X221247792Y-79797763D01*
X221252688Y-79802659D01*
X221270434Y-79825063D01*
X221274080Y-79830951D01*
X221274081Y-79830952D01*
X221295396Y-79847048D01*
X221308351Y-79858322D01*
X222213550Y-80763521D01*
X222223507Y-80777358D01*
X222231041Y-80784226D01*
X222231042Y-80784228D01*
X222244429Y-80796432D01*
X222265316Y-80815474D01*
X222269457Y-80819429D01*
X222282888Y-80832860D01*
X222294328Y-80841922D01*
X222314065Y-80859915D01*
X222314066Y-80859915D01*
X222314067Y-80859916D01*
X222320340Y-80862346D01*
X222320523Y-80862417D01*
X222345810Y-80875745D01*
X222351519Y-80879656D01*
X222377514Y-80885769D01*
X222393910Y-80890846D01*
X222407030Y-80895929D01*
X222439053Y-80914217D01*
X222464283Y-80941115D01*
X222551817Y-81067929D01*
X222679147Y-81180734D01*
X222713124Y-81198566D01*
X222761617Y-81244213D01*
X222779500Y-81308363D01*
X222779500Y-81585757D01*
X222776756Y-81602578D01*
X222777619Y-81621256D01*
X222765068Y-81681611D01*
X222725004Y-81728463D01*
X222667329Y-81750233D01*
X222606299Y-81741540D01*
X222481762Y-81689956D01*
X222325000Y-81669317D01*
X222168237Y-81689956D01*
X222022159Y-81750463D01*
X221896717Y-81846717D01*
X221800463Y-81972159D01*
X221739956Y-82118237D01*
X221727463Y-82213129D01*
X221709104Y-82263568D01*
X221671149Y-82301524D01*
X221620710Y-82319882D01*
X221544564Y-82329907D01*
X221480925Y-82321529D01*
X221430002Y-82282455D01*
X221405439Y-82223153D01*
X221399383Y-82177153D01*
X221385044Y-82068238D01*
X221324536Y-81922159D01*
X221287994Y-81874536D01*
X221228282Y-81796717D01*
X221102840Y-81700463D01*
X220956762Y-81639956D01*
X220800000Y-81619317D01*
X220643237Y-81639956D01*
X220497159Y-81700463D01*
X220371717Y-81796717D01*
X220275463Y-81922159D01*
X220214956Y-82068237D01*
X220194317Y-82225000D01*
X220214956Y-82381762D01*
X220275463Y-82527840D01*
X220359965Y-82637966D01*
X220371718Y-82653282D01*
X220438606Y-82704607D01*
X220450986Y-82714106D01*
X220486712Y-82757638D01*
X220499500Y-82812482D01*
X220499500Y-82925167D01*
X220485985Y-82981462D01*
X220448385Y-83025485D01*
X220394898Y-83047640D01*
X220337182Y-83043098D01*
X220287819Y-83012848D01*
X219511819Y-82236848D01*
X219484939Y-82196620D01*
X219475500Y-82149167D01*
X219475500Y-81937482D01*
X219488288Y-81882638D01*
X219524014Y-81839106D01*
X219603282Y-81778282D01*
X219699536Y-81652841D01*
X219760044Y-81506762D01*
X219780682Y-81350000D01*
X219760044Y-81193238D01*
X219699536Y-81047159D01*
X219655185Y-80989359D01*
X219603282Y-80921717D01*
X219477840Y-80825463D01*
X219331762Y-80764956D01*
X219175000Y-80744317D01*
X219018237Y-80764956D01*
X218872159Y-80825463D01*
X218746717Y-80921717D01*
X218650463Y-81047159D01*
X218589956Y-81193237D01*
X218569317Y-81349999D01*
X218589956Y-81506762D01*
X218650463Y-81652840D01*
X218736858Y-81765433D01*
X218746718Y-81778282D01*
X218823005Y-81836819D01*
X218825986Y-81839106D01*
X218861712Y-81882638D01*
X218874500Y-81937482D01*
X218874500Y-82255757D01*
X218871756Y-82272577D01*
X218874368Y-82329079D01*
X218874500Y-82334805D01*
X218874500Y-82353819D01*
X218876181Y-82368307D01*
X218877415Y-82394993D01*
X218880213Y-82401330D01*
X218888666Y-82428626D01*
X218889938Y-82435434D01*
X218903997Y-82458140D01*
X218912002Y-82473327D01*
X218922792Y-82497763D01*
X218927688Y-82502659D01*
X218945434Y-82525063D01*
X218947154Y-82527840D01*
X218949081Y-82530952D01*
X218970396Y-82547048D01*
X218983351Y-82558322D01*
X220463550Y-84038521D01*
X220473507Y-84052358D01*
X220481041Y-84059226D01*
X220481042Y-84059228D01*
X220483371Y-84061351D01*
X220515316Y-84090474D01*
X220519457Y-84094429D01*
X220532888Y-84107860D01*
X220544328Y-84116922D01*
X220564065Y-84134915D01*
X220564066Y-84134915D01*
X220564067Y-84134916D01*
X220570340Y-84137346D01*
X220570523Y-84137417D01*
X220595810Y-84150745D01*
X220601519Y-84154656D01*
X220627514Y-84160769D01*
X220643910Y-84165846D01*
X220668827Y-84175500D01*
X220675751Y-84175500D01*
X220704140Y-84178793D01*
X220710881Y-84180379D01*
X220737333Y-84176688D01*
X220754465Y-84175500D01*
X222105021Y-84175500D01*
X222121841Y-84178243D01*
X222132026Y-84177772D01*
X222132029Y-84177773D01*
X222178344Y-84175631D01*
X222184069Y-84175500D01*
X222203088Y-84175500D01*
X222217582Y-84173817D01*
X222244256Y-84172585D01*
X222250594Y-84169786D01*
X222277897Y-84161332D01*
X222284697Y-84160061D01*
X222307407Y-84145998D01*
X222322589Y-84137996D01*
X222347029Y-84127206D01*
X222351923Y-84122311D01*
X222374327Y-84104564D01*
X222380216Y-84100919D01*
X222396314Y-84079600D01*
X222407582Y-84066652D01*
X222487418Y-83986818D01*
X222527646Y-83959939D01*
X222575098Y-83950500D01*
X222850166Y-83950500D01*
X222906461Y-83964015D01*
X222950484Y-84001615D01*
X222972639Y-84055102D01*
X222968097Y-84112818D01*
X222937847Y-84162181D01*
X222261475Y-84838552D01*
X222247639Y-84848508D01*
X222209523Y-84890318D01*
X222205573Y-84894454D01*
X222192141Y-84907886D01*
X222183087Y-84919317D01*
X222165083Y-84939067D01*
X222162578Y-84945534D01*
X222149259Y-84970802D01*
X222145343Y-84976518D01*
X222139228Y-85002517D01*
X222134151Y-85018913D01*
X222124500Y-85043827D01*
X222124500Y-85050751D01*
X222121206Y-85079140D01*
X222119621Y-85085881D01*
X222122860Y-85109103D01*
X222123311Y-85112332D01*
X222124500Y-85129465D01*
X222124500Y-89574353D01*
X222108690Y-89634942D01*
X222065290Y-89680080D01*
X222005368Y-89698257D01*
X221944205Y-89684838D01*
X221897398Y-89643244D01*
X221875952Y-89611148D01*
X221867421Y-89605448D01*
X221809630Y-89566832D01*
X221751149Y-89555200D01*
X221751148Y-89555200D01*
X220898852Y-89555200D01*
X220898851Y-89555200D01*
X220840369Y-89566832D01*
X220774047Y-89611147D01*
X220729732Y-89677469D01*
X220718100Y-89735951D01*
X220718100Y-91274049D01*
X220729732Y-91332530D01*
X220774047Y-91398852D01*
X220840369Y-91443167D01*
X220898851Y-91454800D01*
X221712507Y-91454800D01*
X221767342Y-91467584D01*
X221810871Y-91503299D01*
X221815105Y-91512640D01*
X221816030Y-91512023D01*
X221874047Y-91598852D01*
X221940369Y-91643167D01*
X221998851Y-91654800D01*
X221998852Y-91654800D01*
X222851148Y-91654800D01*
X222851149Y-91654800D01*
X222880389Y-91648983D01*
X222909631Y-91643167D01*
X222975952Y-91598852D01*
X223020267Y-91532531D01*
X223020267Y-91532530D01*
X223033970Y-91512023D01*
X223034894Y-91512640D01*
X223039129Y-91503299D01*
X223082658Y-91467584D01*
X223137493Y-91454800D01*
X223951150Y-91454800D01*
X223980390Y-91448983D01*
X224009632Y-91443167D01*
X224075953Y-91398852D01*
X224120268Y-91332531D01*
X224120268Y-91332530D01*
X224133971Y-91312023D01*
X224134895Y-91312640D01*
X224139130Y-91303299D01*
X224182659Y-91267584D01*
X224237494Y-91254800D01*
X225012506Y-91254800D01*
X225067341Y-91267584D01*
X225110870Y-91303299D01*
X225115104Y-91312640D01*
X225116029Y-91312023D01*
X225174046Y-91398852D01*
X225240368Y-91443167D01*
X225298850Y-91454800D01*
X226077994Y-91454800D01*
X226117153Y-91461145D01*
X226152304Y-91479533D01*
X226176507Y-91497651D01*
X226311223Y-91547897D01*
X226370775Y-91554300D01*
X226574999Y-91554300D01*
X226574999Y-89055700D01*
X226370775Y-89055700D01*
X226311223Y-89062102D01*
X226192833Y-89106260D01*
X226134046Y-89113111D01*
X226078779Y-89091934D01*
X226039623Y-89047553D01*
X226025499Y-88990078D01*
X226025499Y-88800834D01*
X226034938Y-88753381D01*
X226061818Y-88713153D01*
X227017206Y-87757765D01*
X229891002Y-84883967D01*
X229950524Y-84850889D01*
X230018540Y-84854231D01*
X230074535Y-84892986D01*
X230101620Y-84955466D01*
X230107359Y-84999061D01*
X230101839Y-85055104D01*
X230072101Y-85102926D01*
X227761475Y-87413552D01*
X227747639Y-87423508D01*
X227709523Y-87465318D01*
X227705573Y-87469454D01*
X227692141Y-87482886D01*
X227683087Y-87494317D01*
X227665083Y-87514067D01*
X227662578Y-87520534D01*
X227649259Y-87545802D01*
X227645343Y-87551518D01*
X227639228Y-87577517D01*
X227634151Y-87593913D01*
X227624500Y-87618827D01*
X227624500Y-87625751D01*
X227621206Y-87654140D01*
X227619621Y-87660881D01*
X227623104Y-87685852D01*
X227623311Y-87687332D01*
X227624500Y-87704465D01*
X227624500Y-88990078D01*
X227610376Y-89047553D01*
X227571220Y-89091934D01*
X227515953Y-89113111D01*
X227457166Y-89106260D01*
X227338774Y-89062102D01*
X227279223Y-89055700D01*
X227074999Y-89055700D01*
X227074999Y-91554300D01*
X227279223Y-91554300D01*
X227338774Y-91547897D01*
X227473490Y-91497651D01*
X227497694Y-91479533D01*
X227532845Y-91461145D01*
X227572004Y-91454800D01*
X228351149Y-91454800D01*
X228368514Y-91451345D01*
X228409631Y-91443167D01*
X228409632Y-91443166D01*
X228413786Y-91442340D01*
X228450804Y-91427005D01*
X228499187Y-91427004D01*
X228536214Y-91442340D01*
X228540367Y-91443166D01*
X228540369Y-91443167D01*
X228581485Y-91451345D01*
X228598851Y-91454800D01*
X228598852Y-91454800D01*
X229451148Y-91454800D01*
X229451149Y-91454800D01*
X229480389Y-91448983D01*
X229509631Y-91443167D01*
X229575952Y-91398852D01*
X229620267Y-91332531D01*
X229631900Y-91274048D01*
X229631900Y-89735952D01*
X229620267Y-89677469D01*
X229597399Y-89643245D01*
X229575952Y-89611147D01*
X229509630Y-89566832D01*
X229451149Y-89555200D01*
X229451148Y-89555200D01*
X228598852Y-89555200D01*
X228598851Y-89555200D01*
X228536215Y-89567659D01*
X228499191Y-89582995D01*
X228450809Y-89582995D01*
X228413784Y-89567659D01*
X228351149Y-89555200D01*
X228351148Y-89555200D01*
X228349500Y-89555200D01*
X228344749Y-89553926D01*
X228339169Y-89552817D01*
X228339241Y-89552451D01*
X228287500Y-89538587D01*
X228242113Y-89493200D01*
X228225500Y-89431200D01*
X228225500Y-87850833D01*
X228234939Y-87803380D01*
X228261819Y-87763152D01*
X229376244Y-86648727D01*
X230497074Y-85527896D01*
X230544895Y-85498160D01*
X230600937Y-85492640D01*
X230700000Y-85505682D01*
X230856762Y-85485044D01*
X231002841Y-85424536D01*
X231128282Y-85328282D01*
X231224536Y-85202841D01*
X231285044Y-85056762D01*
X231305682Y-84900000D01*
X231285044Y-84743238D01*
X231224536Y-84597159D01*
X231215708Y-84585654D01*
X231128282Y-84471717D01*
X231002840Y-84375463D01*
X230856762Y-84314956D01*
X230755465Y-84301620D01*
X230692986Y-84274534D01*
X230654232Y-84218539D01*
X230650890Y-84150523D01*
X230683970Y-84091000D01*
X231320215Y-83454756D01*
X232000318Y-82774652D01*
X232049682Y-82744402D01*
X232107398Y-82739860D01*
X232160885Y-82762015D01*
X232198485Y-82806038D01*
X232212000Y-82862333D01*
X232212000Y-84968257D01*
X232209256Y-84985077D01*
X232211868Y-85041579D01*
X232212000Y-85047305D01*
X232212000Y-85066319D01*
X232213681Y-85080807D01*
X232214915Y-85107493D01*
X232217713Y-85113830D01*
X232226166Y-85141126D01*
X232227438Y-85147934D01*
X232241497Y-85170640D01*
X232249502Y-85185827D01*
X232260292Y-85210263D01*
X232265188Y-85215159D01*
X232282934Y-85237563D01*
X232286581Y-85243452D01*
X232300971Y-85254319D01*
X232307896Y-85259548D01*
X232320851Y-85270822D01*
X232663181Y-85613152D01*
X232690061Y-85653380D01*
X232699500Y-85700833D01*
X232699500Y-86397179D01*
X232681843Y-86460954D01*
X232633900Y-86506566D01*
X232569325Y-86521025D01*
X232551642Y-86515166D01*
X232550966Y-86518567D01*
X232468293Y-86502122D01*
X232468292Y-86502122D01*
X231031796Y-86502122D01*
X231031795Y-86502122D01*
X230973313Y-86513754D01*
X230906991Y-86558069D01*
X230862676Y-86624391D01*
X230851044Y-86682873D01*
X230851044Y-88627371D01*
X230862676Y-88685852D01*
X230906991Y-88752174D01*
X230973313Y-88796489D01*
X231031795Y-88808122D01*
X231031796Y-88808122D01*
X232468292Y-88808122D01*
X232468293Y-88808122D01*
X232550966Y-88791677D01*
X232551642Y-88795077D01*
X232569325Y-88789219D01*
X232633900Y-88803678D01*
X232681843Y-88849290D01*
X232699500Y-88913065D01*
X232699500Y-99230757D01*
X232696756Y-99247577D01*
X232699368Y-99304079D01*
X232699500Y-99309805D01*
X232699500Y-99328819D01*
X232701181Y-99343307D01*
X232702415Y-99369993D01*
X232705213Y-99376330D01*
X232713666Y-99403626D01*
X232714938Y-99410434D01*
X232728997Y-99433140D01*
X232737002Y-99448327D01*
X232747792Y-99472763D01*
X232752688Y-99477659D01*
X232770434Y-99500063D01*
X232774081Y-99505952D01*
X232795396Y-99522048D01*
X232808351Y-99533322D01*
X233383550Y-100108521D01*
X233393507Y-100122358D01*
X233401041Y-100129226D01*
X233401042Y-100129228D01*
X233414429Y-100141432D01*
X233435316Y-100160474D01*
X233439457Y-100164429D01*
X233452888Y-100177860D01*
X233464328Y-100186922D01*
X233484065Y-100204915D01*
X233484066Y-100204915D01*
X233484067Y-100204916D01*
X233490526Y-100207418D01*
X233515809Y-100220745D01*
X233521520Y-100224657D01*
X233547517Y-100230771D01*
X233563908Y-100235846D01*
X233588827Y-100245500D01*
X233595752Y-100245500D01*
X233624142Y-100248794D01*
X233630881Y-100250379D01*
X233657332Y-100246689D01*
X233674464Y-100245500D01*
X234621168Y-100245500D01*
X234678793Y-100259703D01*
X234723217Y-100299058D01*
X234801817Y-100412929D01*
X234929148Y-100525734D01*
X235079775Y-100604790D01*
X235244944Y-100645500D01*
X235415055Y-100645500D01*
X235415056Y-100645500D01*
X235580225Y-100604790D01*
X235730852Y-100525734D01*
X235858183Y-100412929D01*
X235862949Y-100406023D01*
X235907373Y-100366666D01*
X235965000Y-100352462D01*
X236022627Y-100366666D01*
X236067051Y-100406024D01*
X236071815Y-100412927D01*
X236071816Y-100412928D01*
X236071817Y-100412929D01*
X236199148Y-100525734D01*
X236349775Y-100604790D01*
X236514944Y-100645500D01*
X236685055Y-100645500D01*
X236685056Y-100645500D01*
X236850225Y-100604790D01*
X236867424Y-100595763D01*
X239999500Y-100595763D01*
X240003493Y-100604054D01*
X240012660Y-100630253D01*
X240012663Y-100630262D01*
X240014710Y-100639232D01*
X240020448Y-100646426D01*
X240035220Y-100669935D01*
X240039212Y-100678225D01*
X240046404Y-100683960D01*
X240066039Y-100703594D01*
X240071776Y-100710789D01*
X240080064Y-100714780D01*
X240103571Y-100729550D01*
X240110769Y-100735290D01*
X240119737Y-100737336D01*
X240145947Y-100746508D01*
X240154236Y-100750500D01*
X240676003Y-100750500D01*
X240738003Y-100767113D01*
X240783390Y-100812500D01*
X240800003Y-100874500D01*
X240800003Y-101447824D01*
X240806405Y-101507375D01*
X240856650Y-101642089D01*
X240942814Y-101757188D01*
X241057913Y-101843352D01*
X241192627Y-101893597D01*
X241252179Y-101900000D01*
X241700003Y-101900000D01*
X241700003Y-100125000D01*
X242200003Y-100125000D01*
X242200003Y-101900000D01*
X242647827Y-101900000D01*
X242707378Y-101893597D01*
X242842092Y-101843352D01*
X242957191Y-101757188D01*
X243043355Y-101642089D01*
X243093600Y-101507375D01*
X243100003Y-101447824D01*
X243100003Y-100125000D01*
X247099997Y-100125000D01*
X247099997Y-101447824D01*
X247106399Y-101507375D01*
X247156644Y-101642089D01*
X247242808Y-101757188D01*
X247357907Y-101843352D01*
X247492621Y-101893597D01*
X247552173Y-101900000D01*
X247999997Y-101900000D01*
X247999997Y-100125000D01*
X247099997Y-100125000D01*
X243100003Y-100125000D01*
X242200003Y-100125000D01*
X241700003Y-100125000D01*
X241700003Y-97850000D01*
X242200003Y-97850000D01*
X242200003Y-99625000D01*
X243100003Y-99625000D01*
X243100003Y-98755392D01*
X243115171Y-98695965D01*
X243156964Y-98651077D01*
X243215157Y-98631708D01*
X243275515Y-98642598D01*
X243323270Y-98681082D01*
X243342812Y-98707187D01*
X243457913Y-98793352D01*
X243592627Y-98843597D01*
X243652179Y-98850000D01*
X243700003Y-98850000D01*
X243700003Y-98100000D01*
X243193172Y-98100000D01*
X243146896Y-98125268D01*
X243077205Y-98120283D01*
X243021272Y-98078411D01*
X242957193Y-97992812D01*
X242842092Y-97906647D01*
X242707378Y-97856402D01*
X242647827Y-97850000D01*
X242200003Y-97850000D01*
X241700003Y-97850000D01*
X241252179Y-97850000D01*
X241192627Y-97856402D01*
X241057913Y-97906647D01*
X240942813Y-97992811D01*
X240862714Y-98099811D01*
X240818951Y-98136384D01*
X240763447Y-98149500D01*
X240154235Y-98149500D01*
X240145938Y-98153495D01*
X240119744Y-98162660D01*
X240110770Y-98164708D01*
X240103568Y-98170452D01*
X240080067Y-98185219D01*
X240071775Y-98189212D01*
X240066036Y-98196409D01*
X240046409Y-98216036D01*
X240039212Y-98221775D01*
X240035219Y-98230067D01*
X240020452Y-98253568D01*
X240014708Y-98260770D01*
X240012660Y-98269744D01*
X240003495Y-98295938D01*
X239999500Y-98304235D01*
X239999500Y-98304236D01*
X239999500Y-98304237D01*
X239999500Y-98327410D01*
X239999500Y-100504237D01*
X239999500Y-100595763D01*
X236867424Y-100595763D01*
X237000852Y-100525734D01*
X237128183Y-100412929D01*
X237224818Y-100272930D01*
X237285140Y-100113872D01*
X237305645Y-99945000D01*
X237285140Y-99776128D01*
X237224818Y-99617070D01*
X237148118Y-99505952D01*
X237128184Y-99477072D01*
X237128182Y-99477070D01*
X237044363Y-99402813D01*
X237007488Y-99344499D01*
X237007488Y-99275501D01*
X237044363Y-99217186D01*
X237128183Y-99142929D01*
X237206517Y-99029442D01*
X237248424Y-98991446D01*
X237302849Y-98976017D01*
X237305767Y-98975882D01*
X237311197Y-98975632D01*
X237316911Y-98975500D01*
X237335930Y-98975500D01*
X237350424Y-98973817D01*
X237377098Y-98972585D01*
X237383436Y-98969786D01*
X237410739Y-98961332D01*
X237417539Y-98960061D01*
X237440249Y-98945998D01*
X237455431Y-98937996D01*
X237479871Y-98927206D01*
X237484765Y-98922311D01*
X237507169Y-98904564D01*
X237513058Y-98900919D01*
X237529159Y-98879595D01*
X237540419Y-98866656D01*
X238413518Y-97993557D01*
X238427353Y-97983604D01*
X238434225Y-97976065D01*
X238434228Y-97976064D01*
X238465488Y-97941772D01*
X238469379Y-97937696D01*
X238482174Y-97924903D01*
X238482178Y-97924896D01*
X238482868Y-97924207D01*
X238491922Y-97912777D01*
X238509914Y-97893041D01*
X238509913Y-97893041D01*
X238509916Y-97893039D01*
X238512419Y-97886576D01*
X238525743Y-97861297D01*
X238529656Y-97855587D01*
X238535770Y-97829587D01*
X238540846Y-97813195D01*
X238545959Y-97800000D01*
X243200003Y-97800000D01*
X243700003Y-97800000D01*
X243700003Y-97050000D01*
X244000003Y-97050000D01*
X244000003Y-98850000D01*
X244047833Y-98850000D01*
X244086745Y-98845816D01*
X244113258Y-98845816D01*
X244152171Y-98850000D01*
X244200002Y-98850000D01*
X244200002Y-97050000D01*
X244152174Y-97050000D01*
X244113253Y-97054183D01*
X244086751Y-97054183D01*
X244047831Y-97050000D01*
X244000003Y-97050000D01*
X243700003Y-97050000D01*
X243652179Y-97050000D01*
X243592627Y-97056402D01*
X243457913Y-97106647D01*
X243342814Y-97192811D01*
X243256650Y-97307910D01*
X243206405Y-97442624D01*
X243200003Y-97502176D01*
X243200003Y-97800000D01*
X238545959Y-97800000D01*
X238550500Y-97788279D01*
X238550500Y-97781355D01*
X238553794Y-97752962D01*
X238555379Y-97746225D01*
X238551688Y-97719772D01*
X238550500Y-97702641D01*
X238550500Y-95383693D01*
X238564806Y-95325873D01*
X238604422Y-95281394D01*
X238660207Y-95260519D01*
X238719291Y-95268065D01*
X238724065Y-95269914D01*
X238724067Y-95269916D01*
X238730525Y-95272417D01*
X238755805Y-95285743D01*
X238761519Y-95289657D01*
X238787525Y-95295773D01*
X238803917Y-95300849D01*
X238828827Y-95310500D01*
X238835752Y-95310500D01*
X238864142Y-95313794D01*
X238870881Y-95315379D01*
X238897332Y-95311689D01*
X238914464Y-95310500D01*
X239666168Y-95310500D01*
X239723793Y-95324703D01*
X239768217Y-95364058D01*
X239846817Y-95477929D01*
X239974148Y-95590734D01*
X240124775Y-95669790D01*
X240289944Y-95710500D01*
X240460055Y-95710500D01*
X240460056Y-95710500D01*
X240625225Y-95669790D01*
X240775852Y-95590734D01*
X240903183Y-95477929D01*
X240907949Y-95471023D01*
X240952373Y-95431666D01*
X241010000Y-95417462D01*
X241067627Y-95431666D01*
X241112051Y-95471024D01*
X241116815Y-95477927D01*
X241116816Y-95477928D01*
X241116817Y-95477929D01*
X241244148Y-95590734D01*
X241394775Y-95669790D01*
X241559944Y-95710500D01*
X241730055Y-95710500D01*
X241730056Y-95710500D01*
X241895225Y-95669790D01*
X242045852Y-95590734D01*
X242173183Y-95477929D01*
X242251782Y-95364058D01*
X242296207Y-95324703D01*
X242353832Y-95310500D01*
X244880757Y-95310500D01*
X244897578Y-95313243D01*
X244907764Y-95312772D01*
X244907765Y-95312773D01*
X244913916Y-95312488D01*
X244919778Y-95312218D01*
X244984167Y-95326841D01*
X245031922Y-95372440D01*
X245049502Y-95436086D01*
X245049502Y-97089052D01*
X245030997Y-97154219D01*
X244981006Y-97199936D01*
X244914450Y-97212558D01*
X244851192Y-97188319D01*
X244742093Y-97106648D01*
X244607377Y-97056402D01*
X244547826Y-97050000D01*
X244500002Y-97050000D01*
X244500002Y-97515532D01*
X244499503Y-97520599D01*
X244499503Y-98379401D01*
X244500002Y-98384468D01*
X244500002Y-98850000D01*
X244547826Y-98850000D01*
X244607377Y-98843597D01*
X244742091Y-98793352D01*
X244857192Y-98707187D01*
X244938094Y-98599116D01*
X244971255Y-98568516D01*
X245013170Y-98551809D01*
X245075812Y-98539349D01*
X245124194Y-98539349D01*
X245186835Y-98551809D01*
X245228749Y-98568516D01*
X245261911Y-98599115D01*
X245342814Y-98707188D01*
X245457914Y-98793352D01*
X245592628Y-98843597D01*
X245652180Y-98850000D01*
X245700004Y-98850000D01*
X245700004Y-98384463D01*
X245700502Y-98379406D01*
X245700502Y-97520594D01*
X245700004Y-97515537D01*
X245700004Y-97050000D01*
X246000004Y-97050000D01*
X246000004Y-98850000D01*
X246047834Y-98850000D01*
X246086746Y-98845816D01*
X246113259Y-98845816D01*
X246152172Y-98850000D01*
X246200003Y-98850000D01*
X246500003Y-98850000D01*
X246547827Y-98850000D01*
X246607378Y-98843597D01*
X246742092Y-98793352D01*
X246857193Y-98707187D01*
X246876730Y-98681090D01*
X246924485Y-98642606D01*
X246984843Y-98631716D01*
X247043036Y-98651085D01*
X247084829Y-98695973D01*
X247099997Y-98755400D01*
X247099997Y-99625000D01*
X247999997Y-99625000D01*
X247999997Y-97850000D01*
X248499997Y-97850000D01*
X248499997Y-101900000D01*
X248947821Y-101900000D01*
X249007372Y-101893597D01*
X249142086Y-101843352D01*
X249257185Y-101757188D01*
X249343349Y-101642089D01*
X249393594Y-101507375D01*
X249399997Y-101447824D01*
X249399997Y-100874500D01*
X249416610Y-100812500D01*
X249461997Y-100767113D01*
X249523997Y-100750500D01*
X250045761Y-100750500D01*
X250045763Y-100750500D01*
X250054055Y-100746506D01*
X250080254Y-100737338D01*
X250089231Y-100735290D01*
X250096421Y-100729555D01*
X250119940Y-100714777D01*
X250128224Y-100710788D01*
X250133961Y-100703594D01*
X250153595Y-100683959D01*
X250160788Y-100678224D01*
X250164780Y-100669935D01*
X250179555Y-100646422D01*
X250180290Y-100645500D01*
X250185290Y-100639231D01*
X250187338Y-100630254D01*
X250196507Y-100604054D01*
X250200500Y-100595763D01*
X250200500Y-100504237D01*
X250200500Y-98327410D01*
X250200500Y-98304237D01*
X250200499Y-98304235D01*
X250196508Y-98295947D01*
X250187336Y-98269735D01*
X250187155Y-98268941D01*
X250185290Y-98260769D01*
X250179550Y-98253571D01*
X250164780Y-98230064D01*
X250160789Y-98221776D01*
X250153594Y-98216039D01*
X250133960Y-98196404D01*
X250128225Y-98189212D01*
X250119935Y-98185220D01*
X250096426Y-98170448D01*
X250089232Y-98164710D01*
X250087200Y-98164246D01*
X250080253Y-98162660D01*
X250054057Y-98153494D01*
X250045763Y-98149500D01*
X250022590Y-98149500D01*
X249436553Y-98149500D01*
X249381049Y-98136384D01*
X249337286Y-98099811D01*
X249257186Y-97992811D01*
X249142086Y-97906647D01*
X249007372Y-97856402D01*
X248947821Y-97850000D01*
X248499997Y-97850000D01*
X247999997Y-97850000D01*
X247552173Y-97850000D01*
X247492621Y-97856402D01*
X247357907Y-97906647D01*
X247242806Y-97992811D01*
X247178728Y-98078409D01*
X247122795Y-98120279D01*
X247053103Y-98125263D01*
X247006838Y-98100000D01*
X246500003Y-98100000D01*
X246500003Y-98850000D01*
X246200003Y-98850000D01*
X246200003Y-97050000D01*
X246500003Y-97050000D01*
X246500003Y-97800000D01*
X247000003Y-97800000D01*
X247000003Y-97502176D01*
X246993600Y-97442624D01*
X246943355Y-97307910D01*
X246857191Y-97192811D01*
X246742092Y-97106647D01*
X246607378Y-97056402D01*
X246547827Y-97050000D01*
X246500003Y-97050000D01*
X246200003Y-97050000D01*
X246152175Y-97050000D01*
X246113254Y-97054183D01*
X246086752Y-97054183D01*
X246047832Y-97050000D01*
X246000004Y-97050000D01*
X245700004Y-97050000D01*
X245686821Y-97036817D01*
X245659941Y-96996589D01*
X245650502Y-96949136D01*
X245650502Y-95140321D01*
X245669921Y-95073696D01*
X245722097Y-95027939D01*
X245725516Y-95026343D01*
X245730404Y-95024065D01*
X245814065Y-94940404D01*
X245864068Y-94833173D01*
X245870500Y-94784316D01*
X245870500Y-94435684D01*
X245864068Y-94386827D01*
X245814065Y-94279596D01*
X245814064Y-94279595D01*
X245814064Y-94279594D01*
X245722151Y-94187681D01*
X245690057Y-94132094D01*
X245690057Y-94067906D01*
X245722151Y-94012319D01*
X245814064Y-93920405D01*
X245814063Y-93920405D01*
X245814065Y-93920404D01*
X245864068Y-93813173D01*
X245870500Y-93764316D01*
X245870500Y-93415684D01*
X245864068Y-93366827D01*
X245823103Y-93278978D01*
X245806871Y-93244168D01*
X245796177Y-93176651D01*
X245822887Y-93113727D01*
X245878883Y-93074519D01*
X245947147Y-93070941D01*
X246006934Y-93104082D01*
X246062487Y-93159635D01*
X246062488Y-93159635D01*
X246062489Y-93159636D01*
X246166830Y-93210645D01*
X246234472Y-93220500D01*
X246595528Y-93220500D01*
X246595529Y-93220500D01*
X246597616Y-93220195D01*
X246601183Y-93219676D01*
X246649633Y-93222205D01*
X246693404Y-93243133D01*
X246710248Y-93261916D01*
X246710731Y-93261434D01*
X246837488Y-93388191D01*
X246978303Y-93471469D01*
X247134998Y-93516994D01*
X247135000Y-93516993D01*
X247135000Y-92950000D01*
X247635000Y-92950000D01*
X247635000Y-93516993D01*
X247635001Y-93516994D01*
X247791696Y-93471469D01*
X247932511Y-93388191D01*
X248048191Y-93272511D01*
X248131469Y-93131696D01*
X248177110Y-92974599D01*
X248179047Y-92950000D01*
X247635000Y-92950000D01*
X247135000Y-92950000D01*
X247135000Y-92450000D01*
X247635000Y-92450000D01*
X248179045Y-92450000D01*
X248177110Y-92425402D01*
X248131469Y-92268303D01*
X248048191Y-92127488D01*
X247932511Y-92011808D01*
X247791696Y-91928530D01*
X247635001Y-91883005D01*
X247635000Y-91883007D01*
X247635000Y-92450000D01*
X247135000Y-92450000D01*
X247135000Y-91883007D01*
X247134998Y-91883005D01*
X246978303Y-91928530D01*
X246837490Y-92011807D01*
X246710731Y-92138566D01*
X246710248Y-92138083D01*
X246693407Y-92156864D01*
X246649638Y-92177792D01*
X246601190Y-92180324D01*
X246595528Y-92179500D01*
X246234472Y-92179500D01*
X246189377Y-92186070D01*
X246166829Y-92189355D01*
X246062487Y-92240364D01*
X245980364Y-92322487D01*
X245976712Y-92329959D01*
X245930973Y-92380688D01*
X245865311Y-92399500D01*
X245744243Y-92399500D01*
X245727422Y-92396756D01*
X245684308Y-92398749D01*
X245670919Y-92399368D01*
X245665195Y-92399500D01*
X245646183Y-92399500D01*
X245631695Y-92401181D01*
X245605006Y-92402415D01*
X245598662Y-92405216D01*
X245571382Y-92413664D01*
X245564565Y-92414938D01*
X245541855Y-92428999D01*
X245526672Y-92437002D01*
X245502232Y-92447793D01*
X245497331Y-92452695D01*
X245474937Y-92470434D01*
X245469048Y-92474080D01*
X245452950Y-92495397D01*
X245441679Y-92508348D01*
X245186475Y-92763552D01*
X245172639Y-92773508D01*
X245134523Y-92815318D01*
X245130573Y-92819454D01*
X245117141Y-92832886D01*
X245108087Y-92844317D01*
X245090083Y-92864067D01*
X245087578Y-92870534D01*
X245074259Y-92895802D01*
X245070343Y-92901518D01*
X245064228Y-92927517D01*
X245059151Y-92943913D01*
X245049500Y-92968827D01*
X245049500Y-92975751D01*
X245046206Y-93004144D01*
X245044621Y-93010881D01*
X245048311Y-93037332D01*
X245049500Y-93054465D01*
X245049500Y-93059678D01*
X245030081Y-93126303D01*
X244977905Y-93172060D01*
X244969594Y-93175935D01*
X244885935Y-93259594D01*
X244835931Y-93366827D01*
X244829500Y-93415683D01*
X244829500Y-93764317D01*
X244835931Y-93813172D01*
X244885935Y-93920405D01*
X244977849Y-94012319D01*
X245009943Y-94067906D01*
X245009943Y-94132094D01*
X244977849Y-94187681D01*
X244885935Y-94279594D01*
X244835931Y-94386827D01*
X244829500Y-94435683D01*
X244829500Y-94585500D01*
X244812887Y-94647500D01*
X244767500Y-94692887D01*
X244705500Y-94709500D01*
X242353832Y-94709500D01*
X242296207Y-94695297D01*
X242251782Y-94655941D01*
X242173183Y-94542071D01*
X242089363Y-94467813D01*
X242052488Y-94409499D01*
X242052488Y-94340501D01*
X242089363Y-94282186D01*
X242173183Y-94207929D01*
X242269818Y-94067930D01*
X242330140Y-93908872D01*
X242350645Y-93740000D01*
X242330140Y-93571128D01*
X242330139Y-93571127D01*
X242328325Y-93556182D01*
X242329344Y-93556058D01*
X242325432Y-93533424D01*
X242335330Y-93487319D01*
X242361723Y-93448246D01*
X243238518Y-92571451D01*
X243252353Y-92561498D01*
X243259225Y-92553959D01*
X243259228Y-92553958D01*
X243290488Y-92519666D01*
X243294379Y-92515590D01*
X243307174Y-92502797D01*
X243307178Y-92502790D01*
X243307868Y-92502101D01*
X243316922Y-92490671D01*
X243334914Y-92470935D01*
X243334913Y-92470935D01*
X243334916Y-92470933D01*
X243337419Y-92464470D01*
X243350743Y-92439191D01*
X243354656Y-92433481D01*
X243360770Y-92407481D01*
X243365846Y-92391089D01*
X243375500Y-92366173D01*
X243375500Y-92359249D01*
X243378794Y-92330856D01*
X243379005Y-92329959D01*
X243380379Y-92324119D01*
X243376688Y-92297666D01*
X243375500Y-92280535D01*
X243375500Y-90925000D01*
X245425000Y-90925000D01*
X245425000Y-91097824D01*
X245431402Y-91157375D01*
X245481647Y-91292089D01*
X245567811Y-91407188D01*
X245682910Y-91493352D01*
X245817624Y-91543597D01*
X245877176Y-91550000D01*
X246500000Y-91550000D01*
X246500000Y-90925000D01*
X247000000Y-90925000D01*
X247000000Y-91550000D01*
X247622824Y-91550000D01*
X247682375Y-91543597D01*
X247817089Y-91493352D01*
X247932188Y-91407188D01*
X248018352Y-91292089D01*
X248068597Y-91157375D01*
X248075000Y-91097824D01*
X248075000Y-90925000D01*
X247000000Y-90925000D01*
X246500000Y-90925000D01*
X245425000Y-90925000D01*
X243375500Y-90925000D01*
X243375500Y-90655000D01*
X249745496Y-90655000D01*
X249787968Y-90801196D01*
X249870281Y-90940379D01*
X249984620Y-91054718D01*
X250123805Y-91137032D01*
X250279082Y-91182144D01*
X250299999Y-91183790D01*
X250300000Y-91183790D01*
X250300000Y-90655000D01*
X250800000Y-90655000D01*
X250800000Y-91183790D01*
X250820915Y-91182145D01*
X250976194Y-91137032D01*
X251115379Y-91054718D01*
X251229718Y-90940379D01*
X251312031Y-90801196D01*
X251354504Y-90655000D01*
X250800000Y-90655000D01*
X250300000Y-90655000D01*
X249745496Y-90655000D01*
X243375500Y-90655000D01*
X243375500Y-90545715D01*
X243378243Y-90528894D01*
X243377772Y-90518708D01*
X243377773Y-90518707D01*
X243375631Y-90472391D01*
X243375500Y-90466667D01*
X243375500Y-90447650D01*
X243373817Y-90433152D01*
X243372585Y-90406480D01*
X243369786Y-90400142D01*
X243361332Y-90372839D01*
X243360061Y-90366039D01*
X243346002Y-90343332D01*
X243337995Y-90328142D01*
X243333125Y-90317113D01*
X243327206Y-90303707D01*
X243322310Y-90298811D01*
X243304563Y-90276405D01*
X243300919Y-90270520D01*
X243279602Y-90254422D01*
X243266648Y-90243149D01*
X241684978Y-88661479D01*
X241675025Y-88647645D01*
X241663713Y-88637333D01*
X241633209Y-88609524D01*
X241629068Y-88605569D01*
X241615638Y-88592139D01*
X241604206Y-88583083D01*
X241584462Y-88565084D01*
X241577996Y-88562579D01*
X241552720Y-88549256D01*
X241547009Y-88545344D01*
X241547008Y-88545343D01*
X241547006Y-88545342D01*
X241521012Y-88539228D01*
X241504613Y-88534150D01*
X241474295Y-88522405D01*
X241420785Y-88482359D01*
X241395834Y-88420355D01*
X241406690Y-88354407D01*
X241450199Y-88303675D01*
X241481957Y-88282457D01*
X241496898Y-88260095D01*
X241541545Y-88219627D01*
X241600000Y-88204985D01*
X241658455Y-88219627D01*
X241703101Y-88260095D01*
X241718043Y-88282457D01*
X241751287Y-88304669D01*
X241780601Y-88310500D01*
X242435398Y-88310499D01*
X242435399Y-88310499D01*
X242455999Y-88306402D01*
X242464713Y-88304669D01*
X242497957Y-88282457D01*
X242520169Y-88249213D01*
X242526000Y-88219899D01*
X242526000Y-87999500D01*
X242542613Y-87937500D01*
X242588000Y-87892113D01*
X242650000Y-87875500D01*
X242886156Y-87875500D01*
X242952782Y-87894920D01*
X242984168Y-87930709D01*
X243083181Y-88029722D01*
X243110061Y-88069950D01*
X243119500Y-88117403D01*
X243119500Y-88775757D01*
X243116756Y-88792577D01*
X243119368Y-88849079D01*
X243119500Y-88854805D01*
X243119500Y-88873819D01*
X243121181Y-88888307D01*
X243122415Y-88914993D01*
X243125213Y-88921330D01*
X243133666Y-88948626D01*
X243134938Y-88955434D01*
X243148997Y-88978140D01*
X243157002Y-88993327D01*
X243167792Y-89017763D01*
X243172688Y-89022659D01*
X243190434Y-89045063D01*
X243194081Y-89050952D01*
X243211277Y-89063938D01*
X243215396Y-89067048D01*
X243228351Y-89078322D01*
X244238551Y-90088523D01*
X244248507Y-90102360D01*
X244290305Y-90140465D01*
X244294446Y-90144419D01*
X244307885Y-90157858D01*
X244319333Y-90166926D01*
X244339067Y-90184916D01*
X244345520Y-90187415D01*
X244370806Y-90200743D01*
X244376520Y-90204657D01*
X244402514Y-90210771D01*
X244418908Y-90215846D01*
X244443827Y-90225500D01*
X244450752Y-90225500D01*
X244479142Y-90228794D01*
X244485881Y-90230379D01*
X244512332Y-90226689D01*
X244529464Y-90225500D01*
X244802320Y-90225500D01*
X244838316Y-90230840D01*
X244871209Y-90246397D01*
X244907311Y-90270520D01*
X244934769Y-90288867D01*
X244993251Y-90300500D01*
X245301000Y-90300500D01*
X245363000Y-90317113D01*
X245408387Y-90362500D01*
X245425000Y-90424500D01*
X245425000Y-90425000D01*
X246500000Y-90425000D01*
X247000000Y-90425000D01*
X248075000Y-90425000D01*
X248075000Y-90424500D01*
X248091613Y-90362500D01*
X248137000Y-90317113D01*
X248199000Y-90300500D01*
X248507749Y-90300500D01*
X248536989Y-90294683D01*
X248566231Y-90288867D01*
X248632552Y-90244552D01*
X248657041Y-90207902D01*
X248699178Y-90168816D01*
X248754417Y-90152927D01*
X248757763Y-90152772D01*
X248757765Y-90152773D01*
X248800097Y-90150816D01*
X248804081Y-90150632D01*
X248809805Y-90150500D01*
X248828824Y-90150500D01*
X248843318Y-90148817D01*
X248869992Y-90147585D01*
X248876330Y-90144786D01*
X248903633Y-90136332D01*
X248910433Y-90135061D01*
X248933143Y-90120998D01*
X248948325Y-90112996D01*
X248972765Y-90102206D01*
X248977659Y-90097311D01*
X249000063Y-90079564D01*
X249005952Y-90075919D01*
X249022053Y-90054595D01*
X249033313Y-90041656D01*
X249163518Y-89911451D01*
X249177353Y-89901498D01*
X249184225Y-89893959D01*
X249184228Y-89893958D01*
X249215488Y-89859666D01*
X249219379Y-89855590D01*
X249232174Y-89842797D01*
X249232178Y-89842790D01*
X249232868Y-89842101D01*
X249241922Y-89830671D01*
X249259915Y-89810934D01*
X249259914Y-89810934D01*
X249259916Y-89810933D01*
X249262417Y-89804474D01*
X249275748Y-89779186D01*
X249279656Y-89773481D01*
X249279655Y-89773481D01*
X249279657Y-89773480D01*
X249285775Y-89747467D01*
X249290845Y-89731093D01*
X249300500Y-89706173D01*
X249300500Y-89699248D01*
X249303794Y-89670858D01*
X249303819Y-89670749D01*
X249305379Y-89664119D01*
X249301689Y-89637667D01*
X249300500Y-89620536D01*
X249300500Y-88494243D01*
X249303243Y-88477422D01*
X249302772Y-88467236D01*
X249302773Y-88467235D01*
X249300631Y-88420919D01*
X249300500Y-88415195D01*
X249300500Y-88396178D01*
X249298817Y-88381680D01*
X249298788Y-88381043D01*
X249297585Y-88355008D01*
X249294785Y-88348668D01*
X249286333Y-88321370D01*
X249285061Y-88314567D01*
X249271006Y-88291867D01*
X249262998Y-88276676D01*
X249262131Y-88274713D01*
X249252206Y-88252234D01*
X249252204Y-88252232D01*
X249252204Y-88252231D01*
X249247309Y-88247336D01*
X249229562Y-88224931D01*
X249225919Y-88219047D01*
X249204609Y-88202956D01*
X249191652Y-88191681D01*
X248721828Y-87721857D01*
X248691247Y-87671460D01*
X248687394Y-87612636D01*
X248711140Y-87558681D01*
X248728734Y-87544563D01*
X248727856Y-87543685D01*
X248828224Y-87443316D01*
X248878972Y-87334487D01*
X248882263Y-87309488D01*
X248885500Y-87284901D01*
X248885499Y-86925100D01*
X248878972Y-86875513D01*
X248828224Y-86766684D01*
X248828223Y-86766683D01*
X248828223Y-86766682D01*
X248774222Y-86712681D01*
X248742128Y-86657094D01*
X248742128Y-86592906D01*
X248774222Y-86537319D01*
X248828224Y-86483316D01*
X248878972Y-86374487D01*
X248878971Y-86374487D01*
X248885500Y-86324901D01*
X248885499Y-85965100D01*
X248878972Y-85915513D01*
X248863314Y-85881935D01*
X248825996Y-85801905D01*
X248814643Y-85741390D01*
X248833797Y-85682875D01*
X248878735Y-85640786D01*
X248938378Y-85625500D01*
X249015311Y-85625500D01*
X249080973Y-85644312D01*
X249126712Y-85695041D01*
X249130364Y-85702512D01*
X249212487Y-85784635D01*
X249212488Y-85784635D01*
X249212489Y-85784636D01*
X249316830Y-85835645D01*
X249384472Y-85845500D01*
X249745526Y-85845500D01*
X249745528Y-85845500D01*
X249813170Y-85835645D01*
X249917511Y-85784636D01*
X249935751Y-85766396D01*
X249962319Y-85739829D01*
X250017906Y-85707735D01*
X250082094Y-85707735D01*
X250137681Y-85739829D01*
X250188181Y-85790329D01*
X250215061Y-85830557D01*
X250224500Y-85878010D01*
X250224500Y-88927598D01*
X250215061Y-88975051D01*
X250188181Y-89015280D01*
X250181685Y-89021775D01*
X250181684Y-89021776D01*
X250164721Y-89038739D01*
X250096774Y-89106685D01*
X250046027Y-89215512D01*
X250039500Y-89265097D01*
X250039500Y-89624896D01*
X250039501Y-89624900D01*
X250040768Y-89634529D01*
X250040770Y-89634538D01*
X250037716Y-89682395D01*
X250016732Y-89725516D01*
X249994910Y-89744993D01*
X249870279Y-89869623D01*
X249787968Y-90008803D01*
X249745496Y-90155000D01*
X251354504Y-90155000D01*
X251312031Y-90008803D01*
X251229718Y-89869620D01*
X251105096Y-89744998D01*
X251083270Y-89725518D01*
X251062283Y-89682393D01*
X251059232Y-89634529D01*
X251059941Y-89629144D01*
X251060500Y-89624901D01*
X251060499Y-89265100D01*
X251053972Y-89215513D01*
X251003224Y-89106684D01*
X251003223Y-89106683D01*
X251003223Y-89106682D01*
X250918317Y-89021776D01*
X250897095Y-89011880D01*
X250844919Y-88966123D01*
X250825500Y-88899498D01*
X250825500Y-87399500D01*
X250842113Y-87337500D01*
X250887500Y-87292113D01*
X250949500Y-87275500D01*
X251865975Y-87275500D01*
X251950545Y-87260588D01*
X251950545Y-87260587D01*
X251972076Y-87256791D01*
X251972513Y-87259269D01*
X251997778Y-87252500D01*
X255348500Y-87252500D01*
X255410500Y-87269113D01*
X255455887Y-87314500D01*
X255472500Y-87376500D01*
X255472500Y-88473500D01*
X255455887Y-88535500D01*
X255410500Y-88580887D01*
X255348500Y-88597500D01*
X252742253Y-88597500D01*
X252725104Y-88603741D01*
X252704236Y-88609332D01*
X252686262Y-88612502D01*
X252670450Y-88621630D01*
X252650874Y-88630758D01*
X252633723Y-88637001D01*
X252619741Y-88648733D01*
X252602045Y-88661124D01*
X252586239Y-88670250D01*
X252574508Y-88684230D01*
X252559230Y-88699508D01*
X252545250Y-88711239D01*
X252536124Y-88727045D01*
X252523733Y-88744741D01*
X252512001Y-88758723D01*
X252505758Y-88775874D01*
X252496630Y-88795450D01*
X252487502Y-88811262D01*
X252484332Y-88829236D01*
X252478741Y-88850104D01*
X252472500Y-88867253D01*
X252472500Y-90982746D01*
X252478740Y-90999891D01*
X252484332Y-91020763D01*
X252487502Y-91038738D01*
X252496627Y-91054544D01*
X252505759Y-91074127D01*
X252512001Y-91091275D01*
X252523727Y-91105250D01*
X252536122Y-91122951D01*
X252545250Y-91138760D01*
X252559226Y-91150487D01*
X252574512Y-91165773D01*
X252586240Y-91179750D01*
X252593238Y-91183790D01*
X252602042Y-91188873D01*
X252619746Y-91201269D01*
X252633724Y-91212998D01*
X252650868Y-91219238D01*
X252670450Y-91228369D01*
X252686261Y-91237497D01*
X252704234Y-91240666D01*
X252725110Y-91246260D01*
X252742253Y-91252500D01*
X252771348Y-91252500D01*
X252857747Y-91252500D01*
X255348500Y-91252500D01*
X255410500Y-91269113D01*
X255455887Y-91314500D01*
X255472500Y-91376500D01*
X255472500Y-92473500D01*
X255455887Y-92535500D01*
X255410500Y-92580887D01*
X255348500Y-92597500D01*
X252742253Y-92597500D01*
X252725104Y-92603741D01*
X252704236Y-92609332D01*
X252686262Y-92612502D01*
X252670450Y-92621630D01*
X252650874Y-92630758D01*
X252633723Y-92637001D01*
X252619741Y-92648733D01*
X252602045Y-92661124D01*
X252586239Y-92670250D01*
X252574508Y-92684230D01*
X252559230Y-92699508D01*
X252545250Y-92711239D01*
X252536124Y-92727045D01*
X252523733Y-92744741D01*
X252512001Y-92758723D01*
X252505758Y-92775874D01*
X252496630Y-92795450D01*
X252487502Y-92811262D01*
X252484332Y-92829236D01*
X252478741Y-92850104D01*
X252472500Y-92867253D01*
X252472500Y-94982746D01*
X252478740Y-94999891D01*
X252484332Y-95020763D01*
X252487502Y-95038738D01*
X252496627Y-95054544D01*
X252505759Y-95074127D01*
X252512001Y-95091275D01*
X252523727Y-95105250D01*
X252536122Y-95122951D01*
X252545250Y-95138760D01*
X252559226Y-95150487D01*
X252574512Y-95165773D01*
X252586240Y-95179750D01*
X252600225Y-95187824D01*
X252602042Y-95188873D01*
X252619746Y-95201269D01*
X252633724Y-95212998D01*
X252650868Y-95219238D01*
X252670450Y-95228369D01*
X252686261Y-95237497D01*
X252704234Y-95240666D01*
X252725109Y-95246260D01*
X252742253Y-95252500D01*
X252771348Y-95252500D01*
X252857747Y-95252500D01*
X255348500Y-95252500D01*
X255410500Y-95269113D01*
X255455887Y-95314500D01*
X255472500Y-95376500D01*
X255472500Y-96473500D01*
X255455887Y-96535500D01*
X255410500Y-96580887D01*
X255348500Y-96597500D01*
X252771348Y-96597500D01*
X252686260Y-96612503D01*
X252586239Y-96670250D01*
X252512002Y-96758722D01*
X252496786Y-96800529D01*
X252472500Y-96867253D01*
X252472500Y-96982747D01*
X252486339Y-97020769D01*
X252512002Y-97091277D01*
X252564817Y-97154219D01*
X252586240Y-97179750D01*
X252686261Y-97237497D01*
X252771348Y-97252500D01*
X255742253Y-97252500D01*
X255828652Y-97252500D01*
X255857747Y-97252500D01*
X255857748Y-97252500D01*
X255874885Y-97246262D01*
X255895765Y-97240665D01*
X255913739Y-97237497D01*
X255929541Y-97228373D01*
X255949132Y-97219237D01*
X255966276Y-97212998D01*
X255980255Y-97201267D01*
X255997954Y-97188875D01*
X256013760Y-97179750D01*
X256025487Y-97165772D01*
X256040772Y-97150487D01*
X256054750Y-97138760D01*
X256063875Y-97122954D01*
X256076267Y-97105255D01*
X256087998Y-97091276D01*
X256094237Y-97074132D01*
X256103373Y-97054542D01*
X256107726Y-97047003D01*
X256112497Y-97038739D01*
X256115665Y-97020765D01*
X256121262Y-96999885D01*
X256127500Y-96982748D01*
X256127500Y-94867253D01*
X256121260Y-94850109D01*
X256115666Y-94829234D01*
X256112497Y-94811261D01*
X256103369Y-94795450D01*
X256094237Y-94775866D01*
X256087998Y-94758724D01*
X256076269Y-94744746D01*
X256063873Y-94727042D01*
X256054749Y-94711239D01*
X256040773Y-94699512D01*
X256025487Y-94684226D01*
X256013760Y-94670250D01*
X255997951Y-94661122D01*
X255980250Y-94648727D01*
X255966275Y-94637001D01*
X255949127Y-94630759D01*
X255929544Y-94621627D01*
X255913738Y-94612502D01*
X255895763Y-94609332D01*
X255874893Y-94603740D01*
X255857747Y-94597500D01*
X255857746Y-94597500D01*
X253251500Y-94597500D01*
X253189500Y-94580887D01*
X253144113Y-94535500D01*
X253127500Y-94473500D01*
X253127500Y-93376500D01*
X253144113Y-93314500D01*
X253189500Y-93269113D01*
X253251500Y-93252500D01*
X255857748Y-93252500D01*
X255874885Y-93246262D01*
X255895765Y-93240665D01*
X255913739Y-93237497D01*
X255929541Y-93228373D01*
X255949132Y-93219237D01*
X255966276Y-93212998D01*
X255980255Y-93201267D01*
X255997954Y-93188875D01*
X256013760Y-93179750D01*
X256025487Y-93165772D01*
X256040772Y-93150487D01*
X256054750Y-93138760D01*
X256063875Y-93122954D01*
X256076267Y-93105255D01*
X256087998Y-93091276D01*
X256094237Y-93074132D01*
X256103373Y-93054542D01*
X256104917Y-93051866D01*
X256112497Y-93038739D01*
X256115665Y-93020765D01*
X256121262Y-92999885D01*
X256127500Y-92982748D01*
X256127500Y-90867253D01*
X256121260Y-90850109D01*
X256115666Y-90829234D01*
X256112497Y-90811261D01*
X256103369Y-90795450D01*
X256094237Y-90775866D01*
X256094104Y-90775500D01*
X256087998Y-90758724D01*
X256076269Y-90744746D01*
X256063873Y-90727042D01*
X256054749Y-90711239D01*
X256040773Y-90699512D01*
X256025487Y-90684226D01*
X256013760Y-90670250D01*
X255997951Y-90661122D01*
X255980250Y-90648727D01*
X255966275Y-90637001D01*
X255949127Y-90630759D01*
X255929544Y-90621627D01*
X255913738Y-90612502D01*
X255895763Y-90609332D01*
X255874893Y-90603740D01*
X255857747Y-90597500D01*
X255857746Y-90597500D01*
X253251500Y-90597500D01*
X253189500Y-90580887D01*
X253144113Y-90535500D01*
X253127500Y-90473500D01*
X253127500Y-89376500D01*
X253144113Y-89314500D01*
X253189500Y-89269113D01*
X253251500Y-89252500D01*
X255857748Y-89252500D01*
X255874885Y-89246262D01*
X255895765Y-89240665D01*
X255913739Y-89237497D01*
X255929541Y-89228373D01*
X255949132Y-89219237D01*
X255966276Y-89212998D01*
X255980255Y-89201267D01*
X255997954Y-89188875D01*
X256013760Y-89179750D01*
X256025487Y-89165772D01*
X256040772Y-89150487D01*
X256054750Y-89138760D01*
X256063875Y-89122954D01*
X256076267Y-89105255D01*
X256087998Y-89091276D01*
X256094237Y-89074132D01*
X256103373Y-89054542D01*
X256112496Y-89038740D01*
X256112497Y-89038739D01*
X256115665Y-89020765D01*
X256121262Y-88999885D01*
X256127500Y-88982748D01*
X256127500Y-86867253D01*
X256121260Y-86850109D01*
X256115666Y-86829234D01*
X256112497Y-86811261D01*
X256103369Y-86795450D01*
X256094237Y-86775866D01*
X256093399Y-86773563D01*
X256087998Y-86758724D01*
X256076269Y-86744746D01*
X256063873Y-86727042D01*
X256054749Y-86711239D01*
X256040773Y-86699512D01*
X256025487Y-86684226D01*
X256013760Y-86670250D01*
X255997951Y-86661122D01*
X255980250Y-86648727D01*
X255966275Y-86637001D01*
X255949127Y-86630759D01*
X255929544Y-86621627D01*
X255913738Y-86612502D01*
X255895763Y-86609332D01*
X255874893Y-86603740D01*
X255857747Y-86597500D01*
X255828652Y-86597500D01*
X251771348Y-86597500D01*
X251771343Y-86597500D01*
X251761626Y-86597501D01*
X251713929Y-86603779D01*
X251713928Y-86603779D01*
X251712670Y-86603945D01*
X251684598Y-86612796D01*
X251664732Y-86616300D01*
X251664647Y-86615820D01*
X251632255Y-86624500D01*
X250949500Y-86624500D01*
X250887500Y-86607887D01*
X250842113Y-86562500D01*
X250825500Y-86500500D01*
X250825500Y-85892356D01*
X250844313Y-85826693D01*
X250873757Y-85800145D01*
X250872880Y-85799268D01*
X250969635Y-85702512D01*
X250969634Y-85702512D01*
X250969636Y-85702511D01*
X251020645Y-85598170D01*
X251030500Y-85530528D01*
X251030500Y-85119472D01*
X251020645Y-85051830D01*
X250969636Y-84947489D01*
X250969635Y-84947488D01*
X250969635Y-84947487D01*
X250887512Y-84865364D01*
X250783170Y-84814355D01*
X250715528Y-84804500D01*
X250354472Y-84804500D01*
X250309377Y-84811070D01*
X250286829Y-84814355D01*
X250182487Y-84865364D01*
X250137681Y-84910171D01*
X250082094Y-84942265D01*
X250017906Y-84942265D01*
X249962319Y-84910171D01*
X249917512Y-84865364D01*
X249813170Y-84814355D01*
X249745528Y-84804500D01*
X249384472Y-84804500D01*
X249339377Y-84811070D01*
X249316829Y-84814355D01*
X249212488Y-84865364D01*
X249124092Y-84953760D01*
X249068504Y-84985853D01*
X249004317Y-84985853D01*
X248948730Y-84953759D01*
X248921818Y-84926847D01*
X248894938Y-84886619D01*
X248885499Y-84839166D01*
X248885499Y-84625101D01*
X248884230Y-84615460D01*
X248887285Y-84567599D01*
X248908273Y-84524476D01*
X248930091Y-84505004D01*
X249054720Y-84380376D01*
X249137031Y-84241196D01*
X249179504Y-84095000D01*
X247570496Y-84095000D01*
X247612968Y-84241196D01*
X247695281Y-84380379D01*
X247819901Y-84504999D01*
X247841726Y-84524477D01*
X247862714Y-84567600D01*
X247865768Y-84615462D01*
X247864500Y-84625094D01*
X247864500Y-84984897D01*
X247871028Y-85034488D01*
X247921776Y-85143317D01*
X248006682Y-85228223D01*
X248027905Y-85238120D01*
X248080081Y-85283877D01*
X248099500Y-85350502D01*
X248099500Y-85599498D01*
X248080081Y-85666123D01*
X248027905Y-85711880D01*
X248006682Y-85721776D01*
X247921775Y-85806683D01*
X247871027Y-85915512D01*
X247864500Y-85965097D01*
X247864500Y-86324897D01*
X247871028Y-86374488D01*
X247921776Y-86483317D01*
X247975778Y-86537319D01*
X248007872Y-86592906D01*
X248007872Y-86657094D01*
X247975778Y-86712681D01*
X247921775Y-86766683D01*
X247871027Y-86875512D01*
X247864500Y-86925097D01*
X247864500Y-87284897D01*
X247871028Y-87334488D01*
X247921776Y-87443317D01*
X248019290Y-87540831D01*
X248055080Y-87572218D01*
X248074500Y-87638844D01*
X248074500Y-87730757D01*
X248071756Y-87747577D01*
X248074368Y-87804079D01*
X248074500Y-87809805D01*
X248074500Y-87828819D01*
X248076181Y-87843307D01*
X248077415Y-87869993D01*
X248080213Y-87876330D01*
X248088666Y-87903626D01*
X248089938Y-87910434D01*
X248103997Y-87933140D01*
X248112002Y-87948327D01*
X248122792Y-87972763D01*
X248127688Y-87977659D01*
X248145434Y-88000063D01*
X248146135Y-88001194D01*
X248149081Y-88005952D01*
X248170396Y-88022048D01*
X248183351Y-88033322D01*
X248663181Y-88513152D01*
X248690061Y-88553380D01*
X248699500Y-88600833D01*
X248699500Y-89425500D01*
X248682887Y-89487500D01*
X248637500Y-89532887D01*
X248575500Y-89549500D01*
X248199000Y-89549500D01*
X248137000Y-89532887D01*
X248091613Y-89487500D01*
X248075000Y-89425500D01*
X248075000Y-89425000D01*
X247000000Y-89425000D01*
X247000000Y-90425000D01*
X246500000Y-90425000D01*
X246500000Y-89425000D01*
X245425000Y-89425000D01*
X245425000Y-89425500D01*
X245408387Y-89487500D01*
X245363000Y-89532887D01*
X245301000Y-89549500D01*
X244993251Y-89549500D01*
X244934769Y-89561132D01*
X244871211Y-89603602D01*
X244838316Y-89619160D01*
X244802320Y-89624500D01*
X244675833Y-89624500D01*
X244628380Y-89615061D01*
X244588152Y-89588181D01*
X243924971Y-88925000D01*
X245425000Y-88925000D01*
X246500000Y-88925000D01*
X246500000Y-88300000D01*
X247000000Y-88300000D01*
X247000000Y-88925000D01*
X248075000Y-88925000D01*
X248075000Y-88752176D01*
X248068597Y-88692624D01*
X248018352Y-88557910D01*
X247932188Y-88442811D01*
X247817089Y-88356647D01*
X247682375Y-88306402D01*
X247622824Y-88300000D01*
X247000000Y-88300000D01*
X246500000Y-88300000D01*
X245877176Y-88300000D01*
X245817624Y-88306402D01*
X245682910Y-88356647D01*
X245567811Y-88442811D01*
X245481647Y-88557910D01*
X245431402Y-88692624D01*
X245425000Y-88752176D01*
X245425000Y-88925000D01*
X243924971Y-88925000D01*
X243756819Y-88756848D01*
X243729939Y-88716620D01*
X243720500Y-88669167D01*
X243720500Y-88398709D01*
X243737276Y-88336428D01*
X243783063Y-88290999D01*
X243845474Y-88274713D01*
X243907621Y-88291977D01*
X243983803Y-88337031D01*
X244130000Y-88379504D01*
X244130000Y-87825000D01*
X244630000Y-87825000D01*
X244630000Y-88379504D01*
X244776196Y-88337031D01*
X244915379Y-88254718D01*
X245029718Y-88140379D01*
X245112032Y-88001194D01*
X245157144Y-87845917D01*
X245158790Y-87825000D01*
X244630000Y-87825000D01*
X244130000Y-87825000D01*
X244130000Y-86770496D01*
X244630000Y-86770496D01*
X244630000Y-87325000D01*
X245158790Y-87325000D01*
X245157145Y-87304084D01*
X245112032Y-87148805D01*
X245029718Y-87009620D01*
X244915379Y-86895281D01*
X244776196Y-86812968D01*
X244630000Y-86770496D01*
X244130000Y-86770496D01*
X243983803Y-86812968D01*
X243844623Y-86895279D01*
X243719988Y-87019915D01*
X243700512Y-87041734D01*
X243657393Y-87062716D01*
X243609536Y-87065768D01*
X243599903Y-87064500D01*
X243240102Y-87064500D01*
X243190511Y-87071028D01*
X243081682Y-87121776D01*
X242984168Y-87219290D01*
X242952782Y-87255080D01*
X242886156Y-87274500D01*
X242649999Y-87274500D01*
X242587999Y-87257887D01*
X242542612Y-87212500D01*
X242525999Y-87150500D01*
X242525999Y-86930101D01*
X242520169Y-86900787D01*
X242508232Y-86882921D01*
X242497957Y-86867543D01*
X242497954Y-86867541D01*
X242464712Y-86845330D01*
X242435401Y-86839500D01*
X241780600Y-86839500D01*
X241751287Y-86845330D01*
X241718042Y-86867543D01*
X241703101Y-86889905D01*
X241658451Y-86930373D01*
X241599997Y-86945014D01*
X241541543Y-86930371D01*
X241496897Y-86889904D01*
X241481957Y-86867543D01*
X241481955Y-86867542D01*
X241481955Y-86867541D01*
X241448712Y-86845330D01*
X241419401Y-86839500D01*
X240764600Y-86839500D01*
X240735287Y-86845330D01*
X240688389Y-86876666D01*
X240625583Y-86897414D01*
X240561046Y-86882921D01*
X240513141Y-86837311D01*
X240495500Y-86773563D01*
X240495500Y-86501275D01*
X240514920Y-86434650D01*
X240567096Y-86388893D01*
X240635686Y-86378336D01*
X240640511Y-86378971D01*
X240640513Y-86378972D01*
X240690099Y-86385500D01*
X241109900Y-86385499D01*
X241159487Y-86378972D01*
X241268316Y-86328224D01*
X241353224Y-86243316D01*
X241403972Y-86134487D01*
X241410500Y-86084901D01*
X241410499Y-85725100D01*
X241409230Y-85715459D01*
X241412285Y-85667599D01*
X241433273Y-85624476D01*
X241455091Y-85605004D01*
X241579720Y-85480376D01*
X241662031Y-85341196D01*
X241704504Y-85195000D01*
X240774000Y-85195000D01*
X240712000Y-85178387D01*
X240666613Y-85133000D01*
X240650000Y-85071000D01*
X240650000Y-84166209D01*
X241150000Y-84166209D01*
X241150000Y-84695000D01*
X241704504Y-84695000D01*
X241662031Y-84548803D01*
X241579718Y-84409620D01*
X241465379Y-84295281D01*
X241326194Y-84212967D01*
X241170917Y-84167855D01*
X241150000Y-84166209D01*
X240650000Y-84166209D01*
X240629223Y-84167844D01*
X240563202Y-84154709D01*
X240513772Y-84109014D01*
X240495500Y-84044226D01*
X240495500Y-83314000D01*
X240512113Y-83252000D01*
X240557500Y-83206613D01*
X240619500Y-83190000D01*
X240752824Y-83190000D01*
X240812375Y-83183597D01*
X240898857Y-83151342D01*
X240968549Y-83146358D01*
X241029872Y-83179843D01*
X242438181Y-84588152D01*
X242465061Y-84628380D01*
X242474500Y-84675833D01*
X242474500Y-85156257D01*
X242471756Y-85173077D01*
X242474368Y-85229579D01*
X242474500Y-85235305D01*
X242474500Y-85254319D01*
X242476181Y-85268807D01*
X242477415Y-85295493D01*
X242480213Y-85301830D01*
X242488666Y-85329126D01*
X242489938Y-85335934D01*
X242503997Y-85358640D01*
X242512002Y-85373827D01*
X242522792Y-85398263D01*
X242527688Y-85403159D01*
X242545434Y-85425563D01*
X242549081Y-85431452D01*
X242570396Y-85447548D01*
X242583351Y-85458822D01*
X242847101Y-85722572D01*
X242876839Y-85770394D01*
X242882359Y-85826438D01*
X242869317Y-85925499D01*
X242889956Y-86082262D01*
X242950463Y-86228340D01*
X243046717Y-86353782D01*
X243172158Y-86450035D01*
X243172159Y-86450036D01*
X243318238Y-86510544D01*
X243475000Y-86531182D01*
X243631762Y-86510544D01*
X243777841Y-86450036D01*
X243903282Y-86353782D01*
X243999536Y-86228341D01*
X244060044Y-86082262D01*
X244080682Y-85925500D01*
X244060044Y-85768738D01*
X243999536Y-85622659D01*
X243980745Y-85598170D01*
X243959344Y-85570279D01*
X244883272Y-85570279D01*
X244883273Y-85570280D01*
X244927168Y-85575000D01*
X245972830Y-85575000D01*
X246016725Y-85570280D01*
X246016726Y-85570278D01*
X245450001Y-85003553D01*
X245450000Y-85003553D01*
X244883272Y-85570279D01*
X243959344Y-85570279D01*
X243893344Y-85484266D01*
X243893385Y-85484234D01*
X243866346Y-85449936D01*
X243856008Y-85389771D01*
X243875631Y-85331965D01*
X243920458Y-85290527D01*
X243979626Y-85275500D01*
X244494749Y-85275500D01*
X244542065Y-85266088D01*
X244553231Y-85263867D01*
X244619552Y-85219552D01*
X244663867Y-85153231D01*
X244674073Y-85101921D01*
X244686330Y-85067667D01*
X244708007Y-85038439D01*
X245096447Y-84650000D01*
X244911447Y-84465000D01*
X244799500Y-84465000D01*
X244737500Y-84448387D01*
X244692113Y-84403000D01*
X244675500Y-84341000D01*
X244675500Y-84198007D01*
X244693142Y-84134258D01*
X244741047Y-84088649D01*
X244805585Y-84074156D01*
X244868390Y-84094904D01*
X244892661Y-84111122D01*
X244896769Y-84113867D01*
X244955251Y-84125500D01*
X245227692Y-84125500D01*
X245275145Y-84134939D01*
X245315373Y-84161819D01*
X245450000Y-84296446D01*
X245584627Y-84161819D01*
X245624855Y-84134939D01*
X245672308Y-84125500D01*
X245944749Y-84125500D01*
X245987872Y-84116922D01*
X246003231Y-84113867D01*
X246003231Y-84113866D01*
X246022308Y-84110072D01*
X246084817Y-84113758D01*
X246137556Y-84147517D01*
X246167074Y-84202741D01*
X246165845Y-84265347D01*
X246134181Y-84319370D01*
X245803553Y-84650000D01*
X246396139Y-85242587D01*
X246396140Y-85242587D01*
X246418597Y-85182378D01*
X246425000Y-85122824D01*
X246425000Y-84177176D01*
X246418597Y-84117623D01*
X246396139Y-84057411D01*
X246319370Y-84134181D01*
X246265347Y-84165844D01*
X246202741Y-84167074D01*
X246147517Y-84137556D01*
X246113758Y-84084818D01*
X246110072Y-84022308D01*
X246125500Y-83944749D01*
X246125500Y-83595000D01*
X247570496Y-83595000D01*
X248125000Y-83595000D01*
X248125000Y-83066209D01*
X248625000Y-83066209D01*
X248625000Y-83595000D01*
X249179504Y-83595000D01*
X249137031Y-83448803D01*
X249054718Y-83309620D01*
X248940379Y-83195281D01*
X248801194Y-83112967D01*
X248645917Y-83067855D01*
X248625000Y-83066209D01*
X248125000Y-83066209D01*
X248104084Y-83067854D01*
X247948805Y-83112967D01*
X247809620Y-83195281D01*
X247695281Y-83309620D01*
X247612968Y-83448803D01*
X247570496Y-83595000D01*
X246125500Y-83595000D01*
X246125500Y-83055251D01*
X246117065Y-83012848D01*
X246113867Y-82996769D01*
X246113866Y-82996767D01*
X246111610Y-82993390D01*
X246090861Y-82930584D01*
X246105354Y-82866047D01*
X246150963Y-82818142D01*
X246214712Y-82800500D01*
X246218827Y-82800500D01*
X246225751Y-82800500D01*
X246254140Y-82803793D01*
X246260881Y-82805379D01*
X246287333Y-82801688D01*
X246304465Y-82800500D01*
X250405757Y-82800500D01*
X250422577Y-82803243D01*
X250432762Y-82802772D01*
X250432765Y-82802773D01*
X250479080Y-82800631D01*
X250484805Y-82800500D01*
X250503824Y-82800500D01*
X250518318Y-82798817D01*
X250544992Y-82797585D01*
X250551330Y-82794786D01*
X250578633Y-82786332D01*
X250585433Y-82785061D01*
X250608143Y-82770998D01*
X250623325Y-82762996D01*
X250647765Y-82752206D01*
X250652659Y-82747311D01*
X250675063Y-82729564D01*
X250680952Y-82725919D01*
X250697053Y-82704595D01*
X250708313Y-82691656D01*
X252038151Y-81361819D01*
X252078380Y-81334939D01*
X252125833Y-81325500D01*
X254280757Y-81325500D01*
X254297577Y-81328243D01*
X254307762Y-81327772D01*
X254307765Y-81327773D01*
X254354080Y-81325631D01*
X254359805Y-81325500D01*
X254378824Y-81325500D01*
X254393318Y-81323817D01*
X254419992Y-81322585D01*
X254426330Y-81319786D01*
X254453633Y-81311332D01*
X254460433Y-81310061D01*
X254483143Y-81295998D01*
X254498325Y-81287996D01*
X254522765Y-81277206D01*
X254527659Y-81272311D01*
X254550063Y-81254564D01*
X254555952Y-81250919D01*
X254572053Y-81229595D01*
X254583313Y-81216656D01*
X256363518Y-79436451D01*
X256377353Y-79426498D01*
X256384225Y-79418959D01*
X256384228Y-79418958D01*
X256415488Y-79384666D01*
X256419379Y-79380590D01*
X256432174Y-79367797D01*
X256432178Y-79367790D01*
X256432868Y-79367101D01*
X256441922Y-79355671D01*
X256459914Y-79335935D01*
X256459913Y-79335935D01*
X256459916Y-79335933D01*
X256462419Y-79329470D01*
X256475743Y-79304191D01*
X256479656Y-79298481D01*
X256485770Y-79272481D01*
X256490846Y-79256089D01*
X256500500Y-79231173D01*
X256500500Y-79224249D01*
X256503794Y-79195856D01*
X256505379Y-79189119D01*
X256501688Y-79162666D01*
X256500500Y-79145535D01*
X256500500Y-75894243D01*
X256503244Y-75877421D01*
X256500632Y-75820921D01*
X256500500Y-75815195D01*
X256500500Y-75796178D01*
X256498817Y-75781680D01*
X256498316Y-75770833D01*
X256497585Y-75755008D01*
X256494785Y-75748668D01*
X256486333Y-75721370D01*
X256485061Y-75714567D01*
X256471006Y-75691867D01*
X256462998Y-75676676D01*
X256455408Y-75659487D01*
X256452206Y-75652234D01*
X256447310Y-75647338D01*
X256429563Y-75624935D01*
X256425919Y-75619048D01*
X256425917Y-75619046D01*
X256404605Y-75602952D01*
X256391651Y-75591679D01*
X256056450Y-75256479D01*
X256046497Y-75242645D01*
X256004681Y-75204524D01*
X256000540Y-75200569D01*
X255987110Y-75187139D01*
X255975678Y-75178083D01*
X255955934Y-75160084D01*
X255949468Y-75157579D01*
X255924192Y-75144256D01*
X255918481Y-75140344D01*
X255918480Y-75140343D01*
X255918478Y-75140342D01*
X255892484Y-75134228D01*
X255876087Y-75129151D01*
X255851173Y-75119500D01*
X255844249Y-75119500D01*
X255815859Y-75116206D01*
X255809119Y-75114621D01*
X255809118Y-75114621D01*
X255797757Y-75116206D01*
X255782666Y-75118311D01*
X255765535Y-75119500D01*
X255153832Y-75119500D01*
X255096207Y-75105297D01*
X255051782Y-75065941D01*
X254973183Y-74952071D01*
X254971576Y-74950647D01*
X254889365Y-74877814D01*
X254852488Y-74819497D01*
X254852488Y-74750499D01*
X254889364Y-74692185D01*
X254973183Y-74617929D01*
X255069818Y-74477930D01*
X255130140Y-74318872D01*
X255150645Y-74150000D01*
X255130140Y-73981128D01*
X255069818Y-73822070D01*
X254973183Y-73682071D01*
X254941660Y-73654144D01*
X254845852Y-73569265D01*
X254811876Y-73551434D01*
X254763383Y-73505787D01*
X254745500Y-73441637D01*
X254745500Y-73289243D01*
X254748243Y-73272422D01*
X254747772Y-73262236D01*
X254747773Y-73262235D01*
X254745631Y-73215919D01*
X254745500Y-73210195D01*
X254745500Y-73191178D01*
X254743817Y-73176680D01*
X254742585Y-73150008D01*
X254739786Y-73143670D01*
X254731332Y-73116367D01*
X254730061Y-73109567D01*
X254716002Y-73086860D01*
X254707995Y-73071670D01*
X254697206Y-73047235D01*
X254692310Y-73042338D01*
X254674563Y-73019933D01*
X254670919Y-73014048D01*
X254649602Y-72997950D01*
X254636648Y-72986677D01*
X254411450Y-72761479D01*
X254401497Y-72747645D01*
X254359681Y-72709524D01*
X254355540Y-72705569D01*
X254342110Y-72692139D01*
X254330678Y-72683083D01*
X254310934Y-72665084D01*
X254304468Y-72662579D01*
X254279192Y-72649256D01*
X254273481Y-72645344D01*
X254273480Y-72645343D01*
X254273478Y-72645342D01*
X254247484Y-72639228D01*
X254231087Y-72634151D01*
X254206173Y-72624500D01*
X254199249Y-72624500D01*
X254170859Y-72621206D01*
X254164119Y-72619621D01*
X254164118Y-72619621D01*
X254152757Y-72621206D01*
X254137666Y-72623311D01*
X254120535Y-72624500D01*
X252394243Y-72624500D01*
X252377422Y-72621756D01*
X252334308Y-72623749D01*
X252320919Y-72624368D01*
X252315195Y-72624500D01*
X252296183Y-72624500D01*
X252281695Y-72626181D01*
X252255006Y-72627415D01*
X252248662Y-72630216D01*
X252221382Y-72638664D01*
X252214565Y-72639938D01*
X252191855Y-72653999D01*
X252176672Y-72662002D01*
X252152232Y-72672793D01*
X252147331Y-72677695D01*
X252124937Y-72695434D01*
X252119048Y-72699080D01*
X252102953Y-72720393D01*
X252091682Y-72733344D01*
X250661848Y-74163181D01*
X250621620Y-74190061D01*
X250574167Y-74199500D01*
X250424833Y-74199500D01*
X250368538Y-74185985D01*
X250324515Y-74148385D01*
X250302360Y-74094898D01*
X250306902Y-74037182D01*
X250337152Y-73987819D01*
X251310923Y-73014048D01*
X254238518Y-70086451D01*
X254252353Y-70076498D01*
X254259225Y-70068959D01*
X254259228Y-70068958D01*
X254290488Y-70034666D01*
X254294379Y-70030590D01*
X254307174Y-70017797D01*
X254307178Y-70017790D01*
X254307867Y-70017102D01*
X254316922Y-70005671D01*
X254324802Y-69997027D01*
X254334916Y-69985933D01*
X254337415Y-69979479D01*
X254350743Y-69954192D01*
X254354657Y-69948481D01*
X254355350Y-69945536D01*
X254360773Y-69922479D01*
X254365850Y-69906081D01*
X254375500Y-69881173D01*
X254375500Y-69874248D01*
X254378794Y-69845858D01*
X254378819Y-69845749D01*
X254380379Y-69839119D01*
X254376689Y-69812667D01*
X254375500Y-69795536D01*
X254375500Y-68390186D01*
X254380839Y-68354191D01*
X254396398Y-68321295D01*
X254401819Y-68313181D01*
X254413867Y-68295151D01*
X254425500Y-68236668D01*
X254425500Y-66897172D01*
X254423785Y-66888552D01*
X254413867Y-66838689D01*
X254369552Y-66772367D01*
X254303230Y-66728052D01*
X254244749Y-66716420D01*
X254244748Y-66716420D01*
X253905252Y-66716420D01*
X253887600Y-66719931D01*
X253849190Y-66727571D01*
X253800810Y-66727571D01*
X253762399Y-66719931D01*
X253744748Y-66716420D01*
X253405252Y-66716420D01*
X253387600Y-66719931D01*
X253349190Y-66727571D01*
X253300810Y-66727571D01*
X253262399Y-66719931D01*
X253244748Y-66716420D01*
X252905252Y-66716420D01*
X252887600Y-66719931D01*
X252849190Y-66727571D01*
X252800810Y-66727571D01*
X252762399Y-66719931D01*
X252744748Y-66716420D01*
X252405252Y-66716420D01*
X252387600Y-66719931D01*
X252349190Y-66727571D01*
X252300810Y-66727571D01*
X252262399Y-66719931D01*
X252244748Y-66716420D01*
X251905252Y-66716420D01*
X251887600Y-66719931D01*
X251849190Y-66727571D01*
X251800810Y-66727571D01*
X251762399Y-66719931D01*
X251744748Y-66716420D01*
X251405252Y-66716420D01*
X251387600Y-66719931D01*
X251349190Y-66727571D01*
X251300810Y-66727571D01*
X251262399Y-66719931D01*
X251244748Y-66716420D01*
X250905252Y-66716420D01*
X250887600Y-66719931D01*
X250849190Y-66727571D01*
X250800809Y-66727570D01*
X250738168Y-66715110D01*
X250696253Y-66698403D01*
X250663092Y-66667804D01*
X250582188Y-66559731D01*
X250467089Y-66473567D01*
X250332375Y-66423322D01*
X250272824Y-66416920D01*
X250225000Y-66416920D01*
X250225000Y-66882447D01*
X250224500Y-66887524D01*
X250224500Y-67592920D01*
X250207887Y-67654920D01*
X250162500Y-67700307D01*
X250100500Y-67716920D01*
X250049500Y-67716920D01*
X249987500Y-67700307D01*
X249942113Y-67654920D01*
X249925500Y-67592920D01*
X249925500Y-66887524D01*
X249925000Y-66882447D01*
X249925000Y-66416920D01*
X249877176Y-66416920D01*
X249817624Y-66423322D01*
X249682910Y-66473567D01*
X249567808Y-66559732D01*
X249486906Y-66667804D01*
X249453746Y-66698402D01*
X249411833Y-66715110D01*
X249346769Y-66728052D01*
X249280447Y-66772367D01*
X249236132Y-66838689D01*
X249224500Y-66897171D01*
X249224500Y-68199166D01*
X249215061Y-68246619D01*
X249188181Y-68286847D01*
X249161847Y-68313181D01*
X249121619Y-68340061D01*
X249074166Y-68349500D01*
X246369243Y-68349500D01*
X246352422Y-68346756D01*
X246312339Y-68348609D01*
X246295919Y-68349368D01*
X246290195Y-68349500D01*
X246271183Y-68349500D01*
X246256695Y-68351181D01*
X246230007Y-68352415D01*
X246223666Y-68355215D01*
X246196378Y-68363665D01*
X246189568Y-68364938D01*
X246166859Y-68378998D01*
X246151677Y-68387000D01*
X246127233Y-68397794D01*
X246122333Y-68402694D01*
X246099943Y-68420429D01*
X246094048Y-68424079D01*
X246077950Y-68445396D01*
X246066679Y-68458348D01*
X245686475Y-68838552D01*
X245672639Y-68848508D01*
X245634523Y-68890318D01*
X245630573Y-68894454D01*
X245617141Y-68907886D01*
X245608087Y-68919317D01*
X245590083Y-68939067D01*
X245587578Y-68945534D01*
X245574259Y-68970802D01*
X245570343Y-68976518D01*
X245564228Y-69002517D01*
X245559151Y-69018913D01*
X245549500Y-69043827D01*
X245549500Y-69050751D01*
X245546206Y-69079140D01*
X245545383Y-69082642D01*
X245544621Y-69085881D01*
X245548311Y-69112332D01*
X245549500Y-69129465D01*
X245549500Y-69824167D01*
X245540061Y-69871620D01*
X245513181Y-69911848D01*
X244386848Y-71038181D01*
X244346620Y-71065061D01*
X244299167Y-71074500D01*
X243974833Y-71074500D01*
X243918538Y-71060985D01*
X243874515Y-71023385D01*
X243852360Y-70969898D01*
X243856902Y-70912182D01*
X243887152Y-70862819D01*
X244145855Y-70604116D01*
X244938518Y-69811451D01*
X244952353Y-69801498D01*
X244959225Y-69793959D01*
X244959228Y-69793958D01*
X244990488Y-69759666D01*
X244994379Y-69755590D01*
X245007174Y-69742797D01*
X245007178Y-69742790D01*
X245007868Y-69742101D01*
X245016922Y-69730671D01*
X245034914Y-69710935D01*
X245034913Y-69710935D01*
X245034916Y-69710933D01*
X245037419Y-69704470D01*
X245050743Y-69679191D01*
X245054656Y-69673481D01*
X245060770Y-69647481D01*
X245065846Y-69631089D01*
X245075500Y-69606173D01*
X245075500Y-69599249D01*
X245078794Y-69570856D01*
X245079339Y-69568539D01*
X245080379Y-69564119D01*
X245076688Y-69537666D01*
X245075500Y-69520535D01*
X245075500Y-68144243D01*
X245078243Y-68127422D01*
X245077772Y-68117236D01*
X245077773Y-68117235D01*
X245075631Y-68070919D01*
X245075500Y-68065195D01*
X245075500Y-68046178D01*
X245073817Y-68031680D01*
X245073788Y-68031042D01*
X245072585Y-68005008D01*
X245069785Y-67998668D01*
X245061333Y-67971370D01*
X245060061Y-67964567D01*
X245046006Y-67941867D01*
X245037998Y-67926676D01*
X245027206Y-67902234D01*
X245022310Y-67897338D01*
X245004563Y-67874935D01*
X245000919Y-67869048D01*
X245000917Y-67869046D01*
X244979605Y-67852952D01*
X244966651Y-67841679D01*
X244786450Y-67661479D01*
X244776497Y-67647645D01*
X244763679Y-67635960D01*
X244734681Y-67609524D01*
X244730540Y-67605569D01*
X244717110Y-67592139D01*
X244705678Y-67583083D01*
X244685934Y-67565084D01*
X244679468Y-67562579D01*
X244654192Y-67549256D01*
X244648481Y-67545344D01*
X244648480Y-67545343D01*
X244648478Y-67545342D01*
X244622484Y-67539228D01*
X244606094Y-67534153D01*
X244599807Y-67531718D01*
X244567776Y-67513430D01*
X244542541Y-67486528D01*
X244527681Y-67465000D01*
X244457951Y-67363978D01*
X244453184Y-67357072D01*
X244417922Y-67325833D01*
X244369363Y-67282813D01*
X244332488Y-67224499D01*
X244332488Y-67155501D01*
X244369363Y-67097186D01*
X244453183Y-67022929D01*
X244534387Y-66905284D01*
X244576296Y-66867286D01*
X244593929Y-66862287D01*
X244593781Y-66861951D01*
X244614989Y-66852585D01*
X244614992Y-66852585D01*
X244621330Y-66849786D01*
X244648633Y-66841332D01*
X244655433Y-66840061D01*
X244678143Y-66825998D01*
X244693325Y-66817996D01*
X244717765Y-66807206D01*
X244722659Y-66802311D01*
X244745063Y-66784564D01*
X244750952Y-66780919D01*
X244767053Y-66759595D01*
X244778313Y-66746656D01*
X245238518Y-66286451D01*
X245252353Y-66276498D01*
X245259225Y-66268959D01*
X245259228Y-66268958D01*
X245290488Y-66234666D01*
X245294379Y-66230590D01*
X245307174Y-66217797D01*
X245307178Y-66217790D01*
X245307868Y-66217101D01*
X245316922Y-66205671D01*
X245331057Y-66190166D01*
X245334916Y-66185933D01*
X245337419Y-66179470D01*
X245350743Y-66154191D01*
X245354656Y-66148481D01*
X245360770Y-66122481D01*
X245365846Y-66106089D01*
X245375500Y-66081173D01*
X245375500Y-66074249D01*
X245378794Y-66045856D01*
X245380379Y-66039119D01*
X245376688Y-66012666D01*
X245375500Y-65995535D01*
X245375500Y-65436669D01*
X246574500Y-65436669D01*
X246586132Y-65495150D01*
X246630447Y-65561472D01*
X246696769Y-65605787D01*
X246755251Y-65617420D01*
X246755252Y-65617420D01*
X248594748Y-65617420D01*
X248594749Y-65617420D01*
X248623989Y-65611603D01*
X248653231Y-65605787D01*
X248719552Y-65561472D01*
X248763867Y-65495151D01*
X248775500Y-65436669D01*
X254874500Y-65436669D01*
X254886132Y-65495150D01*
X254930447Y-65561472D01*
X254996769Y-65605787D01*
X255055251Y-65617420D01*
X255055252Y-65617420D01*
X256894748Y-65617420D01*
X256894749Y-65617420D01*
X256923989Y-65611603D01*
X256953231Y-65605787D01*
X257019552Y-65561472D01*
X257063867Y-65495151D01*
X257075500Y-65436668D01*
X257075500Y-63197172D01*
X257063867Y-63138689D01*
X257030458Y-63088689D01*
X257019552Y-63072367D01*
X256953230Y-63028052D01*
X256894749Y-63016420D01*
X256894748Y-63016420D01*
X255055252Y-63016420D01*
X255055251Y-63016420D01*
X254996769Y-63028052D01*
X254930447Y-63072367D01*
X254886132Y-63138689D01*
X254874500Y-63197171D01*
X254874500Y-65436669D01*
X248775500Y-65436669D01*
X248775500Y-65436668D01*
X248775500Y-63197172D01*
X248763867Y-63138689D01*
X248730458Y-63088689D01*
X248719552Y-63072367D01*
X248653230Y-63028052D01*
X248594749Y-63016420D01*
X248594748Y-63016420D01*
X246755252Y-63016420D01*
X246755251Y-63016420D01*
X246696769Y-63028052D01*
X246630447Y-63072367D01*
X246586132Y-63138689D01*
X246574500Y-63197171D01*
X246574500Y-65436669D01*
X245375500Y-65436669D01*
X245375500Y-64094244D01*
X245378243Y-64077423D01*
X245377772Y-64067237D01*
X245377773Y-64067236D01*
X245375631Y-64020920D01*
X245375500Y-64015196D01*
X245375500Y-63996178D01*
X245373817Y-63981680D01*
X245372585Y-63955008D01*
X245369786Y-63948670D01*
X245361332Y-63921367D01*
X245360061Y-63914567D01*
X245346002Y-63891860D01*
X245337995Y-63876670D01*
X245334852Y-63869552D01*
X245327206Y-63852235D01*
X245322310Y-63847339D01*
X245304563Y-63824933D01*
X245300919Y-63819048D01*
X245279602Y-63802950D01*
X245266648Y-63791677D01*
X244161450Y-62686479D01*
X244151497Y-62672645D01*
X244109681Y-62634524D01*
X244105540Y-62630569D01*
X244092110Y-62617139D01*
X244080678Y-62608083D01*
X244060934Y-62590084D01*
X244054468Y-62587579D01*
X244029192Y-62574256D01*
X244023481Y-62570344D01*
X244023480Y-62570343D01*
X244023478Y-62570342D01*
X243997484Y-62564228D01*
X243981087Y-62559151D01*
X243956173Y-62549500D01*
X243949249Y-62549500D01*
X243920859Y-62546206D01*
X243914119Y-62544621D01*
X243914118Y-62544621D01*
X243902757Y-62546206D01*
X243887666Y-62548311D01*
X243870535Y-62549500D01*
X237294243Y-62549500D01*
X237277422Y-62546756D01*
X237234308Y-62548749D01*
X237220919Y-62549368D01*
X237215195Y-62549500D01*
X237196183Y-62549500D01*
X237181695Y-62551181D01*
X237155007Y-62552415D01*
X237148666Y-62555215D01*
X237121378Y-62563665D01*
X237114568Y-62564938D01*
X237091859Y-62578998D01*
X237076677Y-62587000D01*
X237052233Y-62597794D01*
X237047333Y-62602694D01*
X237024943Y-62620429D01*
X237019048Y-62624079D01*
X237002950Y-62645396D01*
X236991679Y-62658348D01*
X236525180Y-63124847D01*
X236469593Y-63156941D01*
X236405405Y-63156941D01*
X236349820Y-63124848D01*
X234786449Y-61561478D01*
X234776497Y-61547645D01*
X234734681Y-61509524D01*
X234730540Y-61505569D01*
X234717110Y-61492139D01*
X234705678Y-61483083D01*
X234685934Y-61465084D01*
X234679468Y-61462579D01*
X234654192Y-61449256D01*
X234648481Y-61445344D01*
X234648480Y-61445343D01*
X234648478Y-61445342D01*
X234622484Y-61439228D01*
X234606087Y-61434151D01*
X234581173Y-61424500D01*
X234574249Y-61424500D01*
X234545859Y-61421206D01*
X234539119Y-61419621D01*
X234539118Y-61419621D01*
X234527757Y-61421206D01*
X234512666Y-61423311D01*
X234495535Y-61424500D01*
X234456173Y-61424500D01*
X234324550Y-61424500D01*
X234262550Y-61407887D01*
X234217163Y-61362500D01*
X234200550Y-61300500D01*
X234200550Y-61279225D01*
X234196556Y-61270931D01*
X234187386Y-61244724D01*
X234179039Y-61208153D01*
X234182021Y-61207472D01*
X234176685Y-61194722D01*
X234188073Y-61126825D01*
X234233920Y-61075468D01*
X234300095Y-61056479D01*
X257410731Y-61099463D01*
X257472633Y-61116153D01*
X257517926Y-61161530D01*
X257534500Y-61223463D01*
X257534500Y-102860500D01*
X257517887Y-102922500D01*
X257472500Y-102967887D01*
X257410500Y-102984500D01*
X217274500Y-102984500D01*
X217212500Y-102967887D01*
X217167113Y-102922500D01*
X217150500Y-102860500D01*
X217150500Y-102790500D01*
X217153524Y-101523249D01*
X221222799Y-101523249D01*
X221234431Y-101581730D01*
X221278746Y-101648052D01*
X221345068Y-101692367D01*
X221403550Y-101704000D01*
X221403551Y-101704000D01*
X223246447Y-101704000D01*
X223246448Y-101704000D01*
X223275688Y-101698183D01*
X223304930Y-101692367D01*
X223371251Y-101648052D01*
X223415566Y-101581731D01*
X223427199Y-101523249D01*
X226922801Y-101523249D01*
X226934433Y-101581730D01*
X226978748Y-101648052D01*
X227045070Y-101692367D01*
X227103552Y-101704000D01*
X227103553Y-101704000D01*
X228946449Y-101704000D01*
X228946450Y-101704000D01*
X228975690Y-101698183D01*
X229004932Y-101692367D01*
X229071253Y-101648052D01*
X229115568Y-101581731D01*
X229127201Y-101523248D01*
X229127201Y-100086752D01*
X229115568Y-100028269D01*
X229071253Y-99961947D01*
X229004931Y-99917632D01*
X228946450Y-99906000D01*
X228946449Y-99906000D01*
X227103553Y-99906000D01*
X227103552Y-99906000D01*
X227045070Y-99917632D01*
X226978748Y-99961947D01*
X226934433Y-100028269D01*
X226922801Y-100086751D01*
X226922801Y-101523249D01*
X223427199Y-101523249D01*
X223427199Y-101523248D01*
X223427199Y-100086752D01*
X223415566Y-100028269D01*
X223371251Y-99961947D01*
X223304929Y-99917632D01*
X223246448Y-99906000D01*
X223246447Y-99906000D01*
X221403551Y-99906000D01*
X221403550Y-99906000D01*
X221345068Y-99917632D01*
X221278746Y-99961947D01*
X221234431Y-100028269D01*
X221222799Y-100086751D01*
X221222799Y-101523249D01*
X217153524Y-101523249D01*
X217155454Y-100714777D01*
X217186689Y-87627371D01*
X217700956Y-87627371D01*
X217712588Y-87685852D01*
X217756903Y-87752174D01*
X217823225Y-87796489D01*
X217881707Y-87808122D01*
X217881708Y-87808122D01*
X219318204Y-87808122D01*
X219318205Y-87808122D01*
X219361695Y-87799471D01*
X219376687Y-87796489D01*
X219443008Y-87752174D01*
X219487323Y-87685853D01*
X219498956Y-87627370D01*
X219498956Y-85682874D01*
X219497284Y-85674470D01*
X219487323Y-85624391D01*
X219443008Y-85558069D01*
X219376686Y-85513754D01*
X219318205Y-85502122D01*
X219318204Y-85502122D01*
X217881708Y-85502122D01*
X217881707Y-85502122D01*
X217823225Y-85513754D01*
X217756903Y-85558069D01*
X217712588Y-85624391D01*
X217700956Y-85682873D01*
X217700956Y-87627371D01*
X217186689Y-87627371D01*
X217239143Y-65648744D01*
X217256899Y-65585104D01*
X217304821Y-65539615D01*
X217369302Y-65525196D01*
X217432034Y-65545941D01*
X217446769Y-65555787D01*
X217505251Y-65567420D01*
X217505252Y-65567420D01*
X219344748Y-65567420D01*
X219344749Y-65567420D01*
X219382051Y-65560000D01*
X219403231Y-65555787D01*
X219469552Y-65511472D01*
X219513867Y-65445151D01*
X219525500Y-65386669D01*
X225624500Y-65386669D01*
X225636132Y-65445150D01*
X225680447Y-65511472D01*
X225746769Y-65555787D01*
X225805251Y-65567420D01*
X225805252Y-65567420D01*
X227644748Y-65567420D01*
X227644749Y-65567420D01*
X227682051Y-65560000D01*
X227703231Y-65555787D01*
X227769552Y-65511472D01*
X227813867Y-65445151D01*
X227825500Y-65386668D01*
X227825500Y-63147172D01*
X227813867Y-63088689D01*
X227813866Y-63088688D01*
X227769552Y-63022367D01*
X227703230Y-62978052D01*
X227644749Y-62966420D01*
X227644748Y-62966420D01*
X225805252Y-62966420D01*
X225805251Y-62966420D01*
X225746769Y-62978052D01*
X225680447Y-63022367D01*
X225636132Y-63088689D01*
X225624500Y-63147171D01*
X225624500Y-65386669D01*
X219525500Y-65386669D01*
X219525500Y-65386668D01*
X219525500Y-63147172D01*
X219513867Y-63088689D01*
X219513866Y-63088688D01*
X219469552Y-63022367D01*
X219403230Y-62978052D01*
X219344749Y-62966420D01*
X219344748Y-62966420D01*
X217505252Y-62966420D01*
X217505251Y-62966420D01*
X217446769Y-62978052D01*
X217438641Y-62983484D01*
X217375761Y-63004235D01*
X217311167Y-62989669D01*
X217263279Y-62943939D01*
X217245751Y-62880087D01*
X217249374Y-61362500D01*
X217249823Y-61174204D01*
X217266535Y-61112329D01*
X217311908Y-61067064D01*
X217373823Y-61050500D01*
X228304904Y-61050500D01*
X228370875Y-61069505D01*
G37*
%TD.AperFunction*%
%TA.AperFunction,Conductor*%
G36*
X241938348Y-81759637D02*
G01*
X241939066Y-81759915D01*
X241939067Y-81759916D01*
X242043827Y-81800500D01*
X244449167Y-81800500D01*
X244496620Y-81809939D01*
X244536848Y-81836819D01*
X245113181Y-82413152D01*
X245140061Y-82453380D01*
X245149500Y-82500833D01*
X245149500Y-82750500D01*
X245132887Y-82812500D01*
X245087500Y-82857887D01*
X245025500Y-82874500D01*
X244955251Y-82874500D01*
X244896769Y-82886132D01*
X244830447Y-82930447D01*
X244786132Y-82996769D01*
X244775928Y-83048071D01*
X244763669Y-83082332D01*
X244741992Y-83111560D01*
X244353553Y-83500000D01*
X244538553Y-83685000D01*
X244650500Y-83685000D01*
X244712500Y-83701613D01*
X244757887Y-83747000D01*
X244774500Y-83809000D01*
X244774500Y-83951993D01*
X244756858Y-84015742D01*
X244708953Y-84061351D01*
X244644415Y-84075844D01*
X244581609Y-84055095D01*
X244553230Y-84036132D01*
X244494749Y-84024500D01*
X244494748Y-84024500D01*
X244222308Y-84024500D01*
X244174855Y-84015061D01*
X244134626Y-83988181D01*
X243999999Y-83853553D01*
X244000000Y-83853553D01*
X243053859Y-82907411D01*
X243053858Y-82907412D01*
X243031402Y-82967620D01*
X243025000Y-83027176D01*
X243025000Y-83300667D01*
X243011485Y-83356962D01*
X242973885Y-83400985D01*
X242920398Y-83423140D01*
X242862682Y-83418598D01*
X242813319Y-83388348D01*
X242004690Y-82579719D01*
X243433272Y-82579719D01*
X244000000Y-83146446D01*
X244000001Y-83146446D01*
X244566725Y-82579719D01*
X244522825Y-82575000D01*
X243477175Y-82575000D01*
X243433272Y-82579719D01*
X242004690Y-82579719D01*
X241731819Y-82306848D01*
X241704939Y-82266620D01*
X241695500Y-82219167D01*
X241695500Y-82177153D01*
X241680061Y-82094567D01*
X241662236Y-82065778D01*
X241643888Y-82007961D01*
X241655159Y-81948359D01*
X241693352Y-81901234D01*
X241752189Y-81857188D01*
X241794287Y-81800953D01*
X241834585Y-81766183D01*
X241885747Y-81751510D01*
X241938348Y-81759637D01*
G37*
%TD.AperFunction*%
%TA.AperFunction,Conductor*%
G36*
X225531663Y-77706634D02*
G01*
X226363181Y-78538152D01*
X226390061Y-78578380D01*
X226399500Y-78625833D01*
X226399500Y-79180757D01*
X226396756Y-79197577D01*
X226399368Y-79254079D01*
X226399500Y-79259805D01*
X226399500Y-79278819D01*
X226401181Y-79293307D01*
X226402415Y-79319993D01*
X226405213Y-79326330D01*
X226413666Y-79353626D01*
X226414938Y-79360434D01*
X226428997Y-79383140D01*
X226437002Y-79398327D01*
X226447792Y-79422763D01*
X226452688Y-79427659D01*
X226470434Y-79450063D01*
X226474081Y-79455952D01*
X226495396Y-79472048D01*
X226508351Y-79483322D01*
X226988550Y-79963521D01*
X226998508Y-79977360D01*
X227028839Y-80005011D01*
X227058735Y-80046561D01*
X227069300Y-80096647D01*
X227069300Y-80454749D01*
X227085745Y-80537422D01*
X227085294Y-80537511D01*
X227091922Y-80556035D01*
X227083079Y-80615641D01*
X227065624Y-80639174D01*
X227089161Y-80621719D01*
X227148768Y-80612877D01*
X227167288Y-80619503D01*
X227167378Y-80619055D01*
X227250051Y-80635500D01*
X227250052Y-80635500D01*
X227924548Y-80635500D01*
X227924549Y-80635500D01*
X227943737Y-80631683D01*
X227969910Y-80626477D01*
X228018290Y-80626477D01*
X228044463Y-80631683D01*
X228063651Y-80635500D01*
X228063652Y-80635500D01*
X228738146Y-80635500D01*
X228738148Y-80635500D01*
X228775861Y-80627998D01*
X228838367Y-80631683D01*
X228891106Y-80665442D01*
X228920624Y-80720666D01*
X228919396Y-80783272D01*
X228887733Y-80837295D01*
X228836849Y-80888180D01*
X228796620Y-80915061D01*
X228749167Y-80924500D01*
X227200833Y-80924500D01*
X227153380Y-80915061D01*
X227113152Y-80888181D01*
X227048932Y-80823961D01*
X227017952Y-80772275D01*
X227014996Y-80712089D01*
X227034995Y-80669804D01*
X226992709Y-80689804D01*
X226932523Y-80686846D01*
X226880838Y-80655867D01*
X225391450Y-79166479D01*
X225381497Y-79152645D01*
X225373387Y-79145252D01*
X225339681Y-79114524D01*
X225335540Y-79110569D01*
X225322110Y-79097139D01*
X225310678Y-79088083D01*
X225290934Y-79070084D01*
X225284468Y-79067579D01*
X225259192Y-79054256D01*
X225253481Y-79050344D01*
X225253480Y-79050343D01*
X225253478Y-79050342D01*
X225227484Y-79044228D01*
X225211087Y-79039151D01*
X225186173Y-79029500D01*
X225179249Y-79029500D01*
X225150859Y-79026206D01*
X225144119Y-79024621D01*
X225144118Y-79024621D01*
X225132757Y-79026206D01*
X225117666Y-79028311D01*
X225100535Y-79029500D01*
X225091526Y-79029500D01*
X225033073Y-79014858D01*
X224988424Y-78974391D01*
X224968123Y-78917655D01*
X224976965Y-78858048D01*
X225012861Y-78809647D01*
X225060527Y-78770527D01*
X225185493Y-78618257D01*
X225278350Y-78444534D01*
X225319160Y-78310001D01*
X225319160Y-78310000D01*
X224224000Y-78310000D01*
X224162000Y-78293387D01*
X224116613Y-78248000D01*
X224100000Y-78186000D01*
X224100000Y-77934000D01*
X224116613Y-77872000D01*
X224162000Y-77826613D01*
X224224000Y-77810000D01*
X225319160Y-77810000D01*
X225324510Y-77802785D01*
X225323408Y-77765369D01*
X225354595Y-77708373D01*
X225410323Y-77674971D01*
X225475291Y-77674333D01*
X225531663Y-77706634D01*
G37*
%TD.AperFunction*%
%TA.AperFunction,Conductor*%
G36*
X244480973Y-78444312D02*
G01*
X244526712Y-78495041D01*
X244530364Y-78502512D01*
X244612487Y-78584635D01*
X244612488Y-78584635D01*
X244612489Y-78584636D01*
X244716830Y-78635645D01*
X244784472Y-78645500D01*
X245145526Y-78645500D01*
X245145528Y-78645500D01*
X245213170Y-78635645D01*
X245317511Y-78584636D01*
X245339153Y-78562994D01*
X245362319Y-78539829D01*
X245417906Y-78507735D01*
X245482094Y-78507735D01*
X245537681Y-78539829D01*
X245582487Y-78584635D01*
X245582488Y-78584635D01*
X245582489Y-78584636D01*
X245686830Y-78635645D01*
X245754472Y-78645500D01*
X245754474Y-78645500D01*
X246025500Y-78645500D01*
X246087500Y-78662113D01*
X246132887Y-78707500D01*
X246149500Y-78769500D01*
X246149500Y-78924166D01*
X246140061Y-78971619D01*
X246113181Y-79011847D01*
X245886848Y-79238181D01*
X245846620Y-79265061D01*
X245799167Y-79274500D01*
X243345834Y-79274500D01*
X243298381Y-79265061D01*
X243258155Y-79238183D01*
X243096571Y-79076600D01*
X243070267Y-79037735D01*
X243060291Y-78991872D01*
X243068075Y-78945587D01*
X243078597Y-78917376D01*
X243085000Y-78857824D01*
X243085000Y-78724500D01*
X243101613Y-78662500D01*
X243147000Y-78617113D01*
X243209000Y-78600500D01*
X243880757Y-78600500D01*
X243897577Y-78603243D01*
X243907762Y-78602772D01*
X243907765Y-78602773D01*
X243954080Y-78600631D01*
X243959805Y-78600500D01*
X243978824Y-78600500D01*
X243993318Y-78598817D01*
X244019992Y-78597585D01*
X244026330Y-78594786D01*
X244053633Y-78586332D01*
X244060433Y-78585061D01*
X244083143Y-78570998D01*
X244098325Y-78562996D01*
X244122765Y-78552206D01*
X244127659Y-78547311D01*
X244150063Y-78529564D01*
X244155952Y-78525919D01*
X244172050Y-78504600D01*
X244183310Y-78491659D01*
X244213154Y-78461815D01*
X244253381Y-78434939D01*
X244300833Y-78425500D01*
X244415311Y-78425500D01*
X244480973Y-78444312D01*
G37*
%TD.AperFunction*%
%TA.AperFunction,Conductor*%
G36*
X249346620Y-76609939D02*
G01*
X249386848Y-76636819D01*
X250202847Y-77452819D01*
X250233097Y-77502182D01*
X250237639Y-77559898D01*
X250215484Y-77613385D01*
X250171461Y-77650985D01*
X250115166Y-77664500D01*
X249800092Y-77664500D01*
X249790455Y-77665769D01*
X249742599Y-77662714D01*
X249699481Y-77641728D01*
X249680001Y-77619903D01*
X249555379Y-77495281D01*
X249416196Y-77412968D01*
X249270000Y-77370496D01*
X249270000Y-78301000D01*
X249253387Y-78363000D01*
X249208000Y-78408387D01*
X249146000Y-78425000D01*
X248276362Y-78425000D01*
X248228909Y-78415561D01*
X248205621Y-78400000D01*
X247804000Y-78400000D01*
X247742000Y-78383387D01*
X247696613Y-78338000D01*
X247680000Y-78276000D01*
X247680000Y-77345496D01*
X248180000Y-77345496D01*
X248180000Y-77900000D01*
X248673638Y-77900000D01*
X248721091Y-77909439D01*
X248744379Y-77925000D01*
X248770000Y-77925000D01*
X248770000Y-77370496D01*
X248623804Y-77412968D01*
X248559256Y-77451142D01*
X248496135Y-77468409D01*
X248433015Y-77451141D01*
X248326196Y-77387968D01*
X248180000Y-77345496D01*
X247680000Y-77345496D01*
X247533803Y-77387968D01*
X247394623Y-77470279D01*
X247269988Y-77594915D01*
X247250512Y-77616734D01*
X247207393Y-77637716D01*
X247159536Y-77640768D01*
X247149904Y-77639500D01*
X246812002Y-77639500D01*
X246756576Y-77626423D01*
X246712841Y-77589952D01*
X246690020Y-77537777D01*
X246692926Y-77480904D01*
X246732144Y-77345915D01*
X246733790Y-77325000D01*
X245829000Y-77325000D01*
X245767000Y-77308387D01*
X245721613Y-77263000D01*
X245705000Y-77201000D01*
X245705000Y-76949000D01*
X245721613Y-76887000D01*
X245767000Y-76841613D01*
X245829000Y-76825000D01*
X246733790Y-76825000D01*
X246732145Y-76804087D01*
X246719074Y-76759094D01*
X246716169Y-76702221D01*
X246738990Y-76650048D01*
X246782726Y-76613576D01*
X246838151Y-76600500D01*
X249299167Y-76600500D01*
X249346620Y-76609939D01*
G37*
%TD.AperFunction*%
%TA.AperFunction,Conductor*%
G36*
X247942131Y-68969199D02*
G01*
X247987863Y-69019656D01*
X248000054Y-69086654D01*
X247975027Y-69149986D01*
X247900463Y-69247159D01*
X247839956Y-69393237D01*
X247819317Y-69549999D01*
X247839956Y-69706762D01*
X247900463Y-69852840D01*
X247996717Y-69978282D01*
X248087107Y-70047640D01*
X248122159Y-70074536D01*
X248268238Y-70135044D01*
X248404361Y-70152964D01*
X248424999Y-70155682D01*
X248424999Y-70155681D01*
X248425000Y-70155682D01*
X248581762Y-70135044D01*
X248727841Y-70074536D01*
X248793006Y-70024532D01*
X248844301Y-70001291D01*
X248900586Y-70003133D01*
X248950252Y-70029680D01*
X248983054Y-70075455D01*
X249025463Y-70177839D01*
X249025464Y-70177841D01*
X249118847Y-70299540D01*
X249142087Y-70350834D01*
X249140245Y-70407118D01*
X249113698Y-70456784D01*
X249067923Y-70489586D01*
X248922158Y-70549963D01*
X248796717Y-70646217D01*
X248700463Y-70771659D01*
X248639956Y-70917737D01*
X248619317Y-71074499D01*
X248639956Y-71231262D01*
X248690401Y-71353048D01*
X248699243Y-71412654D01*
X248678942Y-71469391D01*
X248634293Y-71509858D01*
X248575840Y-71524500D01*
X245049833Y-71524500D01*
X244993538Y-71510985D01*
X244949515Y-71473385D01*
X244927360Y-71419898D01*
X244931902Y-71362182D01*
X244962152Y-71312819D01*
X245480293Y-70794678D01*
X246013520Y-70261450D01*
X246027352Y-70251499D01*
X246034225Y-70243959D01*
X246034228Y-70243958D01*
X246065478Y-70209677D01*
X246069369Y-70205601D01*
X246082175Y-70192797D01*
X246082179Y-70192790D01*
X246082870Y-70192100D01*
X246091926Y-70180665D01*
X246109916Y-70160933D01*
X246112416Y-70154476D01*
X246125747Y-70129186D01*
X246129657Y-70123480D01*
X246135774Y-70097471D01*
X246140845Y-70081093D01*
X246150500Y-70056173D01*
X246150500Y-70049248D01*
X246153794Y-70020858D01*
X246153819Y-70020749D01*
X246155379Y-70014119D01*
X246151689Y-69987667D01*
X246150500Y-69970536D01*
X246150500Y-69275833D01*
X246159939Y-69228380D01*
X246186819Y-69188152D01*
X246388152Y-68986819D01*
X246428380Y-68959939D01*
X246475833Y-68950500D01*
X247876651Y-68950500D01*
X247942131Y-68969199D01*
G37*
%TD.AperFunction*%
%TA.AperFunction,Conductor*%
G36*
X222820519Y-69848874D02*
G01*
X222862934Y-69900435D01*
X222872793Y-69922765D01*
X222877688Y-69927659D01*
X222895434Y-69950063D01*
X222895719Y-69950522D01*
X222899081Y-69955952D01*
X222920396Y-69972048D01*
X222933351Y-69983322D01*
X223488181Y-70538152D01*
X223515061Y-70578380D01*
X223524500Y-70625833D01*
X223524500Y-71116335D01*
X223505927Y-71181613D01*
X223455771Y-71227336D01*
X223389058Y-71239806D01*
X223325772Y-71215288D01*
X223304601Y-71199300D01*
X223291648Y-71188028D01*
X222661819Y-70558199D01*
X222634939Y-70517971D01*
X222625500Y-70470518D01*
X222625500Y-69950522D01*
X222643474Y-69886221D01*
X222692186Y-69840562D01*
X222757514Y-69826781D01*
X222820519Y-69848874D01*
G37*
%TD.AperFunction*%
%TA.AperFunction,Conductor*%
G36*
X243771620Y-63159939D02*
G01*
X243811848Y-63186819D01*
X244738181Y-64113152D01*
X244765061Y-64153380D01*
X244774500Y-64200833D01*
X244774500Y-64426348D01*
X244755262Y-64492688D01*
X244703516Y-64538443D01*
X244635320Y-64549415D01*
X244571834Y-64522201D01*
X244483254Y-64449504D01*
X244309534Y-64356649D01*
X244175001Y-64315839D01*
X244175000Y-64315840D01*
X244175000Y-65411000D01*
X244158387Y-65473000D01*
X244113000Y-65518387D01*
X244051000Y-65535000D01*
X243799000Y-65535000D01*
X243737000Y-65518387D01*
X243691613Y-65473000D01*
X243675000Y-65411000D01*
X243675000Y-64315840D01*
X243674998Y-64315839D01*
X243540465Y-64356649D01*
X243366741Y-64449506D01*
X243236549Y-64556353D01*
X243199658Y-64577251D01*
X243157884Y-64584500D01*
X242135251Y-64584500D01*
X242076769Y-64596132D01*
X242010447Y-64640447D01*
X241966132Y-64706769D01*
X241954500Y-64765251D01*
X241954500Y-64825500D01*
X241937887Y-64887500D01*
X241892500Y-64932887D01*
X241830500Y-64949500D01*
X240750833Y-64949500D01*
X240703380Y-64940061D01*
X240663152Y-64913181D01*
X239436450Y-63686479D01*
X239426497Y-63672645D01*
X239384681Y-63634524D01*
X239380540Y-63630569D01*
X239367110Y-63617139D01*
X239355678Y-63608083D01*
X239335934Y-63590084D01*
X239329468Y-63587579D01*
X239304192Y-63574256D01*
X239298481Y-63570344D01*
X239298480Y-63570343D01*
X239298478Y-63570342D01*
X239272484Y-63564228D01*
X239256087Y-63559151D01*
X239231173Y-63549500D01*
X239224249Y-63549500D01*
X239195859Y-63546206D01*
X239189119Y-63544621D01*
X239189118Y-63544621D01*
X239177757Y-63546206D01*
X239162666Y-63548311D01*
X239145535Y-63549500D01*
X237249833Y-63549500D01*
X237193538Y-63535985D01*
X237149515Y-63498385D01*
X237127360Y-63444898D01*
X237131902Y-63387182D01*
X237162152Y-63337819D01*
X237313152Y-63186819D01*
X237353380Y-63159939D01*
X237400833Y-63150500D01*
X243724167Y-63150500D01*
X243771620Y-63159939D01*
G37*
%TD.AperFunction*%
%TD*%
M02*
