%TF.GenerationSoftware,KiCad,Pcbnew,7.0.1*%
%TF.CreationDate,2023-05-03T15:55:27+02:00*%
%TF.ProjectId,board,626f6172-642e-46b6-9963-61645f706362,rev?*%
%TF.SameCoordinates,Original*%
%TF.FileFunction,Copper,L2,Bot*%
%TF.FilePolarity,Positive*%
%FSLAX46Y46*%
G04 Gerber Fmt 4.6, Leading zero omitted, Abs format (unit mm)*
G04 Created by KiCad (PCBNEW 7.0.1) date 2023-05-03 15:55:27*
%MOMM*%
%LPD*%
G01*
G04 APERTURE LIST*
G04 Aperture macros list*
%AMRoundRect*
0 Rectangle with rounded corners*
0 $1 Rounding radius*
0 $2 $3 $4 $5 $6 $7 $8 $9 X,Y pos of 4 corners*
0 Add a 4 corners polygon primitive as box body*
4,1,4,$2,$3,$4,$5,$6,$7,$8,$9,$2,$3,0*
0 Add four circle primitives for the rounded corners*
1,1,$1+$1,$2,$3*
1,1,$1+$1,$4,$5*
1,1,$1+$1,$6,$7*
1,1,$1+$1,$8,$9*
0 Add four rect primitives between the rounded corners*
20,1,$1+$1,$2,$3,$4,$5,0*
20,1,$1+$1,$4,$5,$6,$7,0*
20,1,$1+$1,$6,$7,$8,$9,0*
20,1,$1+$1,$8,$9,$2,$3,0*%
G04 Aperture macros list end*
%TA.AperFunction,EtchedComponent*%
%ADD10C,0.203200*%
%TD*%
%TA.AperFunction,ComponentPad*%
%ADD11R,1.000000X1.000000*%
%TD*%
%TA.AperFunction,ComponentPad*%
%ADD12O,1.000000X1.000000*%
%TD*%
%TA.AperFunction,ComponentPad*%
%ADD13R,0.800000X0.800000*%
%TD*%
%TA.AperFunction,SMDPad,CuDef*%
%ADD14RoundRect,0.140000X-0.140000X-0.170000X0.140000X-0.170000X0.140000X0.170000X-0.140000X0.170000X0*%
%TD*%
%TA.AperFunction,SMDPad,CuDef*%
%ADD15RoundRect,0.140000X-0.170000X0.140000X-0.170000X-0.140000X0.170000X-0.140000X0.170000X0.140000X0*%
%TD*%
%TA.AperFunction,SMDPad,CuDef*%
%ADD16RoundRect,0.135000X0.135000X0.185000X-0.135000X0.185000X-0.135000X-0.185000X0.135000X-0.185000X0*%
%TD*%
%TA.AperFunction,SMDPad,CuDef*%
%ADD17RoundRect,0.140000X0.170000X-0.140000X0.170000X0.140000X-0.170000X0.140000X-0.170000X-0.140000X0*%
%TD*%
%TA.AperFunction,SMDPad,CuDef*%
%ADD18R,0.705600X0.558800*%
%TD*%
%TA.AperFunction,SMDPad,CuDef*%
%ADD19R,0.550000X1.085000*%
%TD*%
%TA.AperFunction,SMDPad,CuDef*%
%ADD20RoundRect,0.140000X0.140000X0.170000X-0.140000X0.170000X-0.140000X-0.170000X0.140000X-0.170000X0*%
%TD*%
%TA.AperFunction,SMDPad,CuDef*%
%ADD21R,0.635000X1.270000*%
%TD*%
%TA.AperFunction,ViaPad*%
%ADD22C,0.800000*%
%TD*%
%TA.AperFunction,Conductor*%
%ADD23C,0.200000*%
%TD*%
G04 APERTURE END LIST*
D10*
%TO.C,SJ4*%
X234006000Y-72625000D02*
X233244000Y-72625000D01*
%TD*%
D11*
%TO.P,J8,1,Pin_1*%
%TO.N,PC11*%
X238750000Y-68100000D03*
D12*
%TO.P,J8,2,Pin_2*%
%TO.N,PC12*%
X237480000Y-68100000D03*
%TO.P,J8,3,Pin_3*%
%TO.N,GPIO*%
X238750000Y-66830000D03*
%TO.P,J8,4,Pin_4*%
%TO.N,PD0*%
X237480000Y-66830000D03*
%TO.P,J8,5,Pin_5*%
%TO.N,unconnected-(J8-Pin_5-Pad5)*%
X238750000Y-65560000D03*
%TO.P,J8,6,Pin_6*%
%TO.N,PD1*%
X237480000Y-65560000D03*
%TD*%
D13*
%TO.P,SW1,3*%
%TO.N,NRST*%
X233325000Y-61725000D03*
%TO.P,SW1,4*%
%TO.N,unconnected-(SW1-Pad4)*%
X229275000Y-61725000D03*
%TD*%
D11*
%TO.P,J9,1,Pin_1*%
%TO.N,PB14*%
X253175000Y-74150000D03*
D12*
%TO.P,J9,2,Pin_2*%
%TO.N,PB15*%
X254445000Y-74150000D03*
%TO.P,J9,3,Pin_3*%
%TO.N,PB13*%
X253175000Y-75420000D03*
%TO.P,J9,4,Pin_4*%
%TO.N,AT0*%
X254445000Y-75420000D03*
%TO.P,J9,5,Pin_5*%
%TO.N,PB12*%
X253175000Y-76690000D03*
%TO.P,J9,6,Pin_6*%
%TO.N,AT1*%
X254445000Y-76690000D03*
%TO.P,J9,7,Pin_7*%
%TO.N,PB1*%
X253175000Y-77960000D03*
%TO.P,J9,8,Pin_8*%
%TO.N,PB0*%
X254445000Y-77960000D03*
%TD*%
D11*
%TO.P,J6,1,Pin_1*%
%TO.N,ADC4*%
X223080000Y-76790000D03*
D12*
%TO.P,J6,2,Pin_2*%
%TO.N,VDD*%
X224350000Y-76790000D03*
%TO.P,J6,3,Pin_3*%
%TO.N,ADC3*%
X223080000Y-78060000D03*
%TO.P,J6,4,Pin_4*%
%TO.N,GND*%
X224350000Y-78060000D03*
%TO.P,J6,5,Pin_5*%
%TO.N,ADC2*%
X223080000Y-79330000D03*
%TO.P,J6,6,Pin_6*%
%TO.N,PB8*%
X224350000Y-79330000D03*
%TO.P,J6,7,Pin_7*%
%TO.N,ADC1*%
X223080000Y-80600000D03*
%TO.P,J6,8,Pin_8*%
%TO.N,PB9*%
X224350000Y-80600000D03*
%TD*%
D11*
%TO.P,J10,1,Pin_1*%
%TO.N,PB4_NJTRST*%
X242655000Y-65285000D03*
D12*
%TO.P,J10,2,Pin_2*%
%TO.N,GND*%
X243925000Y-65285000D03*
%TO.P,J10,3,Pin_3*%
%TO.N,PB3_JTDO*%
X242655000Y-66555000D03*
%TO.P,J10,4,Pin_4*%
%TO.N,NRST*%
X243925000Y-66555000D03*
%TO.P,J10,5,Pin_5*%
%TO.N,PA15_JTDI*%
X242655000Y-67825000D03*
%TO.P,J10,6,Pin_6*%
%TO.N,PA13_SWDIO*%
X243925000Y-67825000D03*
%TO.P,J10,7,Pin_7*%
%TO.N,PA14_SWCLOCK*%
X242655000Y-69095000D03*
%TO.P,J10,8,Pin_8*%
%TO.N,VDD*%
X243925000Y-69095000D03*
%TD*%
D11*
%TO.P,J5,1,Pin_1*%
%TO.N,CS*%
X235330000Y-96135000D03*
D12*
%TO.P,J5,2,Pin_2*%
%TO.N,PA5*%
X236600000Y-96135000D03*
%TO.P,J5,3,Pin_3*%
%TO.N,PA3*%
X235330000Y-97405000D03*
%TO.P,J5,4,Pin_4*%
%TO.N,DO*%
X236600000Y-97405000D03*
%TO.P,J5,5,Pin_5*%
%TO.N,PA2*%
X235330000Y-98675000D03*
%TO.P,J5,6,Pin_6*%
%TO.N,DI*%
X236600000Y-98675000D03*
%TO.P,J5,7,Pin_7*%
%TO.N,CLK*%
X235330000Y-99945000D03*
%TO.P,J5,8,Pin_8*%
%TO.N,ADC5*%
X236600000Y-99945000D03*
%TD*%
D11*
%TO.P,J7,1,Pin_1*%
%TO.N,PC5*%
X240375000Y-91200000D03*
D12*
%TO.P,J7,2,Pin_2*%
%TO.N,PB2*%
X241645000Y-91200000D03*
%TO.P,J7,3,Pin_3*%
%TO.N,PC4*%
X240375000Y-92470000D03*
%TO.P,J7,4,Pin_4*%
%TO.N,PB10*%
X241645000Y-92470000D03*
%TO.P,J7,5,Pin_5*%
%TO.N,PA9*%
X240375000Y-93740000D03*
%TO.P,J7,6,Pin_6*%
%TO.N,PB11*%
X241645000Y-93740000D03*
%TO.P,J7,7,Pin_7*%
%TO.N,PA8*%
X240375000Y-95010000D03*
%TO.P,J7,8,Pin_8*%
%TO.N,VDD*%
X241645000Y-95010000D03*
%TD*%
D14*
%TO.P,C16,1*%
%TO.N,VDD*%
X233140000Y-75125000D03*
%TO.P,C16,2*%
%TO.N,GND*%
X234100000Y-75125000D03*
%TD*%
D15*
%TO.P,C14,1*%
%TO.N,VDD*%
X240925000Y-84970000D03*
%TO.P,C14,2*%
%TO.N,GND*%
X240925000Y-85930000D03*
%TD*%
D16*
%TO.P,R1,1*%
%TO.N,Net-(D2-A)*%
X233985000Y-76525000D03*
%TO.P,R1,2*%
%TO.N,VDD*%
X232965000Y-76525000D03*
%TD*%
D15*
%TO.P,C10,1*%
%TO.N,GND*%
X239175000Y-81870000D03*
%TO.P,C10,2*%
%TO.N,VDD*%
X239175000Y-82830000D03*
%TD*%
D14*
%TO.P,C17,1*%
%TO.N,VDDA*%
X233745000Y-80300000D03*
%TO.P,C17,2*%
%TO.N,GND*%
X234705000Y-80300000D03*
%TD*%
D17*
%TO.P,C15,1*%
%TO.N,VDD*%
X241000000Y-82780000D03*
%TO.P,C15,2*%
%TO.N,GND*%
X241000000Y-81820000D03*
%TD*%
D18*
%TO.P,L1,1,1*%
%TO.N,VDD*%
X230707100Y-80300000D03*
%TO.P,L1,2,2*%
%TO.N,VDDA*%
X231742900Y-80300000D03*
%TD*%
D15*
%TO.P,C12,1*%
%TO.N,VDD*%
X240200000Y-73795000D03*
%TO.P,C12,2*%
%TO.N,GND*%
X240200000Y-74755000D03*
%TD*%
%TO.P,C13,1*%
%TO.N,Net-(C13-Pad1)*%
X235000000Y-73745000D03*
%TO.P,C13,2*%
%TO.N,GND*%
X235000000Y-74705000D03*
%TD*%
D19*
%TO.P,D2,1,A*%
%TO.N,Net-(D2-A)*%
X227525000Y-78330000D03*
%TO.P,D2,2,K*%
%TO.N,NRST*%
X227525000Y-76050000D03*
%TD*%
D20*
%TO.P,C6,1*%
%TO.N,GND*%
X234830000Y-77900000D03*
%TO.P,C6,2*%
%TO.N,Net-(D2-A)*%
X233870000Y-77900000D03*
%TD*%
D21*
%TO.P,SJ4,1,1*%
%TO.N,Net-(C13-Pad1)*%
X234133000Y-72625000D03*
%TO.P,SJ4,2,2*%
%TO.N,VDD*%
X233117000Y-72625000D03*
%TD*%
D14*
%TO.P,C8,1*%
%TO.N,GND*%
X241640000Y-77500000D03*
%TO.P,C8,2*%
%TO.N,VDD*%
X242600000Y-77500000D03*
%TD*%
D22*
%TO.N,VDDA*%
X232725000Y-80300000D03*
%TO.N,PB9*%
X230175000Y-79050000D03*
X249225000Y-71074500D03*
%TO.N,PB8*%
X249550000Y-69875000D03*
%TO.N,CS_D*%
X243325000Y-73125000D03*
X235995500Y-72875000D03*
%TO.N,NRST*%
X231375000Y-71500000D03*
X231525000Y-69275000D03*
X232900000Y-78099500D03*
%TO.N,GND*%
X218800000Y-73100000D03*
X239725000Y-76750000D03*
X253675000Y-101075000D03*
X238200000Y-78575000D03*
X246775000Y-69250500D03*
X229100000Y-67325000D03*
X251025000Y-83475000D03*
X244125000Y-78975500D03*
X222400000Y-71675000D03*
X240800000Y-62000000D03*
X245475000Y-86525000D03*
X221550000Y-72625000D03*
X223163589Y-70636411D03*
X239800000Y-80125000D03*
X249175000Y-77075000D03*
X236425000Y-80225000D03*
X249050000Y-95025000D03*
X236425000Y-76675000D03*
X237600000Y-101875000D03*
X255100000Y-71275000D03*
X243450000Y-82225000D03*
X223725500Y-69350000D03*
%TO.N,GPIO*%
X252838221Y-69613221D03*
%TO.N,CS*%
X234649500Y-83500000D03*
X227375000Y-84249500D03*
%TO.N,ADC5*%
X219175000Y-81350000D03*
X224924500Y-71000000D03*
%TO.N,ADC4*%
X220800000Y-82225000D03*
%TO.N,ADC3*%
X221625000Y-82925000D03*
%TO.N,ADC2*%
X222325000Y-82275000D03*
%TO.N,DI*%
X236575000Y-85575000D03*
X223523911Y-84849000D03*
%TO.N,DO*%
X235899500Y-84050000D03*
X230700000Y-84900000D03*
%TO.N,Net-(C13-Pad1)*%
X235000000Y-72700000D03*
%TO.N,VDD*%
X231900000Y-75100000D03*
X243600000Y-77500000D03*
X225225000Y-84950000D03*
X239595500Y-84625000D03*
X240400000Y-72400000D03*
X248425000Y-69550000D03*
X220875000Y-76725000D03*
X243475000Y-85925500D03*
%TD*%
D23*
%TO.N,VDDA*%
X231742900Y-80300000D02*
X232725000Y-80300000D01*
X232725000Y-80300000D02*
X233745000Y-80300000D01*
%TO.N,PB9*%
X248824500Y-71475000D02*
X240200000Y-71475000D01*
X239525000Y-70800000D02*
X239650000Y-70800000D01*
X230175000Y-79050000D02*
X229650000Y-78525000D01*
X249225000Y-71074500D02*
X248824500Y-71475000D01*
X229650000Y-72376471D02*
X231226471Y-70800000D01*
X231226471Y-70800000D02*
X239525000Y-70800000D01*
X230175000Y-79050000D02*
X230175000Y-79325000D01*
X240200000Y-71475000D02*
X239525000Y-70800000D01*
X230175000Y-79325000D02*
X230170000Y-79330000D01*
X229650000Y-78525000D02*
X229650000Y-72376471D01*
%TO.N,PB8*%
X246025000Y-64075000D02*
X246025000Y-66301471D01*
X225250000Y-73075000D02*
X235000000Y-63325000D01*
X246025000Y-66301471D02*
X249550000Y-69826471D01*
X235000000Y-63325000D02*
X245275000Y-63325000D01*
X245275000Y-63325000D02*
X246025000Y-64075000D01*
X224350000Y-79330000D02*
X225250000Y-78430000D01*
X249550000Y-69826471D02*
X249550000Y-69875000D01*
X225250000Y-78430000D02*
X225250000Y-73075000D01*
%TO.N,CS_D*%
X239950000Y-77600000D02*
X238650000Y-77600000D01*
X235995500Y-74945500D02*
X235995500Y-72875000D01*
X243325000Y-74225000D02*
X239950000Y-77600000D01*
X243325000Y-73125000D02*
X243325000Y-74225000D01*
X238650000Y-77600000D02*
X235995500Y-74945500D01*
%TO.N,NRST*%
X232900000Y-78099500D02*
X232900000Y-77425000D01*
X227525000Y-76050000D02*
X227525000Y-73275000D01*
X227525000Y-73275000D02*
X231525000Y-69275000D01*
X230600000Y-75125000D02*
X230600000Y-72275000D01*
X232900000Y-78099500D02*
X232700500Y-77900000D01*
X230600000Y-72275000D02*
X231375000Y-71500000D01*
X232900000Y-77425000D02*
X230600000Y-75125000D01*
X232900000Y-78099500D02*
X233099500Y-77900000D01*
%TO.N,GND*%
X246775000Y-69250500D02*
X246775000Y-68135000D01*
X235000000Y-75250000D02*
X235125000Y-75375000D01*
X240725000Y-78025000D02*
X240725000Y-77775000D01*
X246775000Y-68135000D02*
X243925000Y-65285000D01*
X239925000Y-80125000D02*
X239800000Y-80125000D01*
X241000000Y-81200000D02*
X239925000Y-80125000D01*
X241640000Y-77500000D02*
X241000000Y-77500000D01*
X241000000Y-81820000D02*
X241000000Y-81200000D01*
X234975000Y-75125000D02*
X235000000Y-75100000D01*
X235000000Y-75100000D02*
X235000000Y-75250000D01*
X240200000Y-74755000D02*
X240200000Y-75375000D01*
X241520000Y-86525000D02*
X245475000Y-86525000D01*
X234100000Y-75125000D02*
X234975000Y-75125000D01*
X244125000Y-78975500D02*
X241675500Y-78975500D01*
X234830000Y-77900000D02*
X235425000Y-77900000D01*
X234705000Y-80300000D02*
X235375000Y-80300000D01*
X240925000Y-85930000D02*
X241520000Y-86525000D01*
X241675500Y-78975500D02*
X240725000Y-78025000D01*
X240725000Y-77775000D02*
X241000000Y-77500000D01*
X239175000Y-81870000D02*
X239175000Y-81200000D01*
X245425000Y-86575000D02*
X245475000Y-86525000D01*
X235000000Y-74705000D02*
X235000000Y-75100000D01*
%TO.N,GPIO*%
X251976442Y-70475000D02*
X242525000Y-70475000D01*
X238880000Y-66830000D02*
X238750000Y-66830000D01*
X252838221Y-69613221D02*
X251976442Y-70475000D01*
X242525000Y-70475000D02*
X238880000Y-66830000D01*
%TO.N,CS*%
X233924500Y-84225000D02*
X227399500Y-84225000D01*
X227399500Y-84225000D02*
X227375000Y-84249500D01*
X234649500Y-83500000D02*
X233924500Y-84225000D01*
%TO.N,ADC5*%
X219175000Y-81350000D02*
X219175000Y-77100000D01*
X234020000Y-102525000D02*
X236600000Y-99945000D01*
X227125000Y-102525000D02*
X234020000Y-102525000D01*
X224924500Y-71350500D02*
X224924500Y-71000000D01*
X220050000Y-84875000D02*
X220050000Y-95450000D01*
X219175000Y-81350000D02*
X219175000Y-84000000D01*
X219175000Y-77100000D02*
X224924500Y-71350500D01*
X219175000Y-84000000D02*
X220050000Y-84875000D01*
X220050000Y-95450000D02*
X227125000Y-102525000D01*
%TO.N,ADC4*%
X220800000Y-82225000D02*
X220800000Y-79070000D01*
X220800000Y-79070000D02*
X223080000Y-76790000D01*
%TO.N,ADC3*%
X221625000Y-82925000D02*
X221625000Y-79515000D01*
X221625000Y-79515000D02*
X223080000Y-78060000D01*
%TO.N,ADC2*%
X222325000Y-80085000D02*
X223080000Y-79330000D01*
X222325000Y-82275000D02*
X222325000Y-80085000D01*
%TO.N,DI*%
X223523911Y-84849000D02*
X224249911Y-85575000D01*
X224249911Y-85575000D02*
X236575000Y-85575000D01*
%TO.N,DO*%
X235049500Y-84900000D02*
X230700000Y-84900000D01*
X235899500Y-84050000D02*
X235049500Y-84900000D01*
%TO.N,Net-(C13-Pad1)*%
X235000000Y-72700000D02*
X234925000Y-72625000D01*
X234925000Y-72625000D02*
X234307600Y-72625000D01*
X235000000Y-72700000D02*
X235000000Y-73745000D01*
%TO.N,VDD*%
X239595500Y-87845500D02*
X242525000Y-90775000D01*
X240400000Y-72400000D02*
X239425000Y-71425000D01*
X242375000Y-82725000D02*
X241055000Y-82725000D01*
X231900000Y-73125000D02*
X232400000Y-72625000D01*
X244975000Y-79575000D02*
X244750000Y-79800000D01*
X242375000Y-84825500D02*
X242375000Y-82725000D01*
X232400000Y-72625000D02*
X232942400Y-72625000D01*
X221510000Y-76090000D02*
X224240000Y-76090000D01*
X248125000Y-69850000D02*
X244680000Y-69850000D01*
X239595500Y-84625000D02*
X239595500Y-87845500D01*
X243025000Y-79800000D02*
X242375000Y-80450000D01*
X244100000Y-72750000D02*
X243425000Y-72075000D01*
X225225000Y-84950000D02*
X224400000Y-84125000D01*
X239595500Y-84625000D02*
X237875000Y-84625000D01*
X243475000Y-85925500D02*
X242519500Y-84970000D01*
X220875000Y-76725000D02*
X221510000Y-76090000D01*
X242525000Y-94130000D02*
X241645000Y-95010000D01*
X237875000Y-84625000D02*
X235187500Y-81937500D01*
X239595500Y-84625000D02*
X239595500Y-83250500D01*
X243950000Y-77500000D02*
X244975000Y-78525000D01*
X220750000Y-84125000D02*
X220075000Y-83450000D01*
X228237500Y-81937500D02*
X229875000Y-80300000D01*
X242525000Y-90775000D02*
X242525000Y-94130000D01*
X240925000Y-84970000D02*
X242519500Y-84970000D01*
X240580000Y-84625000D02*
X240925000Y-84970000D01*
X232400000Y-71825000D02*
X232400000Y-72625000D01*
X232575000Y-76525000D02*
X232965000Y-76525000D01*
X243475000Y-85925500D02*
X242375000Y-84825500D01*
X225225000Y-84950000D02*
X228237500Y-81937500D01*
X233115000Y-75100000D02*
X233140000Y-75125000D01*
X240725000Y-72075000D02*
X240400000Y-72400000D01*
X224240000Y-76090000D02*
X224350000Y-76200000D01*
X244975000Y-78525000D02*
X244975000Y-79575000D01*
X231900000Y-75850000D02*
X232575000Y-76525000D01*
X239595500Y-83250500D02*
X239175000Y-82830000D01*
X241055000Y-82725000D02*
X241000000Y-82780000D01*
X229875000Y-80300000D02*
X230707100Y-80300000D01*
X231900000Y-75100000D02*
X231900000Y-73125000D01*
X239595500Y-84625000D02*
X240580000Y-84625000D01*
X244680000Y-69850000D02*
X243925000Y-69095000D01*
X244750000Y-79800000D02*
X243025000Y-79800000D01*
X224400000Y-84125000D02*
X220750000Y-84125000D01*
X232800000Y-71425000D02*
X232400000Y-71825000D01*
X243600000Y-77500000D02*
X242600000Y-77500000D01*
X242375000Y-80450000D02*
X242375000Y-82725000D01*
X243600000Y-77500000D02*
X244100000Y-77000000D01*
X248425000Y-69550000D02*
X248125000Y-69850000D01*
X239425000Y-71425000D02*
X232800000Y-71425000D01*
X240200000Y-72600000D02*
X240200000Y-73795000D01*
X243600000Y-77500000D02*
X243950000Y-77500000D01*
X240400000Y-72400000D02*
X240200000Y-72600000D01*
X235187500Y-81937500D02*
X228237500Y-81937500D01*
X220075000Y-83450000D02*
X220075000Y-77525000D01*
X224350000Y-76200000D02*
X224350000Y-76790000D01*
X220075000Y-77525000D02*
X220875000Y-76725000D01*
X243425000Y-72075000D02*
X240725000Y-72075000D01*
X231900000Y-75100000D02*
X233115000Y-75100000D01*
X244100000Y-77000000D02*
X244100000Y-72750000D01*
X231900000Y-75100000D02*
X231900000Y-75850000D01*
%TO.N,Net-(D2-A)*%
X227525000Y-78725000D02*
X228575000Y-79775000D01*
X232775000Y-79700000D02*
X233870000Y-78605000D01*
X233870000Y-76640000D02*
X233985000Y-76525000D01*
X227525000Y-78330000D02*
X227525000Y-78725000D01*
X228650000Y-79700000D02*
X232775000Y-79700000D01*
X233870000Y-77900000D02*
X233870000Y-76640000D01*
X228575000Y-79775000D02*
X228650000Y-79700000D01*
X233870000Y-78605000D02*
X233870000Y-77900000D01*
%TD*%
%TA.AperFunction,Conductor*%
%TO.N,GND*%
G36*
X228649037Y-61068142D02*
G01*
X228694646Y-61116047D01*
X228709139Y-61180584D01*
X228688390Y-61243390D01*
X228686133Y-61246767D01*
X228674500Y-61305251D01*
X228674500Y-62144749D01*
X228686132Y-62203230D01*
X228730447Y-62269552D01*
X228796769Y-62313867D01*
X228855251Y-62325500D01*
X228855252Y-62325500D01*
X229694748Y-62325500D01*
X229694749Y-62325500D01*
X229723989Y-62319683D01*
X229753231Y-62313867D01*
X229819552Y-62269552D01*
X229863867Y-62203231D01*
X229875500Y-62144748D01*
X229875500Y-61305252D01*
X229863867Y-61246769D01*
X229863866Y-61246767D01*
X229861610Y-61243390D01*
X229840861Y-61180584D01*
X229855354Y-61116047D01*
X229900963Y-61068142D01*
X229964712Y-61050500D01*
X232635288Y-61050500D01*
X232699037Y-61068142D01*
X232744646Y-61116047D01*
X232759139Y-61180584D01*
X232738390Y-61243390D01*
X232736133Y-61246767D01*
X232724500Y-61305251D01*
X232724500Y-62144749D01*
X232736132Y-62203230D01*
X232780447Y-62269552D01*
X232846769Y-62313867D01*
X232905251Y-62325500D01*
X232905252Y-62325500D01*
X233744748Y-62325500D01*
X233744749Y-62325500D01*
X233773989Y-62319683D01*
X233803231Y-62313867D01*
X233869552Y-62269552D01*
X233913867Y-62203231D01*
X233925500Y-62144748D01*
X233925500Y-61305252D01*
X233913867Y-61246769D01*
X233913866Y-61246767D01*
X233911610Y-61243390D01*
X233890861Y-61180584D01*
X233905354Y-61116047D01*
X233950963Y-61068142D01*
X234014712Y-61050500D01*
X237791554Y-61050500D01*
X257410654Y-61074766D01*
X257472589Y-61091430D01*
X257517913Y-61136810D01*
X257534500Y-61198766D01*
X257534500Y-102860500D01*
X257517887Y-102922500D01*
X257472500Y-102967887D01*
X257410500Y-102984500D01*
X234284833Y-102984500D01*
X234228560Y-102970996D01*
X234184544Y-102933425D01*
X234162371Y-102879970D01*
X234166872Y-102822275D01*
X234197066Y-102772905D01*
X234197216Y-102772754D01*
X234197577Y-102772393D01*
X234220063Y-102754564D01*
X234225952Y-102750919D01*
X234242053Y-102729595D01*
X234253313Y-102716656D01*
X236312683Y-100657286D01*
X236367064Y-100625523D01*
X236430035Y-100624572D01*
X236514944Y-100645500D01*
X236685055Y-100645500D01*
X236685056Y-100645500D01*
X236850225Y-100604790D01*
X237000852Y-100525734D01*
X237128183Y-100412929D01*
X237224818Y-100272930D01*
X237285140Y-100113872D01*
X237305645Y-99945000D01*
X237285140Y-99776128D01*
X237224818Y-99617070D01*
X237132951Y-99483978D01*
X237128184Y-99477072D01*
X237128183Y-99477071D01*
X237044363Y-99402813D01*
X237007488Y-99344499D01*
X237007488Y-99275501D01*
X237044363Y-99217186D01*
X237128183Y-99142929D01*
X237224818Y-99002930D01*
X237285140Y-98843872D01*
X237305645Y-98675000D01*
X237285140Y-98506128D01*
X237224818Y-98347070D01*
X237132951Y-98213978D01*
X237128184Y-98207072D01*
X237128181Y-98207069D01*
X237044363Y-98132813D01*
X237007488Y-98074499D01*
X237007488Y-98005501D01*
X237044363Y-97947186D01*
X237128183Y-97872929D01*
X237224818Y-97732930D01*
X237285140Y-97573872D01*
X237305645Y-97405000D01*
X237285140Y-97236128D01*
X237224818Y-97077070D01*
X237128183Y-96937071D01*
X237044363Y-96862813D01*
X237007488Y-96804499D01*
X237007488Y-96735501D01*
X237044363Y-96677186D01*
X237128183Y-96602929D01*
X237224818Y-96462930D01*
X237285140Y-96303872D01*
X237305645Y-96135000D01*
X237285140Y-95966128D01*
X237224818Y-95807070D01*
X237158160Y-95710500D01*
X237128184Y-95667072D01*
X237095180Y-95637833D01*
X237000852Y-95554266D01*
X236884706Y-95493307D01*
X236850224Y-95475209D01*
X236725765Y-95444533D01*
X236685056Y-95434500D01*
X236514944Y-95434500D01*
X236482284Y-95442549D01*
X236349775Y-95475209D01*
X236199145Y-95554267D01*
X236191222Y-95561287D01*
X236128270Y-95590961D01*
X236059247Y-95582050D01*
X236005897Y-95537359D01*
X235994293Y-95519993D01*
X235974552Y-95490448D01*
X235965969Y-95484713D01*
X235908230Y-95446132D01*
X235849749Y-95434500D01*
X235849748Y-95434500D01*
X234810252Y-95434500D01*
X234810251Y-95434500D01*
X234751769Y-95446132D01*
X234685447Y-95490447D01*
X234641132Y-95556769D01*
X234629500Y-95615251D01*
X234629500Y-96654749D01*
X234641132Y-96713230D01*
X234656013Y-96735501D01*
X234685448Y-96779552D01*
X234734825Y-96812545D01*
X234777420Y-96861363D01*
X234789580Y-96925001D01*
X234767983Y-96986086D01*
X234705182Y-97077069D01*
X234644860Y-97236127D01*
X234624354Y-97405000D01*
X234644860Y-97573872D01*
X234705182Y-97732930D01*
X234801817Y-97872930D01*
X234885634Y-97947185D01*
X234922511Y-98005501D01*
X234922511Y-98074499D01*
X234885634Y-98132815D01*
X234801817Y-98207069D01*
X234705182Y-98347069D01*
X234644860Y-98506127D01*
X234624354Y-98675000D01*
X234644860Y-98843872D01*
X234705182Y-99002930D01*
X234801815Y-99142927D01*
X234801816Y-99142928D01*
X234801817Y-99142929D01*
X234885635Y-99217185D01*
X234922511Y-99275499D01*
X234922511Y-99344497D01*
X234885635Y-99402814D01*
X234801816Y-99477071D01*
X234705182Y-99617069D01*
X234644860Y-99776127D01*
X234624354Y-99945000D01*
X234644860Y-100113872D01*
X234705182Y-100272930D01*
X234801815Y-100412927D01*
X234801816Y-100412928D01*
X234801817Y-100412929D01*
X234929148Y-100525734D01*
X235079775Y-100604790D01*
X235215660Y-100638282D01*
X235272332Y-100669683D01*
X235305431Y-100725381D01*
X235305921Y-100790169D01*
X235273667Y-100846360D01*
X233931848Y-102188181D01*
X233891620Y-102215061D01*
X233844167Y-102224500D01*
X227300833Y-102224500D01*
X227253380Y-102215061D01*
X227213152Y-102188181D01*
X220386819Y-95361848D01*
X220359939Y-95321620D01*
X220350500Y-95274167D01*
X220350500Y-84944244D01*
X220353243Y-84927423D01*
X220352772Y-84917237D01*
X220352773Y-84917236D01*
X220350631Y-84870920D01*
X220350500Y-84865196D01*
X220350500Y-84846178D01*
X220348817Y-84831680D01*
X220347585Y-84805009D01*
X220344786Y-84798671D01*
X220336332Y-84771367D01*
X220335061Y-84764568D01*
X220335061Y-84764567D01*
X220320997Y-84741853D01*
X220312994Y-84726669D01*
X220302206Y-84702235D01*
X220297310Y-84697338D01*
X220279563Y-84674933D01*
X220275919Y-84669048D01*
X220254602Y-84652950D01*
X220241648Y-84641677D01*
X219511819Y-83911848D01*
X219484939Y-83871620D01*
X219475500Y-83824167D01*
X219475500Y-81937482D01*
X219488288Y-81882638D01*
X219524014Y-81839106D01*
X219532143Y-81832869D01*
X219575013Y-81799973D01*
X219638347Y-81774946D01*
X219705344Y-81787137D01*
X219755801Y-81832869D01*
X219774500Y-81898349D01*
X219774500Y-83380757D01*
X219771756Y-83397577D01*
X219774368Y-83454079D01*
X219774500Y-83459805D01*
X219774500Y-83478819D01*
X219776181Y-83493307D01*
X219777415Y-83519993D01*
X219780213Y-83526330D01*
X219788666Y-83553626D01*
X219789938Y-83560434D01*
X219803997Y-83583140D01*
X219812002Y-83598327D01*
X219822792Y-83622763D01*
X219827688Y-83627659D01*
X219845434Y-83650063D01*
X219846922Y-83652465D01*
X219849081Y-83655952D01*
X219870396Y-83672048D01*
X219883351Y-83683322D01*
X220488550Y-84288521D01*
X220498507Y-84302358D01*
X220506041Y-84309226D01*
X220506042Y-84309228D01*
X220519181Y-84321206D01*
X220540316Y-84340474D01*
X220544457Y-84344429D01*
X220557888Y-84357860D01*
X220569328Y-84366922D01*
X220589065Y-84384915D01*
X220589066Y-84384915D01*
X220589067Y-84384916D01*
X220595340Y-84387346D01*
X220595523Y-84387417D01*
X220620810Y-84400745D01*
X220626519Y-84404656D01*
X220652514Y-84410769D01*
X220668910Y-84415846D01*
X220693827Y-84425500D01*
X220700751Y-84425500D01*
X220729140Y-84428793D01*
X220735881Y-84430379D01*
X220762333Y-84426688D01*
X220779465Y-84425500D01*
X222863775Y-84425500D01*
X222922228Y-84440142D01*
X222966877Y-84480609D01*
X222987178Y-84537346D01*
X222978336Y-84596950D01*
X222959810Y-84641677D01*
X222938866Y-84692239D01*
X222918228Y-84849000D01*
X222938867Y-85005762D01*
X222999374Y-85151840D01*
X223095628Y-85277282D01*
X223168324Y-85333063D01*
X223221070Y-85373536D01*
X223367149Y-85434044D01*
X223503271Y-85451964D01*
X223523910Y-85454682D01*
X223523910Y-85454681D01*
X223523911Y-85454682D01*
X223622973Y-85441640D01*
X223679015Y-85447160D01*
X223726838Y-85476898D01*
X223988461Y-85738521D01*
X223998418Y-85752358D01*
X224005952Y-85759226D01*
X224005953Y-85759228D01*
X224013816Y-85766396D01*
X224040227Y-85790474D01*
X224044368Y-85794429D01*
X224057799Y-85807860D01*
X224069239Y-85816922D01*
X224088976Y-85834915D01*
X224088977Y-85834915D01*
X224088978Y-85834916D01*
X224095251Y-85837346D01*
X224095434Y-85837417D01*
X224120721Y-85850745D01*
X224126430Y-85854656D01*
X224152425Y-85860769D01*
X224168821Y-85865846D01*
X224193738Y-85875500D01*
X224200662Y-85875500D01*
X224229051Y-85878793D01*
X224235792Y-85880379D01*
X224262244Y-85876688D01*
X224279376Y-85875500D01*
X235987518Y-85875500D01*
X236042362Y-85888288D01*
X236085893Y-85924013D01*
X236146718Y-86003282D01*
X236272159Y-86099536D01*
X236418238Y-86160044D01*
X236575000Y-86180682D01*
X236731762Y-86160044D01*
X236877841Y-86099536D01*
X237003282Y-86003282D01*
X237099536Y-85877841D01*
X237160044Y-85731762D01*
X237180682Y-85575000D01*
X237160044Y-85418238D01*
X237099536Y-85272159D01*
X237073464Y-85238181D01*
X237003282Y-85146717D01*
X236877840Y-85050463D01*
X236731762Y-84989956D01*
X236575000Y-84969317D01*
X236418237Y-84989956D01*
X236272159Y-85050463D01*
X236146718Y-85146717D01*
X236085894Y-85225986D01*
X236042362Y-85261712D01*
X235987518Y-85274500D01*
X235399332Y-85274500D01*
X235343037Y-85260985D01*
X235299014Y-85223385D01*
X235276859Y-85169898D01*
X235281401Y-85112182D01*
X235311651Y-85062819D01*
X235507549Y-84866921D01*
X235696574Y-84677896D01*
X235744395Y-84648160D01*
X235800437Y-84642640D01*
X235899500Y-84655682D01*
X236056262Y-84635044D01*
X236202341Y-84574536D01*
X236327782Y-84478282D01*
X236424036Y-84352841D01*
X236484544Y-84206762D01*
X236505182Y-84050000D01*
X236496788Y-83986243D01*
X236503963Y-83925623D01*
X236539195Y-83875770D01*
X236593946Y-83848770D01*
X236654945Y-83851166D01*
X236707408Y-83882379D01*
X237613550Y-84788521D01*
X237623507Y-84802358D01*
X237631041Y-84809226D01*
X237631042Y-84809228D01*
X237644429Y-84821432D01*
X237665316Y-84840474D01*
X237669457Y-84844429D01*
X237682887Y-84857859D01*
X237694322Y-84866916D01*
X237714067Y-84884916D01*
X237720521Y-84887416D01*
X237745805Y-84900743D01*
X237751519Y-84904657D01*
X237777525Y-84910773D01*
X237793917Y-84915849D01*
X237818827Y-84925500D01*
X237825752Y-84925500D01*
X237854142Y-84928794D01*
X237860881Y-84930379D01*
X237887332Y-84926689D01*
X237904464Y-84925500D01*
X239008018Y-84925500D01*
X239062862Y-84938288D01*
X239106394Y-84974014D01*
X239167217Y-85053282D01*
X239223759Y-85096667D01*
X239243978Y-85112182D01*
X239246486Y-85114106D01*
X239282212Y-85157638D01*
X239295000Y-85212482D01*
X239295000Y-87776257D01*
X239292256Y-87793077D01*
X239294868Y-87849579D01*
X239295000Y-87855305D01*
X239295000Y-87874319D01*
X239296681Y-87888807D01*
X239297915Y-87915493D01*
X239300713Y-87921830D01*
X239309166Y-87949126D01*
X239310438Y-87955934D01*
X239324497Y-87978640D01*
X239332502Y-87993827D01*
X239343292Y-88018263D01*
X239348188Y-88023159D01*
X239365934Y-88045563D01*
X239369580Y-88051451D01*
X239369581Y-88051452D01*
X239390896Y-88067548D01*
X239403851Y-88078822D01*
X241616746Y-90291718D01*
X241649000Y-90347909D01*
X241648511Y-90412697D01*
X241615412Y-90468395D01*
X241558740Y-90499796D01*
X241394775Y-90540209D01*
X241244145Y-90619267D01*
X241236222Y-90626287D01*
X241173270Y-90655961D01*
X241104247Y-90647050D01*
X241050897Y-90602359D01*
X241050814Y-90602235D01*
X241019552Y-90555448D01*
X241008055Y-90547766D01*
X240953230Y-90511132D01*
X240894749Y-90499500D01*
X240894748Y-90499500D01*
X239855252Y-90499500D01*
X239855251Y-90499500D01*
X239796769Y-90511132D01*
X239730447Y-90555447D01*
X239686132Y-90621769D01*
X239674500Y-90680251D01*
X239674500Y-91719749D01*
X239686132Y-91778230D01*
X239686133Y-91778231D01*
X239730448Y-91844552D01*
X239779825Y-91877545D01*
X239822420Y-91926363D01*
X239834580Y-91990001D01*
X239812983Y-92051086D01*
X239750182Y-92142069D01*
X239689860Y-92301127D01*
X239669354Y-92470000D01*
X239689860Y-92638872D01*
X239750182Y-92797930D01*
X239846817Y-92937930D01*
X239930634Y-93012185D01*
X239967511Y-93070501D01*
X239967511Y-93139499D01*
X239930634Y-93197815D01*
X239846817Y-93272069D01*
X239750182Y-93412069D01*
X239689860Y-93571127D01*
X239669354Y-93740000D01*
X239689860Y-93908872D01*
X239750182Y-94067930D01*
X239846817Y-94207930D01*
X239930634Y-94282185D01*
X239967511Y-94340501D01*
X239967511Y-94409499D01*
X239930634Y-94467815D01*
X239846817Y-94542069D01*
X239750182Y-94682069D01*
X239689860Y-94841127D01*
X239669354Y-95010000D01*
X239689860Y-95178872D01*
X239750182Y-95337930D01*
X239846815Y-95477927D01*
X239846816Y-95477928D01*
X239846817Y-95477929D01*
X239974148Y-95590734D01*
X240124775Y-95669790D01*
X240289944Y-95710500D01*
X240460055Y-95710500D01*
X240460056Y-95710500D01*
X240625225Y-95669790D01*
X240775852Y-95590734D01*
X240903183Y-95477929D01*
X240907949Y-95471023D01*
X240952373Y-95431666D01*
X241010000Y-95417462D01*
X241067627Y-95431666D01*
X241112051Y-95471024D01*
X241116815Y-95477927D01*
X241116816Y-95477928D01*
X241116817Y-95477929D01*
X241244148Y-95590734D01*
X241394775Y-95669790D01*
X241559944Y-95710500D01*
X241730055Y-95710500D01*
X241730056Y-95710500D01*
X241895225Y-95669790D01*
X242045852Y-95590734D01*
X242173183Y-95477929D01*
X242269818Y-95337930D01*
X242330140Y-95178872D01*
X242350645Y-95010000D01*
X242330140Y-94841128D01*
X242330139Y-94841127D01*
X242328325Y-94826182D01*
X242329344Y-94826058D01*
X242325432Y-94803424D01*
X242335330Y-94757319D01*
X242361723Y-94718246D01*
X242688518Y-94391451D01*
X242702353Y-94381498D01*
X242709225Y-94373959D01*
X242709228Y-94373958D01*
X242740488Y-94339666D01*
X242744379Y-94335590D01*
X242757174Y-94322797D01*
X242757178Y-94322790D01*
X242757867Y-94322102D01*
X242766922Y-94310671D01*
X242768536Y-94308900D01*
X242784916Y-94290933D01*
X242787415Y-94284479D01*
X242800743Y-94259192D01*
X242804657Y-94253481D01*
X242804658Y-94253477D01*
X242810773Y-94227479D01*
X242815850Y-94211081D01*
X242825500Y-94186173D01*
X242825500Y-94179248D01*
X242828794Y-94150858D01*
X242828819Y-94150749D01*
X242830379Y-94144119D01*
X242826689Y-94117667D01*
X242825500Y-94100536D01*
X242825500Y-90844244D01*
X242828243Y-90827423D01*
X242827772Y-90817237D01*
X242827773Y-90817236D01*
X242825631Y-90770920D01*
X242825500Y-90765196D01*
X242825500Y-90746178D01*
X242823817Y-90731680D01*
X242822585Y-90705009D01*
X242819786Y-90698671D01*
X242811332Y-90671367D01*
X242810061Y-90664568D01*
X242810061Y-90664567D01*
X242795997Y-90641853D01*
X242787994Y-90626669D01*
X242777206Y-90602235D01*
X242772309Y-90597338D01*
X242754563Y-90574933D01*
X242750919Y-90569048D01*
X242729602Y-90552950D01*
X242716648Y-90541677D01*
X239932319Y-87757348D01*
X239905439Y-87717120D01*
X239896000Y-87669667D01*
X239896000Y-86278553D01*
X239909812Y-86221680D01*
X239948169Y-86177477D01*
X240002529Y-86155790D01*
X240060780Y-86161450D01*
X240109947Y-86193197D01*
X240139077Y-86243959D01*
X240162968Y-86326196D01*
X240245281Y-86465379D01*
X240359620Y-86579718D01*
X240498805Y-86662032D01*
X240654082Y-86707144D01*
X240674999Y-86708790D01*
X240675000Y-86708790D01*
X240675000Y-86180000D01*
X241175000Y-86180000D01*
X241175000Y-86708790D01*
X241195915Y-86707145D01*
X241351194Y-86662032D01*
X241490379Y-86579718D01*
X241604718Y-86465379D01*
X241687031Y-86326196D01*
X241729504Y-86180000D01*
X241175000Y-86180000D01*
X240675000Y-86180000D01*
X240675000Y-85804000D01*
X240691613Y-85742000D01*
X240737000Y-85696613D01*
X240799000Y-85680000D01*
X241729504Y-85680000D01*
X241687031Y-85533803D01*
X241641977Y-85457621D01*
X241624713Y-85395474D01*
X241640999Y-85333063D01*
X241686428Y-85287276D01*
X241748709Y-85270500D01*
X242343667Y-85270500D01*
X242391120Y-85279939D01*
X242431348Y-85306819D01*
X242847101Y-85722572D01*
X242876839Y-85770394D01*
X242882359Y-85826438D01*
X242869317Y-85925499D01*
X242889956Y-86082262D01*
X242950463Y-86228340D01*
X243046717Y-86353782D01*
X243172158Y-86450035D01*
X243172159Y-86450036D01*
X243318238Y-86510544D01*
X243475000Y-86531182D01*
X243631762Y-86510544D01*
X243777841Y-86450036D01*
X243903282Y-86353782D01*
X243999536Y-86228341D01*
X244060044Y-86082262D01*
X244080682Y-85925500D01*
X244060044Y-85768738D01*
X243999536Y-85622659D01*
X243962966Y-85575000D01*
X243903282Y-85497217D01*
X243777840Y-85400963D01*
X243631762Y-85340456D01*
X243474999Y-85319817D01*
X243375938Y-85332859D01*
X243319894Y-85327339D01*
X243272072Y-85297601D01*
X242780950Y-84806479D01*
X242770997Y-84792645D01*
X242729181Y-84754524D01*
X242725040Y-84750569D01*
X242711819Y-84737348D01*
X242684939Y-84697120D01*
X242675500Y-84649667D01*
X242675500Y-82784216D01*
X242679570Y-82755033D01*
X242676029Y-82716818D01*
X242675500Y-82705376D01*
X242675500Y-80625833D01*
X242684939Y-80578380D01*
X242711819Y-80538152D01*
X243113152Y-80136819D01*
X243153380Y-80109939D01*
X243200833Y-80100500D01*
X244680757Y-80100500D01*
X244697577Y-80103243D01*
X244707762Y-80102772D01*
X244707765Y-80102773D01*
X244754080Y-80100631D01*
X244759805Y-80100500D01*
X244778824Y-80100500D01*
X244793318Y-80098817D01*
X244819992Y-80097585D01*
X244826330Y-80094786D01*
X244853633Y-80086332D01*
X244860433Y-80085061D01*
X244883143Y-80070998D01*
X244898325Y-80062996D01*
X244922765Y-80052206D01*
X244927659Y-80047311D01*
X244950063Y-80029564D01*
X244955952Y-80025919D01*
X244972053Y-80004595D01*
X244983313Y-79991656D01*
X245138518Y-79836451D01*
X245152353Y-79826498D01*
X245159225Y-79818959D01*
X245159228Y-79818958D01*
X245190488Y-79784666D01*
X245194379Y-79780590D01*
X245207174Y-79767797D01*
X245207178Y-79767790D01*
X245207868Y-79767101D01*
X245216922Y-79755671D01*
X245234914Y-79735935D01*
X245234913Y-79735935D01*
X245234916Y-79735933D01*
X245237419Y-79729470D01*
X245250743Y-79704191D01*
X245254656Y-79698481D01*
X245260770Y-79672481D01*
X245265846Y-79656089D01*
X245275500Y-79631173D01*
X245275500Y-79624249D01*
X245278794Y-79595856D01*
X245280379Y-79589119D01*
X245276688Y-79562666D01*
X245275500Y-79545535D01*
X245275500Y-78594244D01*
X245278243Y-78577423D01*
X245277772Y-78567237D01*
X245277773Y-78567236D01*
X245275631Y-78520920D01*
X245275500Y-78515196D01*
X245275500Y-78496178D01*
X245273817Y-78481680D01*
X245273554Y-78475983D01*
X245272585Y-78455009D01*
X245269786Y-78448671D01*
X245261332Y-78421367D01*
X245260061Y-78414568D01*
X245260061Y-78414567D01*
X245245997Y-78391853D01*
X245237994Y-78376669D01*
X245227206Y-78352235D01*
X245222310Y-78347339D01*
X245204563Y-78324933D01*
X245200919Y-78319048D01*
X245179602Y-78302950D01*
X245166648Y-78291677D01*
X244834970Y-77959999D01*
X252469354Y-77959999D01*
X252489860Y-78128872D01*
X252550182Y-78287930D01*
X252646815Y-78427927D01*
X252646816Y-78427928D01*
X252646817Y-78427929D01*
X252774148Y-78540734D01*
X252924775Y-78619790D01*
X253089944Y-78660500D01*
X253260055Y-78660500D01*
X253260056Y-78660500D01*
X253425225Y-78619790D01*
X253575852Y-78540734D01*
X253703183Y-78427929D01*
X253707949Y-78421023D01*
X253752373Y-78381666D01*
X253810000Y-78367462D01*
X253867627Y-78381666D01*
X253912051Y-78421024D01*
X253916815Y-78427927D01*
X253916816Y-78427928D01*
X253916817Y-78427929D01*
X254044148Y-78540734D01*
X254194775Y-78619790D01*
X254359944Y-78660500D01*
X254530055Y-78660500D01*
X254530056Y-78660500D01*
X254695225Y-78619790D01*
X254845852Y-78540734D01*
X254973183Y-78427929D01*
X255069818Y-78287930D01*
X255130140Y-78128872D01*
X255150645Y-77960000D01*
X255130140Y-77791128D01*
X255069818Y-77632070D01*
X254986167Y-77510881D01*
X254973184Y-77492072D01*
X254971001Y-77490138D01*
X254889363Y-77417813D01*
X254852488Y-77359499D01*
X254852488Y-77290501D01*
X254889363Y-77232186D01*
X254973183Y-77157929D01*
X255069818Y-77017930D01*
X255130140Y-76858872D01*
X255150645Y-76690000D01*
X255130140Y-76521128D01*
X255069818Y-76362070D01*
X254993722Y-76251827D01*
X254973184Y-76222072D01*
X254957597Y-76208263D01*
X254889363Y-76147813D01*
X254852488Y-76089499D01*
X254852488Y-76020501D01*
X254889363Y-75962186D01*
X254973183Y-75887929D01*
X255069818Y-75747930D01*
X255130140Y-75588872D01*
X255150645Y-75420000D01*
X255148561Y-75402841D01*
X255145181Y-75375000D01*
X255130140Y-75251128D01*
X255069818Y-75092070D01*
X255007016Y-75001086D01*
X254973182Y-74952069D01*
X254889365Y-74877814D01*
X254852488Y-74819497D01*
X254852488Y-74750499D01*
X254889364Y-74692185D01*
X254973183Y-74617929D01*
X255069818Y-74477930D01*
X255130140Y-74318872D01*
X255150645Y-74150000D01*
X255130140Y-73981128D01*
X255069818Y-73822070D01*
X255014500Y-73741929D01*
X254973184Y-73682072D01*
X254973183Y-73682071D01*
X254845852Y-73569266D01*
X254815397Y-73553282D01*
X254695224Y-73490209D01*
X254559195Y-73456682D01*
X254530056Y-73449500D01*
X254359944Y-73449500D01*
X254330805Y-73456682D01*
X254194775Y-73490209D01*
X254044145Y-73569267D01*
X254036222Y-73576287D01*
X253973270Y-73605961D01*
X253904247Y-73597050D01*
X253850897Y-73552359D01*
X253819551Y-73505447D01*
X253753230Y-73461132D01*
X253694749Y-73449500D01*
X253694748Y-73449500D01*
X252655252Y-73449500D01*
X252655251Y-73449500D01*
X252596769Y-73461132D01*
X252530447Y-73505447D01*
X252486132Y-73571769D01*
X252474500Y-73630251D01*
X252474500Y-74669749D01*
X252486132Y-74728230D01*
X252501337Y-74750986D01*
X252530448Y-74794552D01*
X252579825Y-74827545D01*
X252622420Y-74876363D01*
X252634580Y-74940001D01*
X252612983Y-75001086D01*
X252550182Y-75092069D01*
X252489860Y-75251127D01*
X252469354Y-75419999D01*
X252489860Y-75588872D01*
X252550182Y-75747930D01*
X252646817Y-75887930D01*
X252730634Y-75962185D01*
X252767511Y-76020501D01*
X252767511Y-76089499D01*
X252730634Y-76147815D01*
X252646817Y-76222069D01*
X252550182Y-76362069D01*
X252489860Y-76521127D01*
X252469354Y-76689999D01*
X252489860Y-76858872D01*
X252550182Y-77017930D01*
X252646817Y-77157930D01*
X252730634Y-77232185D01*
X252767511Y-77290501D01*
X252767511Y-77359499D01*
X252730634Y-77417815D01*
X252646817Y-77492069D01*
X252550182Y-77632069D01*
X252489860Y-77791127D01*
X252469354Y-77959999D01*
X244834970Y-77959999D01*
X244289120Y-77414149D01*
X244257535Y-77360403D01*
X244256095Y-77298079D01*
X244285161Y-77242934D01*
X244315487Y-77209667D01*
X244319380Y-77205590D01*
X244332174Y-77192797D01*
X244332178Y-77192790D01*
X244332868Y-77192101D01*
X244341922Y-77180671D01*
X244359915Y-77160934D01*
X244359914Y-77160934D01*
X244359916Y-77160933D01*
X244362417Y-77154474D01*
X244375748Y-77129186D01*
X244379656Y-77123481D01*
X244379655Y-77123481D01*
X244379657Y-77123480D01*
X244385775Y-77097467D01*
X244390845Y-77081093D01*
X244400500Y-77056173D01*
X244400500Y-77049248D01*
X244403794Y-77020858D01*
X244404251Y-77018913D01*
X244405379Y-77014119D01*
X244401689Y-76987667D01*
X244400500Y-76970536D01*
X244400500Y-72819243D01*
X244403243Y-72802422D01*
X244402772Y-72792236D01*
X244402773Y-72792235D01*
X244400631Y-72745919D01*
X244400500Y-72740195D01*
X244400500Y-72721178D01*
X244398817Y-72706680D01*
X244398640Y-72702841D01*
X244397585Y-72680008D01*
X244394786Y-72673670D01*
X244386332Y-72646367D01*
X244385061Y-72639567D01*
X244371002Y-72616860D01*
X244362995Y-72601670D01*
X244352206Y-72577235D01*
X244347309Y-72572338D01*
X244329563Y-72549933D01*
X244325919Y-72544048D01*
X244304602Y-72527950D01*
X244291648Y-72516677D01*
X243762152Y-71987181D01*
X243731902Y-71937818D01*
X243727360Y-71880102D01*
X243749515Y-71826615D01*
X243793538Y-71789015D01*
X243849833Y-71775500D01*
X248755257Y-71775500D01*
X248772077Y-71778243D01*
X248782262Y-71777772D01*
X248782265Y-71777773D01*
X248828580Y-71775631D01*
X248834305Y-71775500D01*
X248853324Y-71775500D01*
X248867818Y-71773817D01*
X248894492Y-71772585D01*
X248900830Y-71769786D01*
X248928133Y-71761332D01*
X248934933Y-71760061D01*
X248957643Y-71745998D01*
X248972825Y-71737996D01*
X248997265Y-71727206D01*
X249002162Y-71722308D01*
X249024557Y-71704568D01*
X249030452Y-71700919D01*
X249030453Y-71700916D01*
X249050163Y-71688714D01*
X249051543Y-71690943D01*
X249069802Y-71676757D01*
X249133898Y-71668188D01*
X249225000Y-71680182D01*
X249381762Y-71659544D01*
X249527841Y-71599036D01*
X249653282Y-71502782D01*
X249749536Y-71377341D01*
X249810044Y-71231262D01*
X249830682Y-71074500D01*
X249810044Y-70917738D01*
X249809774Y-70915685D01*
X249820331Y-70847095D01*
X249866088Y-70794919D01*
X249932713Y-70775500D01*
X251907199Y-70775500D01*
X251924019Y-70778243D01*
X251934204Y-70777772D01*
X251934207Y-70777773D01*
X251980522Y-70775631D01*
X251986247Y-70775500D01*
X252005266Y-70775500D01*
X252019760Y-70773817D01*
X252046434Y-70772585D01*
X252052772Y-70769786D01*
X252080075Y-70761332D01*
X252086875Y-70760061D01*
X252109585Y-70745998D01*
X252124767Y-70737996D01*
X252149207Y-70727206D01*
X252154101Y-70722311D01*
X252176505Y-70704564D01*
X252182394Y-70700919D01*
X252198495Y-70679595D01*
X252209755Y-70666656D01*
X252635295Y-70241117D01*
X252683116Y-70211381D01*
X252739158Y-70205861D01*
X252838221Y-70218903D01*
X252994983Y-70198265D01*
X253141062Y-70137757D01*
X253266503Y-70041503D01*
X253362757Y-69916062D01*
X253423265Y-69769983D01*
X253443903Y-69613221D01*
X253423265Y-69456459D01*
X253362757Y-69310380D01*
X253357758Y-69303865D01*
X253266503Y-69184938D01*
X253141061Y-69088684D01*
X252994983Y-69028177D01*
X252838221Y-69007538D01*
X252681458Y-69028177D01*
X252535380Y-69088684D01*
X252409938Y-69184938D01*
X252313684Y-69310380D01*
X252253177Y-69456458D01*
X252232538Y-69613221D01*
X252245580Y-69712281D01*
X252240060Y-69768324D01*
X252210322Y-69816147D01*
X251888287Y-70138183D01*
X251848062Y-70165061D01*
X251800609Y-70174500D01*
X250257647Y-70174500D01*
X250191022Y-70155081D01*
X250145265Y-70102905D01*
X250134708Y-70034315D01*
X250155682Y-69875000D01*
X250146995Y-69809015D01*
X250135044Y-69718238D01*
X250074536Y-69572159D01*
X250057149Y-69549500D01*
X249978282Y-69446717D01*
X249852840Y-69350463D01*
X249706762Y-69289956D01*
X249549998Y-69269317D01*
X249493820Y-69276713D01*
X249437777Y-69271193D01*
X249389955Y-69241455D01*
X246361819Y-66213319D01*
X246334939Y-66173091D01*
X246325500Y-66125638D01*
X246325500Y-64144243D01*
X246328243Y-64127422D01*
X246327772Y-64117236D01*
X246327773Y-64117235D01*
X246325631Y-64070919D01*
X246325500Y-64065195D01*
X246325500Y-64046178D01*
X246323817Y-64031680D01*
X246322585Y-64005008D01*
X246319786Y-63998670D01*
X246311332Y-63971367D01*
X246310061Y-63964567D01*
X246296002Y-63941860D01*
X246287995Y-63926670D01*
X246277206Y-63902235D01*
X246272310Y-63897339D01*
X246254563Y-63874933D01*
X246250919Y-63869048D01*
X246229602Y-63852950D01*
X246216648Y-63841677D01*
X245536450Y-63161479D01*
X245526497Y-63147645D01*
X245484681Y-63109524D01*
X245480540Y-63105569D01*
X245467110Y-63092139D01*
X245455678Y-63083083D01*
X245435934Y-63065084D01*
X245429468Y-63062579D01*
X245404192Y-63049256D01*
X245398481Y-63045344D01*
X245398480Y-63045343D01*
X245398478Y-63045342D01*
X245372484Y-63039228D01*
X245356087Y-63034151D01*
X245331173Y-63024500D01*
X245324249Y-63024500D01*
X245295859Y-63021206D01*
X245289119Y-63019621D01*
X245289118Y-63019621D01*
X245277757Y-63021206D01*
X245262666Y-63023311D01*
X245245535Y-63024500D01*
X235069243Y-63024500D01*
X235052422Y-63021756D01*
X235009308Y-63023749D01*
X234995919Y-63024368D01*
X234990195Y-63024500D01*
X234971183Y-63024500D01*
X234956695Y-63026181D01*
X234930007Y-63027415D01*
X234923666Y-63030215D01*
X234896378Y-63038665D01*
X234889568Y-63039938D01*
X234866859Y-63053998D01*
X234851677Y-63062000D01*
X234827233Y-63072794D01*
X234822333Y-63077694D01*
X234799943Y-63095429D01*
X234794048Y-63099079D01*
X234777950Y-63120396D01*
X234766679Y-63133348D01*
X225086475Y-72813552D01*
X225072639Y-72823508D01*
X225034523Y-72865318D01*
X225030573Y-72869454D01*
X225017141Y-72882886D01*
X225008087Y-72894317D01*
X224990083Y-72914067D01*
X224987578Y-72920534D01*
X224974259Y-72945802D01*
X224970343Y-72951518D01*
X224964228Y-72977517D01*
X224959151Y-72993913D01*
X224949500Y-73018827D01*
X224949500Y-73025751D01*
X224946206Y-73054144D01*
X224944621Y-73060881D01*
X224948311Y-73087332D01*
X224949500Y-73104465D01*
X224949500Y-76109736D01*
X224936657Y-76164692D01*
X224900788Y-76208263D01*
X224849324Y-76231426D01*
X224792925Y-76229381D01*
X224765168Y-76214382D01*
X224764182Y-76216263D01*
X224750853Y-76209267D01*
X224750852Y-76209266D01*
X224700490Y-76182833D01*
X224658374Y-76146705D01*
X224636231Y-76095824D01*
X224635061Y-76089567D01*
X224621006Y-76066867D01*
X224612998Y-76051676D01*
X224603835Y-76030924D01*
X224602206Y-76027234D01*
X224597310Y-76022338D01*
X224579563Y-75999935D01*
X224575919Y-75994048D01*
X224575917Y-75994046D01*
X224554612Y-75977958D01*
X224541655Y-75966683D01*
X224501446Y-75926473D01*
X224491493Y-75912640D01*
X224449683Y-75874525D01*
X224445541Y-75870570D01*
X224432110Y-75857139D01*
X224420678Y-75848083D01*
X224400934Y-75830084D01*
X224394468Y-75827579D01*
X224369192Y-75814256D01*
X224363481Y-75810344D01*
X224363480Y-75810343D01*
X224363478Y-75810342D01*
X224337484Y-75804228D01*
X224321087Y-75799151D01*
X224296173Y-75789500D01*
X224289249Y-75789500D01*
X224260859Y-75786206D01*
X224254119Y-75784621D01*
X224254118Y-75784621D01*
X224242757Y-75786206D01*
X224227666Y-75788311D01*
X224210535Y-75789500D01*
X221579244Y-75789500D01*
X221562423Y-75786756D01*
X221519309Y-75788749D01*
X221505920Y-75789368D01*
X221500196Y-75789500D01*
X221481183Y-75789500D01*
X221466695Y-75791181D01*
X221440005Y-75792415D01*
X221433666Y-75795214D01*
X221406379Y-75803664D01*
X221399568Y-75804937D01*
X221376856Y-75818999D01*
X221361673Y-75827002D01*
X221337234Y-75837793D01*
X221332337Y-75842691D01*
X221309940Y-75860432D01*
X221304047Y-75864081D01*
X221287950Y-75885396D01*
X221276679Y-75898348D01*
X221077926Y-76097101D01*
X221030103Y-76126839D01*
X220974059Y-76132359D01*
X220864190Y-76117894D01*
X220801711Y-76090808D01*
X220762957Y-76034813D01*
X220759615Y-75966797D01*
X220792692Y-75907277D01*
X225088018Y-71611951D01*
X225101850Y-71602000D01*
X225108723Y-71594460D01*
X225108728Y-71594458D01*
X225120550Y-71581489D01*
X225164729Y-71550470D01*
X225227341Y-71524536D01*
X225352782Y-71428282D01*
X225449036Y-71302841D01*
X225509544Y-71156762D01*
X225530182Y-71000000D01*
X225509544Y-70843238D01*
X225449036Y-70697159D01*
X225435568Y-70679607D01*
X225352782Y-70571717D01*
X225227340Y-70475463D01*
X225081262Y-70414956D01*
X224924499Y-70394317D01*
X224767737Y-70414956D01*
X224621659Y-70475463D01*
X224496217Y-70571717D01*
X224399963Y-70697159D01*
X224339456Y-70843237D01*
X224318817Y-71000000D01*
X224339456Y-71156762D01*
X224406211Y-71317924D01*
X224405717Y-71318128D01*
X224421425Y-71353828D01*
X224417568Y-71412646D01*
X224386989Y-71463038D01*
X219011475Y-76838552D01*
X218997639Y-76848508D01*
X218959523Y-76890318D01*
X218955573Y-76894454D01*
X218942141Y-76907886D01*
X218933087Y-76919317D01*
X218915083Y-76939067D01*
X218912578Y-76945534D01*
X218899259Y-76970802D01*
X218895343Y-76976518D01*
X218889228Y-77002517D01*
X218884151Y-77018913D01*
X218874500Y-77043827D01*
X218874500Y-77050751D01*
X218871206Y-77079140D01*
X218869620Y-77085881D01*
X218869621Y-77085881D01*
X218873311Y-77112332D01*
X218874500Y-77129465D01*
X218874500Y-80762518D01*
X218861712Y-80817362D01*
X218825986Y-80860893D01*
X218803259Y-80878332D01*
X218746717Y-80921718D01*
X218650463Y-81047159D01*
X218589956Y-81193237D01*
X218569317Y-81349999D01*
X218589956Y-81506762D01*
X218650463Y-81652840D01*
X218725372Y-81750464D01*
X218746718Y-81778282D01*
X218817857Y-81832869D01*
X218825986Y-81839106D01*
X218861712Y-81882638D01*
X218874500Y-81937482D01*
X218874500Y-83930757D01*
X218871756Y-83947577D01*
X218874368Y-84004079D01*
X218874500Y-84009805D01*
X218874500Y-84028819D01*
X218876181Y-84043307D01*
X218877415Y-84069993D01*
X218880213Y-84076330D01*
X218888666Y-84103626D01*
X218889938Y-84110434D01*
X218903997Y-84133140D01*
X218912002Y-84148327D01*
X218922792Y-84172763D01*
X218927688Y-84177659D01*
X218945434Y-84200063D01*
X218948555Y-84205103D01*
X218949081Y-84205952D01*
X218970396Y-84222048D01*
X218983351Y-84233322D01*
X219713181Y-84963152D01*
X219740061Y-85003380D01*
X219749500Y-85050833D01*
X219749500Y-95380757D01*
X219746756Y-95397577D01*
X219749368Y-95454079D01*
X219749500Y-95459805D01*
X219749500Y-95478819D01*
X219751181Y-95493307D01*
X219752415Y-95519993D01*
X219755213Y-95526330D01*
X219763666Y-95553626D01*
X219764938Y-95560434D01*
X219778997Y-95583140D01*
X219787002Y-95598327D01*
X219797792Y-95622763D01*
X219802688Y-95627659D01*
X219820434Y-95650063D01*
X219824081Y-95655952D01*
X219838806Y-95667072D01*
X219845396Y-95672048D01*
X219858351Y-95683322D01*
X226863550Y-102688521D01*
X226873507Y-102702358D01*
X226881041Y-102709226D01*
X226881042Y-102709228D01*
X226894429Y-102721432D01*
X226915316Y-102740474D01*
X226919457Y-102744429D01*
X226932885Y-102757857D01*
X226944309Y-102766904D01*
X226946442Y-102768849D01*
X226979348Y-102817832D01*
X226985886Y-102876482D01*
X226964573Y-102931511D01*
X226920238Y-102970458D01*
X226862920Y-102984500D01*
X217274500Y-102984500D01*
X217212500Y-102967887D01*
X217167113Y-102922500D01*
X217150500Y-102860500D01*
X217150500Y-102160500D01*
X217161347Y-83947577D01*
X217174911Y-61174425D01*
X217191548Y-61112457D01*
X217236932Y-61067101D01*
X217298911Y-61050500D01*
X228585288Y-61050500D01*
X228649037Y-61068142D01*
G37*
%TD.AperFunction*%
%TA.AperFunction,Conductor*%
G36*
X245146620Y-63634939D02*
G01*
X245186848Y-63661819D01*
X245688181Y-64163152D01*
X245715061Y-64203380D01*
X245724500Y-64250833D01*
X245724500Y-66232228D01*
X245721756Y-66249048D01*
X245724368Y-66305550D01*
X245724500Y-66311276D01*
X245724500Y-66330290D01*
X245726181Y-66344778D01*
X245727415Y-66371464D01*
X245730213Y-66377801D01*
X245738666Y-66405097D01*
X245739938Y-66411905D01*
X245753997Y-66434611D01*
X245762002Y-66449798D01*
X245772792Y-66474234D01*
X245777688Y-66479130D01*
X245795434Y-66501534D01*
X245795766Y-66502069D01*
X245799081Y-66507423D01*
X245820396Y-66523519D01*
X245833351Y-66534793D01*
X248136396Y-68837838D01*
X248169776Y-68898680D01*
X248165237Y-68967929D01*
X248124202Y-69023894D01*
X247996718Y-69121716D01*
X247900463Y-69247159D01*
X247839956Y-69393237D01*
X247833578Y-69441685D01*
X247812214Y-69496624D01*
X247767896Y-69535489D01*
X247710639Y-69549500D01*
X244855833Y-69549500D01*
X244808380Y-69540061D01*
X244768152Y-69513181D01*
X244641726Y-69386755D01*
X244615328Y-69347674D01*
X244605432Y-69301563D01*
X244609344Y-69278941D01*
X244608325Y-69278818D01*
X244630645Y-69095000D01*
X244622531Y-69028177D01*
X244610140Y-68926128D01*
X244549818Y-68767070D01*
X244490224Y-68680734D01*
X244453184Y-68627072D01*
X244444917Y-68619748D01*
X244369363Y-68552813D01*
X244332488Y-68494499D01*
X244332488Y-68425501D01*
X244369363Y-68367186D01*
X244453183Y-68292929D01*
X244549818Y-68152930D01*
X244610140Y-67993872D01*
X244630645Y-67825000D01*
X244610140Y-67656128D01*
X244549818Y-67497070D01*
X244457951Y-67363978D01*
X244453184Y-67357072D01*
X244453181Y-67357069D01*
X244369363Y-67282813D01*
X244332488Y-67224499D01*
X244332488Y-67155501D01*
X244369363Y-67097186D01*
X244453183Y-67022929D01*
X244549818Y-66882930D01*
X244610140Y-66723872D01*
X244630645Y-66555000D01*
X244610140Y-66386128D01*
X244549818Y-66227070D01*
X244549817Y-66227067D01*
X244543604Y-66218066D01*
X244522381Y-66161023D01*
X244530857Y-66100752D01*
X244566990Y-66051775D01*
X244635527Y-65995527D01*
X244760493Y-65843257D01*
X244853350Y-65669534D01*
X244894160Y-65535001D01*
X244894160Y-65535000D01*
X243799000Y-65535000D01*
X243737000Y-65518387D01*
X243691613Y-65473000D01*
X243675000Y-65411000D01*
X243675000Y-65035000D01*
X244175000Y-65035000D01*
X244894160Y-65035000D01*
X244894160Y-65034998D01*
X244853350Y-64900465D01*
X244760493Y-64726742D01*
X244635527Y-64574472D01*
X244483257Y-64449506D01*
X244309534Y-64356649D01*
X244175001Y-64315839D01*
X244175000Y-64315840D01*
X244175000Y-65035000D01*
X243675000Y-65035000D01*
X243675000Y-64315840D01*
X243674998Y-64315839D01*
X243540465Y-64356649D01*
X243366741Y-64449506D01*
X243236549Y-64556353D01*
X243199658Y-64577251D01*
X243157884Y-64584500D01*
X242135251Y-64584500D01*
X242076769Y-64596132D01*
X242010447Y-64640447D01*
X241966132Y-64706769D01*
X241954500Y-64765251D01*
X241954500Y-65804749D01*
X241966132Y-65863230D01*
X241982636Y-65887930D01*
X242010448Y-65929552D01*
X242059825Y-65962545D01*
X242102420Y-66011363D01*
X242114580Y-66075001D01*
X242092983Y-66136086D01*
X242030182Y-66227069D01*
X241969860Y-66386127D01*
X241949354Y-66555000D01*
X241969860Y-66723872D01*
X242030182Y-66882930D01*
X242126817Y-67022930D01*
X242210634Y-67097185D01*
X242247511Y-67155501D01*
X242247511Y-67224499D01*
X242210634Y-67282815D01*
X242126817Y-67357069D01*
X242030182Y-67497069D01*
X241969860Y-67656127D01*
X241949354Y-67825000D01*
X241969860Y-67993872D01*
X242030182Y-68152930D01*
X242126815Y-68292927D01*
X242126816Y-68292928D01*
X242126817Y-68292929D01*
X242210635Y-68367185D01*
X242247511Y-68425499D01*
X242247511Y-68494497D01*
X242210635Y-68552814D01*
X242126816Y-68627071D01*
X242030182Y-68767069D01*
X241969860Y-68926127D01*
X241949354Y-69095000D01*
X241958473Y-69170097D01*
X241950779Y-69230412D01*
X241915337Y-69279818D01*
X241860669Y-69306436D01*
X241799920Y-69303865D01*
X241747696Y-69272724D01*
X239482022Y-67007051D01*
X239452485Y-66959818D01*
X239446607Y-66904426D01*
X239455645Y-66830000D01*
X239435140Y-66661128D01*
X239374818Y-66502070D01*
X239312581Y-66411905D01*
X239278184Y-66362072D01*
X239258663Y-66344778D01*
X239194363Y-66287813D01*
X239157488Y-66229499D01*
X239157488Y-66160501D01*
X239194363Y-66102186D01*
X239278183Y-66027929D01*
X239374818Y-65887930D01*
X239435140Y-65728872D01*
X239455645Y-65560000D01*
X239435140Y-65391128D01*
X239374818Y-65232070D01*
X239282951Y-65098978D01*
X239278184Y-65092072D01*
X239278183Y-65092071D01*
X239150852Y-64979266D01*
X239136588Y-64971780D01*
X239000224Y-64900209D01*
X238875764Y-64869533D01*
X238835056Y-64859500D01*
X238664944Y-64859500D01*
X238632284Y-64867549D01*
X238499775Y-64900209D01*
X238349149Y-64979265D01*
X238221814Y-65092073D01*
X238217049Y-65098978D01*
X238172625Y-65138334D01*
X238115000Y-65152537D01*
X238057375Y-65138334D01*
X238012951Y-65098978D01*
X238008185Y-65092073D01*
X238008183Y-65092071D01*
X237880852Y-64979266D01*
X237866588Y-64971780D01*
X237730224Y-64900209D01*
X237605764Y-64869533D01*
X237565056Y-64859500D01*
X237394944Y-64859500D01*
X237362284Y-64867549D01*
X237229775Y-64900209D01*
X237079149Y-64979265D01*
X236951815Y-65092072D01*
X236855182Y-65232069D01*
X236794860Y-65391127D01*
X236774354Y-65560000D01*
X236794860Y-65728872D01*
X236855182Y-65887930D01*
X236951817Y-66027930D01*
X237035634Y-66102185D01*
X237072511Y-66160501D01*
X237072511Y-66229499D01*
X237035634Y-66287815D01*
X236951817Y-66362069D01*
X236855182Y-66502069D01*
X236794860Y-66661127D01*
X236774354Y-66830000D01*
X236794860Y-66998872D01*
X236855182Y-67157930D01*
X236951817Y-67297930D01*
X237035634Y-67372185D01*
X237072511Y-67430501D01*
X237072511Y-67499499D01*
X237035634Y-67557815D01*
X236951817Y-67632069D01*
X236855182Y-67772069D01*
X236794860Y-67931127D01*
X236774354Y-68100000D01*
X236794860Y-68268872D01*
X236855182Y-68427930D01*
X236951815Y-68567927D01*
X236951816Y-68567928D01*
X236951817Y-68567929D01*
X237079148Y-68680734D01*
X237229775Y-68759790D01*
X237394944Y-68800500D01*
X237565055Y-68800500D01*
X237565056Y-68800500D01*
X237730225Y-68759790D01*
X237880852Y-68680734D01*
X237888775Y-68673714D01*
X237951725Y-68644038D01*
X238020749Y-68652948D01*
X238074102Y-68697640D01*
X238105447Y-68744552D01*
X238171769Y-68788867D01*
X238230251Y-68800500D01*
X238230252Y-68800500D01*
X239269748Y-68800500D01*
X239269749Y-68800500D01*
X239302838Y-68793918D01*
X239328231Y-68788867D01*
X239394552Y-68744552D01*
X239438867Y-68678231D01*
X239445668Y-68644038D01*
X239450500Y-68619749D01*
X239450500Y-68124833D01*
X239464015Y-68068538D01*
X239501615Y-68024515D01*
X239555102Y-68002360D01*
X239612818Y-68006902D01*
X239662181Y-68037152D01*
X242263550Y-70638521D01*
X242273507Y-70652358D01*
X242281041Y-70659226D01*
X242281042Y-70659228D01*
X242294429Y-70671432D01*
X242315316Y-70690474D01*
X242319457Y-70694429D01*
X242332888Y-70707860D01*
X242344328Y-70716922D01*
X242364065Y-70734915D01*
X242364066Y-70734915D01*
X242364067Y-70734916D01*
X242370340Y-70737346D01*
X242370523Y-70737417D01*
X242395810Y-70750745D01*
X242401519Y-70754656D01*
X242427514Y-70760769D01*
X242443910Y-70765846D01*
X242468827Y-70775500D01*
X242475751Y-70775500D01*
X242504140Y-70778793D01*
X242510881Y-70780379D01*
X242537333Y-70776688D01*
X242554465Y-70775500D01*
X248517287Y-70775500D01*
X248583912Y-70794919D01*
X248629669Y-70847095D01*
X248640226Y-70915685D01*
X248620347Y-71066685D01*
X248598983Y-71121623D01*
X248554665Y-71160489D01*
X248497408Y-71174500D01*
X240375833Y-71174500D01*
X240328380Y-71165061D01*
X240288152Y-71138181D01*
X239983631Y-70833660D01*
X239959064Y-70798671D01*
X239947841Y-70757418D01*
X239946469Y-70742615D01*
X239944035Y-70716340D01*
X239941942Y-70712137D01*
X239918996Y-70666055D01*
X239893958Y-70615772D01*
X239810933Y-70540084D01*
X239706173Y-70499500D01*
X239706171Y-70499500D01*
X239574249Y-70499500D01*
X239545859Y-70496206D01*
X239539119Y-70494621D01*
X239539118Y-70494621D01*
X239527757Y-70496206D01*
X239512666Y-70498311D01*
X239495535Y-70499500D01*
X231295715Y-70499500D01*
X231278894Y-70496756D01*
X231235780Y-70498749D01*
X231222391Y-70499368D01*
X231216667Y-70499500D01*
X231197654Y-70499500D01*
X231183166Y-70501181D01*
X231156476Y-70502415D01*
X231150137Y-70505214D01*
X231122850Y-70513664D01*
X231116039Y-70514937D01*
X231093327Y-70528999D01*
X231078144Y-70537002D01*
X231053705Y-70547793D01*
X231048808Y-70552691D01*
X231026411Y-70570432D01*
X231020518Y-70574081D01*
X231004421Y-70595396D01*
X230993150Y-70608348D01*
X229486475Y-72115023D01*
X229472639Y-72124979D01*
X229434523Y-72166789D01*
X229430573Y-72170925D01*
X229417141Y-72184357D01*
X229408087Y-72195788D01*
X229390083Y-72215538D01*
X229387578Y-72222005D01*
X229374259Y-72247273D01*
X229370343Y-72252989D01*
X229364228Y-72278988D01*
X229359151Y-72295384D01*
X229349500Y-72320298D01*
X229349500Y-72327222D01*
X229346206Y-72355615D01*
X229344621Y-72362352D01*
X229348311Y-72388803D01*
X229349500Y-72405936D01*
X229349500Y-78455757D01*
X229346756Y-78472577D01*
X229349368Y-78529079D01*
X229349500Y-78534805D01*
X229349500Y-78553819D01*
X229351181Y-78568307D01*
X229352415Y-78594993D01*
X229355213Y-78601330D01*
X229363666Y-78628626D01*
X229364938Y-78635434D01*
X229378997Y-78658140D01*
X229387002Y-78673327D01*
X229397792Y-78697763D01*
X229402688Y-78702659D01*
X229420434Y-78725063D01*
X229422144Y-78727824D01*
X229424081Y-78730952D01*
X229445396Y-78747048D01*
X229458351Y-78758322D01*
X229547101Y-78847072D01*
X229576839Y-78894894D01*
X229582359Y-78950938D01*
X229569317Y-79049999D01*
X229589956Y-79206762D01*
X229598773Y-79228048D01*
X229607615Y-79287654D01*
X229587314Y-79344391D01*
X229542665Y-79384858D01*
X229484212Y-79399500D01*
X228719243Y-79399500D01*
X228702421Y-79396756D01*
X228679982Y-79397793D01*
X228629463Y-79389551D01*
X228586577Y-79361606D01*
X228036819Y-78811848D01*
X228009939Y-78771620D01*
X228000500Y-78724167D01*
X228000500Y-77767751D01*
X227988867Y-77709269D01*
X227944552Y-77642947D01*
X227878230Y-77598632D01*
X227819749Y-77587000D01*
X227819748Y-77587000D01*
X227230252Y-77587000D01*
X227230251Y-77587000D01*
X227171769Y-77598632D01*
X227105447Y-77642947D01*
X227061132Y-77709269D01*
X227049500Y-77767751D01*
X227049500Y-78892249D01*
X227061132Y-78950730D01*
X227105447Y-79017052D01*
X227171769Y-79061367D01*
X227230251Y-79073000D01*
X227230252Y-79073000D01*
X227396667Y-79073000D01*
X227444120Y-79082439D01*
X227484348Y-79109319D01*
X228320642Y-79945613D01*
X228338397Y-79969124D01*
X228339810Y-79970297D01*
X228339811Y-79970299D01*
X228367940Y-79993657D01*
X228376392Y-80001363D01*
X228382203Y-80007174D01*
X228387822Y-80011023D01*
X228388977Y-80011814D01*
X228398107Y-80018708D01*
X228426242Y-80042071D01*
X228426243Y-80042071D01*
X228427652Y-80043241D01*
X228449729Y-80054234D01*
X228451516Y-80054654D01*
X228451519Y-80054656D01*
X228487098Y-80063024D01*
X228498100Y-80066155D01*
X228534511Y-80078358D01*
X228559059Y-80080632D01*
X228560877Y-80080378D01*
X228560881Y-80080379D01*
X228597084Y-80075328D01*
X228608480Y-80074272D01*
X228644992Y-80072585D01*
X228644992Y-80072584D01*
X228646826Y-80072500D01*
X228670544Y-80065751D01*
X228672148Y-80064857D01*
X228672151Y-80064857D01*
X228704090Y-80047066D01*
X228714315Y-80041974D01*
X228747765Y-80027206D01*
X228747764Y-80027206D01*
X228761839Y-80020992D01*
X228778377Y-80009941D01*
X228825834Y-80000500D01*
X229450166Y-80000500D01*
X229506461Y-80014015D01*
X229550484Y-80051615D01*
X229572639Y-80105102D01*
X229568097Y-80162818D01*
X229537847Y-80212181D01*
X228064728Y-81685300D01*
X228059827Y-81690200D01*
X228037436Y-81707935D01*
X228031548Y-81711580D01*
X228015453Y-81732893D01*
X228004182Y-81745844D01*
X225427926Y-84322101D01*
X225380104Y-84351839D01*
X225324060Y-84357359D01*
X225224999Y-84344317D01*
X225125938Y-84357359D01*
X225069894Y-84351839D01*
X225022072Y-84322101D01*
X224661450Y-83961479D01*
X224651497Y-83947645D01*
X224627340Y-83925623D01*
X224609681Y-83909524D01*
X224605540Y-83905569D01*
X224592110Y-83892139D01*
X224580678Y-83883083D01*
X224560934Y-83865084D01*
X224554468Y-83862579D01*
X224529192Y-83849256D01*
X224523481Y-83845344D01*
X224523480Y-83845343D01*
X224523478Y-83845342D01*
X224497484Y-83839228D01*
X224481087Y-83834151D01*
X224456173Y-83824500D01*
X224449249Y-83824500D01*
X224420859Y-83821206D01*
X224414119Y-83819621D01*
X224414118Y-83819621D01*
X224402757Y-83821206D01*
X224387666Y-83823311D01*
X224370535Y-83824500D01*
X220925833Y-83824500D01*
X220878380Y-83815061D01*
X220838152Y-83788181D01*
X220411819Y-83361848D01*
X220384939Y-83321620D01*
X220375500Y-83274167D01*
X220375500Y-82884722D01*
X220390142Y-82826269D01*
X220430609Y-82781620D01*
X220487346Y-82761319D01*
X220546951Y-82770160D01*
X220643238Y-82810044D01*
X220719561Y-82820092D01*
X220799999Y-82830682D01*
X220799999Y-82830681D01*
X220800000Y-82830682D01*
X220880437Y-82820092D01*
X220944073Y-82828470D01*
X220994996Y-82867544D01*
X221019560Y-82926845D01*
X221039956Y-83081762D01*
X221100463Y-83227840D01*
X221196717Y-83353282D01*
X221271029Y-83410303D01*
X221322159Y-83449536D01*
X221468238Y-83510044D01*
X221625000Y-83530682D01*
X221781762Y-83510044D01*
X221927841Y-83449536D01*
X222053282Y-83353282D01*
X222149536Y-83227841D01*
X222210044Y-83081762D01*
X222222536Y-82986868D01*
X222240894Y-82936431D01*
X222278850Y-82898476D01*
X222329289Y-82880117D01*
X222481762Y-82860044D01*
X222627841Y-82799536D01*
X222753282Y-82703282D01*
X222849536Y-82577841D01*
X222910044Y-82431762D01*
X222930682Y-82275000D01*
X222910044Y-82118238D01*
X222849536Y-81972159D01*
X222753282Y-81846718D01*
X222674013Y-81785893D01*
X222638288Y-81742362D01*
X222625500Y-81687518D01*
X222625500Y-81357699D01*
X222641494Y-81296783D01*
X222685351Y-81251582D01*
X222745756Y-81233756D01*
X222807126Y-81247902D01*
X222829775Y-81259790D01*
X222994944Y-81300500D01*
X223165055Y-81300500D01*
X223165056Y-81300500D01*
X223330225Y-81259790D01*
X223480852Y-81180734D01*
X223608183Y-81067929D01*
X223612949Y-81061023D01*
X223657373Y-81021666D01*
X223715000Y-81007462D01*
X223772627Y-81021666D01*
X223817051Y-81061024D01*
X223821815Y-81067927D01*
X223821816Y-81067928D01*
X223821817Y-81067929D01*
X223949148Y-81180734D01*
X224099775Y-81259790D01*
X224264944Y-81300500D01*
X224435055Y-81300500D01*
X224435056Y-81300500D01*
X224600225Y-81259790D01*
X224750852Y-81180734D01*
X224878183Y-81067929D01*
X224974818Y-80927930D01*
X225035140Y-80768872D01*
X225055645Y-80600000D01*
X225035140Y-80431128D01*
X224974818Y-80272070D01*
X224882951Y-80138978D01*
X224878184Y-80132072D01*
X224847741Y-80105102D01*
X224794363Y-80057813D01*
X224757488Y-79999499D01*
X224757488Y-79930501D01*
X224794363Y-79872186D01*
X224878183Y-79797929D01*
X224974818Y-79657930D01*
X225035140Y-79498872D01*
X225055645Y-79330000D01*
X225035140Y-79161128D01*
X225035139Y-79161127D01*
X225033325Y-79146182D01*
X225034344Y-79146058D01*
X225030432Y-79123424D01*
X225040330Y-79077319D01*
X225066723Y-79038246D01*
X225413518Y-78691451D01*
X225427353Y-78681498D01*
X225434225Y-78673959D01*
X225434228Y-78673958D01*
X225465488Y-78639666D01*
X225469379Y-78635590D01*
X225482174Y-78622797D01*
X225482178Y-78622790D01*
X225482868Y-78622101D01*
X225491922Y-78610671D01*
X225506216Y-78594992D01*
X225509916Y-78590933D01*
X225512419Y-78584470D01*
X225525743Y-78559191D01*
X225529656Y-78553481D01*
X225535770Y-78527481D01*
X225540846Y-78511089D01*
X225550500Y-78486173D01*
X225550500Y-78479249D01*
X225553794Y-78450856D01*
X225555379Y-78444119D01*
X225551688Y-78417666D01*
X225550500Y-78400535D01*
X225550500Y-76612249D01*
X227049500Y-76612249D01*
X227061132Y-76670730D01*
X227105447Y-76737052D01*
X227171769Y-76781367D01*
X227230251Y-76793000D01*
X227230252Y-76793000D01*
X227819748Y-76793000D01*
X227819749Y-76793000D01*
X227848989Y-76787183D01*
X227878231Y-76781367D01*
X227944552Y-76737052D01*
X227988867Y-76670731D01*
X228000500Y-76612248D01*
X228000500Y-75487752D01*
X227988867Y-75429269D01*
X227982673Y-75419999D01*
X227944552Y-75362947D01*
X227880609Y-75320222D01*
X227840142Y-75275573D01*
X227825500Y-75217120D01*
X227825500Y-73450833D01*
X227834939Y-73403380D01*
X227861819Y-73363152D01*
X228724442Y-72500529D01*
X231322073Y-69902896D01*
X231369894Y-69873160D01*
X231425936Y-69867640D01*
X231525000Y-69880682D01*
X231681762Y-69860044D01*
X231827841Y-69799536D01*
X231953282Y-69703282D01*
X232049536Y-69577841D01*
X232110044Y-69431762D01*
X232130682Y-69275000D01*
X232110044Y-69118238D01*
X232049536Y-68972159D01*
X232045070Y-68966339D01*
X231953282Y-68846717D01*
X231827840Y-68750463D01*
X231681762Y-68689956D01*
X231524999Y-68669317D01*
X231368237Y-68689956D01*
X231222159Y-68750463D01*
X231096717Y-68846717D01*
X231000463Y-68972159D01*
X230939956Y-69118237D01*
X230919317Y-69275000D01*
X230932359Y-69374060D01*
X230926839Y-69430104D01*
X230897101Y-69477926D01*
X227361475Y-73013552D01*
X227347639Y-73023508D01*
X227309523Y-73065318D01*
X227305573Y-73069454D01*
X227292141Y-73082886D01*
X227283087Y-73094317D01*
X227265083Y-73114067D01*
X227262578Y-73120534D01*
X227249259Y-73145802D01*
X227245343Y-73151518D01*
X227239228Y-73177517D01*
X227234151Y-73193913D01*
X227224500Y-73218827D01*
X227224500Y-73225751D01*
X227221206Y-73254144D01*
X227219621Y-73260881D01*
X227223311Y-73287332D01*
X227224500Y-73304465D01*
X227224500Y-75217120D01*
X227209858Y-75275573D01*
X227169391Y-75320222D01*
X227105447Y-75362947D01*
X227061132Y-75429269D01*
X227049500Y-75487751D01*
X227049500Y-76612249D01*
X225550500Y-76612249D01*
X225550500Y-73250833D01*
X225559939Y-73203380D01*
X225586819Y-73163152D01*
X235088152Y-63661819D01*
X235128380Y-63634939D01*
X235175833Y-63625500D01*
X245099167Y-63625500D01*
X245146620Y-63634939D01*
G37*
%TD.AperFunction*%
%TA.AperFunction,Conductor*%
G36*
X243746521Y-74368980D02*
G01*
X243785460Y-74413315D01*
X243799500Y-74470627D01*
X243799500Y-76779188D01*
X243780080Y-76845813D01*
X243727904Y-76891570D01*
X243659314Y-76902126D01*
X243647988Y-76900635D01*
X243599999Y-76894317D01*
X243443237Y-76914956D01*
X243297159Y-76975463D01*
X243171716Y-77071718D01*
X243167285Y-77077494D01*
X243111320Y-77118529D01*
X243042071Y-77123068D01*
X242981229Y-77089688D01*
X242938316Y-77046775D01*
X242829487Y-76996027D01*
X242779902Y-76989500D01*
X242420092Y-76989500D01*
X242410455Y-76990769D01*
X242362599Y-76987714D01*
X242319481Y-76966728D01*
X242300001Y-76944903D01*
X242175379Y-76820281D01*
X242036196Y-76737968D01*
X241890000Y-76695496D01*
X241890000Y-78304504D01*
X242036196Y-78262031D01*
X242175376Y-78179720D01*
X242300008Y-78055087D01*
X242319478Y-78033272D01*
X242362604Y-78012284D01*
X242410462Y-78009231D01*
X242420099Y-78010500D01*
X242779900Y-78010499D01*
X242829487Y-78003972D01*
X242938316Y-77953224D01*
X242981228Y-77910311D01*
X243042071Y-77876931D01*
X243111321Y-77881470D01*
X243167287Y-77922507D01*
X243171719Y-77928283D01*
X243277213Y-78009231D01*
X243297159Y-78024536D01*
X243443238Y-78085044D01*
X243600000Y-78105682D01*
X243756762Y-78085044D01*
X243870998Y-78037726D01*
X243917924Y-78018289D01*
X243918160Y-78018859D01*
X243953534Y-78003292D01*
X244012358Y-78007145D01*
X244062755Y-78037726D01*
X244638181Y-78613152D01*
X244665061Y-78653380D01*
X244674500Y-78700833D01*
X244674500Y-79375500D01*
X244657887Y-79437500D01*
X244612500Y-79482887D01*
X244550500Y-79499500D01*
X243094244Y-79499500D01*
X243077423Y-79496756D01*
X243034309Y-79498749D01*
X243020920Y-79499368D01*
X243015196Y-79499500D01*
X242996183Y-79499500D01*
X242981695Y-79501181D01*
X242955005Y-79502415D01*
X242948666Y-79505214D01*
X242921379Y-79513664D01*
X242914568Y-79514937D01*
X242891856Y-79528999D01*
X242876673Y-79537002D01*
X242852234Y-79547793D01*
X242847337Y-79552691D01*
X242824940Y-79570432D01*
X242819047Y-79574081D01*
X242802950Y-79595396D01*
X242791679Y-79608348D01*
X242211475Y-80188552D01*
X242197639Y-80198508D01*
X242159523Y-80240318D01*
X242155573Y-80244454D01*
X242142141Y-80257886D01*
X242133087Y-80269317D01*
X242115083Y-80289067D01*
X242112578Y-80295534D01*
X242099259Y-80320802D01*
X242095343Y-80326518D01*
X242089228Y-80352517D01*
X242084151Y-80368913D01*
X242074500Y-80393827D01*
X242074500Y-80400751D01*
X242071206Y-80429144D01*
X242069621Y-80435881D01*
X242073311Y-80462332D01*
X242074500Y-80479465D01*
X242074500Y-82300500D01*
X242057887Y-82362500D01*
X242012500Y-82407887D01*
X241950500Y-82424500D01*
X241856236Y-82424500D01*
X241793955Y-82407724D01*
X241748526Y-82361937D01*
X241732240Y-82299526D01*
X241749504Y-82237379D01*
X241762031Y-82216196D01*
X241804504Y-82070000D01*
X240874000Y-82070000D01*
X240812000Y-82053387D01*
X240766613Y-82008000D01*
X240750000Y-81946000D01*
X240750000Y-81041209D01*
X241250000Y-81041209D01*
X241250000Y-81570000D01*
X241804504Y-81570000D01*
X241762031Y-81423803D01*
X241679718Y-81284620D01*
X241565379Y-81170281D01*
X241426194Y-81087967D01*
X241270917Y-81042855D01*
X241250000Y-81041209D01*
X240750000Y-81041209D01*
X240729084Y-81042854D01*
X240573805Y-81087967D01*
X240434620Y-81170281D01*
X240320281Y-81284620D01*
X240237967Y-81423806D01*
X240199312Y-81556856D01*
X240166808Y-81611038D01*
X240111827Y-81642169D01*
X240048644Y-81642169D01*
X239993663Y-81611036D01*
X239961159Y-81556855D01*
X239937030Y-81473802D01*
X239854718Y-81334620D01*
X239740379Y-81220281D01*
X239601194Y-81137967D01*
X239445917Y-81092855D01*
X239425000Y-81091209D01*
X239425000Y-81996000D01*
X239408387Y-82058000D01*
X239363000Y-82103387D01*
X239301000Y-82120000D01*
X238370496Y-82120000D01*
X238412968Y-82266196D01*
X238495281Y-82405379D01*
X238619901Y-82529999D01*
X238641726Y-82549477D01*
X238662714Y-82592600D01*
X238665768Y-82640462D01*
X238664500Y-82650094D01*
X238664500Y-83009897D01*
X238671028Y-83059488D01*
X238721776Y-83168317D01*
X238806683Y-83253224D01*
X238915512Y-83303972D01*
X238923029Y-83304961D01*
X238965099Y-83310500D01*
X239170999Y-83310499D01*
X239233000Y-83327112D01*
X239278387Y-83372499D01*
X239295000Y-83434499D01*
X239295000Y-84037518D01*
X239282212Y-84092362D01*
X239246486Y-84135894D01*
X239167217Y-84196717D01*
X239106394Y-84275986D01*
X239062862Y-84311712D01*
X239008018Y-84324500D01*
X238050833Y-84324500D01*
X238003380Y-84315061D01*
X237963152Y-84288181D01*
X235448950Y-81773979D01*
X235438997Y-81760145D01*
X235397181Y-81722024D01*
X235393040Y-81718069D01*
X235379610Y-81704639D01*
X235368178Y-81695583D01*
X235348434Y-81677584D01*
X235341968Y-81675079D01*
X235316692Y-81661756D01*
X235310981Y-81657844D01*
X235310980Y-81657843D01*
X235310978Y-81657842D01*
X235284984Y-81651728D01*
X235268587Y-81646651D01*
X235243673Y-81637000D01*
X235236749Y-81637000D01*
X235208359Y-81633706D01*
X235201619Y-81632121D01*
X235201618Y-81632121D01*
X235190257Y-81633706D01*
X235175166Y-81635811D01*
X235158035Y-81637000D01*
X229262333Y-81637000D01*
X229206038Y-81623485D01*
X229201958Y-81620000D01*
X238370496Y-81620000D01*
X238925000Y-81620000D01*
X238925000Y-81091209D01*
X238904084Y-81092854D01*
X238748805Y-81137967D01*
X238609620Y-81220281D01*
X238495281Y-81334620D01*
X238412968Y-81473803D01*
X238370496Y-81620000D01*
X229201958Y-81620000D01*
X229162015Y-81585885D01*
X229139860Y-81532398D01*
X229144402Y-81474682D01*
X229174652Y-81425319D01*
X229963152Y-80636819D01*
X230003380Y-80609939D01*
X230050833Y-80600500D01*
X230060980Y-80600500D01*
X230119433Y-80615142D01*
X230164082Y-80655609D01*
X230209747Y-80723952D01*
X230276069Y-80768267D01*
X230334551Y-80779900D01*
X230334552Y-80779900D01*
X231079648Y-80779900D01*
X231079649Y-80779900D01*
X231099142Y-80776022D01*
X231138131Y-80768267D01*
X231156111Y-80756252D01*
X231200808Y-80737739D01*
X231249192Y-80737739D01*
X231293888Y-80756252D01*
X231311869Y-80768267D01*
X231314911Y-80768872D01*
X231370351Y-80779900D01*
X231370352Y-80779900D01*
X232115448Y-80779900D01*
X232115449Y-80779900D01*
X232130068Y-80776991D01*
X232173931Y-80768267D01*
X232193539Y-80755164D01*
X232240893Y-80736152D01*
X232291899Y-80737821D01*
X232337913Y-80759892D01*
X232422159Y-80824536D01*
X232568238Y-80885044D01*
X232725000Y-80905682D01*
X232881762Y-80885044D01*
X233027841Y-80824536D01*
X233124093Y-80750678D01*
X233153281Y-80728283D01*
X233154884Y-80726194D01*
X233166396Y-80711190D01*
X233222362Y-80670154D01*
X233291611Y-80665615D01*
X233352454Y-80698995D01*
X233406683Y-80753224D01*
X233515512Y-80803972D01*
X233523029Y-80804961D01*
X233565099Y-80810500D01*
X233924900Y-80810499D01*
X233934536Y-80809230D01*
X233982391Y-80812282D01*
X234025515Y-80833268D01*
X234044997Y-80855095D01*
X234169620Y-80979718D01*
X234308803Y-81062031D01*
X234455000Y-81104504D01*
X234455000Y-80550000D01*
X234955000Y-80550000D01*
X234955000Y-81104504D01*
X235101196Y-81062031D01*
X235240379Y-80979718D01*
X235354718Y-80865379D01*
X235437032Y-80726194D01*
X235482144Y-80570917D01*
X235483790Y-80550000D01*
X234955000Y-80550000D01*
X234455000Y-80550000D01*
X234455000Y-79495496D01*
X234955000Y-79495496D01*
X234955000Y-80050000D01*
X235483790Y-80050000D01*
X235482145Y-80029084D01*
X235437032Y-79873805D01*
X235354718Y-79734620D01*
X235240379Y-79620281D01*
X235101196Y-79537968D01*
X234955000Y-79495496D01*
X234455000Y-79495496D01*
X234308803Y-79537968D01*
X234169623Y-79620279D01*
X234044988Y-79744915D01*
X234025512Y-79766734D01*
X233982393Y-79787716D01*
X233934536Y-79790768D01*
X233924903Y-79789500D01*
X233565102Y-79789500D01*
X233515511Y-79796028D01*
X233406684Y-79846775D01*
X233352454Y-79901005D01*
X233291626Y-79934381D01*
X233222390Y-79929855D01*
X233166425Y-79888845D01*
X233165224Y-79887281D01*
X233141461Y-79833321D01*
X233145307Y-79774486D01*
X233175889Y-79724080D01*
X234033518Y-78866451D01*
X234047354Y-78856498D01*
X234085466Y-78814691D01*
X234089427Y-78810543D01*
X234102862Y-78797109D01*
X234111922Y-78785671D01*
X234114744Y-78782575D01*
X234129916Y-78765933D01*
X234132415Y-78759479D01*
X234145743Y-78734192D01*
X234149657Y-78728481D01*
X234150672Y-78724167D01*
X234155773Y-78702479D01*
X234160853Y-78686073D01*
X234161446Y-78684544D01*
X234166469Y-78671575D01*
X234196009Y-78627124D01*
X234241497Y-78599206D01*
X234294507Y-78592995D01*
X234345217Y-78609640D01*
X234433805Y-78662031D01*
X234580000Y-78704504D01*
X234580000Y-78150000D01*
X235080000Y-78150000D01*
X235080000Y-78704504D01*
X235226196Y-78662031D01*
X235365379Y-78579718D01*
X235479718Y-78465379D01*
X235562032Y-78326194D01*
X235607144Y-78170917D01*
X235608790Y-78150000D01*
X235080000Y-78150000D01*
X234580000Y-78150000D01*
X234580000Y-77095496D01*
X235080000Y-77095496D01*
X235080000Y-77650000D01*
X235608790Y-77650000D01*
X235607145Y-77629084D01*
X235562032Y-77473805D01*
X235479718Y-77334620D01*
X235365379Y-77220281D01*
X235226196Y-77137968D01*
X235080000Y-77095496D01*
X234580000Y-77095496D01*
X234520811Y-77112691D01*
X234456133Y-77113909D01*
X234399643Y-77082389D01*
X234366715Y-77026707D01*
X234366310Y-76962019D01*
X234398539Y-76905930D01*
X234398539Y-76905929D01*
X234399065Y-76905404D01*
X234449068Y-76798173D01*
X234455500Y-76749316D01*
X234455500Y-76300684D01*
X234449068Y-76251827D01*
X234399065Y-76144596D01*
X234399064Y-76144595D01*
X234399064Y-76144594D01*
X234369611Y-76115141D01*
X234337687Y-76060180D01*
X234337188Y-75996621D01*
X234368245Y-75941166D01*
X234422699Y-75908383D01*
X234496196Y-75887031D01*
X234635379Y-75804718D01*
X234749718Y-75690379D01*
X234832030Y-75551196D01*
X234839641Y-75524999D01*
X234830988Y-75513475D01*
X234812000Y-75508387D01*
X234766613Y-75463000D01*
X234750000Y-75401000D01*
X234750000Y-74579000D01*
X234766613Y-74517000D01*
X234812000Y-74471613D01*
X234874000Y-74455000D01*
X235126000Y-74455000D01*
X235188000Y-74471613D01*
X235233387Y-74517000D01*
X235250000Y-74579000D01*
X235250000Y-75483790D01*
X235270915Y-75482145D01*
X235426194Y-75437032D01*
X235565376Y-75354720D01*
X235684881Y-75235215D01*
X235740469Y-75203121D01*
X235804656Y-75203121D01*
X235860244Y-75235215D01*
X238388550Y-77763521D01*
X238398507Y-77777358D01*
X238406041Y-77784226D01*
X238406042Y-77784228D01*
X238419429Y-77796432D01*
X238440316Y-77815474D01*
X238444457Y-77819429D01*
X238457887Y-77832859D01*
X238469322Y-77841916D01*
X238489067Y-77859916D01*
X238495521Y-77862416D01*
X238520805Y-77875743D01*
X238526519Y-77879657D01*
X238552525Y-77885773D01*
X238568917Y-77890849D01*
X238593827Y-77900500D01*
X238600752Y-77900500D01*
X238629142Y-77903794D01*
X238635881Y-77905379D01*
X238662332Y-77901689D01*
X238679464Y-77900500D01*
X239880757Y-77900500D01*
X239897577Y-77903243D01*
X239907762Y-77902772D01*
X239907765Y-77902773D01*
X239954080Y-77900631D01*
X239959805Y-77900500D01*
X239978824Y-77900500D01*
X239993318Y-77898817D01*
X240019992Y-77897585D01*
X240026330Y-77894786D01*
X240053633Y-77886332D01*
X240060433Y-77885061D01*
X240083143Y-77870998D01*
X240098325Y-77862996D01*
X240122765Y-77852206D01*
X240127659Y-77847311D01*
X240150063Y-77829564D01*
X240155952Y-77825919D01*
X240172053Y-77804595D01*
X240183313Y-77791656D01*
X240224969Y-77750000D01*
X240861210Y-77750000D01*
X240862854Y-77770915D01*
X240907967Y-77926194D01*
X240990281Y-78065379D01*
X241104620Y-78179718D01*
X241243803Y-78262031D01*
X241390000Y-78304504D01*
X241390000Y-77750000D01*
X240861210Y-77750000D01*
X240224969Y-77750000D01*
X240704575Y-77270394D01*
X240761729Y-77237893D01*
X240827470Y-77239184D01*
X240844863Y-77250000D01*
X241390000Y-77250000D01*
X241390000Y-76636331D01*
X241399439Y-76588878D01*
X241426316Y-76548653D01*
X243488518Y-74486451D01*
X243502353Y-74476498D01*
X243509225Y-74468959D01*
X243509228Y-74468958D01*
X243540488Y-74434666D01*
X243544379Y-74430590D01*
X243557174Y-74417797D01*
X243557178Y-74417790D01*
X243557867Y-74417102D01*
X243566918Y-74405675D01*
X243583865Y-74387085D01*
X243632854Y-74354191D01*
X243691499Y-74347663D01*
X243746521Y-74368980D01*
G37*
%TD.AperFunction*%
%TA.AperFunction,Conductor*%
G36*
X239296620Y-71734939D02*
G01*
X239336848Y-71761819D01*
X239772101Y-72197072D01*
X239801839Y-72244894D01*
X239807359Y-72300938D01*
X239794317Y-72399999D01*
X239814956Y-72556762D01*
X239877121Y-72706844D01*
X239892919Y-72736400D01*
X239899500Y-72776258D01*
X239899500Y-73261156D01*
X239880080Y-73327782D01*
X239844290Y-73359168D01*
X239746775Y-73456683D01*
X239696027Y-73565512D01*
X239689500Y-73615097D01*
X239689500Y-73974896D01*
X239689501Y-73974900D01*
X239690768Y-73984529D01*
X239690770Y-73984538D01*
X239687716Y-74032395D01*
X239666732Y-74075516D01*
X239644910Y-74094993D01*
X239520279Y-74219623D01*
X239437968Y-74358803D01*
X239395496Y-74505000D01*
X241004504Y-74505000D01*
X240962031Y-74358803D01*
X240879718Y-74219620D01*
X240755096Y-74094998D01*
X240733270Y-74075518D01*
X240712283Y-74032393D01*
X240709232Y-73984529D01*
X240709680Y-73981127D01*
X240710500Y-73974901D01*
X240710499Y-73615100D01*
X240703972Y-73565513D01*
X240653224Y-73456684D01*
X240653223Y-73456683D01*
X240653223Y-73456682D01*
X240555709Y-73359168D01*
X240519920Y-73327782D01*
X240500500Y-73261156D01*
X240500500Y-73091202D01*
X240509939Y-73043749D01*
X240536819Y-73003520D01*
X240577047Y-72976641D01*
X240702841Y-72924536D01*
X240828282Y-72828282D01*
X240924536Y-72702841D01*
X240985044Y-72556762D01*
X240994713Y-72483313D01*
X241016077Y-72428377D01*
X241060395Y-72389511D01*
X241117652Y-72375500D01*
X242950045Y-72375500D01*
X243009213Y-72390527D01*
X243054040Y-72431965D01*
X243073663Y-72489771D01*
X243063325Y-72549935D01*
X243025531Y-72597876D01*
X242896717Y-72696717D01*
X242800463Y-72822159D01*
X242739956Y-72968237D01*
X242719317Y-73125000D01*
X242739956Y-73281762D01*
X242800463Y-73427840D01*
X242850499Y-73493049D01*
X242896718Y-73553282D01*
X242937402Y-73584500D01*
X242975986Y-73614106D01*
X243011712Y-73657638D01*
X243024500Y-73712482D01*
X243024500Y-74049167D01*
X243015061Y-74096620D01*
X242988181Y-74136848D01*
X239861848Y-77263181D01*
X239821620Y-77290061D01*
X239774167Y-77299500D01*
X238825833Y-77299500D01*
X238778380Y-77290061D01*
X238738152Y-77263181D01*
X236479971Y-75005000D01*
X239395496Y-75005000D01*
X239437968Y-75151196D01*
X239520281Y-75290379D01*
X239634620Y-75404718D01*
X239773805Y-75487032D01*
X239929082Y-75532144D01*
X239949999Y-75533790D01*
X239950000Y-75533790D01*
X239950000Y-75005000D01*
X240450000Y-75005000D01*
X240450000Y-75533790D01*
X240470915Y-75532145D01*
X240626194Y-75487032D01*
X240765379Y-75404718D01*
X240879718Y-75290379D01*
X240962031Y-75151196D01*
X241004504Y-75005000D01*
X240450000Y-75005000D01*
X239950000Y-75005000D01*
X239395496Y-75005000D01*
X236479971Y-75005000D01*
X236332319Y-74857348D01*
X236305439Y-74817120D01*
X236296000Y-74769667D01*
X236296000Y-73462482D01*
X236308788Y-73407638D01*
X236344514Y-73364106D01*
X236423782Y-73303282D01*
X236520036Y-73177841D01*
X236580544Y-73031762D01*
X236601182Y-72875000D01*
X236580544Y-72718238D01*
X236520036Y-72572159D01*
X236512368Y-72562166D01*
X236423782Y-72446717D01*
X236298340Y-72350463D01*
X236152262Y-72289956D01*
X235995500Y-72269317D01*
X235838737Y-72289956D01*
X235692661Y-72350462D01*
X235662664Y-72373480D01*
X235603362Y-72398042D01*
X235539725Y-72389664D01*
X235488802Y-72350589D01*
X235428282Y-72271717D01*
X235302840Y-72175463D01*
X235156762Y-72114956D01*
X235000000Y-72094317D01*
X234843239Y-72114955D01*
X234832587Y-72119367D01*
X234822450Y-72123566D01*
X234762846Y-72132408D01*
X234706109Y-72112107D01*
X234665642Y-72067458D01*
X234651000Y-72009005D01*
X234651000Y-71970251D01*
X234635981Y-71894748D01*
X234623043Y-71855583D01*
X234637536Y-71791046D01*
X234683146Y-71743141D01*
X234746894Y-71725500D01*
X239249167Y-71725500D01*
X239296620Y-71734939D01*
G37*
%TD.AperFunction*%
%TA.AperFunction,Conductor*%
G36*
X232547885Y-73050015D02*
G01*
X232585485Y-73094038D01*
X232599000Y-73150333D01*
X232599000Y-73279749D01*
X232610632Y-73338230D01*
X232654947Y-73404552D01*
X232721269Y-73448867D01*
X232779751Y-73460500D01*
X232779752Y-73460500D01*
X233454248Y-73460500D01*
X233454249Y-73460500D01*
X233473742Y-73456622D01*
X233512731Y-73448867D01*
X233556111Y-73419880D01*
X233600808Y-73401367D01*
X233649192Y-73401367D01*
X233693888Y-73419880D01*
X233737269Y-73448867D01*
X233747153Y-73450833D01*
X233795751Y-73460500D01*
X234365500Y-73460500D01*
X234427500Y-73477113D01*
X234472887Y-73522500D01*
X234489500Y-73584500D01*
X234489500Y-73924896D01*
X234490770Y-73934538D01*
X234487716Y-73982395D01*
X234466732Y-74025516D01*
X234444910Y-74044993D01*
X234320281Y-74169621D01*
X234257959Y-74275000D01*
X234263725Y-74285108D01*
X234288000Y-74291613D01*
X234333387Y-74337000D01*
X234350000Y-74399000D01*
X234350000Y-75251000D01*
X234333387Y-75313000D01*
X234288000Y-75358387D01*
X234226000Y-75375000D01*
X233974000Y-75375000D01*
X233912000Y-75358387D01*
X233866613Y-75313000D01*
X233850000Y-75251000D01*
X233850000Y-74320496D01*
X233703803Y-74362968D01*
X233564623Y-74445279D01*
X233439988Y-74569915D01*
X233420512Y-74591734D01*
X233377393Y-74612716D01*
X233329536Y-74615768D01*
X233319903Y-74614500D01*
X232960102Y-74614500D01*
X232910511Y-74621028D01*
X232801684Y-74671775D01*
X232755982Y-74717477D01*
X232716776Y-74756684D01*
X232716775Y-74756685D01*
X232710280Y-74763181D01*
X232670051Y-74790061D01*
X232622598Y-74799500D01*
X232487482Y-74799500D01*
X232432638Y-74786712D01*
X232389106Y-74750986D01*
X232388732Y-74750499D01*
X232371645Y-74728230D01*
X232328282Y-74671717D01*
X232262221Y-74621028D01*
X232249013Y-74610893D01*
X232213288Y-74567362D01*
X232200500Y-74512518D01*
X232200500Y-73300833D01*
X232209939Y-73253380D01*
X232236819Y-73213152D01*
X232387319Y-73062652D01*
X232436682Y-73032402D01*
X232494398Y-73027860D01*
X232547885Y-73050015D01*
G37*
%TD.AperFunction*%
%TD*%
M02*
