%TF.GenerationSoftware,KiCad,Pcbnew,7.0.1*%
%TF.CreationDate,2023-05-03T15:55:27+02:00*%
%TF.ProjectId,board,626f6172-642e-46b6-9963-61645f706362,rev?*%
%TF.SameCoordinates,Original*%
%TF.FileFunction,Soldermask,Bot*%
%TF.FilePolarity,Negative*%
%FSLAX46Y46*%
G04 Gerber Fmt 4.6, Leading zero omitted, Abs format (unit mm)*
G04 Created by KiCad (PCBNEW 7.0.1) date 2023-05-03 15:55:27*
%MOMM*%
%LPD*%
G01*
G04 APERTURE LIST*
G04 Aperture macros list*
%AMRoundRect*
0 Rectangle with rounded corners*
0 $1 Rounding radius*
0 $2 $3 $4 $5 $6 $7 $8 $9 X,Y pos of 4 corners*
0 Add a 4 corners polygon primitive as box body*
4,1,4,$2,$3,$4,$5,$6,$7,$8,$9,$2,$3,0*
0 Add four circle primitives for the rounded corners*
1,1,$1+$1,$2,$3*
1,1,$1+$1,$4,$5*
1,1,$1+$1,$6,$7*
1,1,$1+$1,$8,$9*
0 Add four rect primitives between the rounded corners*
20,1,$1+$1,$2,$3,$4,$5,0*
20,1,$1+$1,$4,$5,$6,$7,0*
20,1,$1+$1,$6,$7,$8,$9,0*
20,1,$1+$1,$8,$9,$2,$3,0*%
G04 Aperture macros list end*
%ADD10R,1.000000X1.000000*%
%ADD11O,1.000000X1.000000*%
%ADD12RoundRect,0.140000X-0.140000X-0.170000X0.140000X-0.170000X0.140000X0.170000X-0.140000X0.170000X0*%
%ADD13RoundRect,0.140000X-0.170000X0.140000X-0.170000X-0.140000X0.170000X-0.140000X0.170000X0.140000X0*%
%ADD14RoundRect,0.135000X0.135000X0.185000X-0.135000X0.185000X-0.135000X-0.185000X0.135000X-0.185000X0*%
%ADD15RoundRect,0.140000X0.170000X-0.140000X0.170000X0.140000X-0.170000X0.140000X-0.170000X-0.140000X0*%
%ADD16R,0.705600X0.558800*%
%ADD17R,0.550000X1.085000*%
%ADD18RoundRect,0.140000X0.140000X0.170000X-0.140000X0.170000X-0.140000X-0.170000X0.140000X-0.170000X0*%
%ADD19R,0.635000X1.270000*%
G04 APERTURE END LIST*
D10*
%TO.C,J8*%
X238750000Y-68100000D03*
D11*
X237480000Y-68100000D03*
X238750000Y-66830000D03*
X237480000Y-66830000D03*
X238750000Y-65560000D03*
X237480000Y-65560000D03*
%TD*%
D10*
%TO.C,J9*%
X253175000Y-74150000D03*
D11*
X254445000Y-74150000D03*
X253175000Y-75420000D03*
X254445000Y-75420000D03*
X253175000Y-76690000D03*
X254445000Y-76690000D03*
X253175000Y-77960000D03*
X254445000Y-77960000D03*
%TD*%
D10*
%TO.C,J6*%
X223080000Y-76790000D03*
D11*
X224350000Y-76790000D03*
X223080000Y-78060000D03*
X224350000Y-78060000D03*
X223080000Y-79330000D03*
X224350000Y-79330000D03*
X223080000Y-80600000D03*
X224350000Y-80600000D03*
%TD*%
D10*
%TO.C,J10*%
X242655000Y-65285000D03*
D11*
X243925000Y-65285000D03*
X242655000Y-66555000D03*
X243925000Y-66555000D03*
X242655000Y-67825000D03*
X243925000Y-67825000D03*
X242655000Y-69095000D03*
X243925000Y-69095000D03*
%TD*%
D10*
%TO.C,J5*%
X235330000Y-96135000D03*
D11*
X236600000Y-96135000D03*
X235330000Y-97405000D03*
X236600000Y-97405000D03*
X235330000Y-98675000D03*
X236600000Y-98675000D03*
X235330000Y-99945000D03*
X236600000Y-99945000D03*
%TD*%
D10*
%TO.C,J7*%
X240375000Y-91200000D03*
D11*
X241645000Y-91200000D03*
X240375000Y-92470000D03*
X241645000Y-92470000D03*
X240375000Y-93740000D03*
X241645000Y-93740000D03*
X240375000Y-95010000D03*
X241645000Y-95010000D03*
%TD*%
D12*
%TO.C,C16*%
X233140000Y-75125000D03*
X234100000Y-75125000D03*
%TD*%
D13*
%TO.C,C14*%
X240925000Y-84970000D03*
X240925000Y-85930000D03*
%TD*%
D14*
%TO.C,R1*%
X233985000Y-76525000D03*
X232965000Y-76525000D03*
%TD*%
D13*
%TO.C,C10*%
X239175000Y-81870000D03*
X239175000Y-82830000D03*
%TD*%
D12*
%TO.C,C17*%
X233745000Y-80300000D03*
X234705000Y-80300000D03*
%TD*%
D15*
%TO.C,C15*%
X241000000Y-82780000D03*
X241000000Y-81820000D03*
%TD*%
D16*
%TO.C,L1*%
X230707100Y-80300000D03*
X231742900Y-80300000D03*
%TD*%
D13*
%TO.C,C12*%
X240200000Y-73795000D03*
X240200000Y-74755000D03*
%TD*%
%TO.C,C13*%
X235000000Y-73745000D03*
X235000000Y-74705000D03*
%TD*%
D17*
%TO.C,D2*%
X227525000Y-78330000D03*
X227525000Y-76050000D03*
%TD*%
D18*
%TO.C,C6*%
X234830000Y-77900000D03*
X233870000Y-77900000D03*
%TD*%
D19*
%TO.C,SJ4*%
X234133000Y-72625000D03*
X233117000Y-72625000D03*
%TD*%
D12*
%TO.C,C8*%
X241640000Y-77500000D03*
X242600000Y-77500000D03*
%TD*%
M02*
