%TF.GenerationSoftware,KiCad,Pcbnew,7.0.1*%
%TF.CreationDate,2023-05-03T15:55:27+02:00*%
%TF.ProjectId,board,626f6172-642e-46b6-9963-61645f706362,rev?*%
%TF.SameCoordinates,Original*%
%TF.FileFunction,Paste,Top*%
%TF.FilePolarity,Positive*%
%FSLAX46Y46*%
G04 Gerber Fmt 4.6, Leading zero omitted, Abs format (unit mm)*
G04 Created by KiCad (PCBNEW 7.0.1) date 2023-05-03 15:55:27*
%MOMM*%
%LPD*%
G01*
G04 APERTURE LIST*
G04 Aperture macros list*
%AMRoundRect*
0 Rectangle with rounded corners*
0 $1 Rounding radius*
0 $2 $3 $4 $5 $6 $7 $8 $9 X,Y pos of 4 corners*
0 Add a 4 corners polygon primitive as box body*
4,1,4,$2,$3,$4,$5,$6,$7,$8,$9,$2,$3,0*
0 Add four circle primitives for the rounded corners*
1,1,$1+$1,$2,$3*
1,1,$1+$1,$4,$5*
1,1,$1+$1,$6,$7*
1,1,$1+$1,$8,$9*
0 Add four rect primitives between the rounded corners*
20,1,$1+$1,$2,$3,$4,$5,0*
20,1,$1+$1,$4,$5,$6,$7,0*
20,1,$1+$1,$6,$7,$8,$9,0*
20,1,$1+$1,$8,$9,$2,$3,0*%
G04 Aperture macros list end*
%ADD10C,0.000100*%
%ADD11C,0.010000*%
%ADD12RoundRect,0.140000X-0.170000X0.140000X-0.170000X-0.140000X0.170000X-0.140000X0.170000X0.140000X0*%
%ADD13R,1.500000X0.800000*%
%ADD14R,0.300000X1.300000*%
%ADD15R,1.800000X2.200000*%
%ADD16RoundRect,0.140000X-0.140000X-0.170000X0.140000X-0.170000X0.140000X0.170000X-0.140000X0.170000X0*%
%ADD17RoundRect,0.140000X0.170000X-0.140000X0.170000X0.140000X-0.170000X0.140000X-0.170000X-0.140000X0*%
%ADD18RoundRect,0.147500X0.147500X0.172500X-0.147500X0.172500X-0.147500X-0.172500X0.147500X-0.172500X0*%
%ADD19RoundRect,0.140000X0.140000X0.170000X-0.140000X0.170000X-0.140000X-0.170000X0.140000X-0.170000X0*%
%ADD20RoundRect,0.135000X0.185000X-0.135000X0.185000X0.135000X-0.185000X0.135000X-0.185000X-0.135000X0*%
%ADD21R,0.300000X0.800000*%
%ADD22R,1.300000X3.049999*%
%ADD23R,1.600000X1.000000*%
%ADD24R,0.950000X0.850000*%
%ADD25RoundRect,0.135000X0.135000X0.185000X-0.135000X0.185000X-0.135000X-0.185000X0.135000X-0.185000X0*%
%ADD26R,0.950000X0.350000*%
%ADD27R,1.650000X0.750000*%
%ADD28R,0.970000X0.220000*%
%ADD29R,0.220000X0.970000*%
%ADD30RoundRect,0.147500X-0.147500X-0.172500X0.147500X-0.172500X0.147500X0.172500X-0.147500X0.172500X0*%
%ADD31R,0.812800X1.498600*%
%ADD32R,1.803400X1.397000*%
%ADD33R,1.397000X1.905000*%
G04 APERTURE END LIST*
%TO.C,J2*%
G36*
X241300000Y-100550000D02*
G01*
X240200000Y-100550000D01*
X240200000Y-98350000D01*
X241300000Y-98350000D01*
X241300000Y-100550000D01*
G37*
G36*
X250000000Y-100550000D02*
G01*
X248900000Y-100550000D01*
X248900000Y-98350000D01*
X250000000Y-98350000D01*
X250000000Y-100550000D01*
G37*
%TO.C,SW1*%
D10*
X234000000Y-62325000D02*
X233200000Y-62325000D01*
X233200000Y-62125000D01*
X233725000Y-62125000D01*
X233725000Y-61400000D01*
X233200000Y-61400000D01*
X233200000Y-61325000D01*
X234000000Y-61325000D01*
X234000000Y-62325000D01*
G36*
X234000000Y-62325000D02*
G01*
X233200000Y-62325000D01*
X233200000Y-62125000D01*
X233725000Y-62125000D01*
X233725000Y-61400000D01*
X233200000Y-61400000D01*
X233200000Y-61325000D01*
X234000000Y-61325000D01*
X234000000Y-62325000D01*
G37*
X233200000Y-61400000D02*
X232925000Y-61400000D01*
X232925000Y-62125000D01*
X233200000Y-62125000D01*
X233200000Y-62325000D01*
X232400000Y-62325000D01*
X232400000Y-61325000D01*
X233200000Y-61325000D01*
X233200000Y-61400000D01*
G36*
X233200000Y-61400000D02*
G01*
X232925000Y-61400000D01*
X232925000Y-62125000D01*
X233200000Y-62125000D01*
X233200000Y-62325000D01*
X232400000Y-62325000D01*
X232400000Y-61325000D01*
X233200000Y-61325000D01*
X233200000Y-61400000D01*
G37*
X230200000Y-62325000D02*
X229400000Y-62325000D01*
X229400000Y-62125000D01*
X229675000Y-62125000D01*
X229675000Y-61400000D01*
X229400000Y-61400000D01*
X229400000Y-61325000D01*
X230200000Y-61325000D01*
X230200000Y-62325000D01*
G36*
X230200000Y-62325000D02*
G01*
X229400000Y-62325000D01*
X229400000Y-62125000D01*
X229675000Y-62125000D01*
X229675000Y-61400000D01*
X229400000Y-61400000D01*
X229400000Y-61325000D01*
X230200000Y-61325000D01*
X230200000Y-62325000D01*
G37*
X229400000Y-61400000D02*
X228875000Y-61400000D01*
X228875000Y-62125000D01*
X229400000Y-62125000D01*
X229400000Y-62325000D01*
X228600000Y-62325000D01*
X228600000Y-61325000D01*
X229400000Y-61325000D01*
X229400000Y-61400000D01*
G36*
X229400000Y-61400000D02*
G01*
X228875000Y-61400000D01*
X228875000Y-62125000D01*
X229400000Y-62125000D01*
X229400000Y-62325000D01*
X228600000Y-62325000D01*
X228600000Y-61325000D01*
X229400000Y-61325000D01*
X229400000Y-61400000D01*
G37*
X233725000Y-62125000D02*
X233330000Y-62125000D01*
X233330000Y-62050000D01*
X233347000Y-62050000D01*
X233363000Y-62048000D01*
X233380000Y-62046000D01*
X233397000Y-62043000D01*
X233413000Y-62039000D01*
X233429000Y-62034000D01*
X233445000Y-62029000D01*
X233460000Y-62022000D01*
X233475000Y-62015000D01*
X233490000Y-62007000D01*
X233504000Y-61998000D01*
X233518000Y-61989000D01*
X233531000Y-61979000D01*
X233544000Y-61968000D01*
X233556000Y-61956000D01*
X233568000Y-61944000D01*
X233579000Y-61931000D01*
X233589000Y-61918000D01*
X233598000Y-61904000D01*
X233607000Y-61890000D01*
X233615000Y-61875000D01*
X233622000Y-61860000D01*
X233629000Y-61845000D01*
X233634000Y-61829000D01*
X233639000Y-61813000D01*
X233643000Y-61797000D01*
X233646000Y-61780000D01*
X233648000Y-61763000D01*
X233650000Y-61747000D01*
X233650000Y-61730000D01*
X233650000Y-61720000D01*
X233650000Y-61703000D01*
X233648000Y-61687000D01*
X233646000Y-61670000D01*
X233643000Y-61653000D01*
X233639000Y-61637000D01*
X233634000Y-61621000D01*
X233629000Y-61605000D01*
X233622000Y-61590000D01*
X233615000Y-61575000D01*
X233607000Y-61560000D01*
X233598000Y-61546000D01*
X233589000Y-61532000D01*
X233579000Y-61519000D01*
X233568000Y-61506000D01*
X233556000Y-61494000D01*
X233544000Y-61482000D01*
X233531000Y-61471000D01*
X233518000Y-61461000D01*
X233504000Y-61452000D01*
X233490000Y-61443000D01*
X233475000Y-61435000D01*
X233460000Y-61428000D01*
X233445000Y-61421000D01*
X233429000Y-61416000D01*
X233413000Y-61411000D01*
X233397000Y-61407000D01*
X233380000Y-61404000D01*
X233363000Y-61402000D01*
X233347000Y-61400000D01*
X233725000Y-61400000D01*
X233725000Y-62125000D01*
G36*
X233725000Y-62125000D02*
G01*
X233330000Y-62125000D01*
X233330000Y-62050000D01*
X233347000Y-62050000D01*
X233363000Y-62048000D01*
X233380000Y-62046000D01*
X233397000Y-62043000D01*
X233413000Y-62039000D01*
X233429000Y-62034000D01*
X233445000Y-62029000D01*
X233460000Y-62022000D01*
X233475000Y-62015000D01*
X233490000Y-62007000D01*
X233504000Y-61998000D01*
X233518000Y-61989000D01*
X233531000Y-61979000D01*
X233544000Y-61968000D01*
X233556000Y-61956000D01*
X233568000Y-61944000D01*
X233579000Y-61931000D01*
X233589000Y-61918000D01*
X233598000Y-61904000D01*
X233607000Y-61890000D01*
X233615000Y-61875000D01*
X233622000Y-61860000D01*
X233629000Y-61845000D01*
X233634000Y-61829000D01*
X233639000Y-61813000D01*
X233643000Y-61797000D01*
X233646000Y-61780000D01*
X233648000Y-61763000D01*
X233650000Y-61747000D01*
X233650000Y-61730000D01*
X233650000Y-61720000D01*
X233650000Y-61703000D01*
X233648000Y-61687000D01*
X233646000Y-61670000D01*
X233643000Y-61653000D01*
X233639000Y-61637000D01*
X233634000Y-61621000D01*
X233629000Y-61605000D01*
X233622000Y-61590000D01*
X233615000Y-61575000D01*
X233607000Y-61560000D01*
X233598000Y-61546000D01*
X233589000Y-61532000D01*
X233579000Y-61519000D01*
X233568000Y-61506000D01*
X233556000Y-61494000D01*
X233544000Y-61482000D01*
X233531000Y-61471000D01*
X233518000Y-61461000D01*
X233504000Y-61452000D01*
X233490000Y-61443000D01*
X233475000Y-61435000D01*
X233460000Y-61428000D01*
X233445000Y-61421000D01*
X233429000Y-61416000D01*
X233413000Y-61411000D01*
X233397000Y-61407000D01*
X233380000Y-61404000D01*
X233363000Y-61402000D01*
X233347000Y-61400000D01*
X233725000Y-61400000D01*
X233725000Y-62125000D01*
G37*
X233287000Y-61402000D02*
X233270000Y-61404000D01*
X233253000Y-61407000D01*
X233237000Y-61411000D01*
X233221000Y-61416000D01*
X233205000Y-61421000D01*
X233190000Y-61428000D01*
X233175000Y-61435000D01*
X233160000Y-61443000D01*
X233146000Y-61452000D01*
X233132000Y-61461000D01*
X233119000Y-61471000D01*
X233106000Y-61482000D01*
X233094000Y-61494000D01*
X233082000Y-61506000D01*
X233071000Y-61519000D01*
X233061000Y-61532000D01*
X233052000Y-61546000D01*
X233043000Y-61560000D01*
X233035000Y-61575000D01*
X233028000Y-61590000D01*
X233021000Y-61605000D01*
X233016000Y-61621000D01*
X233011000Y-61637000D01*
X233007000Y-61653000D01*
X233004000Y-61670000D01*
X233002000Y-61687000D01*
X233000000Y-61703000D01*
X233000000Y-61720000D01*
X233000000Y-61737000D01*
X233002000Y-61754000D01*
X233004000Y-61772000D01*
X233007000Y-61789000D01*
X233011000Y-61805000D01*
X233016000Y-61822000D01*
X233022000Y-61838000D01*
X233029000Y-61854000D01*
X233036000Y-61870000D01*
X233044000Y-61885000D01*
X233053000Y-61900000D01*
X233063000Y-61914000D01*
X233074000Y-61928000D01*
X233085000Y-61941000D01*
X233097000Y-61953000D01*
X233109000Y-61965000D01*
X233122000Y-61976000D01*
X233136000Y-61987000D01*
X233150000Y-61997000D01*
X233165000Y-62006000D01*
X233180000Y-62014000D01*
X233196000Y-62021000D01*
X233212000Y-62028000D01*
X233228000Y-62034000D01*
X233245000Y-62039000D01*
X233261000Y-62043000D01*
X233278000Y-62046000D01*
X233296000Y-62048000D01*
X233313000Y-62050000D01*
X233330000Y-62050000D01*
X233330000Y-62125000D01*
X232925000Y-62125000D01*
X232925000Y-61400000D01*
X233303000Y-61400000D01*
X233287000Y-61402000D01*
G36*
X233287000Y-61402000D02*
G01*
X233270000Y-61404000D01*
X233253000Y-61407000D01*
X233237000Y-61411000D01*
X233221000Y-61416000D01*
X233205000Y-61421000D01*
X233190000Y-61428000D01*
X233175000Y-61435000D01*
X233160000Y-61443000D01*
X233146000Y-61452000D01*
X233132000Y-61461000D01*
X233119000Y-61471000D01*
X233106000Y-61482000D01*
X233094000Y-61494000D01*
X233082000Y-61506000D01*
X233071000Y-61519000D01*
X233061000Y-61532000D01*
X233052000Y-61546000D01*
X233043000Y-61560000D01*
X233035000Y-61575000D01*
X233028000Y-61590000D01*
X233021000Y-61605000D01*
X233016000Y-61621000D01*
X233011000Y-61637000D01*
X233007000Y-61653000D01*
X233004000Y-61670000D01*
X233002000Y-61687000D01*
X233000000Y-61703000D01*
X233000000Y-61720000D01*
X233000000Y-61737000D01*
X233002000Y-61754000D01*
X233004000Y-61772000D01*
X233007000Y-61789000D01*
X233011000Y-61805000D01*
X233016000Y-61822000D01*
X233022000Y-61838000D01*
X233029000Y-61854000D01*
X233036000Y-61870000D01*
X233044000Y-61885000D01*
X233053000Y-61900000D01*
X233063000Y-61914000D01*
X233074000Y-61928000D01*
X233085000Y-61941000D01*
X233097000Y-61953000D01*
X233109000Y-61965000D01*
X233122000Y-61976000D01*
X233136000Y-61987000D01*
X233150000Y-61997000D01*
X233165000Y-62006000D01*
X233180000Y-62014000D01*
X233196000Y-62021000D01*
X233212000Y-62028000D01*
X233228000Y-62034000D01*
X233245000Y-62039000D01*
X233261000Y-62043000D01*
X233278000Y-62046000D01*
X233296000Y-62048000D01*
X233313000Y-62050000D01*
X233330000Y-62050000D01*
X233330000Y-62125000D01*
X232925000Y-62125000D01*
X232925000Y-61400000D01*
X233303000Y-61400000D01*
X233287000Y-61402000D01*
G37*
X229675000Y-62125000D02*
X229270000Y-62125000D01*
X229270000Y-62050000D01*
X229287000Y-62050000D01*
X229304000Y-62048000D01*
X229322000Y-62046000D01*
X229339000Y-62043000D01*
X229355000Y-62039000D01*
X229372000Y-62034000D01*
X229388000Y-62028000D01*
X229404000Y-62021000D01*
X229420000Y-62014000D01*
X229435000Y-62006000D01*
X229450000Y-61997000D01*
X229464000Y-61987000D01*
X229478000Y-61976000D01*
X229491000Y-61965000D01*
X229503000Y-61953000D01*
X229515000Y-61941000D01*
X229526000Y-61928000D01*
X229537000Y-61914000D01*
X229547000Y-61900000D01*
X229556000Y-61885000D01*
X229564000Y-61870000D01*
X229571000Y-61854000D01*
X229578000Y-61838000D01*
X229584000Y-61822000D01*
X229589000Y-61805000D01*
X229593000Y-61789000D01*
X229596000Y-61772000D01*
X229598000Y-61754000D01*
X229600000Y-61737000D01*
X229600000Y-61720000D01*
X229600000Y-61703000D01*
X229598000Y-61687000D01*
X229596000Y-61670000D01*
X229593000Y-61653000D01*
X229589000Y-61637000D01*
X229584000Y-61621000D01*
X229579000Y-61605000D01*
X229572000Y-61590000D01*
X229565000Y-61575000D01*
X229557000Y-61560000D01*
X229548000Y-61546000D01*
X229539000Y-61532000D01*
X229529000Y-61519000D01*
X229518000Y-61506000D01*
X229506000Y-61494000D01*
X229494000Y-61482000D01*
X229481000Y-61471000D01*
X229468000Y-61461000D01*
X229454000Y-61452000D01*
X229440000Y-61443000D01*
X229425000Y-61435000D01*
X229410000Y-61428000D01*
X229395000Y-61421000D01*
X229379000Y-61416000D01*
X229363000Y-61411000D01*
X229347000Y-61407000D01*
X229330000Y-61404000D01*
X229313000Y-61402000D01*
X229297000Y-61400000D01*
X229675000Y-61400000D01*
X229675000Y-62125000D01*
G36*
X229675000Y-62125000D02*
G01*
X229270000Y-62125000D01*
X229270000Y-62050000D01*
X229287000Y-62050000D01*
X229304000Y-62048000D01*
X229322000Y-62046000D01*
X229339000Y-62043000D01*
X229355000Y-62039000D01*
X229372000Y-62034000D01*
X229388000Y-62028000D01*
X229404000Y-62021000D01*
X229420000Y-62014000D01*
X229435000Y-62006000D01*
X229450000Y-61997000D01*
X229464000Y-61987000D01*
X229478000Y-61976000D01*
X229491000Y-61965000D01*
X229503000Y-61953000D01*
X229515000Y-61941000D01*
X229526000Y-61928000D01*
X229537000Y-61914000D01*
X229547000Y-61900000D01*
X229556000Y-61885000D01*
X229564000Y-61870000D01*
X229571000Y-61854000D01*
X229578000Y-61838000D01*
X229584000Y-61822000D01*
X229589000Y-61805000D01*
X229593000Y-61789000D01*
X229596000Y-61772000D01*
X229598000Y-61754000D01*
X229600000Y-61737000D01*
X229600000Y-61720000D01*
X229600000Y-61703000D01*
X229598000Y-61687000D01*
X229596000Y-61670000D01*
X229593000Y-61653000D01*
X229589000Y-61637000D01*
X229584000Y-61621000D01*
X229579000Y-61605000D01*
X229572000Y-61590000D01*
X229565000Y-61575000D01*
X229557000Y-61560000D01*
X229548000Y-61546000D01*
X229539000Y-61532000D01*
X229529000Y-61519000D01*
X229518000Y-61506000D01*
X229506000Y-61494000D01*
X229494000Y-61482000D01*
X229481000Y-61471000D01*
X229468000Y-61461000D01*
X229454000Y-61452000D01*
X229440000Y-61443000D01*
X229425000Y-61435000D01*
X229410000Y-61428000D01*
X229395000Y-61421000D01*
X229379000Y-61416000D01*
X229363000Y-61411000D01*
X229347000Y-61407000D01*
X229330000Y-61404000D01*
X229313000Y-61402000D01*
X229297000Y-61400000D01*
X229675000Y-61400000D01*
X229675000Y-62125000D01*
G37*
X229237000Y-61402000D02*
X229220000Y-61404000D01*
X229203000Y-61407000D01*
X229187000Y-61411000D01*
X229171000Y-61416000D01*
X229155000Y-61421000D01*
X229140000Y-61428000D01*
X229125000Y-61435000D01*
X229110000Y-61443000D01*
X229096000Y-61452000D01*
X229082000Y-61461000D01*
X229069000Y-61471000D01*
X229056000Y-61482000D01*
X229044000Y-61494000D01*
X229032000Y-61506000D01*
X229021000Y-61519000D01*
X229011000Y-61532000D01*
X229002000Y-61546000D01*
X228993000Y-61560000D01*
X228985000Y-61575000D01*
X228978000Y-61590000D01*
X228971000Y-61605000D01*
X228966000Y-61621000D01*
X228961000Y-61637000D01*
X228957000Y-61653000D01*
X228954000Y-61670000D01*
X228952000Y-61687000D01*
X228950000Y-61703000D01*
X228950000Y-61720000D01*
X228950000Y-61730000D01*
X228950000Y-61747000D01*
X228952000Y-61763000D01*
X228954000Y-61780000D01*
X228957000Y-61797000D01*
X228961000Y-61813000D01*
X228966000Y-61829000D01*
X228971000Y-61845000D01*
X228978000Y-61860000D01*
X228985000Y-61875000D01*
X228993000Y-61890000D01*
X229002000Y-61904000D01*
X229011000Y-61918000D01*
X229021000Y-61931000D01*
X229032000Y-61944000D01*
X229044000Y-61956000D01*
X229056000Y-61968000D01*
X229069000Y-61979000D01*
X229082000Y-61989000D01*
X229096000Y-61998000D01*
X229110000Y-62007000D01*
X229125000Y-62015000D01*
X229140000Y-62022000D01*
X229155000Y-62029000D01*
X229171000Y-62034000D01*
X229187000Y-62039000D01*
X229203000Y-62043000D01*
X229220000Y-62046000D01*
X229237000Y-62048000D01*
X229253000Y-62050000D01*
X229270000Y-62050000D01*
X229270000Y-62125000D01*
X228875000Y-62125000D01*
X228875000Y-61400000D01*
X229253000Y-61400000D01*
X229237000Y-61402000D01*
G36*
X229237000Y-61402000D02*
G01*
X229220000Y-61404000D01*
X229203000Y-61407000D01*
X229187000Y-61411000D01*
X229171000Y-61416000D01*
X229155000Y-61421000D01*
X229140000Y-61428000D01*
X229125000Y-61435000D01*
X229110000Y-61443000D01*
X229096000Y-61452000D01*
X229082000Y-61461000D01*
X229069000Y-61471000D01*
X229056000Y-61482000D01*
X229044000Y-61494000D01*
X229032000Y-61506000D01*
X229021000Y-61519000D01*
X229011000Y-61532000D01*
X229002000Y-61546000D01*
X228993000Y-61560000D01*
X228985000Y-61575000D01*
X228978000Y-61590000D01*
X228971000Y-61605000D01*
X228966000Y-61621000D01*
X228961000Y-61637000D01*
X228957000Y-61653000D01*
X228954000Y-61670000D01*
X228952000Y-61687000D01*
X228950000Y-61703000D01*
X228950000Y-61720000D01*
X228950000Y-61730000D01*
X228950000Y-61747000D01*
X228952000Y-61763000D01*
X228954000Y-61780000D01*
X228957000Y-61797000D01*
X228961000Y-61813000D01*
X228966000Y-61829000D01*
X228971000Y-61845000D01*
X228978000Y-61860000D01*
X228985000Y-61875000D01*
X228993000Y-61890000D01*
X229002000Y-61904000D01*
X229011000Y-61918000D01*
X229021000Y-61931000D01*
X229032000Y-61944000D01*
X229044000Y-61956000D01*
X229056000Y-61968000D01*
X229069000Y-61979000D01*
X229082000Y-61989000D01*
X229096000Y-61998000D01*
X229110000Y-62007000D01*
X229125000Y-62015000D01*
X229140000Y-62022000D01*
X229155000Y-62029000D01*
X229171000Y-62034000D01*
X229187000Y-62039000D01*
X229203000Y-62043000D01*
X229220000Y-62046000D01*
X229237000Y-62048000D01*
X229253000Y-62050000D01*
X229270000Y-62050000D01*
X229270000Y-62125000D01*
X228875000Y-62125000D01*
X228875000Y-61400000D01*
X229253000Y-61400000D01*
X229237000Y-61402000D01*
G37*
%TO.C,SJ5*%
G36*
X249341000Y-80891000D02*
G01*
X247309000Y-80891000D01*
X247309000Y-78859000D01*
X249341000Y-78859000D01*
X249341000Y-80891000D01*
G37*
%TO.C,U3*%
D11*
X236820000Y-76925000D02*
X235310000Y-76925000D01*
X235310000Y-75415000D01*
X236820000Y-75415000D01*
X236820000Y-76925000D01*
G36*
X236820000Y-76925000D02*
G01*
X235310000Y-76925000D01*
X235310000Y-75415000D01*
X236820000Y-75415000D01*
X236820000Y-76925000D01*
G37*
X236820000Y-79055000D02*
X235310000Y-79055000D01*
X235310000Y-77545000D01*
X236820000Y-77545000D01*
X236820000Y-79055000D01*
G36*
X236820000Y-79055000D02*
G01*
X235310000Y-79055000D01*
X235310000Y-77545000D01*
X236820000Y-77545000D01*
X236820000Y-79055000D01*
G37*
X236820000Y-81185000D02*
X235310000Y-81185000D01*
X235310000Y-79675000D01*
X236820000Y-79675000D01*
X236820000Y-81185000D01*
G36*
X236820000Y-81185000D02*
G01*
X235310000Y-81185000D01*
X235310000Y-79675000D01*
X236820000Y-79675000D01*
X236820000Y-81185000D01*
G37*
X238950000Y-76925000D02*
X237440000Y-76925000D01*
X237440000Y-75415000D01*
X238950000Y-75415000D01*
X238950000Y-76925000D01*
G36*
X238950000Y-76925000D02*
G01*
X237440000Y-76925000D01*
X237440000Y-75415000D01*
X238950000Y-75415000D01*
X238950000Y-76925000D01*
G37*
X238950000Y-79055000D02*
X237440000Y-79055000D01*
X237440000Y-77545000D01*
X238950000Y-77545000D01*
X238950000Y-79055000D01*
G36*
X238950000Y-79055000D02*
G01*
X237440000Y-79055000D01*
X237440000Y-77545000D01*
X238950000Y-77545000D01*
X238950000Y-79055000D01*
G37*
X238950000Y-81185000D02*
X237440000Y-81185000D01*
X237440000Y-79675000D01*
X238950000Y-79675000D01*
X238950000Y-81185000D01*
G36*
X238950000Y-81185000D02*
G01*
X237440000Y-81185000D01*
X237440000Y-79675000D01*
X238950000Y-79675000D01*
X238950000Y-81185000D01*
G37*
X241080000Y-76925000D02*
X239570000Y-76925000D01*
X239570000Y-75415000D01*
X241080000Y-75415000D01*
X241080000Y-76925000D01*
G36*
X241080000Y-76925000D02*
G01*
X239570000Y-76925000D01*
X239570000Y-75415000D01*
X241080000Y-75415000D01*
X241080000Y-76925000D01*
G37*
X241080000Y-79055000D02*
X239570000Y-79055000D01*
X239570000Y-77545000D01*
X241080000Y-77545000D01*
X241080000Y-79055000D01*
G36*
X241080000Y-79055000D02*
G01*
X239570000Y-79055000D01*
X239570000Y-77545000D01*
X241080000Y-77545000D01*
X241080000Y-79055000D01*
G37*
X241080000Y-81185000D02*
X239570000Y-81185000D01*
X239570000Y-79675000D01*
X241080000Y-79675000D01*
X241080000Y-81185000D01*
G36*
X241080000Y-81185000D02*
G01*
X239570000Y-81185000D01*
X239570000Y-79675000D01*
X241080000Y-79675000D01*
X241080000Y-81185000D01*
G37*
%TO.C,SJ6*%
G36*
X229016000Y-80816000D02*
G01*
X226984000Y-80816000D01*
X226984000Y-78784000D01*
X229016000Y-78784000D01*
X229016000Y-80816000D01*
G37*
%TD*%
D12*
%TO.C,C4*%
X240900000Y-84945000D03*
X240900000Y-85905000D03*
%TD*%
D13*
%TO.C,Y1*%
X230175000Y-76875000D03*
X230175000Y-75375000D03*
%TD*%
D14*
%TO.C,J1*%
X254075000Y-67566920D03*
X253575000Y-67566920D03*
X253075000Y-67566920D03*
X252575000Y-67566920D03*
X252075000Y-67566920D03*
X251575000Y-67566920D03*
X251075000Y-67566920D03*
X250575000Y-67566920D03*
X250075000Y-67566920D03*
X249575000Y-67566920D03*
D15*
X255975000Y-64316920D03*
X247675000Y-64316920D03*
%TD*%
D16*
%TO.C,C18*%
X249020000Y-78175000D03*
X249980000Y-78175000D03*
%TD*%
D17*
%TO.C,C9*%
X248375000Y-87105000D03*
X248375000Y-86145000D03*
%TD*%
D18*
%TO.C,D1*%
X247385000Y-92700000D03*
X246415000Y-92700000D03*
%TD*%
D14*
%TO.C,J3*%
X224825000Y-67516920D03*
X224325000Y-67516920D03*
X223825000Y-67516920D03*
X223325000Y-67516920D03*
X222825000Y-67516920D03*
X222325000Y-67516920D03*
X221825000Y-67516920D03*
X221325000Y-67516920D03*
X220825000Y-67516920D03*
X220325000Y-67516920D03*
D15*
X226725000Y-64266920D03*
X218425000Y-64266920D03*
%TD*%
D19*
%TO.C,C2*%
X228430000Y-76900000D03*
X227470000Y-76900000D03*
%TD*%
D20*
%TO.C,R3*%
X245350000Y-94610000D03*
X245350000Y-93590000D03*
%TD*%
D21*
%TO.C,J2*%
X243850003Y-97950000D03*
X244350002Y-97950000D03*
X244850003Y-97950000D03*
X245350002Y-97950000D03*
X245850004Y-97950000D03*
X246350003Y-97950000D03*
D22*
X241950003Y-99875000D03*
X248249997Y-99875000D03*
%TD*%
D16*
%TO.C,C19*%
X246970000Y-78150000D03*
X247930000Y-78150000D03*
%TD*%
D23*
%TO.C,SW1*%
X233200000Y-63225000D03*
X229400000Y-63225000D03*
%TD*%
D17*
%TO.C,C7*%
X250550000Y-90405000D03*
X250550000Y-89445000D03*
%TD*%
D24*
%TO.C,U$1*%
X244000000Y-84650000D03*
X245450000Y-84650000D03*
X245450000Y-83500000D03*
X244000000Y-83500000D03*
%TD*%
D25*
%TO.C,R2*%
X228460000Y-78025000D03*
X227440000Y-78025000D03*
%TD*%
D12*
%TO.C,C5*%
X248375000Y-83845000D03*
X248375000Y-84805000D03*
%TD*%
D26*
%TO.C,FL1*%
X245488000Y-89925000D03*
D27*
X246750000Y-90675000D03*
D26*
X248013000Y-89925000D03*
D27*
X246750000Y-89175000D03*
%TD*%
D28*
%TO.C,U3*%
X234290000Y-75100000D03*
X234290000Y-75500000D03*
X234290000Y-75900000D03*
X234290000Y-76300000D03*
X234290000Y-76700000D03*
X234290000Y-77100000D03*
X234290000Y-77500000D03*
X234290000Y-77900000D03*
X234290000Y-78300000D03*
X234290000Y-78700000D03*
X234290000Y-79100000D03*
X234290000Y-79500000D03*
X234290000Y-79900000D03*
X234290000Y-80300000D03*
X234290000Y-80700000D03*
X234290000Y-81100000D03*
X234290000Y-81500000D03*
D29*
X234995000Y-82205000D03*
X235395000Y-82205000D03*
X235795000Y-82205000D03*
X236195000Y-82205000D03*
X236595000Y-82205000D03*
X236995000Y-82205000D03*
X237395000Y-82205000D03*
X237795000Y-82205000D03*
X238195000Y-82205000D03*
X238595000Y-82205000D03*
X238995000Y-82205000D03*
X239395000Y-82205000D03*
X239795000Y-82205000D03*
X240195000Y-82205000D03*
X240595000Y-82205000D03*
X240995000Y-82205000D03*
X241395000Y-82205000D03*
D28*
X242100000Y-81500000D03*
X242100000Y-81100000D03*
X242100000Y-80700000D03*
X242100000Y-80300000D03*
X242100000Y-79900000D03*
X242100000Y-79500000D03*
X242100000Y-79100000D03*
X242100000Y-78700000D03*
X242100000Y-78300000D03*
X242100000Y-77900000D03*
X242100000Y-77500000D03*
X242100000Y-77100000D03*
X242100000Y-76700000D03*
X242100000Y-76300000D03*
X242100000Y-75900000D03*
X242100000Y-75500000D03*
X242100000Y-75100000D03*
D29*
X241395000Y-74395000D03*
X240995000Y-74395000D03*
X240595000Y-74395000D03*
X240195000Y-74395000D03*
X239795000Y-74395000D03*
X239395000Y-74395000D03*
X238995000Y-74395000D03*
X238595000Y-74395000D03*
X238195000Y-74395000D03*
X237795000Y-74395000D03*
X237395000Y-74395000D03*
X236995000Y-74395000D03*
X236595000Y-74395000D03*
X236195000Y-74395000D03*
X235795000Y-74395000D03*
X235395000Y-74395000D03*
X234995000Y-74395000D03*
%TD*%
D30*
%TO.C,L3*%
X244965000Y-78125000D03*
X245935000Y-78125000D03*
%TD*%
%TO.C,L2*%
X249565000Y-85325000D03*
X250535000Y-85325000D03*
%TD*%
D19*
%TO.C,C3*%
X244380000Y-87575000D03*
X243420000Y-87575000D03*
%TD*%
%TO.C,C1*%
X228580000Y-75400000D03*
X227620000Y-75400000D03*
%TD*%
D31*
%TO.C,J4*%
X221325000Y-90505000D03*
X222425000Y-90705000D03*
X223525001Y-90505000D03*
X224625001Y-90305000D03*
X225724999Y-90505000D03*
X226824999Y-90305000D03*
X227925000Y-90505000D03*
X229025000Y-90505000D03*
D32*
X222324999Y-100805000D03*
X228025001Y-100805000D03*
D33*
X218599956Y-86655122D03*
X231750044Y-87655122D03*
%TD*%
D19*
%TO.C,C11*%
X245955000Y-77075000D03*
X244995000Y-77075000D03*
%TD*%
M02*
