%TF.GenerationSoftware,KiCad,Pcbnew,7.0.2*%
%TF.CreationDate,2023-05-15T11:36:50+02:00*%
%TF.ProjectId,PCB_Ewine,5043425f-4577-4696-9e65-2e6b69636164,rev?*%
%TF.SameCoordinates,Original*%
%TF.FileFunction,Legend,Top*%
%TF.FilePolarity,Positive*%
%FSLAX46Y46*%
G04 Gerber Fmt 4.6, Leading zero omitted, Abs format (unit mm)*
G04 Created by KiCad (PCBNEW 7.0.2) date 2023-05-15 11:36:50*
%MOMM*%
%LPD*%
G01*
G04 APERTURE LIST*
%ADD10C,0.150000*%
%ADD11C,0.120000*%
%ADD12C,0.127000*%
%ADD13C,0.200000*%
%ADD14C,0.152400*%
G04 APERTURE END LIST*
D10*
%TO.C,R8*%
X148262619Y-46866666D02*
X147786428Y-47199999D01*
X148262619Y-47438094D02*
X147262619Y-47438094D01*
X147262619Y-47438094D02*
X147262619Y-47057142D01*
X147262619Y-47057142D02*
X147310238Y-46961904D01*
X147310238Y-46961904D02*
X147357857Y-46914285D01*
X147357857Y-46914285D02*
X147453095Y-46866666D01*
X147453095Y-46866666D02*
X147595952Y-46866666D01*
X147595952Y-46866666D02*
X147691190Y-46914285D01*
X147691190Y-46914285D02*
X147738809Y-46961904D01*
X147738809Y-46961904D02*
X147786428Y-47057142D01*
X147786428Y-47057142D02*
X147786428Y-47438094D01*
X147691190Y-46295237D02*
X147643571Y-46390475D01*
X147643571Y-46390475D02*
X147595952Y-46438094D01*
X147595952Y-46438094D02*
X147500714Y-46485713D01*
X147500714Y-46485713D02*
X147453095Y-46485713D01*
X147453095Y-46485713D02*
X147357857Y-46438094D01*
X147357857Y-46438094D02*
X147310238Y-46390475D01*
X147310238Y-46390475D02*
X147262619Y-46295237D01*
X147262619Y-46295237D02*
X147262619Y-46104761D01*
X147262619Y-46104761D02*
X147310238Y-46009523D01*
X147310238Y-46009523D02*
X147357857Y-45961904D01*
X147357857Y-45961904D02*
X147453095Y-45914285D01*
X147453095Y-45914285D02*
X147500714Y-45914285D01*
X147500714Y-45914285D02*
X147595952Y-45961904D01*
X147595952Y-45961904D02*
X147643571Y-46009523D01*
X147643571Y-46009523D02*
X147691190Y-46104761D01*
X147691190Y-46104761D02*
X147691190Y-46295237D01*
X147691190Y-46295237D02*
X147738809Y-46390475D01*
X147738809Y-46390475D02*
X147786428Y-46438094D01*
X147786428Y-46438094D02*
X147881666Y-46485713D01*
X147881666Y-46485713D02*
X148072142Y-46485713D01*
X148072142Y-46485713D02*
X148167380Y-46438094D01*
X148167380Y-46438094D02*
X148215000Y-46390475D01*
X148215000Y-46390475D02*
X148262619Y-46295237D01*
X148262619Y-46295237D02*
X148262619Y-46104761D01*
X148262619Y-46104761D02*
X148215000Y-46009523D01*
X148215000Y-46009523D02*
X148167380Y-45961904D01*
X148167380Y-45961904D02*
X148072142Y-45914285D01*
X148072142Y-45914285D02*
X147881666Y-45914285D01*
X147881666Y-45914285D02*
X147786428Y-45961904D01*
X147786428Y-45961904D02*
X147738809Y-46009523D01*
X147738809Y-46009523D02*
X147691190Y-46104761D01*
%TO.C,C4*%
X151567380Y-42366666D02*
X151615000Y-42414285D01*
X151615000Y-42414285D02*
X151662619Y-42557142D01*
X151662619Y-42557142D02*
X151662619Y-42652380D01*
X151662619Y-42652380D02*
X151615000Y-42795237D01*
X151615000Y-42795237D02*
X151519761Y-42890475D01*
X151519761Y-42890475D02*
X151424523Y-42938094D01*
X151424523Y-42938094D02*
X151234047Y-42985713D01*
X151234047Y-42985713D02*
X151091190Y-42985713D01*
X151091190Y-42985713D02*
X150900714Y-42938094D01*
X150900714Y-42938094D02*
X150805476Y-42890475D01*
X150805476Y-42890475D02*
X150710238Y-42795237D01*
X150710238Y-42795237D02*
X150662619Y-42652380D01*
X150662619Y-42652380D02*
X150662619Y-42557142D01*
X150662619Y-42557142D02*
X150710238Y-42414285D01*
X150710238Y-42414285D02*
X150757857Y-42366666D01*
X150995952Y-41509523D02*
X151662619Y-41509523D01*
X150615000Y-41747618D02*
X151329285Y-41985713D01*
X151329285Y-41985713D02*
X151329285Y-41366666D01*
%TO.C,R5*%
X144333333Y-53362619D02*
X144000000Y-52886428D01*
X143761905Y-53362619D02*
X143761905Y-52362619D01*
X143761905Y-52362619D02*
X144142857Y-52362619D01*
X144142857Y-52362619D02*
X144238095Y-52410238D01*
X144238095Y-52410238D02*
X144285714Y-52457857D01*
X144285714Y-52457857D02*
X144333333Y-52553095D01*
X144333333Y-52553095D02*
X144333333Y-52695952D01*
X144333333Y-52695952D02*
X144285714Y-52791190D01*
X144285714Y-52791190D02*
X144238095Y-52838809D01*
X144238095Y-52838809D02*
X144142857Y-52886428D01*
X144142857Y-52886428D02*
X143761905Y-52886428D01*
X145238095Y-52362619D02*
X144761905Y-52362619D01*
X144761905Y-52362619D02*
X144714286Y-52838809D01*
X144714286Y-52838809D02*
X144761905Y-52791190D01*
X144761905Y-52791190D02*
X144857143Y-52743571D01*
X144857143Y-52743571D02*
X145095238Y-52743571D01*
X145095238Y-52743571D02*
X145190476Y-52791190D01*
X145190476Y-52791190D02*
X145238095Y-52838809D01*
X145238095Y-52838809D02*
X145285714Y-52934047D01*
X145285714Y-52934047D02*
X145285714Y-53172142D01*
X145285714Y-53172142D02*
X145238095Y-53267380D01*
X145238095Y-53267380D02*
X145190476Y-53315000D01*
X145190476Y-53315000D02*
X145095238Y-53362619D01*
X145095238Y-53362619D02*
X144857143Y-53362619D01*
X144857143Y-53362619D02*
X144761905Y-53315000D01*
X144761905Y-53315000D02*
X144714286Y-53267380D01*
%TO.C,M1*%
X134312381Y-52778095D02*
X134312381Y-51978095D01*
X134312381Y-51978095D02*
X134579047Y-52549523D01*
X134579047Y-52549523D02*
X134845714Y-51978095D01*
X134845714Y-51978095D02*
X134845714Y-52778095D01*
X135645714Y-52778095D02*
X135188571Y-52778095D01*
X135417143Y-52778095D02*
X135417143Y-51978095D01*
X135417143Y-51978095D02*
X135340952Y-52092380D01*
X135340952Y-52092380D02*
X135264762Y-52168571D01*
X135264762Y-52168571D02*
X135188571Y-52206666D01*
%TO.C,U2*%
X143562619Y-43661904D02*
X144372142Y-43661904D01*
X144372142Y-43661904D02*
X144467380Y-43614285D01*
X144467380Y-43614285D02*
X144515000Y-43566666D01*
X144515000Y-43566666D02*
X144562619Y-43471428D01*
X144562619Y-43471428D02*
X144562619Y-43280952D01*
X144562619Y-43280952D02*
X144515000Y-43185714D01*
X144515000Y-43185714D02*
X144467380Y-43138095D01*
X144467380Y-43138095D02*
X144372142Y-43090476D01*
X144372142Y-43090476D02*
X143562619Y-43090476D01*
X143657857Y-42661904D02*
X143610238Y-42614285D01*
X143610238Y-42614285D02*
X143562619Y-42519047D01*
X143562619Y-42519047D02*
X143562619Y-42280952D01*
X143562619Y-42280952D02*
X143610238Y-42185714D01*
X143610238Y-42185714D02*
X143657857Y-42138095D01*
X143657857Y-42138095D02*
X143753095Y-42090476D01*
X143753095Y-42090476D02*
X143848333Y-42090476D01*
X143848333Y-42090476D02*
X143991190Y-42138095D01*
X143991190Y-42138095D02*
X144562619Y-42709523D01*
X144562619Y-42709523D02*
X144562619Y-42090476D01*
%TO.C,R7*%
X144362619Y-46776666D02*
X143886428Y-47109999D01*
X144362619Y-47348094D02*
X143362619Y-47348094D01*
X143362619Y-47348094D02*
X143362619Y-46967142D01*
X143362619Y-46967142D02*
X143410238Y-46871904D01*
X143410238Y-46871904D02*
X143457857Y-46824285D01*
X143457857Y-46824285D02*
X143553095Y-46776666D01*
X143553095Y-46776666D02*
X143695952Y-46776666D01*
X143695952Y-46776666D02*
X143791190Y-46824285D01*
X143791190Y-46824285D02*
X143838809Y-46871904D01*
X143838809Y-46871904D02*
X143886428Y-46967142D01*
X143886428Y-46967142D02*
X143886428Y-47348094D01*
X143362619Y-46443332D02*
X143362619Y-45776666D01*
X143362619Y-45776666D02*
X144362619Y-46205237D01*
%TO.C,R6*%
X146433333Y-53362619D02*
X146100000Y-52886428D01*
X145861905Y-53362619D02*
X145861905Y-52362619D01*
X145861905Y-52362619D02*
X146242857Y-52362619D01*
X146242857Y-52362619D02*
X146338095Y-52410238D01*
X146338095Y-52410238D02*
X146385714Y-52457857D01*
X146385714Y-52457857D02*
X146433333Y-52553095D01*
X146433333Y-52553095D02*
X146433333Y-52695952D01*
X146433333Y-52695952D02*
X146385714Y-52791190D01*
X146385714Y-52791190D02*
X146338095Y-52838809D01*
X146338095Y-52838809D02*
X146242857Y-52886428D01*
X146242857Y-52886428D02*
X145861905Y-52886428D01*
X147290476Y-52362619D02*
X147100000Y-52362619D01*
X147100000Y-52362619D02*
X147004762Y-52410238D01*
X147004762Y-52410238D02*
X146957143Y-52457857D01*
X146957143Y-52457857D02*
X146861905Y-52600714D01*
X146861905Y-52600714D02*
X146814286Y-52791190D01*
X146814286Y-52791190D02*
X146814286Y-53172142D01*
X146814286Y-53172142D02*
X146861905Y-53267380D01*
X146861905Y-53267380D02*
X146909524Y-53315000D01*
X146909524Y-53315000D02*
X147004762Y-53362619D01*
X147004762Y-53362619D02*
X147195238Y-53362619D01*
X147195238Y-53362619D02*
X147290476Y-53315000D01*
X147290476Y-53315000D02*
X147338095Y-53267380D01*
X147338095Y-53267380D02*
X147385714Y-53172142D01*
X147385714Y-53172142D02*
X147385714Y-52934047D01*
X147385714Y-52934047D02*
X147338095Y-52838809D01*
X147338095Y-52838809D02*
X147290476Y-52791190D01*
X147290476Y-52791190D02*
X147195238Y-52743571D01*
X147195238Y-52743571D02*
X147004762Y-52743571D01*
X147004762Y-52743571D02*
X146909524Y-52791190D01*
X146909524Y-52791190D02*
X146861905Y-52838809D01*
X146861905Y-52838809D02*
X146814286Y-52934047D01*
%TO.C,C1*%
X139333333Y-43367380D02*
X139285714Y-43415000D01*
X139285714Y-43415000D02*
X139142857Y-43462619D01*
X139142857Y-43462619D02*
X139047619Y-43462619D01*
X139047619Y-43462619D02*
X138904762Y-43415000D01*
X138904762Y-43415000D02*
X138809524Y-43319761D01*
X138809524Y-43319761D02*
X138761905Y-43224523D01*
X138761905Y-43224523D02*
X138714286Y-43034047D01*
X138714286Y-43034047D02*
X138714286Y-42891190D01*
X138714286Y-42891190D02*
X138761905Y-42700714D01*
X138761905Y-42700714D02*
X138809524Y-42605476D01*
X138809524Y-42605476D02*
X138904762Y-42510238D01*
X138904762Y-42510238D02*
X139047619Y-42462619D01*
X139047619Y-42462619D02*
X139142857Y-42462619D01*
X139142857Y-42462619D02*
X139285714Y-42510238D01*
X139285714Y-42510238D02*
X139333333Y-42557857D01*
X140285714Y-43462619D02*
X139714286Y-43462619D01*
X140000000Y-43462619D02*
X140000000Y-42462619D01*
X140000000Y-42462619D02*
X139904762Y-42605476D01*
X139904762Y-42605476D02*
X139809524Y-42700714D01*
X139809524Y-42700714D02*
X139714286Y-42748333D01*
%TO.C,J1*%
X150466666Y-51662619D02*
X150466666Y-52376904D01*
X150466666Y-52376904D02*
X150419047Y-52519761D01*
X150419047Y-52519761D02*
X150323809Y-52615000D01*
X150323809Y-52615000D02*
X150180952Y-52662619D01*
X150180952Y-52662619D02*
X150085714Y-52662619D01*
X151466666Y-52662619D02*
X150895238Y-52662619D01*
X151180952Y-52662619D02*
X151180952Y-51662619D01*
X151180952Y-51662619D02*
X151085714Y-51805476D01*
X151085714Y-51805476D02*
X150990476Y-51900714D01*
X150990476Y-51900714D02*
X150895238Y-51948333D01*
%TO.C,U1*%
X140338095Y-49562619D02*
X140338095Y-50372142D01*
X140338095Y-50372142D02*
X140385714Y-50467380D01*
X140385714Y-50467380D02*
X140433333Y-50515000D01*
X140433333Y-50515000D02*
X140528571Y-50562619D01*
X140528571Y-50562619D02*
X140719047Y-50562619D01*
X140719047Y-50562619D02*
X140814285Y-50515000D01*
X140814285Y-50515000D02*
X140861904Y-50467380D01*
X140861904Y-50467380D02*
X140909523Y-50372142D01*
X140909523Y-50372142D02*
X140909523Y-49562619D01*
X141909523Y-50562619D02*
X141338095Y-50562619D01*
X141623809Y-50562619D02*
X141623809Y-49562619D01*
X141623809Y-49562619D02*
X141528571Y-49705476D01*
X141528571Y-49705476D02*
X141433333Y-49800714D01*
X141433333Y-49800714D02*
X141338095Y-49848333D01*
X141100026Y-49413880D02*
X141100026Y-49175785D01*
X141338121Y-49271023D02*
X141100026Y-49175785D01*
X141100026Y-49175785D02*
X140861931Y-49271023D01*
X141242883Y-48985309D02*
X141100026Y-49175785D01*
X141100026Y-49175785D02*
X140957169Y-48985309D01*
X141100027Y-48339119D02*
X141100027Y-48577214D01*
X140861932Y-48481976D02*
X141100027Y-48577214D01*
X141100027Y-48577214D02*
X141338122Y-48481976D01*
X140957170Y-48767690D02*
X141100027Y-48577214D01*
X141100027Y-48577214D02*
X141242884Y-48767690D01*
D11*
%TO.C,R8*%
X146137500Y-46872258D02*
X146137500Y-46397742D01*
X147182500Y-46872258D02*
X147182500Y-46397742D01*
%TO.C,C4*%
X149190000Y-43340580D02*
X149190000Y-43059420D01*
X150210000Y-43340580D02*
X150210000Y-43059420D01*
%TO.C,R5*%
X145322500Y-49647742D02*
X145322500Y-50122258D01*
X144277500Y-49647742D02*
X144277500Y-50122258D01*
D12*
%TO.C,M1*%
X139164860Y-49999170D02*
X138599170Y-49433490D01*
X138599170Y-50564860D02*
X139164860Y-49999170D01*
X138033490Y-49999170D02*
X138599170Y-50564860D01*
X138599169Y-49433490D02*
G75*
G03*
X138330470Y-43069530I-3603770J3035494D01*
G01*
X131669531Y-49730470D02*
G75*
G03*
X138033489Y-49999169I3328444J3334572D01*
G01*
X131669531Y-43069531D02*
G75*
G03*
X131669531Y-49730469I3330469J-3330469D01*
G01*
X138330470Y-43069530D02*
G75*
G03*
X131669530Y-43069530I-3330470J-3330469D01*
G01*
D13*
X140380000Y-46400000D02*
G75*
G03*
X140380000Y-46400000I-100000J0D01*
G01*
D11*
%TO.C,U2*%
X147960000Y-42862500D02*
X147960000Y-41062500D01*
X147960000Y-42862500D02*
X147960000Y-43662500D01*
X144840000Y-42862500D02*
X144840000Y-42062500D01*
X144840000Y-42862500D02*
X144840000Y-43662500D01*
%TO.C,R7*%
X144267500Y-46847258D02*
X144267500Y-46372742D01*
X145312500Y-46847258D02*
X145312500Y-46372742D01*
%TO.C,R6*%
X147182500Y-49647742D02*
X147182500Y-50122258D01*
X146137500Y-49647742D02*
X146137500Y-50122258D01*
%TO.C,C1*%
X141840580Y-42910000D02*
X141559420Y-42910000D01*
X141840580Y-41890000D02*
X141559420Y-41890000D01*
%TO.C,J1*%
X148480000Y-45905000D02*
X148480000Y-51105000D01*
X148480000Y-45905000D02*
X149122470Y-45905000D01*
X148480000Y-51105000D02*
X149122470Y-51105000D01*
X149737530Y-45905000D02*
X149940000Y-45905000D01*
X149737530Y-51105000D02*
X150392470Y-51105000D01*
X150700000Y-45840000D02*
X151650000Y-45840000D01*
X151007530Y-51105000D02*
X151650000Y-51105000D01*
X151460000Y-47235000D02*
X151650000Y-47235000D01*
X151650000Y-45840000D02*
X151650000Y-46600000D01*
X151650000Y-47235000D02*
X151650000Y-51105000D01*
D14*
%TO.C,U1*%
X143551000Y-49257500D02*
X143551000Y-43542500D01*
X143551000Y-43542500D02*
X140249000Y-43542500D01*
X140249000Y-49257500D02*
X143551000Y-49257500D01*
X140249000Y-43542500D02*
X140249000Y-49257500D01*
%TD*%
M02*
