%TF.GenerationSoftware,KiCad,Pcbnew,7.0.2*%
%TF.CreationDate,2023-05-15T11:36:50+02:00*%
%TF.ProjectId,PCB_Ewine,5043425f-4577-4696-9e65-2e6b69636164,rev?*%
%TF.SameCoordinates,Original*%
%TF.FileFunction,Copper,L1,Top*%
%TF.FilePolarity,Positive*%
%FSLAX46Y46*%
G04 Gerber Fmt 4.6, Leading zero omitted, Abs format (unit mm)*
G04 Created by KiCad (PCBNEW 7.0.2) date 2023-05-15 11:36:50*
%MOMM*%
%LPD*%
G01*
G04 APERTURE LIST*
G04 Aperture macros list*
%AMRoundRect*
0 Rectangle with rounded corners*
0 $1 Rounding radius*
0 $2 $3 $4 $5 $6 $7 $8 $9 X,Y pos of 4 corners*
0 Add a 4 corners polygon primitive as box body*
4,1,4,$2,$3,$4,$5,$6,$7,$8,$9,$2,$3,0*
0 Add four circle primitives for the rounded corners*
1,1,$1+$1,$2,$3*
1,1,$1+$1,$4,$5*
1,1,$1+$1,$6,$7*
1,1,$1+$1,$8,$9*
0 Add four rect primitives between the rounded corners*
20,1,$1+$1,$2,$3,$4,$5,0*
20,1,$1+$1,$4,$5,$6,$7,0*
20,1,$1+$1,$6,$7,$8,$9,0*
20,1,$1+$1,$8,$9,$2,$3,0*%
G04 Aperture macros list end*
%TA.AperFunction,SMDPad,CuDef*%
%ADD10RoundRect,0.200000X0.275000X-0.200000X0.275000X0.200000X-0.275000X0.200000X-0.275000X-0.200000X0*%
%TD*%
%TA.AperFunction,SMDPad,CuDef*%
%ADD11RoundRect,0.225000X0.250000X-0.225000X0.250000X0.225000X-0.250000X0.225000X-0.250000X-0.225000X0*%
%TD*%
%TA.AperFunction,SMDPad,CuDef*%
%ADD12RoundRect,0.200000X-0.275000X0.200000X-0.275000X-0.200000X0.275000X-0.200000X0.275000X0.200000X0*%
%TD*%
%TA.AperFunction,ComponentPad*%
%ADD13R,1.198000X1.198000*%
%TD*%
%TA.AperFunction,ComponentPad*%
%ADD14C,1.198000*%
%TD*%
%TA.AperFunction,SMDPad,CuDef*%
%ADD15RoundRect,0.150000X-0.150000X0.512500X-0.150000X-0.512500X0.150000X-0.512500X0.150000X0.512500X0*%
%TD*%
%TA.AperFunction,SMDPad,CuDef*%
%ADD16RoundRect,0.225000X0.225000X0.250000X-0.225000X0.250000X-0.225000X-0.250000X0.225000X-0.250000X0*%
%TD*%
%TA.AperFunction,ComponentPad*%
%ADD17R,1.000000X1.000000*%
%TD*%
%TA.AperFunction,ComponentPad*%
%ADD18O,1.000000X1.000000*%
%TD*%
%TA.AperFunction,SMDPad,CuDef*%
%ADD19R,0.508000X0.508000*%
%TD*%
%TA.AperFunction,ViaPad*%
%ADD20C,1.200000*%
%TD*%
%TA.AperFunction,Conductor*%
%ADD21C,0.400000*%
%TD*%
G04 APERTURE END LIST*
D10*
%TO.P,R8,1*%
%TO.N,/SDA_VL*%
X146660000Y-47460000D03*
%TO.P,R8,2*%
%TO.N,/SDA*%
X146660000Y-45810000D03*
%TD*%
D11*
%TO.P,C4,1*%
%TO.N,/5V*%
X149700000Y-43975000D03*
%TO.P,C4,2*%
%TO.N,/GND*%
X149700000Y-42425000D03*
%TD*%
D12*
%TO.P,R5,1*%
%TO.N,/SCL_VL*%
X144800000Y-49060000D03*
%TO.P,R5,2*%
%TO.N,/3.3V*%
X144800000Y-50710000D03*
%TD*%
D13*
%TO.P,M1,1,SCL/VZ*%
%TO.N,/SCL*%
X137540000Y-46400000D03*
D14*
%TO.P,M1,2,SDA/PWM*%
%TO.N,/SDA*%
X135000000Y-43860000D03*
%TO.P,M1,3,VDD*%
%TO.N,/3.6V*%
X132460000Y-46400000D03*
%TO.P,M1,4,VSS*%
%TO.N,/GND*%
X135000000Y-48940000D03*
%TD*%
D15*
%TO.P,U2,1,GND*%
%TO.N,/GND*%
X147350000Y-41725000D03*
%TO.P,U2,2,VO*%
%TO.N,/3.6V*%
X145450000Y-41725000D03*
%TO.P,U2,3,VI*%
%TO.N,/5V*%
X146400000Y-44000000D03*
%TD*%
D10*
%TO.P,R7,1*%
%TO.N,/SCL_VL*%
X144790000Y-47435000D03*
%TO.P,R7,2*%
%TO.N,/SCL*%
X144790000Y-45785000D03*
%TD*%
D12*
%TO.P,R6,1*%
%TO.N,/SDA_VL*%
X146660000Y-49060000D03*
%TO.P,R6,2*%
%TO.N,/3.3V*%
X146660000Y-50710000D03*
%TD*%
D16*
%TO.P,C1,1*%
%TO.N,/3.6V*%
X142475000Y-42400000D03*
%TO.P,C1,2*%
%TO.N,/GND*%
X140925000Y-42400000D03*
%TD*%
D17*
%TO.P,J1,1,Pin_1*%
%TO.N,/5V*%
X150700000Y-46600000D03*
D18*
%TO.P,J1,2,Pin_2*%
%TO.N,/SDA*%
X149430000Y-46600000D03*
%TO.P,J1,3,Pin_3*%
%TO.N,/GND*%
X150700000Y-47870000D03*
%TO.P,J1,4,Pin_4*%
%TO.N,/SCL*%
X149430000Y-47870000D03*
%TO.P,J1,5,Pin_5*%
%TO.N,unconnected-(J1-Pin_5-Pad5)*%
X150700000Y-49140000D03*
%TO.P,J1,6,Pin_6*%
%TO.N,/3.3V*%
X149430000Y-49140000D03*
%TO.P,J1,7,Pin_7*%
%TO.N,/GPIO_IRQ*%
X150700000Y-50410000D03*
%TO.P,J1,8,Pin_8*%
%TO.N,/XSHUT*%
X149430000Y-50410000D03*
%TD*%
D19*
%TO.P,U1,1,AVDDVCSEL*%
%TO.N,/3.3V*%
X141100027Y-47999999D03*
%TO.P,U1,2,AVSSVCSEL*%
%TO.N,/GND*%
X141100027Y-47200001D03*
%TO.P,U1,3,GND*%
X141100027Y-46400000D03*
%TO.P,U1,4,GND2*%
X141100027Y-45599999D03*
%TO.P,U1,5,XSHUT*%
%TO.N,/XSHUT*%
X141100027Y-44800001D03*
%TO.P,U1,6,GND3*%
%TO.N,/GND*%
X141900000Y-44800054D03*
%TO.P,U1,7,GPIO1*%
%TO.N,/GPIO_IRQ*%
X142699973Y-44800001D03*
%TO.P,U1,8,DNC*%
%TO.N,unconnected-(U1-DNC-Pad8)*%
X142699973Y-45599999D03*
%TO.P,U1,9,SDA*%
%TO.N,/SDA_VL*%
X142699973Y-46400000D03*
%TO.P,U1,10,SCL*%
%TO.N,/SCL_VL*%
X142699973Y-47200001D03*
%TO.P,U1,11,AVDD*%
%TO.N,/3.3V*%
X142699973Y-47999999D03*
%TO.P,U1,12,GND4*%
%TO.N,/GND*%
X141900000Y-47999946D03*
%TD*%
D20*
%TO.N,/3.6V*%
X138500000Y-41900000D03*
%TO.N,/XSHUT*%
X147855060Y-51300500D03*
%TO.N,/GPIO_IRQ*%
X144000000Y-44600000D03*
%TD*%
D21*
%TO.N,/SCL*%
X149430000Y-47870000D02*
X148443528Y-47870000D01*
X146136472Y-46610000D02*
X145311472Y-45785000D01*
X148443528Y-47870000D02*
X147183528Y-46610000D01*
X145311472Y-45785000D02*
X144790000Y-45785000D01*
X147183528Y-46610000D02*
X146136472Y-46610000D01*
%TO.N,/SDA*%
X146660000Y-45810000D02*
X148640000Y-45810000D01*
X148640000Y-45810000D02*
X149430000Y-46600000D01*
%TO.N,/3.6V*%
X142875000Y-42000000D02*
X142175000Y-41300000D01*
X142875000Y-42000000D02*
X142475000Y-42400000D01*
X142175000Y-41300000D02*
X140400000Y-41300000D01*
X145450000Y-41725000D02*
X143150000Y-41725000D01*
X134000000Y-41900000D02*
X132460000Y-43440000D01*
X140400000Y-41300000D02*
X139800000Y-41900000D01*
X143150000Y-41725000D02*
X142875000Y-42000000D01*
X138500000Y-41900000D02*
X134000000Y-41900000D01*
X132460000Y-43440000D02*
X132460000Y-46400000D01*
X139800000Y-41900000D02*
X138500000Y-41900000D01*
%TO.N,/GND*%
X141900000Y-45454054D02*
X141754055Y-45599999D01*
X141608029Y-47200001D02*
X141900000Y-47491972D01*
X141100027Y-47200001D02*
X141608029Y-47200001D01*
X141900000Y-44800054D02*
X141900000Y-45454054D01*
X151600000Y-44325000D02*
X149700000Y-42425000D01*
X141754055Y-45599999D02*
X141100027Y-45599999D01*
X151600000Y-47500000D02*
X151600000Y-44325000D01*
X150700000Y-47870000D02*
X151230000Y-47870000D01*
X141900000Y-43375000D02*
X141900000Y-44800054D01*
X140925000Y-42400000D02*
X141900000Y-43375000D01*
X136700000Y-44600000D02*
X135000000Y-46300000D01*
X135000000Y-46300000D02*
X135000000Y-48940000D01*
X141900000Y-47491972D02*
X141900000Y-47999946D01*
X149000000Y-41725000D02*
X149700000Y-42425000D01*
X151230000Y-47870000D02*
X151600000Y-47500000D01*
X138725000Y-44600000D02*
X136700000Y-44600000D01*
X147350000Y-41725000D02*
X149000000Y-41725000D01*
X140925000Y-42400000D02*
X138725000Y-44600000D01*
%TO.N,/3.3V*%
X146660000Y-50710000D02*
X148230000Y-49140000D01*
X142646054Y-48653946D02*
X142699973Y-48600027D01*
X142210000Y-49063946D02*
X141800000Y-48653946D01*
X144800000Y-50710000D02*
X142210000Y-50710000D01*
X141246000Y-48653946D02*
X141800000Y-48653946D01*
X141100027Y-47999999D02*
X141100027Y-48507973D01*
X148230000Y-49140000D02*
X149430000Y-49140000D01*
X141100027Y-48507973D02*
X141246000Y-48653946D01*
X142210000Y-50710000D02*
X142210000Y-49063946D01*
X144800000Y-50710000D02*
X146660000Y-50710000D01*
X141800000Y-48653946D02*
X142646054Y-48653946D01*
X142699973Y-48600027D02*
X142699973Y-47999999D01*
%TO.N,/XSHUT*%
X139900000Y-52100000D02*
X139900000Y-45346028D01*
X139900000Y-45346028D02*
X140446027Y-44800001D01*
X147855060Y-51300500D02*
X147055560Y-52100000D01*
X140446027Y-44800001D02*
X141100027Y-44800001D01*
X147055560Y-52100000D02*
X139900000Y-52100000D01*
%TO.N,/GPIO_IRQ*%
X144000000Y-44600000D02*
X142899974Y-44600000D01*
X142899974Y-44600000D02*
X142699973Y-44800001D01*
%TO.N,/SDA_VL*%
X146660000Y-49060000D02*
X146660000Y-47460000D01*
X146660000Y-47460000D02*
X146138528Y-47460000D01*
X143553974Y-46600001D02*
X143353973Y-46400000D01*
X143353973Y-46400000D02*
X142699973Y-46400000D01*
X146138528Y-47460000D02*
X145278529Y-46600001D01*
X145278529Y-46600001D02*
X143553974Y-46600001D01*
%TO.N,/SCL_VL*%
X144790000Y-47435000D02*
X144555001Y-47200001D01*
X144800000Y-47445000D02*
X144790000Y-47435000D01*
X144800000Y-49060000D02*
X144800000Y-47445000D01*
X144555001Y-47200001D02*
X142699973Y-47200001D01*
%TO.N,/5V*%
X146400000Y-44000000D02*
X149675000Y-44000000D01*
X149700000Y-43975000D02*
X150700000Y-44975000D01*
X150700000Y-44975000D02*
X150700000Y-46600000D01*
X149675000Y-44000000D02*
X149700000Y-43975000D01*
%TD*%
%TA.AperFunction,Conductor*%
%TO.N,/GND*%
G36*
X133746598Y-40920502D02*
G01*
X133793091Y-40974158D01*
X133803195Y-41044432D01*
X133773701Y-41109012D01*
X133733142Y-41140024D01*
X133699545Y-41156202D01*
X133686498Y-41161606D01*
X133650478Y-41174210D01*
X133618162Y-41194515D01*
X133605801Y-41201347D01*
X133571412Y-41217908D01*
X133541573Y-41241703D01*
X133530057Y-41249874D01*
X133497740Y-41270182D01*
X133497738Y-41270183D01*
X133497738Y-41270184D01*
X133465748Y-41302174D01*
X133170922Y-41597000D01*
X131940018Y-42827902D01*
X131940014Y-42827908D01*
X131830183Y-42937738D01*
X131809876Y-42970056D01*
X131801704Y-42981573D01*
X131777907Y-43011415D01*
X131761344Y-43045805D01*
X131754515Y-43058162D01*
X131734210Y-43090478D01*
X131721605Y-43126500D01*
X131716201Y-43139547D01*
X131699638Y-43173941D01*
X131691146Y-43211147D01*
X131687237Y-43224718D01*
X131674631Y-43260747D01*
X131670358Y-43298664D01*
X131667993Y-43312585D01*
X131659500Y-43349803D01*
X131659500Y-45450997D01*
X131639498Y-45519118D01*
X131618387Y-45544111D01*
X131569760Y-45588440D01*
X131435796Y-45765836D01*
X131336707Y-45964835D01*
X131275872Y-46178645D01*
X131255361Y-46400000D01*
X131275872Y-46621354D01*
X131336707Y-46835164D01*
X131435796Y-47034163D01*
X131500895Y-47120367D01*
X131569761Y-47211560D01*
X131734043Y-47361323D01*
X131923046Y-47478349D01*
X132130335Y-47558653D01*
X132348850Y-47599500D01*
X132348852Y-47599500D01*
X132571148Y-47599500D01*
X132571150Y-47599500D01*
X132789665Y-47558653D01*
X132996954Y-47478349D01*
X133185957Y-47361323D01*
X133350239Y-47211560D01*
X133484137Y-47034251D01*
X136340500Y-47034251D01*
X136340501Y-47038360D01*
X136341038Y-47042444D01*
X136341039Y-47042449D01*
X136355955Y-47155760D01*
X136416464Y-47301843D01*
X136512717Y-47427282D01*
X136638157Y-47523535D01*
X136638158Y-47523535D01*
X136638159Y-47523536D01*
X136784238Y-47584044D01*
X136901639Y-47599500D01*
X138178360Y-47599499D01*
X138295762Y-47584044D01*
X138441841Y-47523536D01*
X138441841Y-47523535D01*
X138441843Y-47523535D01*
X138567282Y-47427282D01*
X138663535Y-47301842D01*
X138663534Y-47301842D01*
X138663536Y-47301841D01*
X138724044Y-47155762D01*
X138739500Y-47038361D01*
X138739499Y-45761640D01*
X138724044Y-45644238D01*
X138667045Y-45506631D01*
X138663535Y-45498156D01*
X138567282Y-45372717D01*
X138441842Y-45276464D01*
X138295761Y-45215955D01*
X138182448Y-45201038D01*
X138182447Y-45201037D01*
X138178361Y-45200500D01*
X138174239Y-45200500D01*
X136905763Y-45200500D01*
X136905747Y-45200500D01*
X136901640Y-45200501D01*
X136897556Y-45201038D01*
X136897550Y-45201039D01*
X136784239Y-45215955D01*
X136638156Y-45276464D01*
X136512717Y-45372717D01*
X136416464Y-45498157D01*
X136355955Y-45644238D01*
X136341038Y-45757550D01*
X136340500Y-45761639D01*
X136340500Y-45765759D01*
X136340500Y-45765760D01*
X136340500Y-47034236D01*
X136340500Y-47034251D01*
X133484137Y-47034251D01*
X133484205Y-47034161D01*
X133583292Y-46835166D01*
X133644128Y-46621352D01*
X133664639Y-46400000D01*
X133644128Y-46178648D01*
X133583292Y-45964834D01*
X133484205Y-45765839D01*
X133484145Y-45765760D01*
X133350239Y-45588440D01*
X133301613Y-45544111D01*
X133264748Y-45483437D01*
X133260500Y-45450997D01*
X133260500Y-43823767D01*
X133280502Y-43755646D01*
X133297400Y-43734677D01*
X133640815Y-43391262D01*
X133703125Y-43357238D01*
X133773940Y-43362303D01*
X133830776Y-43404850D01*
X133855587Y-43471370D01*
X133851098Y-43514840D01*
X133816084Y-43637903D01*
X133815872Y-43638648D01*
X133798397Y-43827237D01*
X133795361Y-43860000D01*
X133815872Y-44081354D01*
X133876707Y-44295164D01*
X133975796Y-44494163D01*
X134015252Y-44546410D01*
X134109761Y-44671560D01*
X134274043Y-44821323D01*
X134400550Y-44899653D01*
X134429278Y-44917441D01*
X134463046Y-44938349D01*
X134670335Y-45018653D01*
X134888850Y-45059500D01*
X134888852Y-45059500D01*
X135111148Y-45059500D01*
X135111150Y-45059500D01*
X135329665Y-45018653D01*
X135536954Y-44938349D01*
X135725957Y-44821323D01*
X135890239Y-44671560D01*
X136024205Y-44494161D01*
X136123292Y-44295166D01*
X136184128Y-44081352D01*
X136204639Y-43860000D01*
X136184128Y-43638648D01*
X136123292Y-43424834D01*
X136024205Y-43225839D01*
X136023358Y-43224718D01*
X135890240Y-43048441D01*
X135890239Y-43048440D01*
X135748922Y-42919613D01*
X135712058Y-42858941D01*
X135713847Y-42787967D01*
X135753723Y-42729227D01*
X135819027Y-42701370D01*
X135833810Y-42700500D01*
X137547333Y-42700500D01*
X137615454Y-42720502D01*
X137632214Y-42733381D01*
X137773438Y-42862124D01*
X137773440Y-42862125D01*
X137773441Y-42862126D01*
X137962594Y-42979245D01*
X137962598Y-42979246D01*
X137962599Y-42979247D01*
X138170060Y-43059618D01*
X138388757Y-43100500D01*
X138388759Y-43100500D01*
X138611241Y-43100500D01*
X138611243Y-43100500D01*
X138829940Y-43059618D01*
X139037401Y-42979247D01*
X139037402Y-42979245D01*
X139037405Y-42979245D01*
X139133710Y-42919615D01*
X139226562Y-42862124D01*
X139367782Y-42733384D01*
X139431598Y-42702274D01*
X139452667Y-42700500D01*
X139853553Y-42700500D01*
X139921674Y-42720502D01*
X139968167Y-42774158D01*
X139973157Y-42786867D01*
X140031152Y-42961884D01*
X140121111Y-43107731D01*
X140242268Y-43228888D01*
X140388114Y-43318847D01*
X140550761Y-43372743D01*
X140647971Y-43382674D01*
X140654361Y-43383000D01*
X140671000Y-43383000D01*
X140671000Y-42272000D01*
X140691002Y-42203879D01*
X140744658Y-42157386D01*
X140797000Y-42146000D01*
X141053000Y-42146000D01*
X141121121Y-42166002D01*
X141167614Y-42219658D01*
X141179000Y-42272000D01*
X141179000Y-43383000D01*
X141195639Y-43383000D01*
X141202028Y-43382674D01*
X141299238Y-43372743D01*
X141461888Y-43318846D01*
X141557358Y-43259959D01*
X141625837Y-43241221D01*
X141693576Y-43262480D01*
X141702426Y-43268978D01*
X141802790Y-43349653D01*
X141963651Y-43429433D01*
X142137900Y-43472766D01*
X142178216Y-43475500D01*
X142180361Y-43475500D01*
X142769639Y-43475500D01*
X142771784Y-43475500D01*
X142812100Y-43472766D01*
X142986349Y-43429433D01*
X143147210Y-43349653D01*
X143287159Y-43237159D01*
X143399653Y-43097210D01*
X143479433Y-42936349D01*
X143522766Y-42762100D01*
X143525500Y-42721784D01*
X143525500Y-42651499D01*
X143545502Y-42583379D01*
X143599158Y-42536886D01*
X143651500Y-42525500D01*
X144525536Y-42525500D01*
X144593657Y-42545502D01*
X144632775Y-42585351D01*
X144707288Y-42706156D01*
X144831344Y-42830212D01*
X144976819Y-42919941D01*
X144980668Y-42922315D01*
X145147199Y-42977498D01*
X145147200Y-42977498D01*
X145147203Y-42977499D01*
X145249991Y-42988000D01*
X145450556Y-42987999D01*
X145518676Y-43008001D01*
X145565169Y-43061656D01*
X145575274Y-43131930D01*
X145567490Y-43153415D01*
X145569818Y-43154187D01*
X145510001Y-43334699D01*
X145500793Y-43424834D01*
X145499500Y-43437491D01*
X145499500Y-43440695D01*
X145499500Y-43440696D01*
X145499500Y-44559300D01*
X145499500Y-44559319D01*
X145499501Y-44562508D01*
X145499825Y-44565686D01*
X145499826Y-44565693D01*
X145510001Y-44665299D01*
X145514630Y-44679267D01*
X145517069Y-44750221D01*
X145480761Y-44811231D01*
X145417231Y-44842926D01*
X145353410Y-44837827D01*
X145317359Y-44825212D01*
X145281868Y-44812793D01*
X145224176Y-44771414D01*
X145198014Y-44705413D01*
X145198022Y-44682237D01*
X145198298Y-44679267D01*
X145205643Y-44600000D01*
X145185115Y-44378464D01*
X145124229Y-44164472D01*
X145025058Y-43965311D01*
X144890981Y-43787764D01*
X144726562Y-43637876D01*
X144726559Y-43637874D01*
X144726558Y-43637873D01*
X144537405Y-43520754D01*
X144329940Y-43440382D01*
X144314475Y-43437491D01*
X144111243Y-43399500D01*
X143888757Y-43399500D01*
X143753234Y-43424834D01*
X143670059Y-43440382D01*
X143462594Y-43520754D01*
X143273441Y-43637873D01*
X143272594Y-43638645D01*
X143132217Y-43766615D01*
X143068402Y-43797726D01*
X143047333Y-43799500D01*
X142809778Y-43799500D01*
X142772559Y-43807993D01*
X142758638Y-43810358D01*
X142720721Y-43814631D01*
X142684692Y-43827237D01*
X142671121Y-43831146D01*
X142633915Y-43839638D01*
X142599521Y-43856201D01*
X142586474Y-43861605D01*
X142550452Y-43874210D01*
X142518136Y-43894515D01*
X142505779Y-43901344D01*
X142471386Y-43917908D01*
X142470000Y-43919014D01*
X142464046Y-43921443D01*
X142458602Y-43924066D01*
X142458440Y-43923731D01*
X142404612Y-43945699D01*
X142406613Y-43945502D01*
X142404376Y-43945796D01*
X142404374Y-43945796D01*
X142403647Y-43945892D01*
X142403628Y-43945894D01*
X142289212Y-43960956D01*
X142143129Y-44021465D01*
X142017692Y-44117717D01*
X141999962Y-44140824D01*
X141942623Y-44182691D01*
X141871752Y-44186912D01*
X141809850Y-44152147D01*
X141800038Y-44140824D01*
X141782309Y-44117719D01*
X141782307Y-44117718D01*
X141782307Y-44117717D01*
X141656869Y-44021465D01*
X141510788Y-43960956D01*
X141397475Y-43946039D01*
X141397474Y-43946038D01*
X141393388Y-43945501D01*
X141389266Y-43945501D01*
X140810790Y-43945501D01*
X140810774Y-43945501D01*
X140806667Y-43945502D01*
X140802583Y-43946039D01*
X140802577Y-43946040D01*
X140689266Y-43960956D01*
X140619367Y-43989910D01*
X140571149Y-43999501D01*
X140355831Y-43999501D01*
X140318612Y-44007994D01*
X140304691Y-44010359D01*
X140266774Y-44014632D01*
X140230745Y-44027238D01*
X140217174Y-44031147D01*
X140179967Y-44039639D01*
X140145568Y-44056204D01*
X140132523Y-44061607D01*
X140096503Y-44074212D01*
X140064187Y-44094517D01*
X140051827Y-44101348D01*
X140017442Y-44117907D01*
X139987601Y-44141704D01*
X139976087Y-44149874D01*
X139943765Y-44170185D01*
X139852246Y-44261700D01*
X139852242Y-44261706D01*
X139380023Y-44733924D01*
X139380014Y-44733936D01*
X139270183Y-44843766D01*
X139249876Y-44876084D01*
X139241704Y-44887601D01*
X139217907Y-44917443D01*
X139201344Y-44951833D01*
X139194515Y-44964190D01*
X139174210Y-44996506D01*
X139161605Y-45032528D01*
X139156201Y-45045575D01*
X139139638Y-45079969D01*
X139131146Y-45117175D01*
X139127237Y-45130746D01*
X139114631Y-45166775D01*
X139110358Y-45204692D01*
X139107993Y-45218613D01*
X139099500Y-45255831D01*
X139099500Y-52047968D01*
X139098708Y-52062074D01*
X139094435Y-52099999D01*
X139099500Y-52144955D01*
X139114632Y-52279257D01*
X139174210Y-52449521D01*
X139270184Y-52602263D01*
X139397736Y-52729815D01*
X139443070Y-52758300D01*
X139550478Y-52825789D01*
X139720745Y-52885368D01*
X139900000Y-52905565D01*
X139937924Y-52901292D01*
X139952031Y-52900500D01*
X147145755Y-52900500D01*
X147160412Y-52897154D01*
X147182964Y-52892006D01*
X147196879Y-52889642D01*
X147234815Y-52885368D01*
X147270840Y-52872761D01*
X147284414Y-52868852D01*
X147321617Y-52860361D01*
X147321617Y-52860360D01*
X147321621Y-52860360D01*
X147356019Y-52843794D01*
X147369048Y-52838397D01*
X147405082Y-52825789D01*
X147437400Y-52805481D01*
X147449756Y-52798652D01*
X147484147Y-52782091D01*
X147513994Y-52758287D01*
X147525494Y-52750127D01*
X147557822Y-52729816D01*
X147685376Y-52602262D01*
X147749733Y-52537904D01*
X147812045Y-52503879D01*
X147838828Y-52501000D01*
X147966301Y-52501000D01*
X147966303Y-52501000D01*
X148185000Y-52460118D01*
X148392461Y-52379747D01*
X148392462Y-52379745D01*
X148392465Y-52379745D01*
X148487041Y-52321185D01*
X148581622Y-52262624D01*
X148746041Y-52112736D01*
X148880118Y-51935189D01*
X148979289Y-51736028D01*
X149026394Y-51570467D01*
X149064273Y-51510425D01*
X149128603Y-51480390D01*
X149170730Y-51481096D01*
X149328024Y-51510500D01*
X149328026Y-51510500D01*
X149531974Y-51510500D01*
X149531976Y-51510500D01*
X149732456Y-51473024D01*
X149922637Y-51399348D01*
X149998671Y-51352268D01*
X150067115Y-51333415D01*
X150131328Y-51352268D01*
X150207363Y-51399348D01*
X150397544Y-51473024D01*
X150598024Y-51510500D01*
X150598026Y-51510500D01*
X150801974Y-51510500D01*
X150801976Y-51510500D01*
X151002456Y-51473024D01*
X151192637Y-51399348D01*
X151366041Y-51291981D01*
X151516764Y-51154579D01*
X151639673Y-50991821D01*
X151730582Y-50809250D01*
X151786397Y-50613083D01*
X151805215Y-50410000D01*
X151786397Y-50206917D01*
X151730582Y-50010750D01*
X151641157Y-49831160D01*
X151628700Y-49761267D01*
X151641159Y-49718836D01*
X151730581Y-49539252D01*
X151734442Y-49525685D01*
X151786397Y-49343083D01*
X151805215Y-49140000D01*
X151786397Y-48936917D01*
X151730582Y-48740750D01*
X151639673Y-48558179D01*
X151591863Y-48494869D01*
X151566774Y-48428454D01*
X151581292Y-48359541D01*
X151635777Y-48257607D01*
X151676307Y-48124000D01*
X151147394Y-48124000D01*
X151101878Y-48115492D01*
X151002457Y-48076976D01*
X150987722Y-48074221D01*
X150997060Y-48064079D01*
X151043982Y-47957108D01*
X151053628Y-47840698D01*
X151024953Y-47727462D01*
X151007337Y-47700499D01*
X151235237Y-47700499D01*
X151239360Y-47700499D01*
X151356762Y-47685044D01*
X151500294Y-47625590D01*
X151548511Y-47616000D01*
X151676306Y-47616000D01*
X151662417Y-47570214D01*
X151661783Y-47499220D01*
X151683027Y-47456936D01*
X151724536Y-47402841D01*
X151785044Y-47256762D01*
X151800500Y-47139361D01*
X151800499Y-46060640D01*
X151785044Y-45943238D01*
X151743226Y-45842280D01*
X151724535Y-45797156D01*
X151628282Y-45671717D01*
X151549796Y-45611493D01*
X151507929Y-45554155D01*
X151500500Y-45511531D01*
X151500500Y-44884808D01*
X151500364Y-44884211D01*
X151492003Y-44847581D01*
X151489642Y-44833679D01*
X151485368Y-44795745D01*
X151472757Y-44759705D01*
X151468852Y-44746147D01*
X151466062Y-44733924D01*
X151460360Y-44708939D01*
X151443798Y-44674548D01*
X151438392Y-44661495D01*
X151425788Y-44625476D01*
X151405486Y-44593166D01*
X151398656Y-44580810D01*
X151382092Y-44546414D01*
X151382089Y-44546410D01*
X151358296Y-44516574D01*
X151350118Y-44505049D01*
X151329816Y-44472738D01*
X151219984Y-44362906D01*
X151219981Y-44362901D01*
X150812405Y-43955325D01*
X150778379Y-43893013D01*
X150775500Y-43866230D01*
X150775500Y-43680361D01*
X150775500Y-43678216D01*
X150772766Y-43637900D01*
X150729433Y-43463651D01*
X150649653Y-43302790D01*
X150568991Y-43202442D01*
X150541905Y-43136820D01*
X150554596Y-43066967D01*
X150559959Y-43057358D01*
X150618846Y-42961888D01*
X150672743Y-42799238D01*
X150682674Y-42702028D01*
X150683000Y-42695638D01*
X150683000Y-42679000D01*
X148717000Y-42679000D01*
X148717000Y-42695638D01*
X148717325Y-42702028D01*
X148727256Y-42799238D01*
X148781152Y-42961884D01*
X148809198Y-43007353D01*
X148827935Y-43075832D01*
X148806676Y-43143571D01*
X148752169Y-43189063D01*
X148701957Y-43199500D01*
X147324464Y-43199500D01*
X147256343Y-43179498D01*
X147217223Y-43139647D01*
X147142712Y-43018844D01*
X147132902Y-43009034D01*
X147098879Y-42946721D01*
X147096000Y-42919941D01*
X147096000Y-41979000D01*
X147604000Y-41979000D01*
X147604000Y-42892491D01*
X147763398Y-42846182D01*
X147906501Y-42761552D01*
X148024052Y-42644001D01*
X148108681Y-42500899D01*
X148155064Y-42341252D01*
X148157806Y-42306415D01*
X148158000Y-42301486D01*
X148158000Y-42171000D01*
X148717000Y-42171000D01*
X149446000Y-42171000D01*
X149446000Y-41467000D01*
X149954000Y-41467000D01*
X149954000Y-42171000D01*
X150683000Y-42171000D01*
X150683000Y-42154361D01*
X150682674Y-42147971D01*
X150672743Y-42050761D01*
X150618847Y-41888114D01*
X150528888Y-41742268D01*
X150407731Y-41621111D01*
X150261885Y-41531152D01*
X150099238Y-41477256D01*
X150002028Y-41467325D01*
X149995639Y-41467000D01*
X149954000Y-41467000D01*
X149446000Y-41467000D01*
X149404361Y-41467000D01*
X149397971Y-41467325D01*
X149300761Y-41477256D01*
X149138114Y-41531152D01*
X148992268Y-41621111D01*
X148871111Y-41742268D01*
X148781152Y-41888114D01*
X148727256Y-42050761D01*
X148717325Y-42147971D01*
X148717000Y-42154361D01*
X148717000Y-42171000D01*
X148158000Y-42171000D01*
X148158000Y-41979000D01*
X147604000Y-41979000D01*
X147096000Y-41979000D01*
X147096000Y-41597000D01*
X147116002Y-41528879D01*
X147169658Y-41482386D01*
X147222000Y-41471000D01*
X148157999Y-41471000D01*
X148157999Y-41148516D01*
X148157805Y-41143582D01*
X148155064Y-41108749D01*
X148141382Y-41061654D01*
X148141585Y-40990657D01*
X148180138Y-40931041D01*
X148244803Y-40901732D01*
X148262379Y-40900500D01*
X152073500Y-40900500D01*
X152141621Y-40920502D01*
X152188114Y-40974158D01*
X152199500Y-41026500D01*
X152199500Y-53373500D01*
X152179498Y-53441621D01*
X152125842Y-53488114D01*
X152073500Y-53499500D01*
X129976500Y-53499500D01*
X129908379Y-53479498D01*
X129861886Y-53425842D01*
X129850500Y-53373500D01*
X129850500Y-49881487D01*
X134417721Y-49881487D01*
X134504452Y-49935190D01*
X134695756Y-50009301D01*
X134897423Y-50047000D01*
X135102577Y-50047000D01*
X135304243Y-50009301D01*
X135495548Y-49935189D01*
X135582276Y-49881488D01*
X135000000Y-49299210D01*
X134999999Y-49299210D01*
X134417721Y-49881487D01*
X129850500Y-49881487D01*
X129850500Y-48939999D01*
X133888257Y-48939999D01*
X133907187Y-49144279D01*
X133963330Y-49341605D01*
X134054779Y-49525260D01*
X134055101Y-49525685D01*
X134055102Y-49525686D01*
X134579955Y-49000833D01*
X134655000Y-49000833D01*
X134696612Y-49115161D01*
X134774817Y-49208362D01*
X134880183Y-49269195D01*
X134969817Y-49285000D01*
X135030183Y-49285000D01*
X135119817Y-49269195D01*
X135225183Y-49208362D01*
X135303388Y-49115161D01*
X135345000Y-49000833D01*
X135345000Y-48939999D01*
X135359210Y-48939999D01*
X135944896Y-49525685D01*
X135945224Y-49525253D01*
X136036668Y-49341609D01*
X136092812Y-49144279D01*
X136111742Y-48939999D01*
X136092812Y-48735720D01*
X136036669Y-48538392D01*
X135945221Y-48354743D01*
X135944895Y-48354312D01*
X135359210Y-48939999D01*
X135345000Y-48939999D01*
X135345000Y-48879167D01*
X135303388Y-48764839D01*
X135225183Y-48671638D01*
X135119817Y-48610805D01*
X135030183Y-48595000D01*
X134969817Y-48595000D01*
X134880183Y-48610805D01*
X134774817Y-48671638D01*
X134696612Y-48764839D01*
X134655000Y-48879167D01*
X134655000Y-49000833D01*
X134579955Y-49000833D01*
X134640789Y-48939999D01*
X134640789Y-48939998D01*
X134055102Y-48354312D01*
X134054777Y-48354744D01*
X133963330Y-48538392D01*
X133907187Y-48735720D01*
X133888257Y-48939999D01*
X129850500Y-48939999D01*
X129850500Y-47998511D01*
X134417721Y-47998511D01*
X134999999Y-48580789D01*
X135000000Y-48580789D01*
X135582277Y-47998511D01*
X135495547Y-47944809D01*
X135304243Y-47870698D01*
X135102577Y-47833000D01*
X134897423Y-47833000D01*
X134695756Y-47870698D01*
X134504449Y-47944810D01*
X134417721Y-47998510D01*
X134417721Y-47998511D01*
X129850500Y-47998511D01*
X129850500Y-41026500D01*
X129870502Y-40958379D01*
X129924158Y-40911886D01*
X129976500Y-40900500D01*
X133678477Y-40900500D01*
X133746598Y-40920502D01*
G37*
%TD.AperFunction*%
%TA.AperFunction,Conductor*%
G36*
X141317456Y-45674502D02*
G01*
X141363949Y-45728158D01*
X141374053Y-45798432D01*
X141354027Y-45842280D01*
X141354027Y-46958968D01*
X141372455Y-46992716D01*
X141367390Y-47063531D01*
X141324843Y-47120367D01*
X141258323Y-47145178D01*
X141249334Y-47145499D01*
X140972027Y-47145499D01*
X140903906Y-47125497D01*
X140857413Y-47071841D01*
X140846027Y-47019499D01*
X140846027Y-45780500D01*
X140866029Y-45712379D01*
X140919685Y-45665886D01*
X140972023Y-45654500D01*
X141249335Y-45654500D01*
X141317456Y-45674502D01*
G37*
%TD.AperFunction*%
%TD*%
M02*
